<?xml version="1.0" standalone="no"?>
<!DOCTYPE svg PUBLIC "-//W3C//DTD SVG 1.1//EN" "http://www.w3.org/Graphics/SVG/1.1/DTD/svg11.dtd" >
<svg xmlns="http://www.w3.org/2000/svg">
<metadata></metadata>
<defs>
<font id="arista_2.0_alternateregular" horiz-adv-x="1158" >
<font-face units-per-em="2048" ascent="1638" descent="-410" />
<missing-glyph horiz-adv-x="492" />
<glyph horiz-adv-x="2048" />
<glyph horiz-adv-x="2048" />
<glyph unicode="&#xd;" horiz-adv-x="2048" />
<glyph unicode=" "  horiz-adv-x="492" />
<glyph unicode="&#x09;" horiz-adv-x="492" />
<glyph unicode="&#xa0;" horiz-adv-x="492" />
<glyph unicode="!" horiz-adv-x="446" d="M75 147q0 61 44 104.5t107 43.5q56 0 100 -43.5t44 -104.5q0 -59 -44 -103t-100 -44q-63 0 -107 44t-44 103zM75 513v738q0 63 44 106.5t107 43.5q56 0 100 -43t44 -107v-738q0 -64 -44 -106.5t-100 -42.5q-63 0 -107 42.5t-44 106.5z" />
<glyph unicode="&#x22;" horiz-adv-x="812" d="M77 979v274q0 61 44 104.5t105 43.5q63 0 104.5 -43t41.5 -105v-274q0 -61 -41.5 -104t-104.5 -43q-61 0 -105 43t-44 104zM441 979v274q0 61 44 104.5t105 43.5q63 0 104.5 -43t41.5 -105v-274q0 -61 -41.5 -104t-104.5 -43q-61 0 -105 43t-44 104z" />
<glyph unicode="#" horiz-adv-x="1301" d="M42 515q0 61 42.5 105t105.5 44h95l26 83q-63 0 -105.5 42.5t-42.5 107.5q0 59 42 101.5t106 42.5h92l82 258q17 59 72.5 86.5t115.5 10.5q57 -17 84 -72t12 -112l-56 -171h89l79 258q21 59 75 88t111 9q61 -15 90 -70t11 -114l-55 -171q61 0 105.5 -42.5t44.5 -101.5 q0 -63 -44 -106.5t-106 -43.5h-94l-24 -83q61 0 104 -43.5t43 -105.5q0 -61 -43 -105t-104 -44h-94l-84 -261q-17 -59 -72 -87.5t-114 -8.5q-59 17 -87.5 71t-8.5 113l55 173h-88l-84 -261q-17 -59 -71 -87.5t-113 -8.5q-59 17 -87 71t-9 113l55 173h-3q-63 0 -105.5 44 t-42.5 105zM598 664h86l26 83h-89z" />
<glyph unicode="$" horiz-adv-x="1171" d="M46 975q0 81 32.5 157.5t91 136t135.5 94.5q71 35 134 38q2 58 44 102q46 46 109 46t109 -46q44 -44 46 -102h200q59 0 100.5 -43t46.5 -107q0 -63 -42 -105t-105 -42h-200v-258q59 -6 114 -31q77 -33 136 -90.5t94.5 -136t35.5 -165.5q0 -86 -33.5 -162.5t-90 -133 t-133.5 -92.5q-65 -29 -123 -35q-4 -57 -46 -101q-46 -46 -109 -46t-109 46q-42 44 -44 101h-211q-65 0 -107 43t-42 106q0 59 43 102.5t106 43.5h211v257q-68 7 -130 35q-77 34 -134.5 89.5t-93 132t-35.5 166.5zM341 970q2 -50 38 -87q27 -25 60 -32v249q-33 -9 -60 -35 q-36 -38 -38 -95zM747 303q27 8 48 30q40 37 40 90q0 54 -40 90q-21 21 -48 31v-241z" />
<glyph unicode="%" horiz-adv-x="1846" d="M40 1039q6 151 120 256.5t267 105.5t260.5 -114t107.5 -271q0 -148 -107 -262t-261 -114q-171 4 -279 107.5t-108 291.5zM305 1023q0 -57 33.5 -87.5t84.5 -32.5q44 0 78 35t34 78q0 49 -34 83t-78 34q-49 0 -82.5 -33t-35.5 -77zM602 195l351 1104q17 59 71.5 88 t112.5 9q59 -17 87.5 -72t11.5 -112l-351 -1107q-17 -57 -73 -85.5t-113 -10.5q-57 17 -85.5 71t-11.5 115zM1052 406q6 150 120.5 255.5t267.5 105.5t260.5 -114t107.5 -270q0 -149 -107.5 -263t-260.5 -114q-171 5 -279.5 108t-108.5 292zM1317 391q0 -57 34 -88t84 -33 q44 0 78 34.5t34 78.5q0 48 -34 82.5t-78 34.5q-48 0 -82 -33t-36 -76z" />
<glyph unicode="&#x26;" horiz-adv-x="1316" d="M68 435q3 82 37.5 162t107.5 146q-53 52 -84 121t-31 150q0 80 31 150t82.5 122.5t121.5 82t150 29.5q125 0 215.5 -67.5t132 -169t26 -214t-102.5 -204.5q-12 -11 -25.5 -22t-25.5 -22l121 -107l114 127q38 44 93.5 46t97.5 -35q44 -38 46 -93.5t-35 -99.5l-110 -125 l206 -178q42 -37 45 -94t-34 -98q-38 -44 -95.5 -46t-97.5 35l-203 178l-86 -102q-57 -50 -128.5 -78.5t-153.5 -28.5q-97 0 -176 37.5t-132.5 98.5t-81.5 139t-25 160zM337 421q0 -59 42 -102t104 -43q58 0 100 42l61 67l-197 176q-48 -13 -79 -51.5t-31 -88.5zM372 1014 q0 -37 29.5 -73t81.5 -36q46 0 78.5 31.5t32.5 77.5t-32.5 79.5t-78.5 33.5t-78.5 -33.5t-32.5 -79.5z" />
<glyph unicode="'" horiz-adv-x="437" d="M71 984v274q0 61 43.5 104t104.5 43q63 0 105 -43t42 -104v-274q0 -61 -42 -104t-105 -43q-61 0 -104.5 42.5t-43.5 104.5z" />
<glyph unicode="(" horiz-adv-x="847" d="M59 241v625q0 107 44 203.5t117 171t171 118.5t207 44h29q63 0 106 -43t43 -104q0 -63 -43 -105t-106 -42q-55 0 -103.5 -30.5t-85.5 -78t-59 -105.5t-22 -111v-512q0 -53 22 -102t59 -87.5t85.5 -60.5t103.5 -22q63 0 106 -41.5t43 -105.5q0 -61 -43 -103.5t-106 -42.5 h-29q-109 0 -207 43t-171 117t-117 171.5t-44 202.5z" />
<glyph unicode=")" horiz-adv-x="849" d="M75 -147q0 64 42.5 105.5t106.5 41.5q54 0 102 22t85.5 60.5t59.5 87.5t22 102v512q0 53 -22 111t-59.5 105.5t-85.5 78t-102 30.5q-64 0 -106.5 41.5t-42.5 105.5q0 61 42.5 104t106.5 43h29q107 0 205 -44t171.5 -118.5t117.5 -171t44 -203.5v-625q0 -105 -44 -202.5 t-117.5 -171.5t-171.5 -117t-205 -43h-29q-64 0 -106.5 42t-42.5 104z" />
<glyph unicode="*" horiz-adv-x="807" d="M66 1046.5q11 51.5 55 82.5q-44 31 -55 84.5t17 103.5q31 48 81.5 63.5t100.5 -8.5q7 56 45.5 92.5t95.5 36.5q56 0 95.5 -36.5t46.5 -88.5q50 19 99.5 3t77.5 -62q29 -50 17 -104t-56 -84q44 -31 56 -82.5t-17 -99.5q-31 -48 -79 -66t-98 2q-7 -53 -46.5 -87.5 t-95.5 -34.5q-57 0 -95.5 34.5t-45.5 89.5q-50 -25 -101 -6.5t-81 68.5q-28 48 -17 99.5z" />
<glyph unicode="+" horiz-adv-x="906" d="M29 657q0 63 41 106.5t105 43.5h130v128q0 63 43 106.5t106 43.5q61 0 104.5 -43t43.5 -107v-128h128q63 0 107 -43t44 -107q0 -61 -44 -105t-107 -44h-128v-127q0 -63 -43.5 -107t-104.5 -44q-63 0 -106 44t-43 107v127h-130q-63 0 -104.5 44t-41.5 105z" />
<glyph unicode="," horiz-adv-x="437" d="M71 -123v274q0 59 42.5 103.5t103.5 44.5q63 0 107 -44t44 -104v-274q0 -61 -44 -104t-107 -43q-61 0 -103.5 43t-42.5 104z" />
<glyph unicode="-" horiz-adv-x="996" d="M73 659q0 63 41 106.5t105 43.5h559q61 0 103.5 -43.5t42.5 -106.5q0 -61 -42.5 -105t-103.5 -44h-559q-63 0 -104.5 44t-41.5 105z" />
<glyph unicode="." horiz-adv-x="411" d="M57 149q0 61 42.5 105.5t103.5 44.5q63 0 107.5 -44.5t44.5 -105.5t-43.5 -105t-108.5 -44q-61 0 -103.5 44t-42.5 105z" />
<glyph unicode="/" horiz-adv-x="707" d="M37 193l350 1104q17 59 74 87.5t114 9.5q56 -17 84.5 -72t11.5 -113l-351 -1106q-17 -57 -72 -85.5t-112 -11.5q-59 18 -88 72t-11 115z" />
<glyph unicode="0" horiz-adv-x="1171" d="M57 531q0 109 40.5 204t111.5 166.5t169 114t209 47.5q107 0 203.5 -42t169.5 -114t115 -168.5t42 -207.5q0 -109 -41 -205t-112.5 -168t-168 -114t-208.5 -42q-109 0 -205.5 39.5t-169 111t-114 167.5t-41.5 211zM341 531q0 -51 20 -95.5t54 -79t78 -54.5t94 -20 q51 0 96 20t77.5 54.5t52 79t19.5 95.5q-4 100 -72 170t-173 75q-50 0 -94 -19t-78 -51.5t-54 -77.5t-20 -97z" />
<glyph unicode="1" horiz-adv-x="623" d="M29.5 836.5q14.5 58.5 68.5 87.5q230 149 289 150q63 0 110 -46t47 -110v-774q0 -58 -42 -101t-101 -43h-27q-60 0 -102 43t-42 101v525q-46 -25 -98 -10q-57 15 -86 69q-31 50 -16.5 108.5z" />
<glyph unicode="2" horiz-adv-x="1066" d="M65 168.5q2 57.5 75 105.5l487 359q37 27 40 64q-3 48 -37 72t-99 22q-59 0 -105.5 -33t-74.5 -81q-25 -37 -55.5 -62t-78.5 -25q-61 0 -105.5 43.5t-44.5 104.5q0 59 48 131t139 125.5t152 65t107 11.5q116 0 193.5 -24t140.5 -75.5t101.5 -121.5t38.5 -162 q0 -136 -121 -224l-233 -169h224q59 0 103 -41t44 -105q0 -61 -44 -105t-103 -44h-642q-42 2 -76 24t-55 54.5t-19 90z" />
<glyph unicode="3" horiz-adv-x="1077" d="M61.5 7q3.5 37 21.5 67.5t50 50t74 19.5q56 0 100 -43q27 -20 43 -44t36 -46t47 -36.5t96 -14.5q83 0 138.5 56.5t55.5 138.5q0 81 -56 137.5t-138 56.5h-80q-12 -2 -26 -2q-11 0 -20 2h3h-3q-48 6 -83 44q-46 44 -46 103.5t44 103.5l175 178h-232q-63 0 -105.5 44 t-42.5 105q0 63 42 106t106 43h536q19 0 38 -5q50 -3 92 -41q43 -48 43 -109.5t-41 -105.5l-212 -213q85 -37 153 -100q67 -65 108 -154t41 -193q0 -103 -38 -191.5t-105 -155.5t-157 -105t-190 -38q-82 0 -150 20t-129.5 54.5t-110.5 84t-68 111.5q-13 35 -9.5 72z" />
<glyph unicode="4" horiz-adv-x="1007" d="M29 149v2l243 828q29 57 79 84.5t107 5.5q59 -21 89 -80.5t-1 -114.5l-193 -579h197q2 59 45 101.5t99 42.5q64 0 106.5 -42t45.5 -102q57 -4 97.5 -47t40.5 -99q0 -59 -40.5 -102t-97.5 -47v-217q0 -40 -43.5 -82t-108.5 -42q-58 0 -101 42t-43 82v217h-375 q-61 0 -103.5 43t-42.5 106z" />
<glyph unicode="5" horiz-adv-x="1068" d="M67 504v420q0 64 44 107t106 43h544q63 0 106 -42.5t43 -107.5q0 -61 -43 -103.5t-106 -42.5h-404v-125h166q97 -2 185.5 -39t156.5 -103t108.5 -154.5t40.5 -191.5q0 -111 -38 -200.5t-104.5 -156.5t-156.5 -105t-192 -38q-70 0 -132.5 20t-123 54.5t-110.5 84 t-69 111.5q-13 35 -9 72t22 67.5t49.5 50t73.5 19.5q56 0 100 -43q27 -20 43 -44t36 -46t47 -36.5t73 -14.5q84 0 140 56.5t56 148.5q0 81 -56 136.5t-140 55.5h-306q-57 0 -103.5 43t-46.5 104z" />
<glyph unicode="6" d="M55.5 600q11.5 105 65.5 197l322 562q31 48 87.5 58.5t102.5 -14.5q53 -31 68.5 -88t-13.5 -106l-81 -142q123 -9 239 -76q99 -55 162 -140.5t88.5 -183.5t12.5 -201.5t-68 -197.5q-54 -97 -139 -159.5t-183 -88.5t-202.5 -14t-198.5 67q-94 52 -157 139t-90 185 t-15.5 203zM338 564q-5 -47 7 -92t40.5 -85t74.5 -67q44 -25 91 -30t92 7t84.5 40.5t65.5 72.5q24 44 30.5 92t-5 94t-39.5 85.5t-74 65.5q-42 24 -90 29.5t-94 -5t-85 -40.5t-66 -76q-27 -44 -32 -91z" />
<glyph unicode="7" horiz-adv-x="1097" d="M57 924q0 61 43.5 105.5t102.5 44.5h728q42 -2 76 -24t53 -56t19 -69.5t-25 -89.5l-600 -1096q-42 -55 -104.5 -64.5t-113.5 22.5q-50 33 -61.5 91.5t20.5 108.5l478 881h-470q-59 0 -102.5 41.5t-43.5 104.5z" />
<glyph unicode="8" horiz-adv-x="1095" d="M52 495q0 101 38.5 191t104.5 155q15 15 31 29q-42 81 -42 197q6 142 114 242t250 100q144 0 246.5 -107.5t102.5 -251.5q0 -90 -40 -167q21 -17 42 -37q67 -65 106.5 -156.5t39.5 -194.5q0 -102 -39.5 -192t-105 -157t-156.5 -106.5t-194 -39.5t-194 37.5t-157.5 104.5 t-106.5 156t-40 197zM351 495q0 -43 16 -78.5t44 -63t61.5 -44t77.5 -16.5q42 0 76.5 16.5t61.5 44t43 63t16 78.5q-4 82 -59 137.5t-138 59.5q-44 0 -77.5 -15.5t-61.5 -41.5t-44 -62t-16 -78zM445 1056q0 -52 29.5 -80.5t77.5 -28.5q42 0 71.5 30.5t29.5 72.5 q0 44 -29.5 74.5t-71.5 30.5q-44 0 -74.5 -28.5t-32.5 -70.5z" />
<glyph unicode="9" d="M50 610.5q13 104.5 69 198.5q54 96 138 158.5t183 89t203 14t198 -66.5q94 -53 156.5 -139.5t90 -185t15.5 -204t-64 -197.5l-322 -560q-31 -49 -88 -60t-103 16q-52 31 -67.5 87.5t12.5 104.5l81 143q-123 8 -238 77q-99 54 -162.5 139.5t-89 183t-12.5 202z M334.5 574.5q-6.5 -48.5 6 -94.5t40 -85.5t73.5 -66.5q41 -24 89.5 -29.5t94.5 6t85 40.5t66 76q26 43 31.5 90.5t-6.5 92t-40.5 85.5t-74.5 67q-44 25 -91 30t-92 -7t-84 -40.5t-66 -71.5q-25 -44 -31.5 -92.5z" />
<glyph unicode=":" horiz-adv-x="426" d="M65 149q0 61 43 105.5t105 44.5q63 0 107 -44.5t44 -105.5t-44 -105t-107 -44q-61 0 -104.5 44t-43.5 105zM65 914q0 61 43 105t105 44q63 0 107 -44t44 -105t-44 -105t-107 -44q-61 0 -104.5 44t-43.5 105z" />
<glyph unicode=";" horiz-adv-x="437" d="M71 -123q0 -61 42 -104t104 -43q63 0 107 43t44 104v274q0 59 -44 103.5t-107 44.5q-61 0 -103.5 -44t-42.5 -104v-274zM71 914q0 61 42 105t104 44q63 0 107 -44t44 -105t-44 -105t-107 -44q-61 0 -103.5 44t-42.5 105z" />
<glyph unicode="&#x3c;" horiz-adv-x="847" d="M18 657.5q1 39.5 19 74.5t49 50l477 255q52 29 109.5 11t86.5 -71t9.5 -109.5t-71.5 -85.5l-237 -127l237 -124q52 -29 70.5 -86.5t-8.5 -109.5q-29 -53 -86.5 -70.5t-109.5 11.5l-477 253q-36 17 -52.5 53t-15.5 75.5z" />
<glyph unicode="=" horiz-adv-x="976" d="M75 583q0 59 41 102t103 43h542q59 0 100.5 -43t41.5 -102t-41.5 -101.5t-100.5 -42.5h-542q-61 0 -102.5 42t-41.5 102zM75 962q0 59 41 101.5t103 42.5h542q59 0 100.5 -42.5t41.5 -101.5t-41.5 -102t-100.5 -43h-542q-61 0 -102.5 43t-41.5 102z" />
<glyph unicode="&#x3e;" horiz-adv-x="847" d="M79.5 444.5q18.5 57.5 71.5 86.5l236 124l-236 127q-53 29 -71.5 85.5t10.5 109.5q29 52 85.5 70t109.5 -10l478 -255q31 -15 48 -50t18 -74.5t-15.5 -75.5t-50.5 -53l-478 -253q-53 -29 -109.5 -11.5t-85.5 70.5q-29 52 -10.5 109.5z" />
<glyph unicode="?" horiz-adv-x="961" d="M44 941q0 87 31.5 170t90 148t140.5 103.5t183 38.5q92 0 171.5 -35.5t141 -94.5t96.5 -140t35 -173q0 -77 -23 -144t-64 -124q-56 -77 -143.5 -126t-189.5 -54v-2q0 -59 -43 -102.5t-106 -43.5q-61 0 -103 43.5t-42 102.5v149v16q0 57 44 94.5t101 41.5h144 q55 6 92.5 49t37.5 100q0 63 -44 107t-105 44q-63 0 -107.5 -44t-44.5 -107q0 -61 -44 -104t-105 -43q-56 0 -98 36t-46 94zM219 147q0 58 42 101t101 43q61 0 103.5 -43t42.5 -101q0 -61 -42.5 -104t-103.5 -43q-59 0 -101 43t-42 104z" />
<glyph unicode="@" horiz-adv-x="1603" d="M55 646q0 155 59 292.5t161 239.5t239.5 161t292.5 59t291 -59t237.5 -161t161 -239t59.5 -293q0 -44 -3.5 -90t-18.5 -89q-31 -93 -112 -151.5t-186 -62.5q-114 0 -201 73q-101 -75 -228 -73q-79 0 -150.5 30.5t-125.5 84t-86.5 124.5t-32.5 154q0 82 30.5 154 t84.5 125.5t126 84.5t154 31q103 0 188.5 -48t137.5 -127q31 -49 48 -103.5t17 -116.5q0 -19 -3 -37.5t-3 -36.5q0 -41 42 -41q13 0 24 9.5t15 22.5q7 39 7 83q0 132 -63 235q-61 107 -170 173t-240 66q-99 0 -184.5 -37.5t-150 -102t-102 -150t-37.5 -184.5 q0 -98 37.5 -183.5t102 -150.5t150 -102t184.5 -37q77 0 140 22q29 10 57 12q56 0 97 -41t41 -99q0 -43 -26.5 -79t-70.5 -53q-116 -40 -238 -40q-155 0 -292.5 59t-239.5 161t-161 239t-59 292zM690 646q0 -48 33 -81.5t84 -33.5q48 0 81.5 33.5t33.5 81.5t-33.5 82.5 t-81.5 34.5q-51 0 -84 -34.5t-33 -82.5z" />
<glyph unicode="A" horiz-adv-x="1246" d="M57 199l430 1103q17 40 56.5 68t81.5 28q44 0 82 -26.5t56 -69.5l427 -1103q10 -27 10 -53q0 -30 -13 -60q-24 -56 -81 -80q-26 -10 -51 -10l-61 14q-56 25 -78 84l-19 48h-546l-18 -48q-22 -59 -78 -84q-30 -14 -61 -14q-26 0 -52 10q-56 24 -82 80q-14 30 -13 61 q0 26 10 52zM443 379h362l-180 464z" />
<glyph unicode="B" horiz-adv-x="1221" d="M81 147v1102q0 59 43 103t106 44h502q85 0 161.5 -33t133 -88.5t89 -132.5t32.5 -163q0 -77 -26 -145.5t-72 -123.5q50 -56 78.5 -128t28.5 -155q0 -90 -34 -167.5t-91 -135t-136 -91t-166 -33.5h-500q-63 0 -106 43t-43 104zM374 289h356q56 0 97 40.5t41 97.5 q0 55 -38.5 94.5t-99.5 43.5q-59 0 -102 43.5t-43 101.5q0 59 43 102t102 43q54 4 89.5 40t35.5 87t-36.5 86.5t-86.5 35.5h-358v-815z" />
<glyph unicode="C" horiz-adv-x="1373" d="M52 701q0 144 55.5 271.5t149.5 222.5t222 150.5t272 55.5q165 0 305 -71.5t237 -189.5q24 -37 24 -70v-5q0 -59 -46 -103t-108 -46q-61 2 -87 33q-56 73 -140.5 116.5t-184.5 43.5q-83 0 -157.5 -32t-130 -88t-89 -129.5t-33.5 -154.5q0 -85 32.5 -160.5t88 -131.5 t130.5 -88t159 -32q99 0 183.5 44t141.5 117q34 31 90 31q63 0 107 -44t44 -96q0 -51 -24 -82q-97 -119 -237 -190t-305 -71q-144 0 -272 54.5t-222 150.5t-149.5 222.5t-55.5 271.5z" />
<glyph unicode="D" horiz-adv-x="1349" d="M81 149v1102q0 57 43 103.5t106 46.5h370q278 0 486.5 -201t210.5 -499q0 -280 -204 -490.5t-493 -210.5h-370q-59 0 -104 43t-45 106zM377 299h223h8q160 1 278 111q122 114 122 291q-6 171 -122 287q-115 114 -280 114h-6h-223v-803z" />
<glyph unicode="E" horiz-adv-x="1077" d="M81 149v1102q0 57 42 103.5t105 46.5h627q61 0 104 -44t43 -106q0 -63 -43 -105t-104 -42h-483v-249h336q59 0 103 -44t44 -106q0 -61 -44 -103.5t-103 -42.5h-336v-264h483q61 0 104 -43t43 -103q0 -63 -43 -106t-104 -43h-627q-57 0 -102 43t-45 106z" />
<glyph unicode="F" horiz-adv-x="1018" d="M81 149v1102q0 57 43 103.5t106 46.5h627q61 0 104 -44t43 -106q0 -63 -43 -105t-104 -42h-478v-326h331q64 0 105.5 -44t41.5 -105t-41.5 -103.5t-105.5 -42.5h-331v-334q0 -63 -43 -106t-106 -43t-106 43t-43 106z" />
<glyph unicode="G" horiz-adv-x="1408" d="M52 701q0 144 55.5 271.5t149.5 222.5t222 150.5t272 55.5q165 0 305 -71.5t237 -189.5q24 -29 24 -73q0 -61 -46 -106t-108 -45q-57 0 -87 33q-56 73 -140.5 116.5t-184.5 43.5q-85 0 -159.5 -32t-130 -88t-88 -129.5t-32.5 -158.5q0 -86 32.5 -160t88 -130t130.5 -88 t159 -32t155 30t129 82q23 30 23 84v13q-63 0 -105.5 42.5t-42.5 105.5q0 59 42.5 101t105.5 42h145q63 0 105 -41.5t42 -101.5v-148q0 -126 -30 -186.5t-62 -94.5q-96 -102 -226.5 -159.5t-280.5 -57.5q-144 0 -272 54.5t-222 150.5t-149.5 222.5t-55.5 271.5z" />
<glyph unicode="H" horiz-adv-x="1233" d="M81 147v1104q0 67 47 107t108 40t104 -43.5t43 -103.5v-446h478v446q0 59 44 103t97 44q56 0 103 -41.5t47 -105.5v-1104q0 -29 -11.5 -55.5t-33.5 -46.5t-49.5 -32.5t-55.5 -12.5q-53 0 -97 43t-44 104v359h-478v-359q0 -61 -42 -104t-105 -43q-67 0 -110 41.5 t-45 105.5z" />
<glyph unicode="I" horiz-adv-x="454" d="M79 147v1104q0 59 43 103t106 44q59 0 101.5 -43.5t42.5 -103.5v-1104q0 -61 -42.5 -104t-101.5 -43q-63 0 -106 43t-43 104z" />
<glyph unicode="J" horiz-adv-x="734" d="M19 -160q0 60 43 104.5t103 44.5q42 0 79.5 15t65 43t44 65t16.5 78v1061q0 59 42 103t101 44q63 0 107 -43.5t44 -103.5v-1061q-2 -104 -40.5 -193t-105 -156t-157.5 -106.5t-196 -41.5q-59 0 -102.5 41.5t-43.5 105.5z" />
<glyph unicode="K" horiz-adv-x="1224" d="M79 147v1104q0 59 44 103t105 44q63 0 106 -43.5t43 -103.5v-344l510 448q46 43 106.5 43t104.5 -43q44 -44 44 -104.5t-44 -104.5l-353 -309l377 -611q24 -37 24 -77q0 -17 -4 -34q-14 -58 -66 -90q-38 -24 -79 -24q-17 0 -33 4q-58 14 -92 68l-349 565l-146 -147v-344 q0 -61 -43 -104t-106 -43q-61 0 -105 43t-44 104z" />
<glyph unicode="L" horiz-adv-x="1062" d="M81 151v1102q0 61 44 104.5t107 43.5q57 0 102 -43t45 -105v-954h528q59 0 102 -43t43 -105q0 -63 -43 -106t-102 -43h-675q-63 0 -104.5 43t-46.5 106z" />
<glyph unicode="M" horiz-adv-x="1629" d="M77 149v807q6 94 41 175t93.5 141t136 94.5t169.5 34.5q88 -3 161 -32.5t137 -82.5q59 57 136 86t155 29q92 0 173.5 -36.5t141.5 -98t95.5 -141.5t37.5 -169v-807q0 -61 -45 -105t-104 -44q-61 0 -105 44t-44 105v792q0 61 -42.5 103.5t-107.5 42.5q-58 0 -101 -42.5 t-43 -103.5v-180q0 -61 -43 -105.5t-104 -44.5q-63 0 -105.5 44t-42.5 106v180q0 61 -45 103.5t-105 42.5q-59 0 -104 -42.5t-45 -103.5v-792q0 -61 -41.5 -105t-105.5 -44q-61 0 -102.5 44t-41.5 105z" />
<glyph unicode="N" horiz-adv-x="1206" d="M73 136v727q2 110 42 206.5t112 169t168 114t210 41.5q104 0 201 -38.5t169.5 -107.5t116 -163t43.5 -204v-739q0 -56 -40.5 -98t-99.5 -44q-59 0 -101.5 38.5t-42.5 97.5v727q0 51 -19 96t-53 77.5t-79 52.5t-98 20q-48 0 -91.5 -19t-76.5 -49.5t-52.5 -74.5t-19.5 -92 v-732q0 -56 -44 -99t-101 -43t-100.5 39.5t-43.5 96.5z" />
<glyph unicode="O" horiz-adv-x="1504" d="M55 701q0 144 55 271.5t149 222.5t222 150.5t273 55.5t271.5 -55.5t221 -150.5t149.5 -222t55 -272t-55 -271.5t-149.5 -222.5t-221 -150.5t-271.5 -54.5q-144 0 -272.5 54.5t-222.5 150.5t-149 222.5t-55 271.5zM345 701q0 -86 31.5 -160t87 -130t130.5 -88t160 -32 q86 0 159.5 32t129 88t87 130t31.5 160q0 85 -31.5 158.5t-87 129.5t-129.5 88t-159 32t-160 -32t-130.5 -88t-87 -129.5t-31.5 -158.5z" />
<glyph unicode="P" d="M73 147v725q0 109 40 205t111 167t169 114t209 47q107 0 204 -42t169.5 -114t115 -168.5t42.5 -208.5q0 -109 -41.5 -204.5t-113 -168t-167.5 -113.5t-209 -41q-109 0 -205 38l-31 14v-250q0 -61 -43 -104t-102 -43q-63 0 -105.5 43t-42.5 104zM357 872q0 -50 20 -95 t53.5 -79t77.5 -53.5t94 -19.5q51 0 96 19.5t78 53.5t53 79t20 95q-5 101 -73.5 171t-173.5 74q-50 0 -94 -18t-77.5 -51.5t-53.5 -78.5t-20 -97z" />
<glyph unicode="Q" horiz-adv-x="1557" d="M52 701q0 144 55.5 271.5t149.5 222.5t222 150.5t272 55.5q145 0 272 -55.5t221.5 -150.5t149.5 -222t55 -272q0 -138 -49.5 -257.5t-132.5 -211.5q15 -2 30 4q27 9 53 9l55 -9q54 -19 74 -79q10 -28 10 -55q0 -32 -13 -62q-25 -55 -98 -82q-64 -21 -121 -21q-8 0 -16 1 q-64 3 -130 37q-55 31 -99 77q-125 -50 -261 -50q-144 0 -272 54.5t-222 150.5t-149.5 222.5t-55.5 271.5zM341 701q0 -99 40 -180.5t110 -139.5q7 27 15 56q55 133 171 181q69 26 135 26q14 0 28 -2q78 -6 143 -32.5t108 -80.5q9 -11 18 -25q50 88 50 197q0 85 -31.5 158.5 t-87.5 129.5t-129.5 88t-159.5 32q-85 0 -159.5 -32t-130 -88t-88 -129.5t-32.5 -158.5zM688 295q17 -4 31.5 -4h31.5q73 0 138 25q-35 24 -63 37q-17 6 -35 6l-53 -14q-35 -20 -50 -50z" />
<glyph unicode="R" horiz-adv-x="1121" d="M73 149v754q2 99 40 189.5t106 158.5t158 109t195 41q97 0 187 -40t157.5 -106.5t108 -157.5t40.5 -194q0 -157 -85 -281t-229 -185l184 -184q22 -22 32 -50t10 -56t-9.5 -56t-32.5 -49q-44 -42 -104 -42t-103 42l-360 359v-252q0 -63 -44 -106t-105 -43q-59 0 -102.5 43 t-43.5 106zM368 903q0 -40 16.5 -77t44 -65.5t65 -45t78.5 -16.5q82 0 142 58t60 146q0 42 -17 79t-44 64.5t-64 42.5t-77 15q-43 0 -79.5 -15t-65 -42.5t-44 -64.5t-15.5 -79z" />
<glyph unicode="S" horiz-adv-x="1110" d="M59 335q0 61 44 105.5t106 44.5q48 0 78.5 -25.5t53.5 -62.5q27 -44 69 -70t69 -34q27 -7 60 -9q6 0 13 -1q31 0 81 6q53 8 88 36t40 85q-2 52 -37.5 79.5t-85.5 39.5l-153 25q-82 11 -156 41t-133.5 87.5t-95.5 137.5q-34 75 -33 158v9q0 85 33.5 160.5t91 129 t136.5 86.5q55 22 117 31q50 9 105 9q63 0 114 -12q90 -15 166 -59q38 -13 123 -94q11 -13 23.5 -32.5t18.5 -39.5q4 -17 4 -33q1 -41 -23 -79q-32 -52 -95 -65q-19 -4 -35 -4q-26 0 -48 11q-34 18 -68 47q-36 38 -70.5 56t-99.5 18t-106.5 -14t-67.5 -44.5t-26 -76.5v-8 q0 -48 36 -82q38 -36 99 -43l141 -21q107 -15 199 -54.5t138 -90t64.5 -108.5t18.5 -148q-2 -81 -34.5 -159t-91 -135.5t-136 -92t-163.5 -36.5l-35 -2q-12 -1 -24 -1t-24 1q-63 0 -114 11q-89 15 -166 60q-117 65 -185 184q-8 15 -16 37t-8 41z" />
<glyph unicode="T" horiz-adv-x="1150" d="M35 1251q0 61 43 105.5t104 44.5h786q63 0 106 -44t43 -106q0 -63 -42 -105t-107 -42h-245v-955q0 -63 -41.5 -106t-104.5 -43t-105.5 43t-42.5 106v955h-247q-61 0 -104 42t-43 105z" />
<glyph unicode="U" horiz-adv-x="1206" d="M73 537v728q0 56 43.5 96t100.5 40t101 -43t44 -100v-732q0 -48 19.5 -91.5t52.5 -75t76.5 -50t91.5 -18.5q53 0 98 20t79 53t53 78t19 95v728q0 59 42 97.5t102 38.5q59 -3 99.5 -44.5t40.5 -98.5v-739q0 -109 -43.5 -203.5t-116 -163.5t-169.5 -107.5t-201 -38.5 q-114 0 -210 42t-168 114t-112 168.5t-42 206.5z" />
<glyph unicode="V" horiz-adv-x="1246" d="M57 1198q-10 26 -10 53q-1 30 13 60q26 56 82 80q26 10 52 10q30 1 61 -13q56 -24 78 -84l292 -750l291 750q22 59 78 84q30 13 59 13q26 0 53 -10q58 -25 82 -80q13 -29 12 -59q0 -27 -10 -54l-427 -1102q-17 -44 -55.5 -70t-82.5 -26q-42 0 -81.5 28.5t-56.5 67.5z" />
<glyph unicode="W" horiz-adv-x="1629" d="M77 445v806q0 61 41.5 105.5t102.5 44.5q64 0 105.5 -44t41.5 -106v-791q0 -61 45 -103.5t104 -42.5t104.5 42.5t45.5 103.5v180q0 61 42 105t106 44q61 0 104 -44t43 -105v-180q0 -61 43 -103.5t101 -42.5q64 0 107 42.5t43 103.5v791q0 61 43.5 105.5t105.5 44.5 q59 0 104 -44t45 -106v-806q-2 -90 -37.5 -170t-95.5 -141t-141.5 -97.5t-173.5 -36.5q-79 0 -155.5 28.5t-135.5 84.5q-63 -52 -136.5 -81.5t-161.5 -31.5q-92 0 -169.5 33.5t-136 94t-93.5 142t-41 175.5z" />
<glyph unicode="X" horiz-adv-x="1570" d="M121 249l460 456l-447 454q-43 41 -43 101v2q1 62 43 103q44 44 105.5 44t101.5 -44l448 -451l451 447q44 42 104.5 42t106.5 -46q41 -41 41 -101v-2q-1 -62 -43 -104l-452 -447l456 -460q42 -42 42 -103t-44 -105q-43 -40 -102 -40h-3q-60 1 -102 42l-458 461l-460 -456 q-43 -43 -101 -43h-3q-60 1 -101 43q-45 43 -45 102q0 62 45 105z" />
<glyph unicode="Y" horiz-adv-x="1472" d="M38 1264q6 64 56 106q41 33 95 33q9 0 18 -1q65 -6 107 -57l422 -521l425 521q42 50 107 57q9 1 19 1q52 0 93 -33q51 -42 56 -106q1 -7 1 -15q0 -54 -34 -99l-514 -629v-366q0 -63 -46 -109t-109 -46t-108 46t-45 109v368l-508 627q-35 45 -35 99v15z" />
<glyph unicode="Z" horiz-adv-x="1221" d="M77 1251q0 61 44 105.5t103 44.5h771q42 -3 75.5 -24.5t52.5 -56t19 -75t-25 -79.5l-604 -871h486q64 0 105.5 -43t41.5 -103q0 -63 -41.5 -106t-105.5 -43h-771q-44 2 -76.5 23t-50.5 53.5t-18 72t22 79.5l2 2l601 874h-484q-59 0 -103 42t-44 105z" />
<glyph unicode="[" horiz-adv-x="690" d="M81 -157v1424q9 54 47.5 94t99.5 42h245q61 0 104.5 -43t43.5 -104q0 -63 -43 -105t-105 -42h-99v-1109h99q61 0 104.5 -41.5t43.5 -105.5q0 -61 -43 -103.5t-105 -42.5h-245q-61 0 -99.5 40t-47.5 96z" />
<glyph unicode="\" horiz-adv-x="707" d="M37 1209q-17 57 11.5 112.5t85.5 72.5q56 19 112.5 -9t73.5 -88l351 -1104q17 -61 -11.5 -114.5t-87.5 -72.5q-56 -17 -111 11.5t-74 85.5z" />
<glyph unicode="]" horiz-adv-x="690" d="M71 -147q0 64 42.5 105.5t103.5 41.5h99v1109h-99q-61 0 -103.5 41.5t-42.5 105.5q0 61 42 104t104 43h245q61 -2 99.5 -42t47.5 -94v-1424q-9 -55 -47.5 -95.5t-99.5 -40.5h-245q-61 0 -103.5 42t-42.5 104z" />
<glyph unicode="^" horiz-adv-x="1250" d="M59 675l418 642q27 44 65.5 70t82.5 26q42 0 81 -28t70 -68l416 -642q21 -57 -4 -113t-82 -79q-56 -22 -112 2.5t-95 83.5l-274 397l-278 -397q-36 -59 -92 -84t-113 -2q-56 24 -80.5 79.5t-2.5 112.5z" />
<glyph unicode="_" horiz-adv-x="1175" d="M75 151q0 63 41 106.5t105 43.5h735q60 0 103 -43.5t43 -106.5q0 -61 -43 -105t-103 -44h-735q-63 0 -104.5 44t-41.5 105z" />
<glyph unicode="`" horiz-adv-x="661" d="M57 1385q15 58 69 88t108 15l266 -70q61 -17 91 -69t14 -111q-15 -61 -68.5 -93t-113.5 -16l-263 72q-58 15 -88 67.5t-15 116.5z" />
<glyph unicode="a" horiz-adv-x="1187" d="M57 531q0 56 12 108.5t34 103.5q63 142 192.5 229.5t294.5 87.5h31.5t29.5 -2q98 -10 184.5 -56t149.5 -117.5t99 -162.5t36 -191v-389q0 -59 -43.5 -100.5t-99.5 -41.5q-77 0 -122 71q-11 -5 -20 -10.5t-18 -10.5q-52 -24 -107 -37q-56 -13 -120 -13q-165 0 -294 89 t-193 229q-22 50 -34 102.5t-12 110.5zM345 531q0 -51 20 -95.5t54.5 -78t78 -53t89.5 -19.5q51 0 96 18.5t77.5 51t52 77.5t19.5 99q0 48 -19.5 93t-53.5 78.5t-78.5 53.5t-93.5 20q-48 0 -91.5 -20t-78 -53.5t-53.5 -78.5t-19 -93z" />
<glyph unicode="b" d="M71 531v734q0 26 12.5 51t32.5 43.5t45 30.5q20 9 41 9q6 0 11 -1q6 1 11 1q24 -1 44 -11q26 -12 46.5 -32t31.5 -47t11 -56v-251q77 39 159 51q41 6 82 6q42 0 82 -6q82 -12 158 -48.5t141 -97.5q77 -79 115.5 -170t38.5 -206q0 -109 -42.5 -206t-115 -169.5t-169 -114 t-204.5 -41.5q-104 0 -200.5 43t-170.5 115t-117 168.5t-43 204.5zM357 531q0 -51 20 -95.5t53.5 -78t77.5 -53t94 -19.5q49 0 93.5 19.5t79 53t54.5 78t20 95.5q0 50 -20 95t-54.5 77.5t-79 52.5t-93.5 20q-50 0 -94 -21t-77.5 -54.5t-53.5 -78.5t-20 -91z" />
<glyph unicode="c" horiz-adv-x="1051" d="M52 531q0 105 43 201t116.5 168.5t170 116t203.5 43.5q220 0 373 -153q34 -38 34 -90v-9q-3 -58 -43 -93q-39 -38 -101 -40h-6q-58 0 -95 40q-68 61 -162 61q-50 0 -95 -21t-79 -54.5t-54 -77.5t-20 -92q0 -51 20 -95.5t55 -79t79 -54.5q38 -17 81 -17h13q97 0 162 60 q39 43 100 43h1q62 0 101 -43q19 -18 30.5 -42.5t12.5 -50.5v-5q0 -23 -8 -47q-9 -26 -26 -45q-77 -77 -169 -116t-204 -39q-109 0 -206 43t-169 115t-115 168.5t-43 204.5z" />
<glyph unicode="d" horiz-adv-x="1160" d="M27 531q0 107 42 203t116 168.5t170.5 115t203.5 42.5q131 0 243 -58v251q0 29 12 55t32 46t46 31t55 11q57 0 99.5 -40.5t42.5 -104.5v-720q0 -107 -42.5 -204t-116 -169t-170 -115t-201.5 -43t-201.5 41.5t-170.5 114t-117 169t-43 206.5zM311 531q0 -51 20 -95.5 t53.5 -78t78.5 -53t96 -19.5q48 0 91.5 19.5t78 54t54 78t19.5 94.5q0 52 -19.5 97t-54 77.5t-78 51.5t-91.5 19q-51 0 -96 -20t-78.5 -53.5t-53.5 -78.5t-20 -93z" />
<glyph unicode="e" horiz-adv-x="1160" d="M55 531q0 102 42.5 198.5t115 170t169 117t203.5 43.5q105 0 201.5 -43.5t170 -117t117 -168.5t43.5 -200q0 -57 -42 -90q-40 -31 -100 -31h-7h-583q73 -125 200 -125q36 0 60 7t42 15.5t37 14.5t43 6q46 -2 80 -26q35 -24 51 -60q12 -27 12 -56q0 -10 -2 -21 q-6 -42 -38 -77q-59 -48 -131 -67t-154 -21h-18q-95 0 -183 38q-96 42 -170 116t-116.5 172.5t-42.5 204.5zM385 653h399q-37 67 -87.5 95t-111.5 28q-63 0 -112.5 -27.5t-87.5 -95.5z" />
<glyph unicode="f" horiz-adv-x="830" d="M33 -167q0 57 40 97.5t98 42.5q44 0 73.5 32t29.5 72v436q-103 0 -138 39.5t-40 102.5q0 57 37.5 97.5t140.5 47.5v216q0 75 28.5 144t78.5 122.5t118 86t145 32.5q63 0 107 -35.5t49 -105.5q0 -56 -40.5 -95.5t-102.5 -44.5q-46 -2 -72 -33t-26 -73v-214 q100 -4 138.5 -44.5t38.5 -100.5q0 -59 -37.5 -98.5t-139.5 -43.5v-440q0 -63 -21 -122.5t-58 -106.5t-89 -84.5t-117 -58.5q-37 -11 -75 -11h-7q-41 1 -75 17.5t-58 47t-26 78.5z" />
<glyph unicode="g" horiz-adv-x="1171" d="M50 531q0 107 44 203t117.5 168.5t168.5 115t201 42.5q109 0 205.5 -41.5t169 -114t113 -168.5t40.5 -205q0 -149 -64 -263q64 -86 64 -279v-8q0 -60 -27 -131q-30 -76 -79.5 -128.5t-117.5 -84.5t-147 -36h-74h-13h-70q-55 -4 -96 -46q-44 -42 -104.5 -42t-104.5 44 q-42 40 -45 96v8q0 51 34 90q66 83 193 120q57 17 123 20h162q33 4 52 28q37 55 37 103q0 15 -4 30v3q-44 -25 -99.5 -40t-147.5 -15q-117 0 -214 39.5t-167.5 109.5t-110 167.5t-39.5 214.5zM335 531q0 -48 18.5 -93t52 -79.5t78.5 -55.5t97 -21t98 20t79 55.5t51.5 79 t18.5 94.5q0 50 -21 95t-54.5 77.5t-78.5 52.5t-93 20t-92 -21t-78 -54.5t-55 -77.5t-21 -92z" />
<glyph unicode="h" horiz-adv-x="1175" d="M81 132v1126q5 55 43.5 94t99.5 39q56 0 97 -39t45 -103v-252q50 33 118 46t129 13q107 0 204 -39.5t169 -109.5t115 -164.5t43 -201.5v-401q0 -59 -40.5 -100.5t-101.5 -43.5q-57 0 -96.5 38.5t-48.5 97.5v394q0 49 -18.5 93.5t-51.5 78.5t-76.5 53.5t-97.5 19.5 q-98 0 -167 -67.5t-80 -166.5v-397q0 -59 -40.5 -100.5t-101.5 -43.5q-55 0 -93.5 38.5t-49.5 97.5z" />
<glyph unicode="i" horiz-adv-x="437" d="M77 127v793q4 57 46 94.5t98 39.5q57 0 95.5 -42t43.5 -100v-776q0 -59 -37.5 -98.5t-101.5 -43.5q-56 0 -95.5 34.5t-48.5 98.5zM77 1253q2 57 45 96.5t99 39.5q57 0 98 -42.5t41 -99.5t-41 -100t-98 -43q-63 2 -103.5 40.5t-40.5 108.5z" />
<glyph unicode="j" horiz-adv-x="615" d="M21 -167q0 57 41 97.5t98 42.5q44 0 73.5 32t29.5 72v843q5 57 46.5 94.5t98.5 39.5q56 0 94.5 -42t43.5 -100v-839v-11q0 -57 -19 -112q-21 -59 -58.5 -106t-89 -84.5t-116.5 -58.5q-36 -11 -75 -11h-6q-42 1 -75.5 17.5t-57.5 47t-28 78.5zM263 1253q2 57 45 96.5 t100 39.5q56 0 97 -42.5t41 -99.5t-41 -100t-97 -43q-63 2 -104 40.5t-41 108.5z" />
<glyph unicode="k" horiz-adv-x="1000" d="M79 147v1106q0 57 44 102.5t105 45.5t103.5 -43t42.5 -105v-550l331 332q43 43 100 43h3q60 -2 106 -43q44 -44 44 -104.5t-44 -104.5l-209 -211l236 -391q22 -37 22 -76q-1 -18 -5 -38q-16 -58 -66 -89q-37 -22 -76 -22q-18 1 -38 5q-60 16 -90 69l-197 328l-117 -119 v-135q0 -57 -43.5 -102t-102.5 -45q-57 0 -103 43t-46 104z" />
<glyph unicode="l" horiz-adv-x="628" d="M71 383v875q6 55 45.5 94.5t98.5 41.5q59 0 99.5 -41.5t45.5 -103.5v-866q0 -44 28 -74.5t72 -30.5q57 0 99.5 -39.5t45.5 -98.5q0 -52 -36 -93t-94 -49h-30q-77 0 -145 31.5t-119.5 84.5t-80.5 123t-29 146z" />
<glyph unicode="m" horiz-adv-x="1419" d="M77 142v540q0 77 30.5 146t83 120t123.5 81.5t153 30.5q65 0 127.5 -20.5t115.5 -64.5q105 85 246 85q77 0 148 -29t124.5 -79.5t85 -120.5t31.5 -149v-550q0 -53 -43.5 -92.5t-100.5 -39.5t-100 43t-43 99v533q0 42 -29.5 70.5t-72.5 28.5q-38 0 -69.5 -25.5 t-31.5 -73.5v-261q0 -59 -43 -100.5t-102 -41.5q-54 0 -98.5 38.5t-44.5 92.5v272q-2 44 -32.5 71.5t-67.5 27.5q-42 0 -71.5 -28.5t-31.5 -72.5v-544q-4 -52 -45 -90.5t-98 -38.5q-31 0 -57 10.5t-46 30.5t-32 46q-10 22 -9 46v9z" />
<glyph unicode="n" horiz-adv-x="1198" d="M67 142v395q3 109 43.5 205.5t111.5 169t168 114t210 41.5q105 0 202 -38t169 -107t116 -163.5t44 -204.5v-405q0 -57 -40.5 -98.5t-99.5 -44.5q-59 0 -102 38.5t-43 97.5v395q0 50 -18.5 95t-53 78t-79 52.5t-97.5 19.5q-48 0 -92 -18.5t-76.5 -49t-52.5 -74.5t-20 -92 v-399q0 -57 -43.5 -100t-100.5 -43t-101.5 40t-44.5 96z" />
<glyph unicode="o" horiz-adv-x="1171" d="M57 531q0 109 40.5 204t111.5 166.5t169 114t209 47.5q107 0 203.5 -42t169.5 -114t115 -168.5t42 -207.5q0 -109 -41 -205t-112.5 -168t-168 -114t-208.5 -42q-109 0 -205.5 39.5t-169 111t-114 167.5t-41.5 211zM341 531q0 -51 20 -95.5t54 -79t78 -54.5t94 -20 q51 0 96 20t77.5 54.5t52 79t19.5 95.5q-4 100 -72 170t-173 75q-50 0 -94 -19t-78 -51.5t-54 -77.5t-20 -97z" />
<glyph unicode="p" d="M71 -203v734q0 107 42 203t115 168.5t169 115t205 42.5q107 0 204 -41.5t169.5 -114t115 -168.5t42.5 -205t-40.5 -206t-111.5 -169.5t-168.5 -114t-210.5 -41.5q-135 0 -245 55v-252q0 -57 -41.5 -98.5t-102.5 -41.5q-55 0 -97.5 38t-44.5 96zM357 531q0 -55 20 -100.5 t53.5 -78t78.5 -51.5t93 -19q53 0 97 20t77 54.5t51.5 79t18.5 95.5q0 50 -19.5 95t-53 77.5t-77 51.5t-94.5 19q-52 0 -97 -20t-77.5 -52.5t-51.5 -76.5t-19 -94z" />
<glyph unicode="q" horiz-adv-x="1160" d="M27 533q0 109 41 205.5t114 168.5t169 114t205 42q107 0 205 -43t170.5 -115.5t115 -168.5t42.5 -203v-734q-2 -57 -44.5 -95.5t-97.5 -38.5q-61 0 -103 41t-42 99v252q-109 -55 -246 -55q-111 0 -209 42t-169 114t-111 168.5t-40 206.5zM314 533q0 -50 18.5 -95 t51 -79.5t76.5 -54t96 -19.5q49 0 93.5 18.5t79 51t54 78t19.5 100.5q0 50 -18.5 94t-51.5 76.5t-78 52.5t-98 20q-50 0 -94 -19t-76.5 -51.5t-52 -77.5t-19.5 -95z" />
<glyph unicode="r" horiz-adv-x="751" d="M61 138v406q2 104 45 197.5t114 162.5t167 109.5t203 44.5q61 0 101.5 -41.5t44.5 -100.5q0 -59 -41.5 -99.5t-102.5 -42.5q-51 0 -94.5 -19t-77 -51.5t-52.5 -77.5t-19 -97v-400q-4 -56 -43.5 -93.5t-102.5 -37.5q-59 0 -98.5 38.5t-43.5 101.5z" />
<glyph unicode="s" horiz-adv-x="1403" d="M34 447v8q0 54 39 91l361 361q80 77 176 117q96 39 198 40h5q100 0 194 -38q97 -39 179 -119q74 -75 114.5 -170t42.5 -195v-10q0 -94 -33 -188q-35 -99 -112 -175l-23 -25q-79 -70 -163 -104q-90 -38 -194 -38h-11q-111 0 -204 39.5t-166 113.5q-18 22 -28 46.5t-8 50.5 t13 51t31 44q40 41 99 41h1q60 0 101 -41q63 -59 161 -60h10q46 -1 86 17q44 20 78.5 53.5t53.5 79.5t19 96v13q-2 39 -17 79q-17 44 -55 80q-33 35 -78 53t-90 20h-9l-81 -16q-45 -18 -78 -49l-366 -366q-39 -40 -100 -40t-101 42q-42 39 -45 98z" />
<glyph unicode="t" horiz-adv-x="1051" d="M71 541v722q0 58 44.5 98t103.5 40q61 0 103 -43t46 -107v-175h377q63 0 102.5 -43.5t39.5 -103.5q0 -57 -43.5 -102t-98.5 -45h-377v-241q0 -50 19 -95t51.5 -80t77.5 -55t97 -20q57 0 97.5 15.5t71.5 46.5q46 40 102 41h3q55 0 102 -43q21 -19 32.5 -45t12.5 -53v-5 q0 -24 -8 -48q-10 -26 -29 -47q-77 -75 -169 -114t-197 -39q-113 0 -214 38.5t-177.5 109.5t-121.5 170.5t-47 222.5z" />
<glyph unicode="u" horiz-adv-x="1200" d="M67 515v403q0 57 41.5 99.5t102.5 45.5q57 0 100.5 -43t43.5 -104v-385q0 -51 20 -95.5t52.5 -78t77.5 -53t95 -19.5q48 0 92 17.5t78.5 48t53.5 74.5t19 94v399q0 55 42 98.5t102 46.5q58 0 101 -43t45 -96v-393q0 -109 -41.5 -206t-114 -169.5t-168.5 -114t-209 -41.5 h-19q-95 0 -182 36q-96 40 -170 111.5t-118 167t-44 200.5z" />
<glyph unicode="v" horiz-adv-x="989" d="M61 866q-12 28 -12.5 55.5t12.5 54.5q25 54 81 78q27 10 53 10q30 0 59 -12q55 -24 79 -82l162 -420l162 420q25 57 81 81q30 13 59 13q26 0 52 -10q56 -24 80 -78q12 -27 12 -54.5t-12 -55.5l-296 -774q-10 -25 -46.5 -58.5t-86.5 -33.5q-44 0 -83.5 21t-56.5 71z" />
<glyph unicode="w" horiz-adv-x="1422" d="M77 379v539v9q-1 24 9 46q12 26 32 46t46 30.5t57 10.5q57 0 98 -38t45 -91v-544q2 -44 31.5 -72t71.5 -28q37 0 67.5 27t32.5 71v272q0 55 44 93.5t99 38.5q59 0 102 -42t43 -101v-261q0 -48 31.5 -73t69.5 -25q43 0 72.5 29t29.5 69v533q0 57 43 99.5t100 42.5 q56 0 100 -39t44 -92v-550q0 -79 -31.5 -149t-85 -120.5t-124.5 -80t-148 -29.5q-141 0 -246 86q-52 -44 -115 -65t-128 -21q-82 0 -153 30.5t-123.5 82.5t-83 121t-30.5 145z" />
<glyph unicode="x" horiz-adv-x="1206" d="M76 137v8q0 53 37 94l293 292l-293 291q-37 37 -37 85v11q4 55 43 98q44 45 93 45q6 -1 10 -1q54 -4 98 -44l285 -284l292 287q40 40 94 40h3q56 -1 100 -43q39 -39 39 -98t-39 -101l-285 -286l285 -288q39 -40 41 -100v-5q0 -57 -41 -98q-40 -40 -100.5 -40t-104.5 46 l-284 280l-285 -286q-40 -36 -98 -40h-10q-53 0 -93 40q-40 39 -43 97z" />
<glyph unicode="y" horiz-adv-x="1092" d="M42 721v195q0 61 42.5 104t101.5 43q63 0 106 -43t43 -104v-195q0 -90 60.5 -150.5t150.5 -60.5t151.5 60.5t61.5 150.5v195q0 61 42 104t102 43q63 0 106 -43t43 -104v-195v-2q0 -86 -27.5 -164t-75.5 -141t-115 -109t-146 -69v-426q0 -61 -43 -104t-101 -43 q-64 0 -106.5 42t-42.5 105v429q-77 24 -142 70t-112 110t-73 140.5t-26 161.5z" />
<glyph unicode="z" horiz-adv-x="1217" d="M79 140v10q0 53 40 89l534 537h-427h-7q-59 4 -98 44q-42 38 -42 91v9q-2 55 42 99q39 41 98 41h783q56 0 98 -41q42 -46 42 -99q0 -59 -42 -100q-11 -11 -22 -22.5t-22 -21.5l-244.5 -244.5t-246.5 -244.5h437q54 -2 98 -44q42 -46 42 -103q0 -52 -42 -98 q-46 -42 -98 -42h-7h-715h-54h-7q-56 0 -98 42q-44 44 -42 98z" />
<glyph unicode="{" horiz-adv-x="966" d="M31 552q0 63 43 107t106 44v163q0 107 42.5 203.5t116 170t171 117.5t205.5 44h28q61 0 105 -43t44 -105q0 -61 -43.5 -104t-105.5 -43q-55 0 -103 -30.5t-84.5 -77.5t-58.5 -104t-22 -112v-510q0 -53 22 -102t58.5 -87.5t84.5 -60.5t103 -22q61 0 105 -43t44 -101 q0 -64 -43.5 -106.5t-105.5 -42.5h-28q-107 0 -205 43t-171.5 117t-116 171.5t-42.5 204.5v163q-63 0 -106 42.5t-43 103.5z" />
<glyph unicode="|" horiz-adv-x="470" d="M79 -138v1385q0 63 45 109.5t108 46.5t109 -46t46 -110v-1385q0 -63 -46 -109t-109 -46t-108 46t-45 109z" />
<glyph unicode="}" horiz-adv-x="964" d="M75 -144q0 58 44 101t105 43q54 0 102 22t84.5 60.5t58.5 87.5t22 102v510q0 55 -22 112t-58.5 104t-84.5 77.5t-102 30.5q-61 0 -105 43t-44 104t44 104.5t105 43.5h29q107 0 204 -44t170.5 -117.5t116 -170t42.5 -203.5v-163q64 0 106.5 -44t42.5 -107 q0 -61 -42 -103.5t-107 -42.5v-163q0 -107 -42.5 -204.5t-116 -171.5t-170.5 -117t-204 -43h-29q-61 0 -105 42t-44 107z" />
<glyph unicode="~" horiz-adv-x="1134" d="M76.5 565.5q-17.5 59.5 19.5 124.5q40 68 91.5 107.5t121.5 56t145 1.5q13 -4 26 -9q55 -6 105 -35l107 -60q20 -19 53 -11q33 7 50 34q29 48 80.5 70t108.5 -12q55 -31 73.5 -89.5t-20.5 -124.5q-40 -67 -91 -108t-121.5 -56t-145.5 -2q-19 6 -39 10q-48 9 -90 36 l-109 58q-19 18 -54 11q-33 -8 -48 -34q-31 -46 -81.5 -68t-108.5 10q-55 31 -72.5 90.5z" />
<glyph unicode="&#xa2;" horiz-adv-x="1012" d="M33 531q0 105 43 201t116 168.5t170 115.5l31 14v107q0 64 45 110t108 46t109 -46t46 -110v-94q134 -33 237 -136q38 -41 34 -98.5t-43 -93.5q-40 -38 -101 -40t-100 40q-13 10 -27 19v-412q13 11 27 23q39 43 100 42.5t101 -42.5q19 -18 30 -42.5t12.5 -50.5t-7 -51.5 t-26.5 -45.5q-77 -77 -169 -115q-33 -15 -68 -25v-44q0 -63 -46 -109t-109 -46t-108 46t-45 109v58q-17 6 -33 13q-97 44 -169 116t-115 168.5t-43 204.5zM318 531q0 -51 19.5 -95.5t55.5 -80.5v346q-37 -34 -56 -78t-19 -92z" />
<glyph unicode="&#xa3;" horiz-adv-x="1171" d="M48 621q0 63 42 105.5t105 42.5v237q0 77 30 148t81 125.5t121.5 88t149.5 33.5q65 0 110 -36.5t49 -108.5q0 -59 -41.5 -100t-104.5 -45q-40 0 -73 -32q-29 -31 -28 -73v-237q63 0 106 -42.5t43 -105.5q0 -61 -43 -105.5t-104 -44.5h-2v-178h504q61 0 104 -43t43 -103 q0 -61 -43 -104t-104 -43h-648q-64 0 -107 43t-43 106v322q-63 0 -105 44t-42 106z" />
<glyph unicode="&#xa5;" d="M53.5 1270.5q9.5 59.5 59.5 96.5q51 36 111.5 24.5t93.5 -63.5l261 -370l256 370q35 52 95.5 63.5t108.5 -24.5q52 -37 64 -96t-24 -112l-224 -337q57 -2 97.5 -45t40.5 -100q0 -59 -41.5 -101.5t-100.5 -42.5h-130v-58h130q59 0 100.5 -41t41.5 -101q0 -59 -41.5 -101 t-100.5 -42h-130v-48q0 -59 -41.5 -100.5t-100.5 -41.5t-100.5 41.5t-41.5 100.5v48h-130q-59 0 -100.5 42t-41.5 101t41 100.5t101 41.5h130v58h-128q-61 0 -102.5 42.5t-41.5 101.5q0 57 39 98.5t97 46.5l-224 337q-33 52 -23.5 111.5z" />
<glyph unicode="&#xa8;" horiz-adv-x="860" d="M71 1334q0 61 42 105t104 44q63 0 107 -44t44 -105t-44 -104.5t-107 -43.5q-61 0 -103.5 43.5t-42.5 104.5zM493 1334q0 61 43 105t104 44q63 0 107 -44t44 -105t-44 -104.5t-107 -43.5q-61 0 -104 43.5t-43 104.5z" />
<glyph unicode="&#xa9;" horiz-adv-x="1623" d="M73 544.5q-21 147.5 19 298.5q40 149 133 265.5t216.5 189t271.5 93.5q52 6 107 7v3q155 0 291 -59.5t238 -161t161 -238.5t59 -294q0 -98 -24 -194q-42 -149 -134 -266t-217 -190t-272.5 -95t-298.5 20q-149 40 -266.5 133t-190 217t-93.5 271.5zM349.5 583 q14.5 -92 59.5 -171t118 -137t167 -85q97 -24 189 -10.5t171 59.5t137 119t84 168q20 75 15 141q-4 19 -2 38q-10 96 -59 178q-61 107 -171 173q-46 27 -94 44l-23 6q-44 11 -74 13.5t-47 2.5q-64 0 -123 -18q-119 -31 -210.5 -118t-124.5 -215q-27 -96 -12.5 -188z M423 647.5q0 75.5 30 149t86 130.5q75 72 169 98.5t187 9.5q56 -13 106.5 -40t94.5 -71q13 -10 19 -25q27 -40 22.5 -87t-39.5 -84q-38 -38 -99 -42l-6 -7l-9 7q-37 2 -68 31q-6 6 -15 13q-38 37 -84 36t-81 -36q-35 -36 -34 -83t34 -82q35 -33 82.5 -33.5t82.5 33.5l9 10 q39 33 94.5 31.5t95.5 -41.5q37 -37 40.5 -87.5t-25.5 -92.5l-17 -17q-55 -54 -127 -82.5t-149 -28.5t-150.5 27t-132.5 84q-56 59 -86 131.5t-30 148z" />
<glyph unicode="&#xab;" horiz-adv-x="1441" d="M45 517.5q1 59.5 43 107.5l372 396q44 42 105.5 42t107.5 -47q40 -39 41 -101t-41 -104l-270 -292l268 -270q42 -41 42 -101t-44 -104t-104.5 -44t-102.5 42l-372 370q-46 46 -45 105.5zM698 518.5q1 60.5 42 108.5l373 394q44 44 105.5 43t105.5 -45q41 -42 42 -103 t-42 -105l-270 -292l270 -270q41 -41 41 -101t-44 -104q-46 -44 -106 -44t-102 42l-373 372q-43 44 -42 104.5z" />
<glyph unicode="&#xad;" horiz-adv-x="996" d="M73 659q0 63 41 106.5t105 43.5h559q61 0 103.5 -43.5t42.5 -106.5q0 -61 -42.5 -105t-103.5 -44h-559q-63 0 -104.5 44t-41.5 105z" />
<glyph unicode="&#xae;" horiz-adv-x="1623" d="M73 544.5q-21 147.5 19 298.5q40 149 133 265.5t216.5 189t223.5 88t155 15.5q155 0 291 -59.5t238 -161t161 -238.5t59 -294q0 -98 -24 -194q-42 -149 -134 -266t-217 -190t-272.5 -95t-298.5 20q-149 40 -266.5 133t-190 217t-93.5 271.5zM349.5 583 q14.5 -92 59.5 -171t118 -137t167 -85q97 -24 189 -10.5t171 59.5t137 119t84 168q20 75 15 141l-2 38q-10 96 -59 178q-61 107 -171 173q-46 27 -94 44l-23 6q-44 11 -74 13.5t-47 2.5q-64 0 -123 -18q-119 -31 -210.5 -118t-124.5 -215q-27 -96 -12.5 -188zM554 393 q0 -59 42 -101.5t101 -42.5q58 0 100 42t42 102v240q0 49 33 82.5t84 33.5q58 0 101 41.5t43 101.5q0 59 -43 102t-101 43q-84 0 -157.5 -32t-128.5 -87t-85.5 -128t-30.5 -157v-240z" />
<glyph unicode="&#xb4;" horiz-adv-x="661" d="M57 1238q-15 59 14.5 111t91.5 69l264 70q55 15 109 -15t69 -88q15 -64 -14.5 -116t-88.5 -68l-263 -72q-59 -15 -112.5 16.5t-69.5 92.5z" />
<glyph unicode="&#xb8;" horiz-adv-x="518" d="M44 -230q2 29 23 46t50 17q31 0 52 -21t21 -51q0 -33 22 -55t56 -22q31 0 52 22t21 55q0 29 -18 49.5t-47 24.5h-73q-29 2 -50 21t-21 48v6v250q0 20 20.5 42t50.5 22q33 0 54 -22t21 -42v-175q53 -2 95.5 -27t71.5 -63q22 -29 33 -62.5t11 -71.5q0 -46 -17.5 -86.5 t-48 -70t-70 -47t-85.5 -17.5q-51 0 -92.5 18.5t-70 51.5t-45 74.5t-16.5 85.5z" />
<glyph unicode="&#xbb;" horiz-adv-x="1443" d="M78 916q1 61 43 103q44 44 105 45t105 -43l372 -394q42 -48 43 -108.5t-43 -104.5l-372 -372q-42 -42 -102 -42t-106 44q-44 44 -44 104.5t42 100.5l270 270l-270 292q-44 44 -43 105zM731 915q1 62 40 101q46 47 108 47t105 -42l373 -396q41 -48 42.5 -107.5 t-44.5 -105.5l-373 -370q-41 -42 -101.5 -42t-104.5 44t-44 104.5t42 100.5l267 270l-270 292q-41 42 -40 104z" />
<glyph unicode="&#xc1;" horiz-adv-x="1150" d="M57 199l430 1103q17 40 56.5 68t81.5 28q44 0 82 -26.5t56 -69.5l427 -1103q21 -57 -3 -112.5t-81 -80.5q-56 -21 -112 4t-78 84l-19 48h-546l-18 -48q-22 -59 -78 -84t-113 -4q-56 25 -81.5 80.5t-3.5 112.5zM443 379h362l-180 464zM473 1654q-15 59 14.5 111t91.5 69 l264 70q55 15 109 -15t69 -88q15 -64 -14.5 -116t-88.5 -68l-263 -72q-59 -15 -112.5 16.5t-69.5 92.5z" />
<glyph unicode="&#xc9;" horiz-adv-x="1010" d="M50 149v1102q0 57 42 103.5t105 46.5h627q61 0 104 -44t43 -106q0 -63 -43 -105t-104 -42h-483v-249h336q59 0 103 -44t44 -106q0 -61 -44 -103.5t-103 -42.5h-336v-264h483q61 0 104 -43t43 -103q0 -63 -43 -106t-104 -43h-627q-57 0 -102 43t-45 106zM337 1656 q-15 59 14.5 111t91.5 69l264 70q55 15 109 -15t69 -88q15 -64 -14.5 -116t-88.5 -68l-263 -72q-59 -15 -112.5 16.5t-69.5 92.5z" />
<glyph unicode="&#xcd;" horiz-adv-x="579" d="M171 147v1104q0 59 43 103t106 44q59 0 101.5 -43.5t42.5 -103.5v-1104q0 -61 -42.5 -104t-101.5 -43q-63 0 -106 43t-43 104zM184 1652q-15 59 14.5 111t91.5 69l264 70q55 15 109 -15t69 -88q15 -64 -14.5 -116t-88.5 -68l-263 -72q-59 -15 -112.5 16.5t-69.5 92.5z " />
<glyph unicode="&#xd3;" horiz-adv-x="1480" d="M55 701q0 144 55 271.5t149 222.5t222 150.5t273 55.5t271.5 -55.5t221 -150.5t149.5 -222t55 -272t-55 -271.5t-149.5 -222.5t-221 -150.5t-271.5 -54.5q-144 0 -272.5 54.5t-222.5 150.5t-149 222.5t-55 271.5zM345 701q0 -86 31.5 -160t87 -130t130.5 -88t160 -32 q86 0 159.5 32t129 88t87 130t31.5 160q0 85 -31.5 158.5t-87 129.5t-129.5 88t-159 32t-160 -32t-130.5 -88t-87 -129.5t-31.5 -158.5zM578 1654q-15 59 14.5 111t91.5 69l264 70q55 15 109 -15t69 -88q15 -64 -14.5 -116t-88.5 -68l-263 -72q-59 -15 -112.5 16.5 t-69.5 92.5z" />
<glyph unicode="&#xd6;" horiz-adv-x="1480" d="M55 701q0 144 55 271.5t149 222.5t222 150.5t273 55.5t271.5 -55.5t221 -150.5t149.5 -222t55 -272t-55 -271.5t-149.5 -222.5t-221 -150.5t-271.5 -54.5q-144 0 -272.5 54.5t-222.5 150.5t-149 222.5t-55 271.5zM345 701q0 -86 31.5 -160t87 -130t130.5 -88t160 -32 q86 0 159.5 32t129 88t87 130t31.5 160q0 85 -31.5 158.5t-87 129.5t-129.5 88t-159 32t-160 -32t-130.5 -88t-87 -129.5t-31.5 -158.5zM395 1729q0 61 42 105t104 44q63 0 107 -44t44 -105t-44 -104.5t-107 -43.5q-61 0 -103.5 43.5t-42.5 104.5zM817 1729q0 61 43 105 t104 44q63 0 107 -44t44 -105t-44 -104.5t-107 -43.5q-61 0 -104 43.5t-43 104.5z" />
<glyph unicode="&#xda;" horiz-adv-x="1150" d="M73 537v728q0 56 43.5 96t100.5 40t101 -43t44 -100v-732q0 -48 19.5 -91.5t52.5 -75t76.5 -50t91.5 -18.5q53 0 98 20t79 53t53 78t19 95v728q0 59 42 97.5t102 38.5q59 -3 99.5 -44.5t40.5 -98.5v-739q0 -109 -43.5 -203.5t-116 -163.5t-169.5 -107.5t-201 -38.5 q-114 0 -210 42t-168 114t-112 168.5t-42 206.5zM373 1641q-15 59 14.5 111t91.5 69l264 70q55 15 109 -15t69 -88q15 -64 -14.5 -116t-88.5 -68l-263 -72q-59 -15 -112.5 16.5t-69.5 92.5z" />
<glyph unicode="&#xdc;" horiz-adv-x="1206" d="M73 537v728q0 56 43.5 96t100.5 40t101 -43t44 -100v-732q0 -48 19.5 -91.5t52.5 -75t76.5 -50t91.5 -18.5q53 0 98 20t79 53t53 78t19 95v728q0 59 42 97.5t102 38.5q59 -3 99.5 -44.5t40.5 -98.5v-739q0 -109 -43.5 -203.5t-116 -163.5t-169.5 -107.5t-201 -38.5 q-114 0 -210 42t-168 114t-112 168.5t-42 206.5zM242 1721q0 61 42 105t104 44q63 0 107 -44t44 -105t-44 -104.5t-107 -43.5q-61 0 -103.5 43.5t-42.5 104.5zM664 1721q0 61 43 105t104 44q63 0 107 -44t44 -105t-44 -104.5t-107 -43.5q-61 0 -104 43.5t-43 104.5z" />
<glyph unicode="&#xe1;" horiz-adv-x="1187" d="M57 531q0 56 12 108.5t34 103.5q63 142 192.5 229.5t294.5 87.5h31.5t29.5 -2q98 -10 184.5 -56t149.5 -117.5t99 -162.5t36 -191v-389q0 -59 -43.5 -100.5t-99.5 -41.5q-77 0 -122 71q-11 -5 -20 -10.5t-18 -10.5q-52 -24 -107 -37q-56 -13 -120 -13q-165 0 -294 89 t-193 229q-22 50 -34 102.5t-12 110.5zM345 531q0 -51 20 -95.5t54.5 -78t78 -53t89.5 -19.5q51 0 96 18.5t77.5 51t52 77.5t19.5 99q0 48 -19.5 93t-53.5 78.5t-78.5 53.5t-93.5 20q-48 0 -91.5 -20t-78 -53.5t-53.5 -78.5t-19 -93zM352 1293q-15 59 14.5 111t91.5 69 l264 70q55 15 109 -15t69 -88q15 -64 -14.5 -116t-88.5 -68l-263 -72q-59 -15 -112.5 16.5t-69.5 92.5z" />
<glyph unicode="&#xe9;" horiz-adv-x="1150" d="M55 531q0 102 42.5 198.5t115 170t169 117t203.5 43.5q105 0 201.5 -43.5t170 -117t117 -168.5t43.5 -200q0 -57 -42 -90t-107 -31h-583q73 -125 200 -125q36 0 60 7t42 15.5t37 14.5t43 6q46 -2 80 -26t50.5 -59.5t11 -77.5t-38.5 -77q-59 -48 -131 -67t-154 -21 q-105 -4 -201.5 38.5t-170 116t-116 172t-42.5 204.5zM385 653h399q-37 67 -87.5 95t-111.5 28q-63 0 -112.5 -27.5t-87.5 -95.5zM419 1303q-15 59 14.5 111t91.5 69l264 70q55 15 109 -15t69 -88q15 -64 -14.5 -116t-88.5 -68l-263 -72q-59 -15 -112.5 16.5t-69.5 92.5z " />
<glyph unicode="&#xed;" horiz-adv-x="654" d="M67 1304q-15 59 14.5 110.5t91.5 68.5l266 71q54 15 107.5 -14.5t68.5 -88.5q15 -63 -14 -116t-88 -68l-264 -73q-59 -15 -112.5 16.5t-69.5 93.5zM111 129v793q5 57 47 94.5t99 39.5q57 0 95.5 -41.5t42.5 -100.5v-776q0 -59 -37.5 -98.5t-100.5 -43.5q-57 0 -96.5 34.5 t-49.5 98.5z" />
<glyph unicode="&#xf3;" horiz-adv-x="1148" d="M57 531q0 109 40.5 204t111.5 166.5t169 114t209 47.5q107 0 203.5 -42t169.5 -114t115 -168.5t42 -207.5q0 -109 -41 -205t-112.5 -168t-168 -114t-208.5 -42q-109 0 -205.5 39.5t-169 111t-114 167.5t-41.5 211zM341 531q0 -51 20 -95.5t54 -79t78 -54.5t94 -20 q51 0 96 20t77.5 54.5t52 79t19.5 95.5q-4 100 -72 170t-173 75q-50 0 -94 -19t-78 -51.5t-54 -77.5t-20 -97zM360 1303q-15 59 14.5 111t91.5 69l264 70q55 15 109 -15t69 -88q15 -64 -14.5 -116t-88.5 -68l-263 -72q-59 -15 -112.5 16.5t-69.5 92.5z" />
<glyph unicode="&#xf6;" horiz-adv-x="1148" d="M57 531q0 109 40.5 204t111.5 166.5t169 114t209 47.5q107 0 203.5 -42t169.5 -114t115 -168.5t42 -207.5q0 -109 -41 -205t-112.5 -168t-168 -114t-208.5 -42q-109 0 -205.5 39.5t-169 111t-114 167.5t-41.5 211zM228 1376q0 61 42 105t104 44q63 0 107 -44t44 -105 t-44 -104.5t-107 -43.5q-61 0 -103.5 43.5t-42.5 104.5zM341 531q0 -51 20 -95.5t54 -79t78 -54.5t94 -20q51 0 96 20t77.5 54.5t52 79t19.5 95.5q-4 100 -72 170t-173 75q-50 0 -94 -19t-78 -51.5t-54 -77.5t-20 -97zM650 1376q0 61 43 105t104 44q63 0 107 -44t44 -105 t-44 -104.5t-107 -43.5q-61 0 -104 43.5t-43 104.5z" />
<glyph unicode="&#xfa;" horiz-adv-x="1152" d="M67 515v403q0 57 41.5 99.5t102.5 45.5q57 0 100.5 -43t43.5 -104v-385q0 -51 20 -95.5t52.5 -78t77.5 -53t95 -19.5q48 0 92 17.5t78.5 48t53.5 74.5t19 94v399q0 55 42 98.5t102 46.5q58 0 101 -43t45 -96v-393q0 -109 -41.5 -206t-114 -169.5t-168.5 -114t-209 -41.5 q-105 -4 -201 36.5t-170 111.5t-118 166.5t-44 200.5zM410 1303q-15 59 14.5 111t91.5 69l264 70q55 15 109 -15t69 -88q15 -64 -14.5 -116t-88.5 -68l-263 -72q-59 -15 -112.5 16.5t-69.5 92.5z" />
<glyph unicode="&#xfc;" horiz-adv-x="1152" d="M67 515v403q0 57 41.5 99.5t102.5 45.5q57 0 100.5 -43t43.5 -104v-385q0 -51 20 -95.5t52.5 -78t77.5 -53t95 -19.5q48 0 92 17.5t78.5 48t53.5 74.5t19 94v399q0 55 42 98.5t102 46.5q58 0 101 -43t45 -96v-393q0 -109 -41.5 -206t-114 -169.5t-168.5 -114t-209 -41.5 q-105 -4 -201 36.5t-170 111.5t-118 166.5t-44 200.5zM240 1378q0 61 42 105t104 44q63 0 107 -44t44 -105t-44 -104.5t-107 -43.5q-61 0 -103.5 43.5t-42.5 104.5zM662 1378q0 61 43 105t104 44q63 0 107 -44t44 -105t-44 -104.5t-107 -43.5q-61 0 -104 43.5t-43 104.5z " />
<glyph unicode="&#x2c6;" horiz-adv-x="972" d="M54.5 1348.5q10.5 60.5 52.5 102.5l263 263q44 44 104.5 42.5t108.5 -42.5l285 -263q44 -44 53.5 -105.5t-34.5 -105.5q-42 -42 -103 -43t-105 43l-204 182l-182 -182q-42 -42 -101.5 -42t-103.5 44q-44 46 -33.5 106.5z" />
<glyph unicode="&#x2dc;" horiz-adv-x="1134" d="M76.5 1308.5q-17.5 58.5 19.5 124.5q40 67 91.5 107t121.5 56t148 1.5t128 -43.5l107 -59q36 -25 55.5 -19.5t47.5 40.5q29 48 80.5 70t108.5 -10q55 -31 73.5 -90.5t-20.5 -124.5q-40 -67 -91 -108t-121.5 -56.5t-151.5 1t-123 42.5l-109 59q-33 21 -59.5 12t-42.5 -36 q-31 -46 -81.5 -67.5t-108.5 11.5q-55 31 -72.5 89.5z" />
<glyph unicode="&#x2000;" horiz-adv-x="955" />
<glyph unicode="&#x2001;" horiz-adv-x="1911" />
<glyph unicode="&#x2002;" horiz-adv-x="955" />
<glyph unicode="&#x2003;" horiz-adv-x="1911" />
<glyph unicode="&#x2004;" horiz-adv-x="637" />
<glyph unicode="&#x2005;" horiz-adv-x="477" />
<glyph unicode="&#x2006;" horiz-adv-x="318" />
<glyph unicode="&#x2007;" horiz-adv-x="318" />
<glyph unicode="&#x2008;" horiz-adv-x="238" />
<glyph unicode="&#x2009;" horiz-adv-x="382" />
<glyph unicode="&#x200a;" horiz-adv-x="106" />
<glyph unicode="&#x2010;" horiz-adv-x="996" d="M73 659q0 63 41 106.5t105 43.5h559q61 0 103.5 -43.5t42.5 -106.5q0 -61 -42.5 -105t-103.5 -44h-559q-63 0 -104.5 44t-41.5 105z" />
<glyph unicode="&#x2011;" horiz-adv-x="996" d="M73 659q0 63 41 106.5t105 43.5h559q61 0 103.5 -43.5t42.5 -106.5q0 -61 -42.5 -105t-103.5 -44h-559q-63 0 -104.5 44t-41.5 105z" />
<glyph unicode="&#x2012;" horiz-adv-x="996" d="M73 659q0 63 41 106.5t105 43.5h559q61 0 103.5 -43.5t42.5 -106.5q0 -61 -42.5 -105t-103.5 -44h-559q-63 0 -104.5 44t-41.5 105z" />
<glyph unicode="&#x2013;" horiz-adv-x="996" d="M73 659q0 63 41 106.5t105 43.5h559q61 0 103.5 -43.5t42.5 -106.5q0 -61 -42.5 -105t-103.5 -44h-559q-63 0 -104.5 44t-41.5 105z" />
<glyph unicode="&#x2014;" horiz-adv-x="1175" d="M75 659q0 63 41 106.5t105 43.5h735q60 0 103 -43.5t43 -106.5q0 -61 -43 -105t-103 -44h-735q-63 0 -104.5 44t-41.5 105z" />
<glyph unicode="&#x2018;" horiz-adv-x="523" d="M50.5 976.5q-15.5 58.5 14.5 112.5l138 237q29 50 88.5 66.5t111.5 -14.5q55 -33 71.5 -92t-14.5 -111l-136 -237q-31 -52 -91 -67.5t-114 16.5q-53 31 -68.5 89.5z" />
<glyph unicode="&#x2019;" horiz-adv-x="523" d="M50.5 976.5q-15.5 58.5 14.5 112.5l138 237q29 50 88.5 66.5t111.5 -14.5q55 -33 71.5 -92t-14.5 -111l-136 -237q-31 -52 -91 -67.5t-114 16.5q-53 31 -68.5 89.5z" />
<glyph unicode="&#x201a;" horiz-adv-x="523" d="M50.5 -193.5q-15.5 57.5 14.5 112.5l138 236q29 50 88.5 67.5t111.5 -13.5q55 -34 71.5 -93t-14.5 -112l-136 -236q-31 -53 -91 -68.5t-114 18.5q-53 31 -68.5 88.5z" />
<glyph unicode="&#x201c;" horiz-adv-x="981" d="M70.5 976.5q-15.5 58.5 15.5 112.5l138 237q29 50 87.5 66.5t111.5 -14.5q54 -33 70.5 -92t-13.5 -111l-135 -237q-31 -52 -91.5 -67.5t-115.5 16.5q-52 31 -67.5 89.5zM488.5 976.5q-15.5 58.5 15.5 112.5l138 237q29 50 88 66.5t111 -14.5q55 -33 71.5 -92t-13.5 -111 l-136 -237q-31 -52 -91.5 -67.5t-115.5 16.5q-52 31 -67.5 89.5z" />
<glyph unicode="&#x201d;" horiz-adv-x="981" d="M70.5 976.5q-15.5 58.5 15.5 112.5l138 237q29 50 87.5 66.5t111.5 -14.5q54 -33 70.5 -92t-13.5 -111l-135 -237q-31 -52 -91.5 -67.5t-115.5 16.5q-52 31 -67.5 89.5zM488.5 976.5q-15.5 58.5 15.5 112.5l138 237q29 50 88 66.5t111 -14.5q55 -33 71.5 -92t-13.5 -111 l-136 -237q-31 -52 -91.5 -67.5t-115.5 16.5q-52 31 -67.5 89.5z" />
<glyph unicode="&#x201e;" horiz-adv-x="981" d="M70.5 -227q-15.5 58 15.5 114l138 236q29 50 87.5 67t111.5 -15q54 -33 70.5 -91.5t-13.5 -112.5l-135 -236q-31 -53 -91.5 -68.5t-115.5 17.5q-52 31 -67.5 89zM488.5 -227q-15.5 58 15.5 114l138 236q29 50 88 67t111 -15q55 -33 71.5 -91.5t-13.5 -112.5l-136 -236 q-31 -53 -91.5 -68.5t-115.5 17.5q-52 31 -67.5 89z" />
<glyph unicode="&#x2026;" d="M75 149q0 61 42.5 105.5t103.5 44.5q64 0 107.5 -44.5t43.5 -105.5t-43.5 -105t-107.5 -44q-61 0 -103.5 44t-42.5 105zM431 149q0 61 43 105.5t105 44.5q63 0 107 -44.5t44 -105.5t-44 -105t-107 -44q-61 0 -104.5 44t-43.5 105zM789 149q0 61 42.5 105.5t103.5 44.5 q63 0 107.5 -44.5t44.5 -105.5t-44 -105t-108 -44q-61 0 -103.5 44t-42.5 105z" />
<glyph unicode="&#x202f;" horiz-adv-x="382" />
<glyph unicode="&#x2039;" horiz-adv-x="757" d="M18 518.5q1 60.5 43 108.5l373 394q44 44 105 43t105 -45q42 -42 43 -103t-43 -105l-270 -292l270 -270q42 -41 42 -101t-44 -104q-46 -44 -106.5 -44t-101.5 42l-373 372q-44 44 -43 104.5z" />
<glyph unicode="&#x203a;" horiz-adv-x="759" d="M74 916q1 61 43 103q43 44 104 45t105 -43l373 -394q41 -48 42.5 -108.5t-42.5 -104.5l-373 -372q-41 -42 -101 -42t-106 44q-44 44 -44 104.5t42 100.5l268 270l-268 292q-44 44 -43 105z" />
<glyph unicode="&#x205f;" horiz-adv-x="477" />
<glyph unicode="&#x20ac;" horiz-adv-x="1189" d="M44 500q0 59 42 100q39 42 96 44v84q-57 2 -96 41q-42 44 -42 103t41.5 98.5t102.5 39.5q15 40 31 79q40 90 108 159t158 109.5t192 40.5q132 0 248 -66.5t184 -185.5q8 -15 16 -37t8 -42q0 -61 -44 -105t-105 -44q-48 0 -79 25t-54 63q-27 44 -72 70t-102 26 q-41 0 -77.5 -15.5t-64.5 -43.5q-15 -15 -27 -33h25q59 0 100.5 -39.5t41.5 -98.5t-41.5 -101.5t-100.5 -42.5h-58v-84h58q59 0 100.5 -42.5t41.5 -101.5t-41.5 -98.5t-100.5 -39.5h-4l6 -9q29 -27 65 -42.5t77 -15.5q57 0 101 27t73 71q24 37 50.5 60.5t85.5 23.5 q58 0 102 -42t44 -107q0 -21 -8 -40.5t-19 -42.5q-63 -111 -179 -178t-250 -67q-96 0 -186 38.5t-159 105.5t-111 157q-12 31 -22 61h-11q-61 0 -102.5 39.5t-41.5 98.5z" />
<glyph unicode="&#x2122;" horiz-adv-x="1833" d="M61 1251q0 61 43 105.5t105 44.5h347q64 0 106.5 -44t42.5 -106q0 -63 -42 -105t-107 -42h-25v-297q0 -63 -42 -106.5t-106 -43.5q-63 0 -105 43t-42 107v297h-27q-61 0 -104.5 42t-43.5 105zM721 793v237q0 86 23 156t83 120.5t119.5 65.5t107.5 15q40 0 80.5 -8.5 t105.5 -39.5q63 28 104 38t82 10q25 0 93 -13t127 -63.5t86.5 -118t27.5 -162.5v-237q0 -63 -44 -106t-104 -43q-63 0 -105.5 43t-42.5 106v198q0 42 -10 62.5t-28 20.5q-17 0 -28 -20.5t-11 -62.5v-198q0 -63 -42.5 -106t-104.5 -43q-61 0 -103.5 43t-42.5 106v198 q0 42 -10 62.5t-30 20.5q-17 0 -27.5 -20.5t-10.5 -62.5v-198q0 -63 -42.5 -106t-105.5 -43q-61 0 -104 43t-43 106z" />
<glyph unicode="&#xe000;" horiz-adv-x="1062" d="M0 0v1063h1063v-1063h-1063z" />
</font>
</defs>
</svg>
