<?xml version="1.0" standalone="no"?>
<!DOCTYPE svg PUBLIC "-//W3C//DTD SVG 1.1//EN" "http://www.w3.org/Graphics/SVG/1.1/DTD/svg11.dtd" >
<svg xmlns="http://www.w3.org/2000/svg">
<metadata>
Created by FontPrep 20130207 at Thu May 29 01:15:08 2014
 By Pixeloid
Copyright (c) 2006 by studio kmzero. All rights reserved.
</metadata>
<defs>
<font id="af129d6cb1111afb58d140d4ff837707" horiz-adv-x='1024' >
  <font-face 
    font-family="Arista2.0"
    font-weight="400"
    font-stretch="normal"
    units-per-em="2048"
    panose-1="2 0 5 6 0 0 0 2 0 4"
    ascent="1638"
    descent="-410"
    x-height="984"
    cap-height="1307"
    bbox="-55 -499.253 2456 1904.02"
    underline-thickness="102"
    underline-position="-102"
    unicode-range="U+0020-2122"
  />
<missing-glyph horiz-adv-x="460" 
 />
    <glyph glyph-name=".notdef" horiz-adv-x="460" 
 />
    <glyph glyph-name=".null" horiz-adv-x="0" 
 />
    <glyph glyph-name="nonmarkingreturn" horiz-adv-x="681" 
 />
    <glyph glyph-name="space" unicode=" " horiz-adv-x="460" 
 />
    <glyph glyph-name="exclam" unicode="!" horiz-adv-x="409" 
d="M204 1309q56 0 97 -40t41 -100v-690q0 -59 -41 -99t-97 -40t-97 40t-41 99v690q0 59 41 99.5t97 40.5zM342 138q0 -56 -41 -97t-97 -41t-97 41t-41 97t41 97t97 41t97 -41t41 -97z" />
    <glyph glyph-name="quotedbl" unicode="&#x22;" horiz-adv-x="751" 
d="M548 1309q58 0 97 -40t39 -98v-256q0 -57 -39 -97t-97 -40t-99 40t-41 97v256q0 57 41 97.5t99 40.5zM208 1309q58 0 97 -40t39 -98v-256q0 -57 -39 -97t-97 -40t-99 40t-41 97v256q0 57 41 97.5t99 40.5z" />
    <glyph glyph-name="numbersign" unicode="#" horiz-adv-x="1214" 
d="M662 698h-84l-21 -77h80zM1065 481.5q0 -57.5 -40 -98.5t-97 -41h-88l-78 -244q-16 -55 -67.5 -81.5t-106.5 -9.5t-82 67.5t-8 105.5l51 162h-82l-78 -244q-16 -55 -66.5 -81.5t-105.5 -9.5t-81.5 67.5t-8.5 105.5l51 162h-2q-59 0 -99 41t-40 98.5t40 98.5t99 41h88
l25 77q-59 0 -99 40t-40 98t39.5 97.5t99.5 39.5h86l76 241q16 55 68.5 81t106.5 10t79.5 -67.5t11.5 -104.5l-53 -160h84l73 241q20 55 70.5 82t103.5 9q57 -14 84 -65.5t11 -106.5l-52 -160q57 0 98.5 -40t41.5 -97t-41 -97.5t-99 -40.5h-88l-22 -77q57 0 97 -41t40 -98.5
z" />
    <glyph glyph-name="dollar" unicode="$" horiz-adv-x="1091" 
d="M778 396q0 50 -37 83q-20 20 -45 29v-225q26 7 54 35t28 78zM319 910q0 -50 33 -85q25 -23 56 -30v233q-31 -8 -60 -38t-29 -80zM551 1448q59 0 101 -42t44 -97h187q55 0 94 -39.5t41 -99.5t-37 -99t-98 -39h-187v-241q133 -14 244 -123.5t111 -271.5t-84.5 -246
t-150.5 -114t-120 -36q-4 -53 -45 -95t-100 -42t-100 42t-43 95h-197q-61 0 -100 40t-39 97t40 98t99 41h197v240q-140 13 -253.5 121.5t-113.5 269.5t85 247.5t154 119.5t128 35q2 55 43 97t100 42z" />
    <glyph glyph-name="percent" unicode="%" horiz-adv-x="1722" 
d="M1337 467q-43 0 -74.5 -30.5t-32.5 -77.5t30.5 -76t75.5 -30t76 31.5t32 75.5t-32 75t-75 32zM1343.5 717q143.5 0 244 -106.5t100.5 -248.5t-100.5 -249t-244.5 -107q-160 4 -261 100.5t-101 272.5q6 141 112.5 239.5t250 98.5zM391 1059q-43 0 -74.5 -31t-32.5 -78
t30.5 -75.5t75.5 -29.5t76 31.5t32 75.5t-32 75t-75 32zM397.5 1309q143.5 0 243.5 -106.5t100 -248.5t-100 -249t-244 -107q-160 4 -261 100.5t-101 272.5q6 141 112.5 239.5t250 98.5zM955.5 1296q50.5 27 105.5 10t81.5 -68.5t10.5 -104.5l-328 -1035q-16 -53 -68 -79.5
t-105.5 -10t-80 66.5t-10.5 107l328 1032q16 55 66.5 82z" />
    <glyph glyph-name="ampersand" unicode="&#x26;" horiz-adv-x="1224" 
d="M311 389q0 -51 39 -91t95 -40t96 39l57 63l-184 164q-45 -12 -74 -48t-29 -87zM446 1053q-43 0 -72.5 -31t-29.5 -70t27.5 -72.5t72.5 -33.5t76 29.5t31 72.5t-31 74t-74 31zM195 694q-107 107 -107 254t104.5 253t237.5 106t218 -63.5t124 -158t24.5 -200t-96.5 -191.5
l-24 -20t-23 -21l113 -100l106 119q35 41 87.5 43t92.5 -33t42 -87t-33 -93l-103 -117l193 -166q39 -35 42 -88t-32 -93t-89 -42t-91 33l-190 166l-80 -95q-113 -100 -277 -100t-271.5 123t-103.5 288t136 283z" />
    <glyph glyph-name="quotesingle" unicode="'" horiz-adv-x="401" 
d="M202 1313q58 0 97 -40t39 -97v-256q0 -57 -39 -97.5t-97 -40.5t-99.5 40t-41.5 98v256q0 57 41.5 97t99.5 40z" />
    <glyph glyph-name="parenleft" unicode="(" horiz-adv-x="784" 
d="M721 -136q0 -58 -40 -98t-99 -40h-27q-205 0 -313.5 109.5t-149.5 200.5t-41 189v584q0 198 150 350t354 152h27q59 0 99 -40t40 -98t-40 -97.5t-95 -39.5q-101 0 -178.5 -98.5t-77.5 -204.5v-479q0 -98 74.5 -176t181.5 -78q55 0 95 -39t40 -97z" />
    <glyph glyph-name="parenright" unicode=")" horiz-adv-x="786" 
d="M201 0q105 0 180.5 77.5t75.5 176.5v479q0 106 -78 204.5t-174 98.5q-59 0 -99 39t-40 97t39.5 98.5t99.5 40.5h26q100 0 192.5 -41t202 -152t109.5 -309v-584q0 -98 -41 -189t-109.5 -160t-160.5 -109.5t-193 -40.5h-26q-59 0 -99 40t-40 98t40 97t95 39z" />
    <glyph glyph-name="asterisk" unicode="*" horiz-adv-x="747" 
d="M375 711q-53 0 -89 32.5t-42 83.5q-47 -23 -94.5 -6t-75.5 63t-17 94t52 77q-41 29 -51.5 79t16.5 97q29 45 76 59.5t94 -8.5q6 53 42 87t89 34t90 -34t43 -83q47 18 93 3t73 -60t15.5 -95.5t-52.5 -78.5q41 -29 52 -77t-17 -93t-72.5 -61.5t-91.5 1.5q-6 -49 -43 -81.5
t-90 -32.5z" />
    <glyph glyph-name="plus" unicode="+" horiz-adv-x="845" 
d="M680 754q59 0 100 -40t41 -98t-41 -99.5t-100 -41.5h-119v-119q0 -59 -41 -100t-99 -41t-98 41t-40 100v119h-121q-59 0 -98 41t-39 99t38.5 98.5t98.5 40.5h121v120q0 59 39.5 99.5t97.5 40.5t99.5 -40t41.5 -100v-120h119z" />
    <glyph glyph-name="comma" unicode="," horiz-adv-x="403" 
d="M200 279q58 0 99 -41t41 -97v-256q0 -57 -41 -97t-99 -40t-98.5 40t-40.5 97v256q0 55 40.5 96.5t98.5 41.5z" />
    <glyph glyph-name="hyphen" unicode="-" horiz-adv-x="923" 
d="M860 617q0 -58 -40 -99t-97 -41h-522q-59 0 -98.5 41t-39.5 99t39 98.5t99 40.5h522q57 0 97 -40.5t40 -98.5z" />
    <glyph glyph-name="period" unicode="." horiz-adv-x="378" 
d="M330 139.5q0 -57.5 -41 -98.5t-99 -41t-98.5 41t-40.5 98.5t40 98.5t98 41t99.5 -41t41.5 -98.5z" />
    <glyph glyph-name="slash" unicode="/" horiz-adv-x="661" 
d="M431 1294q53 27 106 10q53 -16 79 -68t11 -106l-328 -1034q-15 -53 -67 -80q-52 -26 -106 -10t-81 66t-10 108l327 1032q16 55 69 82z" />
    <glyph glyph-name="zero" unicode="0" horiz-adv-x="1089" 
d="M384 333q69 -69 163 -69t160.5 70t64.5 163t-65.5 158.5t-158.5 67.5t-164 -63.5t-69 -161.5t69 -165zM1040 497q0 -204 -144 -349.5t-352 -145.5q-207 0 -351 142t-144 349t142.5 349.5t353.5 150.5q201 0 348 -145.5t147 -350.5z" />
    <glyph glyph-name="one" unicode="1" horiz-adv-x="579" 
d="M508 135q0 -55 -39 -95t-94 -40h-25q-57 0 -96 40t-39 95v490q-43 -23 -94 -9t-78 64q-29 47 -15.5 101.5t64.5 82.5q215 140 272 140t100.5 -43t43.5 -103v-723z" />
    <glyph glyph-name="two" unicode="2" horiz-adv-x="989" 
d="M193 551q-51 0 -92.5 41t-41.5 97t44 123t129 117t142.5 61t133.5 11q166 0 288 -100t122 -258q0 -127 -113 -209l-217 -158h209q55 0 96 -39t41 -97t-41 -99t-96 -41h-600q-78 4 -110 54t-30 103.5t70 98.5l455 336q35 25 36 59q-4 92 -126 88q-55 0 -98.5 -30.5
t-67.5 -70.5t-53 -63.5t-80 -23.5z" />
    <glyph glyph-name="three" unicode="3" horiz-adv-x="1003" 
d="M905 860.5q0 -57.5 -39 -98.5l-198 -199q169 -74 225.5 -197.5t56.5 -267.5t-133.5 -277.5t-324.5 -133.5q-138 0 -266 72.5t-163 179.5q-24 67 13 131.5t102 64.5t107 -41q25 -18 40 -40.5t33.5 -43t44 -34t96.5 -13.5t123 52.5t52 128.5t-52.5 129t-129.5 53h-74
q-12 -2 -24 -2q-57 0 -97 43q-43 41 -43 97t41 97l164 166h-217q-59 0 -98.5 41t-39.5 99t39 98.5t99 40.5h501q18 0 35 -5q47 -3 86 -38q41 -45 41 -102.5z" />
    <glyph glyph-name="four" unicode="4" horiz-adv-x="937" 
d="M918 138q0 -54 -38 -94t-92 -44v-203q0 -37 -40 -76.5t-98 -39.5t-98 39.5t-40 76.5v203h-350q-57 0 -97 40t-40 99v2l227 774q27 53 74 79t101 6t82 -76t-1 -107l-180 -541h184q2 55 42 94.5t96 39.5t96 -39t42 -95q53 -4 91.5 -44t38.5 -94z" />
    <glyph glyph-name="five" unicode="5" horiz-adv-x="991" 
d="M811 -178.5q-133 -134.5 -326 -134.5q-117 0 -245.5 72.5t-161.5 179.5q-24 66 12.5 131t101.5 65q66 0 107 -41q25 -18 40 -40.5t45.5 -56.5t104.5 -34t126.5 52.5t52.5 133.5t-52.5 133t-130.5 52h-286q-53 0 -96.5 40t-43.5 97v393q0 59 41 99.5t99 40.5h508
q59 0 99 -40t40 -98t-40 -98.5t-99 -40.5h-377v-117h155q187 -4 323 -136t136 -325t-133 -327.5z" />
    <glyph glyph-name="six" unicode="6" horiz-adv-x="1079" 
d="M358 361q56 -79 150 -89q94 -11 170 44q77 55 90 150q13 94 -42 172t-153 88q-98 11 -173 -47t-86 -148q-10 -91 44 -170zM841 101q-165 -120 -361 -96q-98 12 -185 62q-174 99 -230 301t46 377l301 525q29 45 82 55q53 9 99 -17t60 -79t-12 -99l-76 -133q115 -8 215 -65
t160 -137q121 -162 94 -360q-12 -97 -63 -186t-130 -148z" />
    <glyph glyph-name="seven" unicode="7" horiz-adv-x="1024" 
d="M188 727q-55 0 -96 39t-41 97t41 99.5t96 41.5h680q82 -4 110 -55.5t28 -84.5t-23 -84l-561 -1024q-39 -51 -97.5 -60t-105.5 21.5t-58 85t19 101.5l447 823h-439z" />
    <glyph glyph-name="eight" unicode="8" horiz-adv-x="1019" 
d="M511 1317q134 0 229.5 -100.5t95.5 -235.5q0 -84 -37 -156q176 -141 176 -346t-135 -342t-329.5 -137t-329 134.5t-134.5 336.5t162 342q-39 76 -39 184q6 133 106.5 226.5t234.5 93.5zM513 1079q-40 0 -68.5 -26.5t-29.5 -70.5t26.5 -70.5t69.5 -26.5t69.5 28.5
t27.5 68.5t-27.5 68.5t-67.5 28.5zM383 329.5q57 -55.5 130 -55.5t128 56.5t53 132.5t-53 128t-111 54t-91 -12.5t-72 -53t-41 -116.5t57 -133.5z" />
    <glyph glyph-name="nine" unicode="9" horiz-adv-x="1077" 
d="M679 326q76 57 86 149t-46 171t-150 89t-169 -46q-76 -55 -89 -149t43 -173q55 -79 152 -88q97 -10 173 47zM784 939q88 -50 146 -131q122 -169 99 -364q-11 -98 -60 -184l-301 -524q-29 -45 -82 -55q-54 -9 -100 17t-60 79t12 98l76 133q-115 8 -215 66
q-191 110 -243 306q-52 197 53 376q100 176 298 230q199 54 377 -47z" />
    <glyph glyph-name="colon" unicode=":" horiz-adv-x="391" 
d="M336 854q0 -57 -41 -98t-99 -41t-98.5 41t-40.5 98t40.5 98t98.5 41t99 -41t41 -98zM336 139.5q0 -57.5 -41 -98.5t-99 -41t-98.5 41t-40.5 98.5t40.5 98.5t98.5 41t99 -41t41 -98.5z" />
    <glyph glyph-name="semicolon" unicode=";" horiz-adv-x="401" 
d="M200 279q58 0 99 -41t41 -97v-256q0 -57 -41 -97t-99 -40t-98.5 40t-40.5 97v256q0 55 40.5 96.5t98.5 41.5zM340 854q0 -57 -41 -98t-99 -41t-98.5 41t-40.5 98t40.5 98t98.5 41t99 -41t41 -98z" />
    <glyph glyph-name="less" unicode="&#x3c;" horiz-adv-x="786" 
d="M78 731l446 238q48 27 102 11t81 -66t9 -103t-67 -80l-221 -119l221 -116q49 -27 67 -80t-9 -103q-27 -49 -80 -65t-103 10l-446 236q-63 31 -63 120q1 37 18 70q16 33 45 47z" />
    <glyph glyph-name="equal" unicode="=" horiz-adv-x="905" 
d="M840 899q0 -55 -39 -95t-94 -40h-506q-57 0 -96 40t-39 95t38.5 95t96.5 40h506q55 0 94 -40t39 -95zM840 544.5q0 -55.5 -39 -95t-94 -39.5h-506q-57 0 -96 39.5t-39 95t38.5 95.5t96.5 40h506q55 0 94 -40t39 -95.5z" />
    <glyph glyph-name="greater" unicode="&#x3e;" horiz-adv-x="790" 
d="M711 731q60 -29 62 -117t-62 -120l-447 -236q-49 -26 -102 -10t-80 65q-28 49 -10 103t67 80l221 116l-221 119q-49 27 -66 80t9 102q27 49 80 65t102 -9z" />
    <glyph glyph-name="question" unicode="?" horiz-adv-x="894" 
d="M473 136q0 -56 -40 -96t-96 -40t-95 40t-39 96t39 96t95 40t96 -40t40 -96zM745.5 1190q124.5 -119 124.5 -295q0 -139 -82 -250q-53 -72 -134 -118t-177 -50v-2q0 -55 -40 -96t-98 -41t-97 41t-39 96v154q0 53 41 88t94 39h135q51 6 86 46t35 96t-41 97t-99 41
t-99.5 -41t-41.5 -99t-41 -98t-96 -40t-94 33.5t-43 87.5q0 172 116.5 301t290.5 129q175 0 299.5 -119z" />
    <glyph glyph-name="at" unicode="@" horiz-adv-x="1495" 
d="M751 713q-46 0 -77 -32t-31 -77t31 -76.5t77 -31.5t77.5 31.5t31.5 76.5t-31.5 77t-77.5 32zM1151 496q27 0 37 30q6 37 6 78q0 123 -59 219q-57 100 -159 162t-209 62t-187 -35t-140.5 -95.5t-95.5 -140.5t-35 -217t130 -267t313 -130q72 0 115 15t83 15t77.5 -37
t37.5 -85q0 -95 -90 -131q-109 -37 -239 -37t-258 55t-223 150.5t-150.5 223.5t-55.5 273.5t55.5 273.5t150.5 223t223 150.5t273.5 55.5t272.5 -55.5t222 -150.5t150.5 -223t55.5 -256t-24 -200t-100.5 -127t-174.5 -59q-106 0 -188 69q-94 -70 -213 -69q-149 0 -259 108.5
t-110 261.5t108.5 260t260.5 107q96 0 176 -44.5t119 -104.5q71 -108 71 -220l-6 -69q0 -39 39 -39z" />
    <glyph glyph-name="A" unicode="A" horiz-adv-x="1120" 
d="M791 813q0 97 -68 163t-162 66t-160.5 -63.5t-66.5 -155.5v-184h457v174zM911 1169.5q146 -139.5 146 -340.5v-690q0 -53 -38 -92t-93 -40t-95 35t-40 91v240h-457v-234q0 -53 -41 -93t-94.5 -40t-94.5 37t-41 90v680q4 208 146 352t349 144t353 -139.5z" />
    <glyph glyph-name="B" unicode="B" horiz-adv-x="1130" 
d="M678 799q51 0 88 36.5t37 88.5t-37 88.5t-88 36.5h-336v-250h336zM678 272q51 0 88 36t37 110t-37 109.5t-88 35.5h-336v-291h336zM1071 412q0 -82 -30.5 -162t-115.5 -165t-247 -85h-467q-63 4 -101 42t-38 95v1039q0 51 39 91t88 44h479q154 0 273.5 -105t119.5 -264
t-96 -272q96 -109 96 -258z" />
    <glyph glyph-name="C" unicode="C" horiz-adv-x="1060" 
d="M874.5 446q55.5 0 96.5 -39.5t41 -99.5q0 -26 -25 -78q-59 -104 -167.5 -166.5t-246.5 -62.5h-18q-208 0 -354 139.5t-146 339.5v334q0 206 143 351t357 145q148 1 259 -63q112 -64 175 -175q23 -40 23 -86q0 -45 -41 -86t-93 -41t-80 23.5t-52 61.5q-42 68 -156 97
q-16 2 -51 2q-81 0 -148 -63t-67 -156v-327q-4 -96 65 -163t168 -67h25q114 22 166 101q23 35 47 57t79.5 22z" />
    <glyph glyph-name="D" unicode="D" horiz-adv-x="1110" 
d="M348 1030v-751h238q80 0 134 54t54 132v379q0 77 -54.5 131.5t-133.5 54.5h-238zM586 1309q187 0 327 -138t140 -327v-379q0 -183 -139 -324t-328 -141h-375q-55 0 -97 40t-42 99v1030q0 53 40 96.5t99 43.5h375z" />
    <glyph glyph-name="E" unicode="E" horiz-adv-x="999" 
d="M795 276q57 0 97 -40t40 -98t-40 -98t-97 -40h-586q-53 0 -95 40t-42 99v1030q0 53 39 96.5t98 43.5h586q57 0 97 -41.5t40 -99.5t-40 -97t-97 -39h-451v-233h313q55 0 96.5 -41t41.5 -98.5t-41 -97.5t-97 -40h-313v-246h451z" />
    <glyph glyph-name="F" unicode="F" horiz-adv-x="948" 
d="M350 1032v-305h309q59 0 98.5 -41t39.5 -98.5t-39 -97t-99 -39.5h-309v-312q0 -59 -40 -99t-99 -40t-99 40t-40 99v1030q0 53 40 96.5t99 43.5h586q57 0 97 -41.5t40 -99.5t-40 -97t-97 -39h-447z" />
    <glyph glyph-name="G" unicode="G" horiz-adv-x="1101" 
d="M55 481v334q0 206 143 351t357 145q148 1 259 -63q112 -64 175 -175q23 -40 23 -86q0 -45 -41 -86t-93 -41t-80 23.5t-52 61.5q-42 68 -156 97q-16 2 -51 2q-81 0 -148 -63t-67 -156v-327q-3 -97 64.5 -162.5t164.5 -67.5q96 -2 160.5 62.5t64.5 152.5h-47
q-55 0 -95 40.5t-40 98.5t40 98t95 40h180q59 0 98.5 -40t43.5 -99v-125q-12 -212 -152 -354t-350 -142q-206 4 -351 142.5t-145 338.5z" />
    <glyph glyph-name="H" unicode="H" horiz-adv-x="1144" 
d="M934 1307q51 0 95 -39t44 -99v-1032q0 -86 -57.5 -111.5t-95.5 -25.5t-78.5 40t-40.5 97v336h-447v-336q0 -57 -40 -97t-100 -40t-100 39t-42 98v1032q0 63 44 100.5t101 37.5t97 -41t40 -97v-417h447v417q0 55 41 96.5t92 41.5z" />
    <glyph glyph-name="I" unicode="I" horiz-adv-x="417" 
d="M207 1307q57 0 97 -41t40 -97v-1032q0 -57 -40 -97t-97 -40t-97 40t-40 97v1032q0 55 40 96.5t97 41.5z" />
    <glyph glyph-name="J" unicode="J" horiz-adv-x="677" 
d="M479 1307q57 0 98 -41t41 -97v-704q-4 -195 -137 -328t-329 -137q-55 0 -95.5 39t-40.5 97t40 99t88 41q90 0 145 55.5t55 133.5v704q0 55 39 96.5t96 41.5z" />
    <glyph glyph-name="K" unicode="K" horiz-adv-x="1132" 
d="M1065 136q0 -56 -41 -97t-97.5 -41t-99.5 39l-477 422v-322q0 -57 -40 -97t-98 -40t-99 40t-41 97v1032q0 55 41 96.5t99 41.5t98 -41t40 -97v-321l477 418q43 41 99.5 41t97.5 -41t41 -97.5t-41 -97.5l-479 -418l479 -420q41 -41 41 -97z" />
    <glyph glyph-name="L" unicode="L" horiz-adv-x="989" 
d="M844 279q55 0 95 -40.5t40 -98.5t-40 -98t-95 -40h-631q-59 0 -98 40t-43 99v1030q0 57 41 97.5t97 40.5t98 -40t42 -98v-892h494z" />
    <glyph glyph-name="M" unicode="M" horiz-adv-x="1515" 
d="M758 1202q134 107 290 107q155 0 273.5 -124t126.5 -292v-754q0 -59 -41 -99t-98 -40t-97.5 40t-40.5 99v738q0 59 -39.5 99t-97 40t-98.5 -40t-41 -99v-738q0 -59 -40 -99t-97.5 -40t-97 40t-39.5 99v738q0 59 -40.5 99t-98.5 40t-98 -40t-40 -99v-738q0 -59 -40 -99
t-98 -40t-98 40t-40 99v754q0 167 122.5 291.5t277.5 124.5t290 -107z" />
    <glyph glyph-name="N" unicode="N" horiz-adv-x="1120" 
d="M911 1163.5q146 -139.5 146 -340.5v-690q0 -53 -38 -92t-93 -40t-95 35t-40 91v680q0 98 -69 163.5t-161 65.5t-159.5 -63.5t-67.5 -155.5v-684q0 -53 -41 -93t-94.5 -40t-94.5 37t-41 90v680q4 208 146 352t349 144t353 -139.5z" />
    <glyph glyph-name="O" unicode="O" horiz-adv-x="1105" 
d="M391 979q-67 -63 -67 -156v-327q-4 -96 65 -163t163 -67t162 63.5t68 155.5l2 328q0 98 -67.5 163.5t-163 65.5t-162.5 -63zM201 139.5q-146 139.5 -146 339.5v334q0 206 143 351t352 145t355 -139.5t146 -340.5v-333q0 -206 -143 -351t-352 -145t-355 139.5z" />
    <glyph glyph-name="P" unicode="P" horiz-adv-x="1087" 
d="M725.5 972.5q-65.5 65.5 -158.5 65.5h-221v-446h221q91 0 157.5 65t66.5 158q0 92 -65.5 157.5zM919.5 462.5q-145.5 -145.5 -352.5 -145.5h-221v-180q0 -57 -40 -97t-97 -40t-97 40t-40 97v1039q0 57 40 97t97 40h358q207 0 352.5 -145.5t145.5 -352.5t-145.5 -352.5z
" />
    <glyph glyph-name="Q" unicode="Q" horiz-adv-x="1232" 
d="M547 266q41 0 71 8q-12 31 -43 45q-35 14 -81 -8q-20 -16 -29 -30q41 -15 82 -15zM389 979q-67 -63 -67 -156v-323q38 42 106 66q128 44 260 -11q49 -18 92 -55l2 313q0 98 -67.5 163.5t-163 65.5t-162.5 -63zM1049 496q0 -161 -91 -289q20 -6 56 6t86.5 -5.5t69.5 -73.5
t-4 -108t-91 -76q-195 -67 -338 83q-86 -33 -186 -33q-206 0 -352 139.5t-146 339.5v334q0 206 143 351t351 145t355 -139.5t147 -340.5v-333z" />
    <glyph glyph-name="R" unicode="R" horiz-adv-x="1116" 
d="M723 973q-65 65 -158 65h-221v-446h221q91 0 157 64.5t66 158.5q0 93 -65 158zM344 317v-180q0 -57 -40 -97t-97 -40t-97 40t-40 97v1039q0 57 40 97t97 40h358q207 0 352.5 -145.5t145.5 -352.5q0 -135 -64.5 -246.5t-171.5 -177.5l156 -151q39 -41 39 -98.5t-39 -98.5
t-96.5 -41t-98.5 41l-278 274h-166z" />
    <glyph glyph-name="S" unicode="S" horiz-adv-x="1038" 
d="M451 1032q-49 0 -83 -36t-34 -86t33.5 -83.5t83.5 -33.5h139q153 0 273 -116.5t120 -280.5t-115.5 -278t-277.5 -118h-365q-61 0 -100 40t-39 97t40 98t99 41h365q47 0 84 35t37 85t-36 84t-83 36h-141q-160 4 -278 118t-118 273t118 280.5t278 121.5h364q55 0 94 -39.5
t41 -99.5t-37 -99t-98 -39h-364z" />
    <glyph glyph-name="T" unicode="T" horiz-adv-x="1073" 
d="M903 1309q59 0 99 -41.5t40 -99.5t-39.5 -97t-99.5 -39h-229v-893q0 -59 -39 -99t-98.5 -40t-98.5 40t-39 99v893h-231q-57 0 -97 39t-40 97t40 99.5t97 41.5h735z" />
    <glyph glyph-name="U" unicode="U" horiz-adv-x="1120" 
d="M63 1182q0 53 41 90t94.5 37t94.5 -40t41 -93v-684q0 -92 67.5 -156t159.5 -64t161 66.5t69 163.5v680q0 55 39.5 91t95.5 35t93.5 -40t37.5 -92v-691q0 -200 -146 -339.5t-354 -139.5q-206 0 -347 143t-147 353v680z" />
    <glyph glyph-name="V" unicode="V" horiz-adv-x="1210" 
d="M609 0q-40 0 -76.5 26.5t-53.5 63.5l-428 1030q-20 53 3.5 105.5t76.5 73.5t105.5 -2t72.5 -78l299 -701l295 701q20 55 72.5 78.5t105.5 1.5t76 -73.5t2 -105.5l-422 -1030q-16 -41 -52 -65.5t-76 -24.5z" />
    <glyph glyph-name="W" unicode="W" horiz-adv-x="1515" 
d="M68 1169q0 57 39 98.5t97 41.5t97 -41t39 -99v-739q0 -57 42 -97t97.5 -40t97 40t41.5 97v741q0 57 40 98.5t98 41.5t98.5 -41t40.5 -99v-741q0 -57 40 -97t97 -40t97 40t40 97v739q0 57 41.5 98.5t97.5 41.5t98 -41t42 -99v-753q-4 -169 -125.5 -292.5t-287.5 -123.5
q-167 0 -277 106q-123 -102 -286 -104t-277.5 116.5t-126.5 297.5v753z" />
    <glyph glyph-name="X" unicode="X" horiz-adv-x="1132" 
d="M1038 219q33 -47 23 -104t-57 -91q-48 -34 -104 -23t-91 58l-242 351l-245 -351q-34 -47 -90 -58t-103 24q-46 30 -57 87t22 107l301 434l-301 437q-35 47 -23 103q11 56 58 90t103 24t90 -58l245 -350l242 350q35 47 91 57t104 -22q47 -35 58 -91t-24 -103l-301 -437z
" />
    <glyph glyph-name="Y" unicode="Y" horiz-adv-x="1017" 
d="M37 989v182q0 57 40 97.5t97 40.5t97 -40t40 -98v-182q0 -84 56.5 -140t140.5 -56t141.5 56t57.5 140v182q0 57 39.5 97.5t97.5 40.5t97.5 -40t39.5 -98v-184q0 -158 -95.5 -284t-244.5 -166v-400q0 -57 -40 -97t-97 -40t-97 40t-40 97v402q-148 47 -239 170t-91 280z
" />
    <glyph glyph-name="Z" unicode="Z" horiz-adv-x="1134" 
d="M930 276q59 0 98 -40t39 -98t-39 -98t-98 -40h-721q-84 4 -109.5 53t-25.5 86t20 74l563 819h-452q-55 0 -96 39t-41 97t41 99.5t96 41.5h721q81 -4 109 -55.5t28 -89.5t-23 -74l-565 -814h455z" />
    <glyph glyph-name="bracketleft" unicode="[" horiz-adv-x="636" 
d="M438 0q57 0 97 -39t40 -97t-39.5 -98t-97.5 -40h-229q-57 0 -93 37.5t-44 89.5v1331q8 51 44 88t93 39h229q57 0 97 -40t40 -98t-39.5 -97.5t-97.5 -39.5h-92v-1036h92z" />
    <glyph glyph-name="backslash" unicode="\" horiz-adv-x="661" 
d="M45 1235q27 52 80 69t105 -10t69 -82l328 -1032q16 -57 -11 -107q-26 -51 -80 -67t-106 10q-51 27 -68 80l-327 1034q-16 53 10 105z" />
    <glyph glyph-name="bracketright" unicode="]" horiz-adv-x="638" 
d="M201 0h92v1036h-92q-57 0 -97.5 39t-40.5 97t40 98.5t98 40.5h229q57 -2 93 -39t44 -88v-1331q-8 -51 -44 -89t-93 -38h-229q-57 0 -97.5 40t-40.5 98t40.5 97t97.5 39z" />
    <glyph glyph-name="asciicircum" unicode="^" horiz-adv-x="1165" 
d="M444 1231q55 90 132 90t147 -90l389 -600q20 -53 -3.5 -105.5t-76.5 -73.5t-105.5 2t-88.5 78l-256 371l-260 -371q-33 -55 -85.5 -78.5t-105.5 -1.5t-75.5 74t-2.5 105z" />
    <glyph glyph-name="underscore" unicode="_" horiz-adv-x="1091" 
d="M1026 142q0 -58 -40 -99t-97 -41h-686q-59 0 -98 41t-39 99t38.5 98.5t98.5 40.5h686q57 0 97 -40.5t40 -98.5z" />
    <glyph glyph-name="grave" unicode="`" horiz-adv-x="614" 
d="M147 1122q-55 14 -83 64t-13 106q15 57 65 85t101 14l248 -66q57 -16 85 -64q28 -49 14 -105t-65 -86q-50 -30 -106 -15z" />
    <glyph glyph-name="a" unicode="a" horiz-adv-x="1101" 
d="M707.5 333q66.5 67 66.5 161t-68.5 162.5t-159 68.5t-160 -68t-69.5 -161t70.5 -161.5t162.5 -68.5q91 0 157.5 67zM1042 496v-363q0 -55 -40.5 -94t-102.5 -39t-104 66q-10 -4 -58 -35t-196 -31t-291.5 98.5t-172 221t-28.5 198t51 192.5t172 199t275 82h63
q63 0 155.5 -49t184.5 -153.5t92 -292.5z" />
    <glyph glyph-name="b" unicode="b" horiz-adv-x="1079" 
d="M401 333.5q69 -67.5 160 -67.5t160.5 67.5t69.5 163t-70 162t-160 66.5t-159.5 -69.5t-69.5 -161.5q0 -93 69 -160.5zM332 1171v-235q139 71 299.5 48t281.5 -136q144 -148 144 -352t-146.5 -350t-346.5 -146t-350.5 147.5t-150.5 348.5v686q0 47 43 88t91 37
q49 4 92 -37t43 -99z" />
    <glyph glyph-name="c" unicode="c" horiz-adv-x="978" 
d="M696 668q-63 57 -153 57t-160 -69t-70 -162t71.5 -162.5t160.5 -67.5q90 2 151 58q37 41 94.5 40.5t94.5 -40.5q38 -34 40 -85.5t-32 -91.5q-145 -145 -348 -145t-350.5 147.5t-147.5 348.5q0 98 40 188t150 198.5t312 108.5q201 0 344 -143q35 -39 32 -92.5t-40 -88
t-94.5 -36.5t-94.5 37z" />
    <glyph glyph-name="d" unicode="d" horiz-adv-x="1079" 
d="M357.5 656.5q-68.5 -68.5 -68.5 -161.5t69 -161t160 -68q92 0 161 69t69 164t-69 160.5t-161 65.5t-160.5 -68.5zM1016 1169v-673q0 -202 -108.5 -309t-199 -147t-238.5 -40t-297.5 146t-149.5 349t149.5 349.5t347.5 146.5q123 0 228 -55v235q0 54 40 94t94 40t94 -38
t40 -98z" />
    <glyph glyph-name="e" unicode="e" horiz-adv-x="1081" 
d="M731 610q-64 115 -187 115t-186 -115h373zM544 991q196 0 347 -149.5t151 -345.5q0 -53 -39.5 -84t-99.5 -29h-545q68 -117 187 -117q50 0 93.5 20.5t81.5 19.5t69.5 -23.5t57.5 -78.5t-36 -122q-95 -77 -266 -82q-98 -4 -188.5 36t-159 108.5t-108.5 160t-40 189.5
t40 188t107.5 158.5t158 109.5t189.5 41z" />
    <glyph glyph-name="f" unicode="f" horiz-adv-x="772" 
d="M254 950q0 143 101.5 251t244.5 108q59 0 100 -33t43 -92t-35.5 -96t-87.5 -40t-75 -32t-25 -68v-200q94 -4 130 -42t36 -93.5t-35 -92.5t-131 -41v-411q0 -180 -125 -270t-210 -88t-119.5 45.5t-35.5 92.5t36.5 87t85.5 39t75 31t27 67v407q-96 0 -129 37t-37 96
q0 124 166 136v202z" />
    <glyph glyph-name="g" unicode="g" horiz-adv-x="1089" 
d="M541 725q-45 0 -86 -19.5t-73 -51t-51.5 -72.5t-19.5 -86t17.5 -87t48.5 -74t73 -51.5t91 -19.5t92 18.5t73.5 51.5t48 74t17.5 88t-19.5 89t-51 72.5t-73.5 49t-87 18.5zM184.5 139.5q-139.5 139.5 -139.5 347.5t150 356t350 148t344.5 -144.5t144.5 -350.5
q0 -139 -59 -246q59 -80 59 -260q2 -59 -25.5 -130t-100 -148t-220.5 -85h-147q-51 -4 -91 -43t-96.5 -39t-96.5 39t-43 91.5t32 91.5q61 78 180 112q53 16 115 19h151q31 4 49 26q45 68 31 125v2q-91 -51 -215 -51q-233 0 -372.5 139.5z" />
    <glyph glyph-name="h" unicode="h" horiz-adv-x="1095" 
d="M1065 506v-375q0 -55 -38 -94t-93 -40t-92 35t-45 91v369q0 93 -66.5 161t-160.5 68q-93 0 -157.5 -63.5t-74.5 -155.5v-371q0 -55 -38 -94t-92 -40t-90 35t-46 91v1053q4 51 40 87.5t91 36.5t93 -36.5t42 -96.5v-235q83 55 207 55q229 0 374.5 -141.5t145.5 -339.5z" />
    <glyph glyph-name="i" unicode="i" horiz-adv-x="401" 
d="M332 127q0 -55 -35 -92t-91 -39t-93 30.5t-45 92.5v741q4 53 43 88t92 36t89 -38t40 -94v-725zM203 1298q53 0 91 -39.5t38 -93t-38 -93.5t-94 -39t-94 37t-37 95t41 96t93 37z" />
    <glyph glyph-name="j" unicode="j" horiz-adv-x="573" 
d="M379 1298q53 0 91 -39.5t38 -93t-38 -93.5t-94 -39t-94 37t-37 95t41 96t93 37zM244 72v788q4 53 43 88t92 36t89 -38t40 -94v-784q6 -176 -120.5 -268t-212 -90t-120.5 45.5t-36 92.5t37 87t85 39t75 31t28 67z" />
    <glyph glyph-name="k" unicode="k" horiz-adv-x="917" 
d="M893 136q0 -56 -41 -95t-96.5 -42t-98.5 40l-309 307v-209q0 -53 -41 -95t-95 -42t-97 40t-43 97v1034q0 53 41 95.5t98 42.5t97 -40t40 -98v-514l309 310q41 41 96.5 40t98.5 -40q41 -41 41 -97.5t-41 -97.5l-270 -270l270 -269q41 -41 41 -97z" />
    <glyph glyph-name="l" unicode="l" horiz-adv-x="583" 
d="M334 358q0 -41 26.5 -69.5t73.5 -28.5t87 -37t41 -89t-32.5 -90t-87.5 -46h-28q-142 0 -246.5 108t-104.5 252v818q6 51 43.5 88t92.5 38t93 -38t42 -97v-809z" />
    <glyph glyph-name="m" unicode="m" horiz-adv-x="1320" 
d="M659 911q98 80 237 80t248 -102t109 -252v-514q0 -49 -41 -86t-94 -37t-93 40t-40 93v498q0 39 -27.5 65.5t-65.5 26.5t-67.5 -23.5t-29.5 -68.5v-498q0 -55 -39.5 -94t-93.5 -39t-95 36t-41 87v508q-2 41 -30.5 66.5t-65.5 25.5t-64.5 -26.5t-29.5 -67.5v-508
q-4 -49 -42 -85t-79 -36q-70 0 -110.5 40.5t-36.5 92.5v504q0 145 106.5 249.5t247.5 104.5t237 -80z" />
    <glyph glyph-name="n" unicode="n" horiz-adv-x="1114" 
d="M1053 518v-379q0 -53 -38 -92t-93 -40t-95.5 35t-40.5 91v369q0 149 -91 189t-138 40q-92 0 -159.5 -63.5t-67.5 -155.5v-373q0 -53 -41 -93t-94.5 -40t-94.5 37t-41 90v369q4 206 145 350.5t349 144.5q209 0 354.5 -139t145.5 -340z" />
    <glyph glyph-name="o" unicode="o" horiz-adv-x="1089" 
d="M384 333q69 -69 163 -69t160.5 70t64.5 163t-65.5 158.5t-158.5 67.5t-164 -63.5t-69 -161.5t69 -165zM1040 497q0 -204 -144 -349.5t-352 -145.5q-207 0 -351 142t-144 349t142.5 349.5t353.5 150.5q201 0 348 -145.5t147 -350.5z" />
    <glyph glyph-name="p" unicode="p" horiz-adv-x="1079" 
d="M400 330q68 -66 162 -66t160 68t66 164t-67 161.5t-161 65.5q-95 0 -161.5 -66.5t-66.5 -163.5t68 -163zM914 145q-143 -145 -353 -145q-127 0 -229 51v-235q0 -53 -39 -92t-93 -39t-94 35.5t-43 89.5v686q0 201 148.5 348t348.5 147q204 0 350.5 -146.5t146.5 -350.5
t-143 -349z" />
    <glyph glyph-name="q" unicode="q" horiz-adv-x="1079" 
d="M680.5 659q-67.5 66 -161.5 66q-95 0 -161.5 -66.5t-66.5 -160.5t65.5 -163t159.5 -69t163 65.5t69 163.5t-67.5 164zM517 993q101 0 192.5 -40t199 -147.5t107.5 -307.5v-686q-2 -53 -42 -89t-94 -36t-93 38.5t-39 92.5v235q-102 -51 -218 -51t-207.5 39t-158 106.5
t-104 157.5t-37.5 192.5t38.5 192.5t106.5 157.5t158 106.5t191 39z" />
    <glyph glyph-name="r" unicode="r" horiz-adv-x="698" 
d="M188 -2q-57 0 -94 36t-41 95v379q4 196 146.5 334.5t347.5 146.5q57 0 95 -39t40 -94t-37 -93t-91 -39q-99 -2 -165.5 -67t-66.5 -163v-373q-4 -53 -40.5 -88t-93.5 -35z" />
    <glyph glyph-name="s" unicode="s" horiz-adv-x="962" 
d="M729 995q55 0 92 -42t37 -92t-40 -90t-89 -40h-352q-25 0 -42.5 -14.5t-17.5 -42.5t17.5 -43t42.5 -15h231q124 0 210.5 -95t86.5 -206q4 -135 -90 -225t-231 -90h-377q-53 0 -92 37t-39 90t37 95t90 44h377q55 0 55 49q0 55 -55 56h-226q-125 0 -210 96t-85 218t88 214
t218 96h364z" />
    <glyph glyph-name="t" unicode="t" horiz-adv-x="976" 
d="M202 1309q56 0 95 -40t43 -100v-163h352q59 0 96 -41t37 -95t-41 -96.5t-92 -42.5h-352v-225q0 -93 65 -163.5t165 -70.5q99 0 157 58q43 37 95 38.5t85 -28.5q53 -47 55 -103t-34 -94q-147 -143 -353 -143t-358 140.5t-156 365.5v674q0 55 42.5 92t98.5 37z" />
    <glyph glyph-name="u" unicode="u" horiz-adv-x="1114" 
d="M328 856v-360q0 -93 67 -161.5t160 -68.5q92 0 160.5 61t68.5 158v373q0 51 39 92t95 42t95.5 -39t41.5 -89v-368q0 -205 -145.5 -350.5t-352.5 -145.5q-195 -8 -305.5 98.5t-151.5 195.5t-41 187v377q0 53 38.5 93t93.5 41t96 -39t41 -97z" />
    <glyph glyph-name="v" unicode="v" horiz-adv-x="964" 
d="M490 0q-103 0 -134 86l-301 723q-23 53 0 103.5t76 71.5t104.5 -1t73.5 -76l174 -393l172 393q23 53 75.5 76t104.5 1t74.5 -72t-0.5 -103l-297 -723q-10 -23 -44 -54.5t-78 -31.5z" />
    <glyph glyph-name="w" unicode="w" horiz-adv-x="1320" 
d="M68 354v504q-4 52 36 92.5t96 40.5t94 -35.5t42 -85.5v-508q2 -41 29.5 -67.5t64.5 -26.5t65.5 25.5t30.5 66.5v512q0 51 41 87t94 36t93.5 -38.5t40.5 -94.5v-502q0 -45 29.5 -68.5t67.5 -23.5t65.5 27t27.5 65v498q0 53 40 93t93 40t94 -36.5t41 -86.5v-514
q0 -148 -108.5 -251t-247.5 -103t-238 80q-96 -80 -237 -80t-247.5 105t-106.5 249z" />
    <glyph glyph-name="x" unicode="x" horiz-adv-x="1122" 
d="M1055 858q0 -55 -37 -94l-266 -268l266 -269q37 -37 39 -93t-37 -95t-95 -39t-98 43l-266 262l-266 -268q-37 -33 -92 -37t-95 35t-41 93q-3 54 35 95l273 273l-273 272q-39 39 -34 90q4 51 38 92q44 45 96 41t93 -41l266 -266l273 268q39 39 91 38t91 -39t39 -93z" />
    <glyph glyph-name="y" unicode="y" horiz-adv-x="1095" 
d="M29 512v350q0 53 38 92t92 39t96 -34.5t42 -90.5v-370q0 -93 66 -160.5t160 -67.5q93 0 163 62.5t70 154.5v375q0 53 37 92t93 39t97 -35.5t41 -89.5v-1052q0 -53 -41 -90t-93 -37t-93 36.5t-41 96.5v235q-89 -55 -210 -55q-221 0 -369 146t-148 364z" />
    <glyph glyph-name="z" unicode="z" horiz-adv-x="1130" 
d="M932 991q53 0 92 -41t39 -93t-39 -91l-192 -192q-191 -191 -308 -306h408q51 -2 92 -41q39 -43 39 -94t-39 -94q-43 -39 -92 -39h-731q-53 0 -93 40t-38 91q-4 55 36 92l500 502h-405q-55 4 -95 42t-36 93q-2 51 37 91t94 40h731z" />
    <glyph glyph-name="braceleft" unicode="{" horiz-adv-x="897" 
d="M831 -137q0 -57 -40.5 -97t-98.5 -40h-26q-100 0 -191.5 40.5t-200 150t-108.5 310.5v152q-59 0 -99 40t-40 98t39.5 99t99.5 41v152q0 201 149.5 350.5t350.5 149.5h26q57 0 98 -40t41 -97.5t-40.5 -97.5t-94.5 -40q-100 0 -177 -99t-77 -204v-477q0 -98 74 -176
t179 -78q54 0 95 -40t41 -97z" />
    <glyph glyph-name="bar" unicode="|" horiz-adv-x="432" 
d="M213 1311q59 0 102 -43t43 -103v-1294q0 -59 -43 -102t-102 -43t-101 43t-42 102v1294q0 59 42 102.5t101 43.5z" />
    <glyph glyph-name="braceright" unicode="}" horiz-adv-x="897" 
d="M202 0q105 0 179 78t74 176v477q0 105 -76.5 204t-173.5 99q-57 0 -98 40t-41 97.5t40.5 97.5t98.5 40h26q100 0 191.5 -41t200 -149.5t108.5 -309.5v-152q59 0 99 -41t40 -99t-39.5 -98t-99.5 -40v-152q0 -201 -148.5 -351t-351.5 -150h-26q-57 0 -98 39t-41 97t41 98
t95 40z" />
    <glyph glyph-name="asciitilde" unicode="~" horiz-adv-x="1056" 
d="M545 758l100 -56q18 -18 49 -11t47 32q27 45 75 65t100 -10t70 -84q16 -55 -20 -117q-114 -193 -333 -155q-18 6 -50 12t-71 31l-102 55q-18 16 -50 9t-52 -41q-22 -34 -70 -54t-100 10t-68 84q-16 56 20 118q69 121 197 152q82 19 159 -7q52 -6 99 -33z" />
    <glyph glyph-name="exclamdown" unicode="&#xa1;" horiz-adv-x="358" 
d="M204 -272q-56 0 -98 40q-41 40 -40 99v690q0 59 40 99q42 40 98 40t97 -40t41 -99v-690q0 -59 -41 -99t-97 -40zM342 898q0 -56 -41 -97t-97 -41t-98 41q-40 41 -40 97t40 97q42 41 98 41t97 -41t41 -97z" />
    <glyph glyph-name="cent" unicode="&#xa2;" horiz-adv-x="940" 
d="M365 655q-70 -68 -70 -160q0 -93 70 -163v323zM508 1208q59 0 102 -43t43 -102v-88q125 -31 221 -127q35 -39 32 -92.5t-40 -88t-94 -36.5t-94 37q-12 10 -25 18v-385q12 10 25 21q37 41 94 40.5t94 -40.5q60 -54 42.5 -106t-34.5 -71q-97 -97 -221 -131v-106
q0 -59 -43 -102.5t-102 -43.5t-101 43t-42 103v119q-207 78 -271.5 222.5t-64.5 244.5t60 235.5t247 220.5l29 13v100q0 59 42 102t101 43z" />
    <glyph glyph-name="sterling" unicode="&#xa3;" horiz-adv-x="1087" 
d="M920 274q57 0 97 -41t40 -97t-40 -96t-97 -40h-607q-59 0 -99 40t-40 99v250q-57 0 -92 37t-37 94t34 96t95 48v276q0 147 105.5 258t250.5 111q61 0 103.5 -34t44.5 -95t-37 -99.5t-87 -40.5t-77 -32t-28 -68v-276q53 -4 89 -44t38 -96t-34 -93.5t-93 -41.5v-115h471z
" />
    <glyph glyph-name="currency" unicode="&#xa4;" horiz-adv-x="1138" 
d="M410.5 496.5q68.5 -68.5 162 -68.5t161 69t65.5 162q-2 94 -66 160t-159 68t-163.5 -64t-68.5 -162t68.5 -164.5zM410 1126q164 58 321 4l82 119q35 47 91.5 57.5t103.5 -23.5t58 -90t-24 -103l-84 -123q109 -136 109 -306t-113 -315l88 -127q33 -47 23 -104t-57 -91
t-103.5 -23t-91.5 58l-90 129q-149 -48 -307 0l-90 -129q-33 -47 -89.5 -58t-103.5 24q-47 30 -57.5 87t22.5 107l86 125q-108 133 -108 310t106 313l-84 123q-35 47 -23.5 103t58.5 90t103.5 23.5t89.5 -57.5z" />
    <glyph glyph-name="yen" unicode="&#xa5;" horiz-adv-x="1079" 
d="M793 444q55 0 94 -38.5t39 -94t-39 -94.5t-94 -39h-121v-45q0 -55 -39 -94t-94.5 -39t-94 39t-38.5 94v45h-121q-55 0 -94 39t-39 94.5t38.5 94t94.5 38.5h121v54h-119q-57 0 -96 40t-39 94t36.5 93t90.5 43l-209 315q-31 49 -22 104.5t56 89.5t103.5 23.5t87.5 -59.5
l244 -346l239 346q33 49 89.5 59.5t103.5 -23.5t58 -89t-23 -105l-209 -315q53 -2 91 -42t38 -94t-39 -94t-94 -40h-121v-54h121z" />
    <glyph glyph-name="brokenbar" unicode="&#xa6;" horiz-adv-x="417" 
d="M207 1307q57 0 97 -41t40 -97v-1349q0 -57 -40 -97t-97 -40t-97 39.5t-40 97.5v1349q0 55 40 96.5t97 41.5z" />
    <glyph glyph-name="section" unicode="&#xa7;" horiz-adv-x="1064" 
d="M365 495.5q0 -53.5 46 -91t111.5 -37.5t112.5 37.5t47 91t-47 92.5t-112.5 39t-111.5 -39t-46 -92.5zM506 111q-195 0 -309.5 133t-98.5 295q17 124 97 215q-125 102 -101 297q8 74 46 142.5t96.5 116.5t133 71.5t215 16.5t253.5 -86q112 -79 161 -192
q50 -99 -14.5 -152.5t-114.5 -47.5t-75 31.5t-44 66.5t-80.5 86t-176.5 33q-49 -4 -86 -34t-41 -81t23.5 -93t78.5 -44l137 -4q143 -12 222 -106.5t117.5 -209t-44.5 -262.5q-20 -35 -49 -65l10 -13q49 -57 73.5 -133t16.5 -154t-66 -178t-183.5 -137t-231.5 -22
q-142 14 -250 88q-92 74 -126 137t-45.5 113t44.5 94.5t105 40.5q79 -6 118 -94q20 -47 65 -79.5t106 -39.5q61 -6 98 3t66.5 34.5t34.5 72.5t-27.5 89t-77.5 51h-76z" />
    <glyph glyph-name="dieresis" unicode="&#xa8;" horiz-adv-x="798" 
d="M737 1247.5q0 -57.5 -41 -98.5t-99 -41t-98 41t-40 98.5t40 98t98 40.5t99 -40.5t41 -98zM342 1247.5q0 -57.5 -41 -98.5t-99 -41t-98.5 41t-40.5 98.5t40.5 98t98.5 40.5t99 -40.5t41 -98z" />
    <glyph glyph-name="copyright" unicode="&#xa9;" horiz-adv-x="1513" 
d="M760 1049q-55 0 -111 -17q-111 -29 -196.5 -110.5t-113.5 -185.5q-51 -189 39.5 -348t268.5 -210q180 -46 336.5 45t206.5 269q18 70 14 110t-2 57q-10 90 -55 166q-82 144 -248 203l-22 6q-62 15 -117 15zM764 1309q145 0 272 -55.5t222.5 -150.5t150.5 -223t55 -247
t-22 -209q-39 -139 -125 -248.5t-203 -177.5t-255 -88.5t-278 17.5t-250 125t-177.5 203t-87 254t17.5 278t170 306.5t410 206.5q49 6 100 7v2zM502 344q-109 113 -109 263t109 259q70 68 158 92.5t158 10.5q125 -25 204 -105q12 -10 18 -24q25 -37 21 -81t-38 -79t-91 -39
l-6 -6l-8 6q-34 3 -52 19t-26 22q-35 35 -78 34t-76 -34t-32 -77t32 -77q33 -31 79.5 -31.5t82.5 40.5q37 31 89 29.5t88 -37.5t39 -83t-24 -86l-16 -16q-104 -104 -259 -104t-263 104z" />
    <glyph glyph-name="ordfeminine" unicode="&#xaa;" horiz-adv-x="901" 
d="M448.5 1042q-53.5 0 -93.5 -36.5t-41 -96.5t37.5 -95.5t94.5 -36.5t94 39t38 93.5t-38 93t-91.5 39.5zM454.5 1309q159.5 0 271.5 -119t116 -272v-279q0 -55 -40 -94t-94 -39t-94 39q-74 -35 -159 -35q-178 6 -292 113.5t-114 304.5q6 160 126 270.5t279.5 110.5z" />
    <glyph glyph-name="guillemotleft" unicode="&#xab;" horiz-adv-x="1343" 
d="M1274 138q0 -56 -42 -97t-98 -41t-96 39l-348 348q-41 41 -40 97t40 102l348 368q40 41 98 40t98 -41t41 -97t-40 -98l-252 -273l252 -252q39 -39 39 -95zM664 138q0 -56 -41 -97t-97 -41t-96 39l-348 346q-43 43 -42 98t40 101l348 370q41 39 98 39q58 0 98 -40t41 -98
t-38 -97l-252 -273l250 -252q39 -39 39 -95z" />
    <glyph glyph-name="logicalnot" unicode="&#xac;" horiz-adv-x="1046" 
d="M839 240q-58 0 -99.5 39.5t-41.5 97.5v100h-544q-59 0 -98.5 41t-39.5 99t39 98.5t99 40.5h686q57 0 96 -39t41 -94v-246q0 -57 -40 -97t-98 -40z" />
    <glyph glyph-name="uni00AD" unicode="&#xad;" horiz-adv-x="923" 
d="M860 617q0 -58 -40 -99t-97 -41h-522q-59 0 -98.5 41t-39.5 99t39 98.5t99 40.5h522q57 0 97 -40.5t40 -98.5z" />
    <glyph glyph-name="registered" unicode="&#xae;" horiz-adv-x="1513" 
d="M782 592v-225q0 -55 -38.5 -94.5t-94 -39.5t-94.5 39t-39 95v225q0 159 110.5 268t264.5 109q55 0 95 -40t40 -95.5t-40 -94.5t-91 -39t-82 -31.5t-31 -76.5zM760 1049q-55 0 -111 -17q-111 -29 -196.5 -110.5t-113.5 -185.5q-51 -189 39.5 -348t268.5 -210
q180 -46 336.5 45t206.5 269q18 70 14 131l-2 36q-10 90 -55 166q-82 144 -248 203l-22 6q-62 15 -117 15zM1464 633q0 -119 -22 -209q-39 -139 -125 -248.5t-203 -177.5t-255 -88.5t-278 17.5t-250 125t-177.5 203t-87 254t17.5 278t124 249t227.5 191t306.5 82
q167 0 294 -55.5t222.5 -150.5t150.5 -223t55 -247z" />
    <glyph glyph-name="degree" unicode="&#xb0;" horiz-adv-x="890" 
d="M448.5 1042q-53.5 0 -93.5 -36.5t-41 -96.5t37.5 -95.5t94.5 -36.5t94 39t38 93.5t-38 93t-91.5 39.5zM454.5 1309q159.5 0 273.5 -120t114 -279.5t-114 -279.5t-273 -120q-178 6 -292 113.5t-114 304.5q6 160 126 270.5t279.5 110.5z" />
    <glyph glyph-name="plusminus" unicode="&#xb1;" horiz-adv-x="880" 
d="M840 140q0 -58 -40 -99t-98 -41h-522q-59 0 -98 41t-39 99t39 98.5t98 40.5h522q57 0 97.5 -40.5t40.5 -98.5zM698 934q59 0 100.5 -40t41.5 -98t-41 -99.5t-101 -41.5h-118v-118q0 -59 -41 -100.5t-99 -41.5t-98.5 41t-40.5 101v118h-121q-59 0 -98 41.5t-39 99.5t39 98
t98 40h121v121q0 59 40 99t98 40t99.5 -40t41.5 -99v-121h118z" />
    <glyph glyph-name="twosuperior" unicode="&#xb2;" horiz-adv-x="722" 
d="M195 956q-53 0 -93.5 42t-40.5 90t28 91q28 44 91 80q62 36 100 43t70 7h37q112 0 191 -80.5t79 -189.5t-82 -191l-59 -55h12q55 0 97.5 -38.5t42.5 -98.5t-42 -102t-98 -42h-340q-61 0 -97 44t-36 92t37 89l238 244l22 14q16 0 25.5 9.5t9.5 21.5q0 33 -32.5 33
t-37.5 -29q-23 -33 -46 -53.5t-76 -20.5z" />
    <glyph glyph-name="threesuperior" unicode="&#xb3;" horiz-adv-x="702" 
d="M377 1037.5q0 21.5 -33 21.5t-37 -27q-23 -33 -46 -52t-77 -19t-93.5 39.5t-39.5 89.5t19 71q45 74 112 109q90 39 158 39h37q110 0 190 -76t80 -176q0 -51 -17.5 -81t-47.5 -65q31 -35 48 -65.5t17 -105t-80 -150.5t-190 -76h-37q-60 0 -97.5 14.5t-60.5 24.5
q-68 35 -112 109q-19 24 -19 72t40 88t93 40t77 -19.5t46 -51.5q4 -27 37 -27t33 21.5t-9.5 30.5t-25.5 9q-32 11 -49 27t-18 48q-2 79 67 97q16 0 25.5 9.5t9.5 31z" />
    <glyph glyph-name="acute" unicode="&#xb4;" horiz-adv-x="612" 
d="M397 1391q51 14 101 -14t65 -85t-13 -106t-83 -64l-246 -67q-55 -15 -105 15t-64 86t13 104q28 48 85 65z" />
    <glyph glyph-name="mu" unicode="&#xb5;" horiz-adv-x="1095" 
d="M340 -178q0 -59 -41 -96t-93 -37t-93 36.5t-41 90.5v1052q0 53 41 89t96 36t93 -39t38 -92v-375q0 -92 69 -154.5t163 -62.5q93 0 160 67t67 161v370q0 55 42 90t96 35t92 -39t38 -92v-350q0 -218 -148 -364t-368 -146q-119 0 -211 55v-235z" />
    <glyph glyph-name="paragraph" unicode="&#xb6;" horiz-adv-x="417" 
d="M207 1307q57 0 97 -41t40 -97v-1032q0 -57 -40 -97t-97 -40t-97 40t-40 97v1032q0 55 40 96.5t97 41.5z" />
    <glyph glyph-name="periodcentered" unicode="&#xb7;" horiz-adv-x="378" 
d="M330 497.5q0 -57.5 -41 -98.5t-99 -41t-98.5 41t-40.5 98.5t40 98.5t98 41t99.5 -41t41.5 -98.5z" />
    <glyph glyph-name="cedilla" unicode="&#xb8;" horiz-adv-x="481" 
d="M96 -364q-57 66 -57 149q2 27 21.5 43t47.5 16t48 -19t20 -49t20.5 -50.5t50.5 -20.5t50 20.5t20 49.5t-17 48t-44 23h-68q-27 2 -47 19.5t-20 44.5v240q0 18 19.5 38.5t49.5 20.5t49 -20.5t19 -38.5v-164q94 -4 156 -84q41 -55 41 -112q0 -56 -16.5 -94t-62 -82
t-134.5 -44t-146 66z" />
    <glyph glyph-name="onesuperior" unicode="&#xb9;" horiz-adv-x="548" 
d="M339 1311q58 0 99 -41t41 -96v-527q0 -57 -41 -97t-99 -40t-98 40t-40 97v209q-77 -23 -142 37q-41 41 -41 97.5t41 96.5l181 183q41 41 99 41z" />
    <glyph glyph-name="ordmasculine" unicode="&#xba;" horiz-adv-x="890" 
d="M448.5 1042q-53.5 0 -93.5 -36.5t-41 -96.5t37.5 -95.5t94.5 -36.5t94 39t38 93.5t-38 93t-91.5 39.5zM454.5 1309q159.5 0 273.5 -120t114 -279.5t-114 -279.5t-273 -120q-178 6 -292 113.5t-114 304.5q6 160 126 270.5t279.5 110.5z" />
    <glyph glyph-name="guillemotright" unicode="&#xbb;" horiz-adv-x="1343" 
d="M210 0q-56 0 -99 41q-41 41 -41 97t39 95l251 252l-251 273q-41 41 -40 98t41 97t97 41t98 -40l348 -368q39 -46 40 -102t-40 -97l-348 -348q-39 -39 -95 -39zM817 993q57 0 98 -39l349 -370q39 -44 40 -100t-42 -99l-349 -346q-39 -39 -95 -39t-97 41t-41 97t39 95
l250 252l-252 273q-39 39 -38 97t41 98t97 40z" />
    <glyph glyph-name="onequarter" unicode="&#xbc;" horiz-adv-x="1691" 
d="M857 1294q53 27 106 10t79.5 -68.5t10.5 -105.5l-328 -1034q-16 -53 -67.5 -79.5t-105.5 -10.5t-81 66.5t-10 107.5l327 1032q16 55 69 82zM1661 138q0 -54 -38 -94t-91 -44v-141q0 -37 -41 -77t-98 -40t-97.5 40t-40.5 77v141h-200q-57 0 -97 40t-40 99v2l145 543
q27 53 74 78.5t101 5.5t82 -75.5t-1 -106.5l-98 -310h34q2 55 42.5 94.5t96.5 39.5t96 -39t42 -95q53 -4 91 -44t38 -94zM341 1309q58 0 99 -41t41 -97v-526q0 -57 -41 -97t-99 -40t-98 40t-40 97v209q-77 -23 -142 37q-41 41 -41 97t41 97l181 183q41 41 99 41z" />
    <glyph glyph-name="onehalf" unicode="&#xbd;" horiz-adv-x="1634" 
d="M852.5 1294q52.5 27 105.5 10t80 -68.5t11 -105.5l-328 -1034q-16 -53 -67.5 -79.5t-105.5 -10.5t-81 66.5t-10 107.5l327 1032q16 55 68.5 82zM1122 444q-53 0 -93 42t-40 90q0 103 119 171q85 50 170 50h37q110 0 190 -79.5t80 -189.5t-82 -192l-59 -55h12
q55 0 97 -38.5t42 -98.5t-42 -102t-97 -42h-340q-61 0 -97 44t-36 93t37 88l237 238l23 20q16 0 25.5 9.5t9.5 21.5q0 33 -33 33t-37 -29q-23 -33 -46.5 -53.5t-76.5 -20.5zM357 1311q58 0 99.5 -41t41.5 -96v-527q0 -57 -41 -97t-99 -40t-98.5 40t-40.5 97v209
q-78 -23 -141 37q-41 41 -41 97.5t41 96.5l180 183q41 41 99 41z" />
    <glyph glyph-name="threequarters" unicode="&#xbe;" horiz-adv-x="1677" 
d="M902.5 1294q52.5 27 105.5 10t79.5 -68.5t10.5 -105.5l-328 -1034q-16 -53 -67.5 -79.5t-105.5 -10.5t-81 66.5t-10 107.5l328 1032q16 55 68.5 82zM1647 138q0 -54 -38 -94t-91 -44v-141q0 -37 -41 -77t-99 -40t-97.5 40t-39.5 77v141h-201q-57 0 -97 40t-40 99v2
l146 543q27 53 74 78.5t101 5.5t81.5 -75.5t-0.5 -106.5l-99 -310h35q2 55 42 94.5t96 39.5t96.5 -39t42.5 -95q53 -4 91 -44t38 -94zM348 803.5q0 21.5 -35 21.5q-32 11 -48.5 27t-17.5 48q-2 79 66 97q16 0 25.5 9.5t9.5 21.5t-9 21.5t-24 9.5q-33 0 -36 -27
q-23 -33 -46.5 -52t-76.5 -19t-93 39.5t-40 88.5t18 72q45 74 113 109q90 39 157 39h37q111 0 190.5 -76t79.5 -176q0 -51 -17 -81t-48 -65q31 -35 48 -65.5t17 -105t-79.5 -150.5t-190.5 -76h-37q-60 0 -97.5 14.5t-59.5 24.5q-68 35 -113 109q-18 22 -18 71t40 89t93 40
t76.5 -19.5t46.5 -51.5q4 -27 36 -27q14 0 23.5 9t9.5 30.5z" />
    <glyph glyph-name="questiondown" unicode="&#xbf;" horiz-adv-x="913" 
d="M440 857q0 56 40 96t96 40t96 -40q39 -40 39 -96t-39 -96t-95 -40t-97 40q-40 40 -40 96zM43 98q0 136 82 250q53 72 134 118t177 50v2q0 55 40 96t98 41t98 -41q39 -41 39 -96v-153q0 -53 -41 -88t-94 -39h-136q-51 -6 -86 -46q-34 -40 -34 -96t41 -98q41 -41 99 -41
t99 41t41 99q0 59 41 99t96 40t95 -34t43 -87q0 -171 -116 -301q-116 -129 -296 -129q-172 0 -296 120t-124 293z" />
    <glyph glyph-name="Agrave" unicode="&#xc0;" 
d="M791 813q0 97 -68 163t-161 66t-161 -63q-67 -63 -67 -156v-184h457v174zM1057 829v-690q0 -53 -38 -92t-93 -40t-96 35q-40 36 -39 91v240h-457v-234q0 -53 -41 -93t-94 -40t-95 37q-41 37 -41 90v680q4 209 146 353q142 143 350 143q207 0 352 -140q146 -140 146 -340z
M264 1501q-54 13 -82 63t-14 107t64 85t102 13l248 -65q57 -16 85 -64q27 -48 13 -105q-14 -56 -64 -86t-106 -15z" />
    <glyph glyph-name="Aacute" unicode="&#xc1;" 
d="M791 813q0 97 -68 163t-161 66t-161 -63q-67 -63 -67 -156v-184h457v174zM1057 829v-690q0 -53 -38 -92t-93 -40t-96 35q-40 36 -39 91v240h-457v-234q0 -53 -41 -93t-94 -40t-95 37q-41 37 -41 90v680q4 209 146 353q142 143 350 143q207 0 352 -140q146 -140 146 -340z
M760 1769q52 15 102 -13t64 -85t-14 -106t-83 -64l-245 -67q-55 -14 -106 15q-50 30 -64 86t13 104q28 48 85 65z" />
    <glyph glyph-name="Acircumflex" unicode="&#xc2;" 
d="M791 813q0 97 -68 163t-161 66t-161 -63q-67 -63 -67 -156v-184h457v174zM1057 829v-690q0 -53 -38 -92t-93 -40t-96 35q-40 36 -39 91v240h-457v-234q0 -53 -41 -93t-94 -40t-95 37q-41 37 -41 90v680q4 209 146 353q142 143 350 143q207 0 352 -140q146 -140 146 -340z
M286 1374q-56 0 -98 41q-41 43 -30 99q10 56 49 96l246 245q41 41 97 40t101 -40l267 -245q41 -40 50 -98t-31 -98t-97 -41t-99 40l-190 170l-170 -170q-39 -39 -95 -39z" />
    <glyph glyph-name="Atilde" unicode="&#xc3;" 
d="M791 813q0 97 -68 163t-161 66t-161 -63q-67 -63 -67 -156v-184h457v174zM1057 829v-690q0 -53 -38 -92t-93 -40t-96 35q-40 36 -39 91v240h-457v-234q0 -53 -41 -93t-94 -40t-95 37q-41 37 -41 90v680q4 209 146 353q142 143 350 143q207 0 352 -140q146 -140 146 -340z
M578 1765l100 -55q33 -24 51 -18t45 39q27 45 75 65t100 -10q51 -30 69 -84q18 -56 -19 -118q-116 -196 -340 -151q-76 15 -114 40l-103 55q-58 37 -102 -32q-22 -34 -69 -54q-48 -20 -100 10t-69 84q-16 56 20 118q70 122 197 151q66 15 139 1t120 -41z" />
    <glyph glyph-name="Adieresis" unicode="&#xc4;" 
d="M791 813q0 97 -68 163t-161 66t-161 -63q-67 -63 -67 -156v-184h457v174zM1057 829v-690q0 -53 -38 -92t-93 -40t-96 35q-40 36 -39 91v240h-457v-234q0 -53 -41 -93t-94 -40t-95 37q-41 37 -41 90v680q4 209 146 353q142 143 350 143q207 0 352 -140q146 -140 146 -340z
M901 1608q0 -56 -41 -98t-99 -42t-98 41t-40 99t40 98q40 41 98 41t99 -41t41 -98zM506 1608q0 -56 -41 -98t-99 -42t-99 41q-40 41 -40 99t40 98q41 41 99 41t99 -41t41 -98z" />
    <glyph glyph-name="Aring" unicode="&#xc5;" 
d="M791 813q0 97 -68 163t-161 66t-161 -63q-67 -63 -67 -156v-184h457v174zM1057 829v-690q0 -53 -38 -92t-93 -40t-96 35q-40 36 -39 91v240h-457v-234q0 -53 -41 -93t-94 -40t-95 37q-41 37 -41 90v680q4 209 146 353q142 143 350 143q207 0 352 -140q146 -140 146 -340z
" />
    <glyph glyph-name="AE" unicode="&#xc6;" horiz-adv-x="1665" 
d="M793 811q0 97 -68 163t-161 66t-161 -63q-67 -63 -67 -156v-184h457v174zM932 1309h586q57 0 97 -41q40 -42 40 -100t-40 -97t-97 -39h-451v-233h313q54 0 96 -41q42 -40 42 -98t-41 -98t-97 -40h-313v-246h451q57 0 97 -40t40 -98t-40 -98t-97 -40h-586q-56 0 -98 38
q-41 38 -41 93v240h-457v-234q0 -53 -41 -93t-94 -40t-95 37q-41 37 -40 90v680q4 210 146 353t351 143q136 0 252 -66q42 68 117 68z" />
    <glyph glyph-name="Ccedilla" unicode="&#xc7;" horiz-adv-x="1038" 
d="M874 446q55 0 97 -39q41 -40 41 -85t-25 -93q-59 -104 -161 -163t-222 -65v-83q92 -4 156 -84q41 -55 41 -112q0 -147 -127 -203q-85 -37 -166 1q-75 33 -108 118q-15 38 -14 72q2 64 67 67q29 1 49 -19t20 -50t20 -50t51 -20q30 0 50 20q21 20 21 49t-18 48t-44 24h-67
q-27 2 -48 19q-20 17 -20 44v165q-154 26 -262 129q-150 143 -150 343v334q0 207 143 351t357 145q148 1 259 -63q112 -64 175 -175q23 -40 23 -86q0 -45 -41 -86t-93 -41t-80 24t-52 62q-42 67 -156 96q-16 2 -51 2q-81 0 -148 -63t-67 -156v-327q-4 -96 64 -162t169 -68
h25q114 22 166 101q23 35 47 57t79 22z" />
    <glyph glyph-name="Egrave" unicode="&#xc8;" horiz-adv-x="942" 
d="M795 276q57 0 97 -40t40 -98t-40 -98t-97 -40h-586q-53 0 -95 40t-42 99v1030q0 53 39 97t98 43h586q57 0 97 -41q40 -42 40 -100t-40 -97t-97 -39h-451v-233h313q55 0 97 -41q42 -40 41 -98q0 -58 -41 -98t-97 -40h-313v-246h451zM207 1501q-55 13 -83 63t-13 107
q14 57 64 85t101 13l248 -65q57 -16 85 -64t14 -105q-15 -56 -65 -86t-105 -15z" />
    <glyph glyph-name="Eacute" unicode="&#xc9;" horiz-adv-x="942" 
d="M795 276q57 0 97 -40t40 -98t-40 -98t-97 -40h-586q-53 0 -95 40t-42 99v1030q0 53 39 97t98 43h586q57 0 97 -41q40 -42 40 -100t-40 -97t-97 -39h-451v-233h313q55 0 97 -41q42 -40 41 -98q0 -58 -41 -98t-97 -40h-313v-246h451zM833 1754q50 -28 64 -85
q15 -57 -13 -106t-83 -64l-246 -67q-55 -14 -105 16t-64 85q-14 56 12 104q28 48 85 65l248 65q51 14 102 -13z" />
    <glyph glyph-name="Ecircumflex" unicode="&#xca;" horiz-adv-x="942" 
d="M795 276q57 0 97 -40t40 -98t-40 -98t-97 -40h-586q-53 0 -95 40t-42 99v1030q0 53 39 97t98 43h586q57 0 97 -41q40 -42 40 -100t-40 -97t-97 -39h-451v-233h313q55 0 97 -41q42 -40 41 -98q0 -58 -41 -98t-97 -40h-313v-246h451zM192 1374q-56 0 -98 42q-41 42 -31 98
t50 96l245 245q42 41 98 40t101 -40l266 -245q41 -40 50 -98t-31 -98t-96 -41q-58 -1 -99 40l-190 170l-170 -170q-39 -39 -95 -39z" />
    <glyph glyph-name="Edieresis" unicode="&#xcb;" horiz-adv-x="942" 
d="M795 276q57 0 97 -40t40 -98t-40 -98t-97 -40h-586q-53 0 -95 40t-42 99v1030q0 53 39 97t98 43h586q57 0 97 -41q40 -42 40 -100t-40 -97t-97 -39h-451v-233h313q55 0 97 -41q42 -40 41 -98q0 -58 -41 -98t-97 -40h-313v-246h451zM842 1612q0 -56 -41 -98t-99 -42
t-99 42q-40 40 -40 98t40 98q40 41 98 41q57 0 99 -41t42 -98zM446 1612q0 -57 -40 -99q-42 -41 -100 -41t-98 42q-40 40 -40 98t40 98q40 41 98 41t99 -41t41 -98z" />
    <glyph glyph-name="Igrave" unicode="&#xcc;" horiz-adv-x="542" 
d="M289 1307q57 0 97 -41t40 -97v-1032q0 -57 -40 -97t-97 -40t-98 40q-40 40 -39 97v1032q0 55 39 97q41 41 98 41zM53 1497q-55 13 -83 63t-13 107t65 85t101 13l248 -65q57 -16 85 -64t14 -105q-14 -56 -66 -86q-50 -30 -105 -15z" />
    <glyph glyph-name="Iacute" unicode="&#xcd;" horiz-adv-x="542" 
d="M156 1169q0 55 40 97t97 41q57 0 97 -41t40 -97v-1032q0 -57 -40 -97t-97 -40t-97 40t-40 97v1032zM461 1765q51 15 101 -13t65 -85q14 -57 -14 -106t-83 -64l-245 -67q-55 -14 -106 15q-50 30 -64 86t13 104q28 48 85 65z" />
    <glyph glyph-name="Icircumflex" unicode="&#xce;" horiz-adv-x="706" 
d="M373 1307q57 0 97 -41t40 -97v-1032q0 -57 -40 -97t-97 -40t-98 40q-40 40 -39 97v1032q0 55 39 97q41 41 98 41zM100 1374q-56 0 -98 42q-41 42 -31 98t49 96l246 245q42 41 98 40t101 -40l266 -245q41 -40 50 -98t-31 -98t-96 -41q-58 -1 -99 40l-190 170l-170 -170
q-39 -39 -95 -39z" />
    <glyph glyph-name="Idieresis" unicode="&#xcf;" horiz-adv-x="755" 
d="M260 1169q0 55 40 97t97 41q57 0 97 -41t41 -97v-1032q0 -57 -40 -97q-39 -40 -97 -40t-98 40t-40 97v1032zM737 1610q0 -56 -41 -98t-99 -42t-98 41t-40 99t40 98q40 41 98 41t99 -41t41 -98zM342 1610q0 -56 -41 -98t-99 -42t-99 41q-40 41 -40 99t40 98q41 41 99 41
t99 -41t41 -98z" />
    <glyph glyph-name="Eth" unicode="&#xd0;" horiz-adv-x="1204" 
d="M604 617q0 -58 -40 -99t-97 -41h-14v-198h225q79 0 133.5 53t54.5 133v379q0 79 -55 132.5t-133 53.5h-225v-274h14q57 0 97 -40.5t40 -98.5zM678 1309q187 0 327 -138t140 -327v-379q0 -183 -139 -324t-328 -141h-350q-55 0 -97.5 40t-42.5 99v338h-6q-59 0 -98 41
t-39 99t39 98.5t98 40.5h6v413q0 53 40 96.5t100 43.5h350z" />
    <glyph glyph-name="Ntilde" unicode="&#xd1;" 
d="M1057 823v-690q0 -53 -38 -92t-93 -40t-96 35q-40 36 -39 91v680q0 97 -68 163t-161 66t-161 -63q-67 -63 -67 -156v-684q0 -53 -41 -93t-94 -40t-95 37q-41 37 -41 90v680q4 207 146 351q142 145 350 145q207 0 352 -140q146 -140 146 -340zM573 1763l101 -55
q33 -24 51 -18t45 39q27 45 75 65t100 -10q51 -30 69 -84q18 -56 -19 -118q-116 -196 -340 -151q-76 15 -114 39l-103 56q-58 37 -102 -32q-22 -34 -69 -54q-48 -20 -100 10t-69 84q-16 56 20 118q70 122 197 151q67 15 139 1t119 -41z" />
    <glyph glyph-name="Ograve" unicode="&#xd2;" horiz-adv-x="1105" 
d="M391 979q-67 -63 -67 -156v-327q-4 -96 64 -162t163 -67t163 62t68 156l2 328q0 98 -68 164q-68 65 -162 65q-96 0 -163 -63zM557 0q-210 0 -356 140t-146 339v334q0 207 143 351t352 145q208 0 354 -140q147 -140 147 -340v-333q0 -102 -38 -193q-79 -187 -262 -265
q-90 -38 -194 -38zM352 1497q-54 13 -82 63t-14 107t64 85t102 13l248 -65q57 -16 85 -64q27 -48 13 -105q-14 -56 -64 -86t-106 -15z" />
    <glyph glyph-name="Oacute" unicode="&#xd3;" horiz-adv-x="1105" 
d="M391 979q-67 -63 -67 -156v-327q-4 -96 64 -162t163 -67t163 62t68 156l2 328q0 98 -68 164q-68 65 -162 65q-96 0 -163 -63zM557 0q-210 0 -356 140t-146 339v334q0 207 143 351t352 145q208 0 354 -140q147 -140 147 -340v-333q0 -102 -38 -193q-79 -187 -262 -265
q-90 -38 -194 -38zM796 1750q50 -28 64 -85t-14 -106t-82 -64l-246 -68q-55 -14 -105 16q-51 30 -65 86t13 104q28 48 85 65l248 65q51 14 102 -13z" />
    <glyph glyph-name="Ocircumflex" unicode="&#xd4;" horiz-adv-x="1105" 
d="M391 979q-67 -63 -67 -156v-327q-4 -96 64 -162t163 -67t163 62t68 156l2 328q0 98 -68 164q-68 65 -162 65q-96 0 -163 -63zM557 0q-210 0 -356 140t-146 339v334q0 207 143 351t352 145q208 0 354 -140q147 -140 147 -340v-333q0 -102 -38 -193q-79 -187 -262 -265
q-90 -38 -194 -38zM282 1374q-56 0 -98 41q-41 43 -30 99q10 56 49 96l246 245q41 41 97 40t101 -40l266 -245q41 -40 51 -98t-31 -98q-40 -40 -97 -41t-99 40l-190 170l-170 -170q-39 -39 -95 -39z" />
    <glyph glyph-name="Otilde" unicode="&#xd5;" horiz-adv-x="1105" 
d="M391 979q-67 -63 -67 -156v-327q-4 -96 64 -162t163 -67t163 62t68 156l2 328q0 98 -68 164q-68 65 -162 65q-96 0 -163 -63zM557 0q-210 0 -356 140t-146 339v334q0 207 143 351t352 145q208 0 354 -140q147 -140 147 -340v-333q0 -102 -38 -193q-79 -187 -262 -265
q-90 -38 -194 -38zM569 1755l101 -55q33 -23 51 -18t45 38q27 46 75 66t100 -10q51 -30 69 -84q18 -56 -19 -118q-74 -125 -198 -153q-66 -14 -142 1t-114 40l-103 56q-58 37 -102 -32q-22 -34 -69 -54q-48 -20 -100 10t-69 84q-16 55 20 117q71 123 197 152q67 15 139 1
t119 -41z" />
    <glyph glyph-name="Odieresis" unicode="&#xd6;" horiz-adv-x="1105" 
d="M391 979q-67 -63 -67 -156v-327q-4 -96 64 -162t163 -67t163 62t68 156l2 328q0 98 -68 164q-68 65 -162 65q-96 0 -163 -63zM557 0q-210 0 -356 140t-146 339v334q0 207 143 351t352 145q208 0 354 -140q147 -140 147 -340v-333q0 -102 -38 -193q-79 -187 -262 -265
q-90 -38 -194 -38zM889 1612q0 -56 -41 -98t-99 -42t-99 41q-40 41 -40 99t40 98q40 41 98 41t100 -41q41 -41 41 -98zM494 1612q0 -56 -41 -98t-99 -42t-99 42q-40 40 -40 98t40 98q40 41 98 41q57 0 99 -41t42 -98z" />
    <glyph glyph-name="multiply" unicode="&#xd7;" horiz-adv-x="1038" 
d="M973 817q0 -55 -37 -94l-225 -227l225 -228q37 -37 39 -93t-37 -95t-95 -39t-98 43l-225 221l-225 -227q-37 -33 -92 -37t-95 35t-41 93q-3 54 35 95l232 232l-232 231q-39 39 -34 90q4 51 38 92q44 45 96 41t93 -41l225 -225l232 227q39 39 91 38t91 -39t39 -93z" />
    <glyph glyph-name="Oslash" unicode="&#xd8;" horiz-adv-x="1105" 
d="M1051 829v-333q0 -206 -143 -351t-353 -145q-58 0 -112 12q-46 -20 -102 -4t-84 85q-104 75 -153 179q-49 105 -49 207v334q0 207 143 351t357 145q54 0 105 -11q49 22 106 4t79 -84q107 -75 156 -180q50 -106 50 -209zM324 823v-327q-2 -38 9 -73l196 618
q-79 -7 -142 -66t-63 -152zM772 890l-198 -623q81 7 144 66q64 59 64 152l2 328q1 40 -12 77z" />
    <glyph glyph-name="Ugrave" unicode="&#xd9;" 
d="M557 6q-102 0 -192 39q-183 79 -262 264q-38 90 -40 193v680q0 53 41 90q40 37 94 37t95 -40t41 -93v-684q0 -93 67 -156q67 -62 160 -63t160 64q68 65 70 165v680q0 55 39 91q40 36 96 35t93 -40q38 -39 38 -92v-691q0 -200 -150 -343q-142 -136 -350 -136zM362 1501
q-54 13 -82 63t-14 107t64 85t102 13l248 -65q57 -16 85 -64q27 -48 13 -105q-14 -56 -64 -86t-106 -15z" />
    <glyph glyph-name="Uacute" unicode="&#xda;" 
d="M557 6q-102 0 -192 39q-183 79 -262 264q-38 90 -40 193v680q0 53 41 90q40 37 94 37t95 -40t41 -93v-684q0 -93 67 -156q67 -62 160 -63t160 64q68 65 70 165v680q0 55 39 91q40 36 96 35t93 -40q38 -39 38 -92v-691q0 -200 -150 -343q-142 -136 -350 -136zM794 1754
q50 -28 64 -85t-14 -106t-82 -64l-246 -67q-55 -14 -105 16q-51 30 -65 85q-14 56 13 104q28 48 85 65l248 65q51 14 102 -13z" />
    <glyph glyph-name="Ucircumflex" unicode="&#xdb;" 
d="M557 6q-102 0 -192 39q-183 79 -262 264q-38 90 -40 193v680q0 53 41 90q40 37 94 37t95 -40t41 -93v-684q0 -93 67 -156q67 -62 160 -63t160 64q68 65 70 165v680q0 55 39 91q40 36 96 35t93 -40q38 -39 38 -92v-691q0 -200 -150 -343q-142 -136 -350 -136zM292 1374
q-56 0 -97 42t-31 98t49 96l246 245q41 41 97 40t101 -40l267 -245q41 -40 50 -98t-31 -98t-97 -41t-98 40l-191 170l-170 -170q-39 -39 -95 -39z" />
    <glyph glyph-name="Udieresis" unicode="&#xdc;" 
d="M557 6q-102 0 -192 39q-183 79 -262 264q-38 90 -40 193v680q0 53 41 90q40 37 94 37t95 -40t41 -93v-684q0 -93 67 -156q67 -62 160 -63t160 64q68 65 70 165v680q0 55 39 91q40 36 96 35t93 -40q38 -39 38 -92v-691q0 -200 -150 -343q-142 -136 -350 -136zM897 1610
q0 -56 -41 -98t-99 -42t-99 41q-40 41 -40 99t40 98q40 41 98 41t100 -41q41 -41 41 -98zM502 1610q0 -56 -41 -98t-99 -42t-99 41q-40 41 -40 99t40 98q40 41 98 41q57 0 99 -41t42 -98z" />
    <glyph glyph-name="Yacute" unicode="&#xdd;" horiz-adv-x="1083" 
d="M37 989v182q0 57 40 97t97 41q57 0 97 -40t40 -98v-182q1 -84 57 -140t140 -56t141 56t58 140v182q0 57 39 98q40 40 98 40t97 -40q40 -40 40 -98v-184q0 -154 -96 -285q-95 -125 -244 -165v-400q0 -57 -40 -97t-97 -40t-97 40t-40 97v402q-149 47 -239 170
q-91 123 -91 280zM670 1765q52 15 102 -13t64 -85t-14 -106t-83 -64l-245 -67q-55 -14 -106 15q-50 30 -64 86t13 104q28 48 85 65z" />
    <glyph glyph-name="Thorn" unicode="&#xde;" 
d="M570 0q-100 0 -210 50v-179q0 -59 -43 -102t-102 -43t-101 43t-42 102v1311q0 48 43 89q43 40 101 40t101 -43t43 -103v-219q128 60 283.5 37.5t278.5 -135.5q143 -147 143 -351t-146.5 -350.5t-348.5 -146.5zM409 334q71 -68 161 -68t159.5 67.5t69.5 163t-70 162
t-161 66.5t-159 -71q-30 -30 -49 -69v-183q18 -39 49 -68z" />
    <glyph glyph-name="germandbls" unicode="&#xdf;" horiz-adv-x="995" 
d="M842 653q96 -109 96 -266q0 -158 -115.5 -273.5t-277.5 -115.5h-2q-57 0 -96 40t-39 97t38.5 96t96.5 39h2q51 0 88 36t37 89.5t-37 89t-88 35.5h-4q-57 0 -96 39t-39 94.5t38.5 95t96.5 39.5h4q51 0 88 37t37 86t-31 82q-45 39 -119 39t-128 -57.5t-54 -132.5v-703
q0 -57 -39 -98t-97 -41t-98.5 41t-40.5 98v703q8 194 140.5 330.5t322.5 136.5h11l8 2q164 0 278.5 -116t114.5 -271q0 -156 -96 -271z" />
    <glyph glyph-name="agrave" unicode="&#xe0;" 
d="M547 266q45 0 87 18q85 35 122 120q18 42 18 90q0 97 -68 164t-161 67q-92 0 -159 -68t-69 -161q0 -47 20 -89q38 -85 124 -123q41 -18 86 -18zM1042 133q0 -55 -41 -94t-103 -39t-103 66q-11 -4 -19 -10q-87 -57 -235 -56q-148 0 -269 83q-164 112 -212 310
q-11 49 -11 127t43 174q59 133 180 215t275 82h30q96 0 189 -49q170 -90 243 -267q34 -85 33 -179v-363zM259 1237q-27 50 -13 107q14 56 64 84t102 14l247 -66q57 -16 85 -64t14 -104t-64 -87q-50 -30 -106 -15l-246 68q-55 14 -83 63z" />
    <glyph glyph-name="aacute" unicode="&#xe1;" 
d="M547 266q45 0 87 18q85 35 122 120q18 42 18 90q0 97 -68 164t-161 67q-92 0 -159 -68t-69 -161q0 -47 20 -89q38 -85 124 -123q41 -18 86 -18zM1042 133q0 -55 -41 -94t-103 -39t-103 66q-11 -4 -19 -10q-87 -57 -235 -56q-148 0 -269 83q-164 112 -212 310
q-11 49 -11 127t43 174q59 133 180 215t275 82h30q96 0 189 -49q170 -90 243 -267q34 -85 33 -179v-363zM674 1442q52 14 102 -14t64 -84t-14 -106t-83 -64l-245 -68q-55 -14 -106 15q-50 30 -64 86t13 105q28 48 85 64z" />
    <glyph glyph-name="acircumflex" unicode="&#xe2;" 
d="M547 266q45 0 87 18q85 35 122 120q18 42 18 90q0 97 -68 164t-161 67q-92 0 -159 -68t-69 -161q0 -47 20 -89q38 -85 124 -123q41 -18 86 -18zM1042 133q0 -55 -41 -94t-103 -39t-103 66q-11 -4 -19 -10q-87 -57 -235 -56q-148 0 -269 83q-164 112 -212 310
q-11 49 -11 127t43 174q59 133 180 215t275 82h30q96 0 189 -49q170 -90 243 -267q34 -85 33 -179v-363zM280 1057q-56 0 -98 41q-41 43 -30 99q10 56 49 95l245 246q42 41 98 40t101 -40l266 -246q41 -41 51 -98t-31 -97q-40 -40 -97 -41t-99 40l-190 170l-170 -170
q-39 -39 -95 -39z" />
    <glyph glyph-name="atilde" unicode="&#xe3;" 
d="M547 266q45 0 87 18q85 35 122 120q18 42 18 90q0 97 -68 164t-161 67q-92 0 -159 -68t-69 -161q0 -47 20 -89q38 -85 124 -123q41 -18 86 -18zM1042 133q0 -55 -41 -94t-103 -39t-103 66q-11 -4 -19 -10q-87 -57 -235 -56q-148 0 -269 83q-164 112 -212 310
q-11 49 -11 127t43 174q59 133 180 215t275 82h30q96 0 189 -49q170 -90 243 -267q34 -85 33 -179v-363zM567 1442l101 -56q33 -24 51 -18t45 39q27 45 75 65t100 -9q51 -30 69 -85t-19 -117q-117 -196 -340 -152q-76 15 -114 40l-103 55q-58 36 -102 -32q-22 -34 -69 -54
q-48 -20 -100 10t-69 84q-16 56 20 118q71 123 197 152q67 15 139 1t119 -41z" />
    <glyph glyph-name="adieresis" unicode="&#xe4;" 
d="M547 266q45 0 87 18q85 35 122 120q18 42 18 90q0 97 -68 164t-161 67q-92 0 -159 -68t-69 -161q0 -47 20 -89q38 -85 124 -123q41 -18 86 -18zM1042 133q0 -55 -41 -94t-103 -39t-103 66q-11 -4 -19 -10q-87 -57 -235 -56q-148 0 -269 83q-164 112 -212 310
q-11 49 -11 127t43 174q59 133 180 215t275 82h30q96 0 189 -49q170 -90 243 -267q34 -85 33 -179v-363zM885 1288q0 -57 -41 -98q-42 -41 -100 -41t-98 41t-40 98t40 98t98 41t100 -41t41 -98zM489 1288q-1 -57 -41 -98t-98 -41t-99 41q-40 41 -40 98t40 98t98 41t99 -41
t41 -98z" />
    <glyph glyph-name="aring" unicode="&#xe5;" 
d="M547 266q45 0 87 18q85 35 122 120q18 42 18 90q0 97 -68 164t-161 67q-92 0 -159 -68t-69 -161q0 -47 20 -89q38 -85 124 -123q41 -18 86 -18zM1042 133q0 -55 -41 -94t-103 -39t-103 66q-11 -4 -19 -10q-87 -57 -235 -56q-148 0 -269 83q-164 112 -212 310
q-11 49 -11 127t43 174q59 133 180 215t275 82h30q96 0 189 -49q170 -90 243 -267q34 -85 33 -179v-363z" />
    <glyph glyph-name="ae" unicode="&#xe6;" horiz-adv-x="1777" 
d="M684 332q66 66 67 162t-68 163q-69 68 -162 68t-157 -69q-69 -69 -69 -162t71 -161q71 -67 161 -67q91 0 157 66zM1247 991q99 0 189 -41q90 -42 158 -110q150 -150 151 -344q0 -53 -40 -84t-99 -29h-545q68 -117 186 -117q58 0 96 20q81 42 149 -4q68 -48 57 -128
q-5 -39 -36 -72q-95 -77 -266 -82q-129 -5 -246 66q-42 -66 -114 -66t-115 66q-10 -4 -33 -20t-89 -31t-126 -15q-154 0 -274 83q-163 112 -212 310q-11 49 -11 127t43 174q59 133 180 215t274 82h30q97 0 188 -48t148 -112q160 160 357 160zM1434 610q-64 115 -186 115
q-123 0 -187 -115h373z" />
    <glyph glyph-name="ccedilla" unicode="&#xe7;" horiz-adv-x="962" 
d="M684 677q-50 48 -142 48q-91 0 -159 -69t-69 -162t70 -162q71 -68 161 -67t151 57q36 40 94 40t95 -40q35 -32 39 -86t-31 -91q-127 -127 -297 -143v-35q94 -4 156 -84q39 -53 40 -110q3 -148 -126 -205q-85 -37 -166 1q-75 33 -108 118q-34 89 6 123q19 16 47 16
q29 0 49 -20t20 -49q0 -30 20 -50t51 -20q30 0 50 20t20 49t-17 48t-44 24h-68q-27 2 -47 19t-20 44v116q-152 28 -264 140q-148 148 -148 348t150 348t352 148q201 0 344 -143q35 -39 32 -92t-40 -88t-94 -37t-107 46z" />
    <glyph glyph-name="egrave" unicode="&#xe8;" 
d="M731 610q-65 115 -187 115q-123 0 -186 -115h373zM891 841q151 -150 151 -345q0 -53 -40 -84t-99 -29h-545q68 -117 187 -117q55 0 95 20q83 43 151 -4q67 -47 56 -128q-5 -39 -36 -72q-95 -77 -266 -82q-99 -4 -189 36t-158 108t-109 161q-40 91 -40 189t40 188t108 159
q148 150 345 150q198 0 349 -150zM208 1237q-27 50 -13 107q14 56 64 84t101 14l248 -66q57 -16 85 -64t14 -104q-15 -56 -65 -87q-50 -30 -105 -15l-246 68q-55 14 -83 63z" />
    <glyph glyph-name="eacute" unicode="&#xe9;" 
d="M731 610q-65 115 -187 115q-123 0 -186 -115h373zM891 841q151 -150 151 -345q0 -53 -40 -84t-99 -29h-545q68 -117 187 -117q55 0 95 20q83 43 151 -4q67 -47 56 -128q-5 -39 -36 -72q-95 -77 -266 -82q-99 -4 -189 36t-158 108t-109 161q-40 91 -40 189t40 188t108 159
q148 150 345 150q198 0 349 -150zM723 1442q51 14 101 -14t65 -84q14 -57 -13 -107q-28 -49 -83 -63l-246 -68q-55 -14 -106 15q-50 30 -64 86t13 105q28 48 85 64z" />
    <glyph glyph-name="ecircumflex" unicode="&#xea;" 
d="M731 610q-65 115 -187 115q-123 0 -186 -115h373zM891 841q151 -150 151 -345q0 -53 -40 -84t-99 -29h-545q68 -117 187 -117q55 0 95 20q83 43 151 -4q67 -47 56 -128q-5 -39 -36 -72q-95 -77 -266 -82q-99 -4 -189 36t-158 108t-109 161q-40 91 -40 189t40 188t108 159
q148 150 345 150q198 0 349 -150zM261 1061q-56 0 -97 42t-31 98t49 95l246 246q41 41 97 40t102 -40l266 -246q41 -41 50 -98t-31 -97t-97 -41t-98 40l-191 170l-170 -170q-39 -39 -95 -39z" />
    <glyph glyph-name="edieresis" unicode="&#xeb;" 
d="M731 610q-65 115 -187 115q-123 0 -186 -115h373zM891 841q151 -150 151 -345q0 -53 -40 -84t-99 -29h-545q68 -117 187 -117q55 0 95 20q83 43 151 -4q67 -47 56 -128q-5 -39 -36 -72q-95 -77 -266 -82q-99 -4 -189 36t-158 108t-109 161q-40 91 -40 189t40 188t108 159
q148 150 345 150q198 0 349 -150zM885 1286q0 -57 -41 -98q-42 -41 -100 -41t-98 41t-40 98t40 98t98 41t100 -41t41 -98zM489 1286q-1 -57 -41 -98t-98 -41t-99 41q-40 41 -40 98t40 98t98 41t99 -41t41 -98z" />
    <glyph glyph-name="igrave" unicode="&#xec;" horiz-adv-x="618" 
d="M46.5 1237.5q-27.5 49.5 -13.5 106.5t64 84.5t102 13.5l247 -66q57 -16 85 -64t14 -104t-64.5 -86t-105.5 -16l-246 68q-55 14 -82.5 63.5zM412 989q57 0 97 -41t40 -96v-715q0 -57 -40 -97t-97 -40t-97.5 40t-40.5 97v715q0 55 40.5 96t97.5 41z" />
    <glyph glyph-name="iacute" unicode="&#xed;" horiz-adv-x="618" 
d="M523.5 1428.5q50.5 -27.5 64.5 -84.5t-13.5 -106.5t-82.5 -63.5l-246 -68q-55 -14 -105.5 15.5t-64.5 85.5t13.5 104.5t84.5 64.5l248 66q51 14 101.5 -13.5zM199 989q57 0 97 -41t40 -96v-715q0 -57 -40 -97t-97 -40t-97.5 40t-40.5 97v715q0 55 40.5 96t97.5 41z" />
    <glyph glyph-name="icircumflex" unicode="&#xee;" horiz-adv-x="868" 
d="M158.5 1051q-56.5 0 -97.5 42t-30.5 98t49.5 95l246 246q41 41 97 40t101 -40l267 -246q41 -41 50 -98.5t-31 -97.5t-97.5 -40.5t-98.5 40.5l-190 170l-170 -170q-39 -39 -95.5 -39zM559 135q0 -55 -35 -92t-91 -39t-93 31t-45 92v741q4 53 43 88t92 36t89 -38t40 -94
v-725z" />
    <glyph glyph-name="idieresis" unicode="&#xef;" horiz-adv-x="741" 
d="M709 1286q0 -57 -41.5 -98t-99.5 -41t-98 41t-40 98t40 98t98 41t99.5 -41t41.5 -98zM313 1286q0 -57 -41 -98t-99 -41t-98 41t-40 98t40 98t98 41t99 -41t41 -98zM500 129q0 -55 -35 -92t-91 -39t-93 30.5t-45 92.5v741q4 53 43 88t92 36t89 -38t40 -94v-725z" />
    <glyph glyph-name="eth" unicode="&#xf0;" horiz-adv-x="917" 
d="M446.5 551q-59.5 0 -100.5 -40t-41 -99.5t41 -100.5t100.5 -41t100.5 41t41 100.5t-41 99.5t-100.5 40zM432 823q72 0 156 -24v104q-2 55 -42 95t-100 40h-40q-55 0 -95.5 40t-40.5 96t40 95.5t96 39.5h77q154 -8 258 -131.5t117 -274.5v-491q0 -200 -135.5 -306
t-290.5 -106t-276 120t-121 291t88 259t162.5 120.5t146.5 32.5z" />
    <glyph glyph-name="ntilde" unicode="&#xf1;" 
d="M553 997q102 1 192 -35q182 -72 267 -253q41 -88 41 -191v-379q0 -53 -38 -92t-93 -40t-96 35q-40 36 -40 91v369q0 98 -68 164q-68 65 -160 65q-93 0 -161 -63q-67 -63 -67 -156v-373q0 -53 -41 -93t-94 -40t-95 37q-41 37 -41 90v369q4 207 145 350q143 145 349 145z
M575 1446l101 -55q33 -23 51 -18t45 38q27 45 75 65t100 -9q51 -30 69 -85t-19 -117q-117 -196 -340 -152q-76 15 -114 40l-103 55q-58 38 -102 -31q-22 -35 -69 -55q-48 -20 -100 10t-69 85q-16 55 20 117q71 123 197 152q67 15 139 1t119 -41z" />
    <glyph glyph-name="ograve" unicode="&#xf2;" horiz-adv-x="1073" 
d="M707 333q67 69 65 163t-66 160t-160 67q-96 2 -162 -63t-68 -162q-1 -96 67 -164t163 -69q94 -1 161 68zM893 848q147 -147 147 -350t-143 -349q-143 -147 -352 -147q-208 0 -352 142t-144 348t142 350q142 143 354 151q201 0 348 -145zM261 1237q-27 50 -13 107
q14 56 64 84t102 14l248 -66q56 -16 84 -64t14 -104t-64 -87q-50 -30 -106 -15l-246 68q-55 14 -83 63z" />
    <glyph glyph-name="oacute" unicode="&#xf3;" horiz-adv-x="1073" 
d="M707 333q67 69 65 163t-66 160t-160 67q-96 2 -162 -63t-68 -162q-1 -96 67 -164t163 -69q94 -1 161 68zM893 848q147 -147 147 -350t-143 -349q-143 -147 -352 -147q-208 0 -352 142t-144 348t142 350q142 143 354 151q201 0 348 -145zM680 1448q52 14 102 -14t64 -84
q14 -57 -13 -107q-28 -49 -83 -63l-246 -68q-55 -14 -106 15q-50 30 -64 86t13 105q28 48 85 64z" />
    <glyph glyph-name="ocircumflex" unicode="&#xf4;" horiz-adv-x="1073" 
d="M707 333q67 69 65 163t-66 160t-160 67q-96 2 -162 -63t-68 -162q-1 -96 67 -164t163 -69q94 -1 161 68zM893 848q147 -147 147 -350t-143 -349q-143 -147 -352 -147q-208 0 -352 142t-144 348t142 350q142 143 354 151q201 0 348 -145zM276 1055q-56 0 -98 42
q-41 42 -31 98t50 95l245 246q42 41 98 40t101 -40l266 -246q41 -41 50 -98t-31 -97t-96 -41q-58 -1 -99 40l-190 170l-170 -170q-39 -39 -95 -39z" />
    <glyph glyph-name="otilde" unicode="&#xf5;" horiz-adv-x="1073" 
d="M707 333q67 69 65 163t-66 160t-160 67q-96 2 -162 -63t-68 -162q-1 -96 67 -164t163 -69q94 -1 161 68zM893 848q147 -147 147 -350t-143 -349q-143 -147 -352 -147q-208 0 -352 142t-144 348t142 350q142 143 354 151q201 0 348 -145zM561 1442l101 -56q33 -24 51 -18
t45 39q27 45 75 65t100 -9q52 -30 69 -85q16 -55 -20 -117q-116 -197 -339 -152q-76 15 -115 40l-102 55q-58 36 -102 -32q-22 -34 -69 -54q-48 -20 -100 10t-69 84q-16 56 20 118t83 100q105 82 252 53q73 -14 120 -41z" />
    <glyph glyph-name="odieresis" unicode="&#xf6;" horiz-adv-x="1073" 
d="M707 333q67 69 65 163t-66 160t-160 67q-96 2 -162 -63t-68 -162q-1 -96 67 -164t163 -69q94 -1 161 68zM893 848q147 -147 147 -350t-143 -349q-143 -147 -352 -147q-208 0 -352 142t-144 348t142 350q142 143 354 151q201 0 348 -145zM885 1286q0 -57 -41 -98
q-42 -41 -100 -41t-98 41t-40 98t40 98t98 41t100 -41t41 -98zM489 1286q-1 -57 -41 -98t-98 -41t-99 41q-40 41 -40 98t40 98t98 41t99 -41t41 -98z" />
    <glyph glyph-name="divide" unicode="&#xf7;" horiz-adv-x="837" 
d="M549 975q0 -57 -41 -98t-99 -41t-98.5 41t-40.5 98t40 98t98 41t99.5 -41t41.5 -98zM549 260q0 -57 -41 -98t-99 -41t-98.5 41t-40.5 98t40 98t98 41t99.5 -41t41.5 -98zM819 617q0 -58 -40 -99t-97 -41h-522q-59 0 -98 41t-39 99t38.5 98.5t98.5 40.5h522q57 0 97 -40.5
t40 -98.5z" />
    <glyph glyph-name="oslash" unicode="&#xf8;" horiz-adv-x="1073" 
d="M893 848q147 -147 147 -350t-143 -349q-143 -147 -352 -147h-12l-21 -68q-16 -54 -68 -80t-105 -10q-54 16 -81 66t-10 108l20 65q-120 78 -180 216q-39 91 -39 195q0 205 142 348t354 151h12l18 58q16 55 69 81t106 10q54 -16 80 -68t10 -105l-20 -61q39 -26 73 -60z
M468 712q-93 -31 -134 -125q-50 -117 24 -223zM621 277q44 13 80 50q73 75 71 159t-41 140z" />
    <glyph glyph-name="ugrave" unicode="&#xf9;" horiz-adv-x="1077" 
d="M328 856v-360q0 -95 66 -161t160 -68q93 -1 162 61q68 62 68 157v373q0 51 39 92t95 42t95 -39q40 -40 42 -89v-368q1 -204 -145 -350t-353 -146q-194 -8 -347 138q-151 147 -151 343v377q0 53 38 93q39 40 94 41t96 -39t41 -97zM271 1237q-27 50 -13 107q14 56 64 84
t102 14l248 -66q57 -16 85 -64q27 -48 13 -104t-64 -87q-50 -30 -106 -15l-246 68q-55 14 -83 63z" />
    <glyph glyph-name="uacute" unicode="&#xfa;" horiz-adv-x="1077" 
d="M328 856v-360q0 -95 66 -161t160 -68q93 -1 162 61q68 62 68 157v373q0 51 39 92t95 42t95 -39q40 -40 42 -89v-368q1 -204 -145 -350t-353 -146q-194 -8 -347 138q-151 147 -151 343v377q0 53 38 93q39 40 94 41t96 -39t41 -97zM688 1442q52 14 102 -14t64 -84
q14 -57 -13 -107q-28 -49 -83 -63l-246 -68q-55 -14 -105 16q-51 30 -65 85q-14 56 13 105q28 48 85 64z" />
    <glyph glyph-name="ucircumflex" unicode="&#xfb;" horiz-adv-x="1077" 
d="M328 856v-360q0 -95 66 -161t160 -68q93 -1 162 61q68 62 68 157v373q0 51 39 92t95 42t95 -39q40 -40 42 -89v-368q1 -204 -145 -350t-353 -146q-194 -8 -347 138q-151 147 -151 343v377q0 53 38 93q39 40 94 41t96 -39t41 -97zM286 1055q-56 0 -98 41q-41 43 -30 99
q10 56 49 95l246 246q41 41 97 40t101 -40l267 -246q41 -41 50 -98t-31 -97t-97 -41t-99 40l-190 170l-170 -170q-39 -39 -95 -39z" />
    <glyph glyph-name="udieresis" unicode="&#xfc;" horiz-adv-x="1077" 
d="M328 856v-360q0 -95 66 -161t160 -68q93 -1 162 61q68 62 68 157v373q0 51 39 92t95 42t95 -39q40 -40 42 -89v-368q1 -204 -145 -350t-353 -146q-194 -8 -347 138q-151 147 -151 343v377q0 53 38 93q39 40 94 41t96 -39t41 -97zM897 1284q0 -57 -41 -98t-99 -41t-99 41
q-40 41 -40 98t40 98t98 41t100 -41q41 -41 41 -98zM502 1284q0 -57 -41 -98t-99 -41t-99 41q-40 41 -40 98t40 98t98 41q57 0 99 -41t42 -98z" />
    <glyph glyph-name="yacute" unicode="&#xfd;" horiz-adv-x="1077" 
d="M29 512v350q0 53 38 92t92 39t96 -35t42 -90v-370q-1 -94 65 -160q65 -65 160 -67q94 -1 163 61t71 155v375q0 53 38 92t93 39t96 -36t41 -89v-1052q0 -53 -41 -90t-93 -37t-93 37t-41 96v235q-89 -55 -210 -55q-220 0 -369 145q-148 146 -148 365zM662 1442
q51 14 101 -14t64 -84q14 -57 -13 -107q-28 -49 -83 -63l-246 -68q-55 -14 -105 16t-64 85q-14 57 13 105q28 48 85 64z" />
    <glyph glyph-name="thorn" unicode="&#xfe;" 
d="M570 0q-100 0 -210 50v-179q0 -59 -43 -102t-102 -43t-101 43t-42 102v1311q0 48 43 89q43 40 101 40t101 -43t43 -103v-219q128 60 283.5 37.5t278.5 -135.5q143 -147 143 -351t-146.5 -350.5t-348.5 -146.5zM409 334q71 -68 161 -68t159.5 67.5t69.5 163t-70 162
t-161 66.5t-159 -71q-30 -30 -49 -69v-183q18 -39 49 -68z" />
    <glyph glyph-name="ydieresis" unicode="&#xff;" horiz-adv-x="1077" 
d="M29 512v350q0 53 38 92t92 39t96 -35t42 -90v-370q-1 -94 65 -160q65 -65 160 -67q94 -1 163 61t71 155v375q0 53 38 92t93 39t96 -36t41 -89v-1052q0 -53 -41 -90t-93 -37t-93 37t-41 96v235q-89 -55 -210 -55q-220 0 -369 145q-148 146 -148 365zM868 1284
q0 -57 -41 -98t-99 -41t-98 41t-40 98t40 98t98 41t99 -41t41 -98zM473 1284q0 -57 -41 -98t-99 -41t-99 41q-40 41 -39 98q0 57 39 98q40 41 98 41t100 -41q41 -41 41 -98z" />
    <glyph glyph-name="aogonek" unicode="&#x105;" horiz-adv-x="1101" 
d="M547 266q45 0 87 18q85 35 122 120q18 42 18 90q0 97 -68 164t-161 67q-92 0 -159 -68t-69 -161q0 -47 20 -89q38 -85 124 -123q41 -18 86 -18zM1042 133q0 -55 -41 -94t-103 -39t-103 66q-11 -4 -19 -10q-56 -36 -143 -49v-136q-1 -27 -21 -44t-47 -20h-67
q-27 -4 -44 -23q-18 -19 -18 -48t20 -49q20 -21 51 -21q30 0 50 20q21 20 21 51q0 30 20 49t48 19q65 0 68 -71t-56 -137t-147 -66q-89 0 -150 59q-62 59 -62 148q0 121 108 183q40 24 89 26v55q-123 12 -234 88q-154 105 -202 303q-11 49 -11 127t43 174q59 133 180 215
t275 82h30q96 0 189 -49q170 -90 243 -267q34 -85 33 -179v-363z" />
    <glyph glyph-name="Cacute" unicode="&#x106;" horiz-adv-x="1060" 
d="M874 446q55 0 97 -39q41 -40 41 -85t-25 -93q-59 -105 -168 -167t-246 -62h-18q-208 0 -354 140t-146 339v334q0 207 143 351t357 145q148 1 259 -63q112 -64 175 -175q23 -40 23 -86q0 -45 -41 -86t-93 -41t-80 24t-52 62q-42 67 -156 96q-16 2 -51 2q-81 0 -148 -63
t-67 -156v-327q-4 -96 64 -162t169 -68h25q114 22 166 101q23 35 47 57t79 22zM886 1752q50 -28 64 -85t-14 -106t-82 -64l-246 -67q-55 -14 -105 16q-51 30 -65 85q-14 56 14 104t85 65l247 65q51 14 102 -13z" />
    <glyph glyph-name="cacute" unicode="&#x107;" horiz-adv-x="978" 
d="M684 677q-50 48 -142 48q-91 0 -159 -69t-69 -162t70 -162q71 -68 161 -67t151 57q36 40 94 40t95 -40q35 -32 39 -86t-31 -91q-145 -145 -348 -145t-351 148t-147 347q0 200 150 348t352 148q201 0 344 -143q35 -39 32 -92t-40 -88t-94 -37t-107 46zM743 1442
q51 14 101 -14t65 -84q14 -57 -13 -107q-28 -49 -83 -63l-246 -68q-55 -14 -105 16t-64 85q-14 57 13 105q28 48 85 64z" />
    <glyph glyph-name="Ccaron" unicode="&#x10c;" horiz-adv-x="1060" 
d="M874 446q55 0 97 -39q41 -40 41 -85t-25 -93q-59 -105 -168 -167t-246 -62h-18q-208 0 -354 140t-146 339v334q0 207 143 351t357 145q148 1 259 -63q112 -64 175 -175q23 -40 23 -86q0 -45 -41 -86t-93 -41t-80 24t-52 62q-42 67 -156 96q-16 2 -51 2q-81 0 -148 -63
t-67 -156v-327q-4 -96 64 -162t169 -68h25q114 22 166 101q23 35 47 57t79 22zM253 1903q56 0 95 -39l170 -170l191 170q41 41 98 40t97 -41q40 -39 31 -97t-50 -99l-267 -246q-45 -39 -101 -40t-97 40l-246 246q-39 39 -49 95t31 98t97 43z" />
    <glyph glyph-name="ccaron" unicode="&#x10d;" horiz-adv-x="978" 
d="M684 677q-50 48 -142 48q-91 0 -159 -69t-69 -162t70 -162q71 -68 161 -67t151 57q36 40 94 40t95 -40q35 -32 39 -86t-31 -91q-145 -145 -348 -145t-351 148t-147 347q0 200 150 348t352 148q201 0 344 -143q35 -39 32 -92t-40 -88t-94 -37t-107 46zM232 1581
q56 0 96 -39l170 -170l190 170q41 41 98 40q58 -1 98 -41t30 -97t-50 -98l-266 -246q-45 -39 -101 -40t-98 40l-245 246q-39 39 -50 95q-10 56 31 98t97 42z" />
    <glyph glyph-name="Eogonek" unicode="&#x118;" horiz-adv-x="999" 
d="M795 276q57 0 97 -40t40 -98t-40 -98t-97 -40h-222v-115q0 -27 -20 -44t-47 -19h-68q-27 -4 -44 -24t-17 -48q0 -29 20 -49t50 -20t51 20q20 20 20 50t20 49q20 20 49 20q28 0 47 -16t20 -51q2 -75 -55 -141q-57 -65 -146 -66t-151 59t-62 147q0 120 107 183q40 24 89 26
v39h-227q-53 0 -95 40t-42 99v1030q0 53 39 97t98 43h586q57 0 97 -41q40 -42 40 -100t-40 -97t-97 -39h-451v-233h313q55 0 97 -41q42 -40 41 -98q0 -58 -41 -98t-97 -40h-313v-246h451z" />
    <glyph glyph-name="eogonek" unicode="&#x119;" horiz-adv-x="1081" 
d="M731 610q-65 115 -187 115q-123 0 -186 -115h373zM891 841q151 -150 151 -345q0 -53 -40 -84t-99 -29h-545q68 -117 187 -117q55 0 95 20q83 43 151 -4q67 -47 56 -128q-5 -39 -36 -72q-82 -67 -211 -78v-127q0 -27 -20 -44t-48 -19h-67q-27 -4 -44 -24t-17 -48
q0 -29 20 -49q20 -21 50 -21t50 20t20 51q0 30 21 49q20 20 48 20q65 1 68 -71t-54 -137t-148 -66q-90 -1 -150 58t-63 148q0 121 108 183q40 24 89 26v51q-146 21 -265 140q-69 69 -109 161q-40 91 -40 189t40 188t108 159q148 150 345 150q198 0 349 -150z" />
    <glyph glyph-name="Ecaron" unicode="&#x11a;" horiz-adv-x="999" 
d="M795 276q57 0 97 -40t40 -98t-40 -98t-97 -40h-586q-53 0 -95 40t-42 99v1030q0 53 39 97t98 43h586q57 0 97 -41q40 -42 40 -100t-40 -97t-97 -39h-451v-233h313q55 0 97 -41q42 -40 41 -98q0 -58 -41 -98t-97 -40h-313v-246h451zM222 1890q56 0 95 -39l170 -170
l191 170q41 41 98 40t97 -41t31 -97t-50 -98l-266 -246q-46 -39 -102 -40t-97 40l-246 246q-39 39 -49 95t31 98t97 42z" />
    <glyph glyph-name="ecaron" unicode="&#x11b;" horiz-adv-x="1081" 
d="M731 610q-65 115 -187 115q-123 0 -186 -115h373zM891 841q151 -150 151 -345q0 -53 -40 -84t-99 -29h-545q68 -117 187 -117q55 0 95 20q83 43 151 -4q67 -47 56 -128q-5 -39 -36 -72q-95 -77 -266 -82q-99 -4 -189 36t-158 108t-109 161q-40 91 -40 189t40 188t108 159
q148 150 345 150q198 0 349 -150zM284 1581q56 0 95 -39l170 -170l190 170q41 41 99 40t97 -41q40 -40 31 -97t-51 -98l-266 -246q-45 -39 -101 -40t-97 40l-246 246q-39 39 -49 95t30 99q42 41 98 41z" />
    <glyph glyph-name="nacute" unicode="&#x144;" horiz-adv-x="1114" 
d="M553 997q102 1 192 -35q182 -72 267 -253q41 -88 41 -191v-379q0 -53 -38 -92t-93 -40t-96 35q-40 36 -40 91v369q0 98 -68 164q-68 65 -160 65q-93 0 -161 -63q-67 -63 -67 -156v-373q0 -53 -41 -93t-94 -40t-95 37q-41 37 -41 90v369q4 207 145 350q143 145 349 145z
M729 1432q51 14 101 -14t65 -85t-13 -106t-83 -64l-246 -67q-55 -14 -106 15q-50 30 -64 86t13 105q28 48 85 64z" />
    <glyph glyph-name="Ncaron" unicode="&#x147;" horiz-adv-x="1120" 
d="M1057 823v-690q0 -53 -38 -92t-93 -40t-96 35q-40 36 -39 91v680q0 97 -68 163t-161 66t-161 -63q-67 -63 -67 -156v-684q0 -53 -41 -93t-94 -40t-95 37q-41 37 -41 90v680q4 207 146 351q142 145 350 145q207 0 352 -140q146 -140 146 -340zM284 1896q56 0 95 -38
l170 -170l190 170q41 42 99 40t97 -42q40 -40 31 -96q-9 -58 -51 -99l-266 -246q-45 -39 -101 -40t-97 40l-246 246q-39 39 -49 95t30 99q42 41 98 41z" />
    <glyph glyph-name="ncaron" unicode="&#x148;" horiz-adv-x="1114" 
d="M553 997q102 1 192 -35q182 -72 267 -253q41 -88 41 -191v-379q0 -53 -38 -92t-93 -40t-96 35q-40 36 -40 91v369q0 98 -68 164q-68 65 -160 65q-93 0 -161 -63q-67 -63 -67 -156v-373q0 -53 -41 -93t-94 -40t-95 37q-41 37 -41 90v369q4 207 145 350q143 145 349 145z
M280 1575q56 0 95 -39l170 -170l190 170q41 41 99 40t97 -41q40 -40 31 -97t-51 -99l-266 -245q-45 -39 -101 -40t-98 40l-245 245q-39 39 -49 95t30 100q42 41 98 41z" />
    <glyph glyph-name="OE" unicode="&#x152;" horiz-adv-x="2105" 
d="M597 980q-67 -62 -69 -157v-327q-4 -95 65 -162q69 -66 163 -67q95 -1 163 62t68 156l2 328q0 98 -68 164q-68 65 -162 65q-95 0 -162 -62zM260 479v334q0 206 143 351t357 145q133 0 254 -68q42 68 116 68h586q58 0 98 -41q40 -42 40 -100t-40 -97t-98 -39h-450v-233
h313q55 0 96 -41q41 -40 41 -98t-41 -98t-96 -40h-313v-246h450q57 0 98 -40q40 -40 40 -98t-40 -98t-98 -40h-586q-74 0 -117 67q-113 -67 -234 -67q-227 0 -373 140q-146 139 -146 339z" />
    <glyph glyph-name="oe" unicode="&#x153;" horiz-adv-x="1800" 
d="M708 354q66 69 64 162q-2 94 -65 160q-64 65 -160 67t-163 -63t-68 -161q0 -97 68 -165t163 -69q95 0 161 69zM920 839q152 152 348 152t348 -150q151 -150 151 -345q0 -53 -40 -84t-99 -29h-545q68 -117 187 -117q55 0 95 20q84 43 151 -4q67 -48 56 -128
q-5 -39 -36 -72q-95 -77 -266 -82q-207 -8 -372 170q-149 -149 -356 -148t-350 143t-143 349t142 349t354 151q223 0 375 -175zM1456 610q-64 115 -186 115q-123 0 -187 -115h373z" />
    <glyph glyph-name="racute" unicode="&#x155;" horiz-adv-x="698" 
d="M188 -2q-57 0 -94 36t-41 95v379q4 196 147 335q143 138 347 146q57 0 95 -39t40 -94t-37 -93t-91 -39q-102 -2 -167 -68t-65 -162v-373q-4 -53 -40 -88t-94 -35zM663 1431q50 -28 64 -85t-13 -107q-28 -49 -83 -63l-246 -68q-55 -14 -105 16t-64 85q-14 56 12 105
q28 48 85 64l248 66q51 14 102 -13z" />
    <glyph glyph-name="rcaron" unicode="&#x159;" horiz-adv-x="698" 
d="M188 -2q-57 0 -94 36t-41 95v379q4 196 147 335q143 138 347 146q57 0 95 -39t40 -94t-37 -93t-91 -39q-102 -2 -167 -68t-65 -162v-373q-4 -53 -40 -88t-94 -35zM74 1581q56 0 96 -39l170 -170l190 170q40 41 98 40t98 -41t31 -97t-50 -98l-267 -246q-45 -39 -101 -40
t-97 40l-246 246q-39 39 -49 95t30 99q41 41 97 41z" />
    <glyph glyph-name="Sacute" unicode="&#x15a;" horiz-adv-x="1038" 
d="M451 1032q-49 0 -83 -36t-34 -86t34 -84t83 -33h139q154 0 273 -117q120 -117 120 -280q0 -162 -115 -277t-278 -119h-365q-61 0 -100 40t-39 97t40 99t99 40h365q47 0 84 35t37 85t-36 84t-83 36h-141q-160 4 -278 118t-118 274t118 280q118 121 278 121h364
q55 0 94 -40q39 -39 41 -99t-37 -99t-98 -39h-364zM833 1748q50 -28 64 -85t-13 -107q-28 -49 -83 -63l-246 -68q-55 -14 -105 16t-64 86t12 104q28 48 85 65l248 65q51 14 102 -13z" />
    <glyph glyph-name="Scaron" unicode="&#x160;" horiz-adv-x="1021" 
d="M442 1032q-49 0 -82.5 -36t-33.5 -86t33.5 -83.5t82.5 -33.5h140q154 0 273.5 -117.5t119.5 -279.5t-115 -277t-278 -119h-365q-61 0 -100 40t-39 97t40 98t99 41h365q47 0 83.5 35t36.5 85t-35.5 84t-82.5 36h-142q-159 4 -277 118t-118 273t118 280.5t277 121.5h365
q55 0 94 -39.5t41 -99.5t-37 -99t-98 -39h-365zM756.5 1837q43.5 0 75.5 -33t32 -75.5t-30 -73.5l-228 -228q-33 -33 -76 -31.5t-77 31.5l-244 228q-33 31 -32 76t32 75.5t76 31.5t75 -32l170 -151l152 151q31 31 74.5 31z" />
    <glyph glyph-name="scaron" unicode="&#x161;" horiz-adv-x="956" 
d="M727 995q55 0 92 -42t37 -92t-40 -90t-89 -40h-352q-25 0 -42.5 -14.5t-17.5 -42.5t17.5 -43t42.5 -15h231q124 0 210.5 -95t86.5 -206q4 -135 -90 -225t-231 -90h-377q-53 0 -92 37t-39 90t36.5 95t90.5 44h377q55 0 55 49q0 55 -55 56h-226q-125 0 -210 96t-85 218
t88 214t217 96h365zM708 1483q44 0 76 -33t31.5 -76t-31.5 -74l-227 -227q-33 -33 -76 -32t-78 32l-243 227q-33 31 -32 76t31.5 76t76 32t75.5 -32l170 -152l152 152q31 31 75 31z" />
    <glyph glyph-name="Tcaron" unicode="&#x164;" horiz-adv-x="1073" 
d="M903 1309q59 0 99 -41q40 -42 40 -100t-40 -97t-99 -39h-229v-893q0 -59 -39 -99t-98 -40t-99 40q-39 40 -39 99v893h-231q-57 0 -97 39t-40 97t40 100t97 41h735zM263 1894q56 0 95 -39l170 -169l191 169q41 41 98 40t97 -41t31 -97t-50 -98l-266 -246q-45 -39 -101 -40
t-98 40l-246 246q-39 39 -49 95t31 98t97 42z" />
    <glyph glyph-name="Ydieresis" unicode="&#x178;" horiz-adv-x="1083" 
d="M37 989v182q0 57 40 97t97 41q57 0 97 -40t40 -98v-182q1 -84 57 -140t140 -56t141 56t58 140v182q0 57 39 98q40 40 98 40t97 -40q40 -40 40 -98v-184q0 -154 -96 -285q-95 -125 -244 -165v-400q0 -57 -40 -97t-97 -40t-97 40t-40 97v402q-149 47 -239 170
q-91 123 -91 280zM846 1610q0 -56 -41 -98t-99 -42t-99 41q-40 41 -40 99t40 98q41 41 99 41t99 -41t41 -98zM451 1610q0 -56 -41 -98q-42 -42 -100 -42t-98 41t-40 99t40 98q40 41 98 41t100 -41t41 -98z" />
    <glyph glyph-name="Zacute" unicode="&#x179;" horiz-adv-x="1134" 
d="M930 276q59 0 98 -40t39 -98t-39 -98t-98 -40h-721q-84 4 -119 72q-16 32 -16 68t20 73l563 819h-452q-55 0 -96 39t-41 97t41 100t96 41h721q80 -4 120 -75q17 -32 17 -70t-23 -74l-565 -814h455zM801 1765q51 15 101 -13t65 -85q14 -57 -14 -106t-83 -64l-245 -67
q-55 -14 -106 15q-50 30 -64 86t13 104q28 48 85 65z" />
    <glyph glyph-name="zacute" unicode="&#x17a;" horiz-adv-x="1130" 
d="M932 991q53 0 92 -41t39 -93t-39 -91l-20 -20t-73 -74q-63 -62 -177 -176t-230 -228h408q51 -2 92 -41q39 -43 39 -94t-39 -94q-43 -39 -92 -39h-731q-53 0 -93 40t-38 91q-4 55 36 92l500 502h-405q-55 4 -95 42t-36 93q-2 51 37 91t94 40h731zM778 1442q52 14 102 -14
t64 -84q14 -57 -13 -107q-28 -49 -83 -63l-246 -68q-55 -14 -105 16q-51 30 -65 85q-14 56 13 105q28 48 85 64z" />
    <glyph glyph-name="Zcaron" unicode="&#x17d;" horiz-adv-x="1134" 
d="M930 276q59 0 98 -40t39 -98t-39 -98t-98 -40h-721q-84 4 -119 72q-16 32 -16 68t20 73l563 819h-452q-55 0 -96 39t-41 97t41 100t96 41h721q80 -4 120 -75q17 -32 17 -70t-23 -74l-565 -814h455zM310 1882q56 0 96 -39l169 -170l191 170q41 41 98 40q58 -1 98 -41
t30 -97t-50 -98l-266 -246q-46 -39 -102 -40t-97 40l-246 246q-39 39 -49 95t31 98t97 42z" />
    <glyph glyph-name="zcaron" unicode="&#x17e;" horiz-adv-x="1132" 
d="M932 991q53 0 92 -41t39 -93t-39 -91l-20 -20t-73 -74q-63 -62 -177 -176t-230 -228h408q51 -2 92 -41q39 -43 39 -94t-39 -94q-43 -39 -92 -39h-731q-53 0 -93 40t-38 91q-4 55 36 92l500 502h-405q-55 4 -95 42t-36 93q-2 51 37 91t94 40h731zM351 1573q56 0 95 -39
l170 -170l191 170q41 41 98 40t97 -41t31 -97t-50 -99l-266 -245q-45 -39 -101 -40t-98 40l-246 245q-39 39 -49 95t31 99q41 42 97 42z" />
    <glyph glyph-name="florin" unicode="&#x192;" horiz-adv-x="768" 
d="M592 1309q66 0 106.5 -33t42.5 -92t-35.5 -96t-87.5 -40t-75 -32t-25 -68v-149q53 -4 89 -42t36 -93.5t-35 -92t-90 -41.5v-462q0 -180 -125 -270t-210 -88t-119.5 45.5t-35.5 92.5t36.5 87t85.5 39t75 31t27 67v458q-55 0 -88 37t-35 93t33 94.5t90 44.5v151
q0 143 102 251t238 108z" />
    <glyph glyph-name="circumflex" unicode="&#x2c6;" horiz-adv-x="905" 
d="M177 1120q-56 0 -97 42t-31 98t49 96l246 246q41 42 97 40t102 -40l266 -246q41 -40 50 -98t-31 -98t-97 -41t-98 40l-191 170l-170 -170q-39 -39 -95 -39z" />
    <glyph glyph-name="caron" unicode="&#x2c7;" horiz-adv-x="905" 
d="M177 1640q56 0 95 -38l170 -170l191 170q41 42 98 40t97 -42t31 -96q-9 -58 -50 -99l-266 -246q-45 -39 -101 -40t-98 40l-246 246q-39 39 -49 95t31 98t97 42z" />
    <glyph glyph-name="ogonek" unicode="&#x2db;" horiz-adv-x="483" 
d="M91.5 -371q-62.5 59 -62.5 148q0 120 73.5 163.5t122.5 45.5v164q0 18 19.5 38.5t49.5 20.5t49 -20.5t19 -38.5v-240q0 -27 -20 -44.5t-47 -19.5h-68q-27 -4 -44 -24t-17 -48t20.5 -48.5t50.5 -20.5t50 20.5t20 50.5t20.5 49t48.5 19t47 -16t20 -50t-14 -73t-57.5 -87
t-130.5 -48q-87 0 -149.5 59z" />
    <glyph glyph-name="tilde" unicode="&#x2dc;" horiz-adv-x="1052" 
d="M543 1452l100 -55q33 -23 51 -18t45 38q27 45 75 65t100 -8q52 -30 70 -85t-20 -117q-115 -197 -339 -153q-76 15 -115 40l-102 55q-58 38 -102 -31q-22 -35 -70 -55t-100 10t-68 85t20 117t83 100q105 82 252 53q73 -14 120 -41z" />
    <glyph glyph-name="endash" unicode="&#x2013;" horiz-adv-x="923" 
d="M860 617q0 -58 -40 -99t-97 -41h-522q-59 0 -98.5 41t-39.5 99t39 98.5t99 40.5h522q57 0 97 -40.5t40 -98.5z" />
    <glyph glyph-name="emdash" unicode="&#x2014;" horiz-adv-x="1091" 
d="M1026 617q0 -58 -40 -99t-97 -41h-686q-59 0 -98 41t-39 99t38.5 98.5t98.5 40.5h686q57 0 97 -40.5t40 -98.5z" />
    <glyph glyph-name="quoteleft" unicode="&#x2018;" horiz-adv-x="485" 
d="M188 1239q26 47 82 63t106 -15q50 -30 65 -85t-13 -104l-127 -221q-29 -49 -85 -63t-106 14q-50 30 -65 84q-14 54 14 106z" />
    <glyph glyph-name="quoteright" unicode="&#x2019;" horiz-adv-x="485" 
d="M188 1243q26 47 82 63t106 -15q50 -30 65 -85t-13 -104l-127 -221q-29 -49 -85 -63t-106 15t-64 83t13 106z" />
    <glyph glyph-name="quotesinglbase" unicode="&#x201a;" horiz-adv-x="487" 
d="M377 190q53 -31 66 -87t-13 -103l-129 -221q-31 -49 -86 -63t-109 18q-47 31 -61 84t14 104l129 219q30 49 86 65t103 -16z" />
    <glyph glyph-name="quotedblleft" unicode="&#x201c;" horiz-adv-x="911" 
d="M596 1239q27 47 82 63t105 -15q49 -30 65 -85t-12 -104l-127 -221q-29 -49 -85 -63t-106 14q-50 30 -65 84q-14 54 14 106zM205 1239q27 47 82 63t105 -15q50 -30 66 -85t-14 -104l-127 -221q-29 -49 -85 -63t-106 14q-50 30 -65 84q-14 54 15 106z" />
    <glyph glyph-name="quotedblright" unicode="&#x201d;" horiz-adv-x="911" 
d="M596 1239q27 47 82 63t105 -15q49 -30 65 -85t-12 -104l-127 -221q-29 -49 -85 -63t-106 14q-50 30 -65 84q-14 54 14 106zM205 1239q27 47 82 63t105 -15q50 -30 66 -85t-14 -104l-127 -221q-29 -49 -85 -63t-106 14q-50 30 -65 84q-14 54 15 106z" />
    <glyph glyph-name="quotedblbase" unicode="&#x201e;" horiz-adv-x="911" 
d="M596 141q27 47 82 63t105 -15q49 -30 65 -85t-12 -104l-127 -221q-29 -49 -85 -63t-106 15q-50 30 -65 84q-14 54 14 105zM205 141q27 47 82 63t105 -15q50 -30 66 -85t-14 -104l-127 -221q-29 -49 -85 -63t-106 15q-50 30 -65 84q-14 54 15 105z" />
    <glyph glyph-name="dagger" unicode="&#x2020;" horiz-adv-x="833" 
d="M815 761q0 -58 -40 -99t-97 -41h-117v-750q0 -59 -43 -102t-102.5 -43t-101.5 43t-42 102v750h-116q-59 0 -98.5 40.5t-39.5 98.5t39 98.5t99 40.5h116v266q0 59 42 102.5t101.5 43.5t102.5 -43t43 -103v-266h117q57 0 97 -40t40 -98z" />
    <glyph glyph-name="daggerdbl" unicode="&#x2021;" horiz-adv-x="827" 
d="M801 899q0 -55 -39 -95t-94 -40h-111v-166h111q55 0 94 -40t39 -95t-39 -95t-94 -40h-111v-457q0 -59 -43 -102t-102.5 -43t-101.5 43t-42 102v457h-106q-57 0 -96 40t-39 95t38.5 95t96.5 40h106v166h-106q-57 0 -96 40t-39 95t38.5 95t96.5 40h106v131q0 59 42 102.5
t101.5 43.5t102.5 -43t43 -103v-131h111q55 0 94 -40t39 -95z" />
    <glyph glyph-name="bullet" unicode="&#x2022;" horiz-adv-x="526" 
d="M51 494q0 86 63 150.5t153 64.5q89 0 149.5 -68t60.5 -149t-61.5 -144t-152.5 -63t-151.5 61.5t-60.5 147.5z" />
    <glyph glyph-name="ellipsis" unicode="&#x2026;" horiz-adv-x="1077" 
d="M1012 139.5q0 -57.5 -41 -98.5t-99 -41t-98.5 41t-40.5 98.5t40 98.5t98 41t99.5 -41t41.5 -98.5zM678 139.5q0 -57.5 -41 -98.5t-99 -41t-98.5 41t-40.5 98.5t40.5 98.5t98.5 41t99 -41t41 -98.5zM344 139.5q0 -57.5 -41 -98.5t-99 -41t-98 41t-40 98.5t40 98.5t98 41
t99 -41t41 -98.5z" />
    <glyph glyph-name="perthousand" unicode="&#x2030;" horiz-adv-x="2480" 
d="M2105 467q-43 0 -74.5 -30.5t-32.5 -77.5t30.5 -76t75.5 -30t76 31.5t32 75.5t-32 75t-75 32zM2111.5 717q143.5 0 244 -106.5t100.5 -248.5t-100.5 -249t-244.5 -107q-160 4 -261 100.5t-101 272.5q6 141 112.5 239.5t250 98.5zM1348 467q-43 0 -75 -30.5t-33 -77.5
t31 -76t76 -30t75.5 31.5t31.5 75.5t-31.5 75t-74.5 32zM1353.5 717q143.5 0 244 -106.5t100.5 -248.5t-100.5 -249t-243.5 -107q-160 4 -261.5 100.5t-101.5 272.5q6 141 112.5 239.5t250 98.5zM401 1059q-43 0 -74.5 -31t-32.5 -78t30.5 -75.5t75.5 -29.5t76 31.5t32 75.5
t-32 75t-75 32zM407.5 1309q143.5 0 244 -106.5t100.5 -248.5t-100.5 -249t-243.5 -107q-160 4 -261.5 100.5t-101.5 272.5q6 141 112.5 239.5t250 98.5zM965.5 1296q50.5 27 105.5 10t82 -68.5t10 -104.5l-327 -1035q-16 -53 -68.5 -79.5t-106 -10t-80 66.5t-10.5 107
l328 1032q16 55 66.5 82z" />
    <glyph glyph-name="guilsinglleft" unicode="&#x2039;" horiz-adv-x="704" 
d="M639 138q0 -56 -42 -97t-98 -41t-96 39l-348 348q-41 41 -40 97t40 102l348 368q41 41 99 40t97 -41q40 -40 41 -97t-40 -98l-252 -273l252 -252q39 -39 39 -95z" />
    <glyph glyph-name="guilsinglright" unicode="&#x203a;" horiz-adv-x="706" 
d="M206 0q-56 0 -100 41q-41 41 -40 97q0 56 38 95l252 252l-252 273q-41 41 -39 98q1 57 41 97t96 41q58 1 99 -40l348 -368q39 -46 40 -102t-40 -97l-348 -348q-39 -39 -95 -39z" />
    <glyph glyph-name="Euro" unicode="&#x20ac;" horiz-adv-x="1107" 
d="M492 338q46 -62 144 -62q97 0 157 91q23 35 47 57t79.5 22t96.5 -39.5t41 -99.5q0 -26 -25 -78q-59 -104 -167.5 -166.5t-216.5 -62.5t-236 55t-207 226q-12 29 -21 57h-10q-57 0 -96 37t-39 92t38 94t91 41v78q-53 2 -91 41t-38 94t39 92t96 37q14 38 40 98t127 162.5
t290 102.5q123 0 231.5 -62.5t171.5 -173.5q23 -40 23 -86q0 -45 -41 -86t-92 -41t-79.5 23.5t-52.5 61.5t-66 62.5t-88 24.5q-109 0 -165 -86h23q55 0 94 -37t39 -92t-39 -95t-94 -40h-54v-78h54q55 0 94 -40t39 -95t-39 -92t-94 -37h-4z" />
    <glyph glyph-name="trademark" unicode="&#x2122;" horiz-adv-x="1708" 
d="M1331 1296q23 0 86.5 -12t144 -81t80.5 -240v-222q0 -59 -40 -99t-98 -40t-98 40t-40 99v185q0 78 -36 78t-36 -78v-185q0 -59 -40 -99t-97 -40t-97 40t-40 99v185q0 78 -36 78t-36 -78v-185q0 -59 -40 -99t-98 -40t-98 40t-40 99v222q0 175 94 254t217 79q79 0 174 -45
q98 45 174 45zM518 1309q59 0 99 -41.5t40 -99.5t-39.5 -97t-99.5 -39h-24v-278q0 -59 -39 -99.5t-98.5 -40.5t-98.5 40t-39 100v278h-26q-57 0 -97.5 39t-40.5 97t40 99.5t98 41.5h325z" />
    </font>
</defs>
</svg>
