<?xml version="1.0" standalone="no"?>
<!DOCTYPE svg PUBLIC "-//W3C//DTD SVG 1.1//EN" "http://www.w3.org/Graphics/SVG/1.1/DTD/svg11.dtd" >
<svg xmlns="http://www.w3.org/2000/svg">
<metadata>
Created by FontPrep 20130207 at Thu May 29 01:15:09 2014
 By Pixeloid
Copyright (c) 2006 by studio kmzero. All rights reserved.
</metadata>
<defs>
<font id="2bd84fa9a5eb2e671388d9a37954bff4" horiz-adv-x='1024' >
  <font-face 
    font-family="Arista2.0Alternate"
    font-weight="700"
    font-stretch="normal"
    units-per-em="2048"
    panose-1="2 0 5 6 0 0 0 2 0 4"
    ascent="1638"
    descent="-410"
    x-height="984"
    cap-height="1307"
    bbox="-90.7805 -500.014 2458 1953.02"
    underline-thickness="102"
    underline-position="-102"
    unicode-range="U+0020-2122"
  />
<missing-glyph horiz-adv-x="460" 
 />
    <glyph glyph-name=".notdef" horiz-adv-x="460" 
 />
    <glyph glyph-name=".null" horiz-adv-x="0" 
 />
    <glyph glyph-name="nonmarkingreturn" horiz-adv-x="681" 
 />
    <glyph glyph-name="space" unicode=" " horiz-adv-x="460" 
 />
    <glyph glyph-name="exclam" unicode="!" horiz-adv-x="417" 
d="M208 1309q56 0 97 -40t41 -100v-690q0 -59 -41 -99t-97 -40t-97 40t-41 99v690q0 59 41 99.5t97 40.5zM346 138q0 -56 -41 -97t-97 -41t-97 41t-41 97t41 97t97 41t97 -41t41 -97z" />
    <glyph glyph-name="quotedbl" unicode="&#x22;" horiz-adv-x="759" 
d="M552 1309q58 0 97 -40t39 -98v-256q0 -57 -39 -97t-97 -40t-99 40t-41 97v256q0 57 41 97.5t99 40.5zM212 1309q58 0 97 -40t39 -98v-256q0 -57 -39 -97t-97 -40t-99 40t-41 97v256q0 57 41 97.5t99 40.5z" />
    <glyph glyph-name="numbersign" unicode="#" horiz-adv-x="1216" 
d="M664 698h-84l-21 -77h80zM1067 481.5q0 -57.5 -40 -98.5t-97 -41h-88l-78 -244q-16 -55 -67.5 -81.5t-106.5 -9.5t-82 67.5t-8 105.5l51 162h-82l-78 -244q-16 -55 -66.5 -81.5t-105.5 -9.5t-81.5 67.5t-8.5 105.5l51 162h-2q-59 0 -99 41t-40 98.5t40 98.5t99 41h88
l25 77q-59 0 -99 40t-40 98t39.5 97.5t99.5 39.5h86l76 241q16 55 68.5 81t106.5 10t79.5 -67.5t11.5 -104.5l-53 -160h84l73 241q20 55 70.5 82t103.5 9q57 -14 84 -65.5t11 -106.5l-52 -160q57 0 98.5 -40t41.5 -97t-41 -97.5t-99 -40.5h-88l-22 -77q57 0 97 -41t40 -98.5
z" />
    <glyph glyph-name="dollar" unicode="$" horiz-adv-x="1095" 
d="M780 396q0 50 -37 83q-20 20 -45 29v-225q26 7 54 35t28 78zM321 910q0 -50 33 -85q25 -23 56 -30v233q-31 -8 -60 -38t-29 -80zM553 1448q59 0 101 -42t44 -97h187q55 0 94 -39.5t41 -99.5t-37 -99t-98 -39h-187v-241q133 -14 244 -123.5t111 -271.5t-84.5 -246
t-150.5 -114t-120 -36q-4 -53 -45 -95t-100 -42t-100 42t-43 95h-197q-61 0 -100 40t-39 97t40 98t99 41h197v240q-140 13 -253.5 122.5t-113.5 269.5t85 246.5t154 119.5t128 35q2 55 43 97t100 42z" />
    <glyph glyph-name="percent" unicode="%" horiz-adv-x="1726" 
d="M1339 467q-43 0 -74.5 -30.5t-32.5 -77.5t30.5 -76t75.5 -30t76 31.5t32 75.5t-32 75t-75 32zM1345.5 717q143.5 0 244 -106.5t100.5 -248.5t-100.5 -249t-243.5 -107q-160 4 -261.5 100.5t-101.5 272.5q6 141 112.5 239.5t250 98.5zM393 1059q-43 0 -74.5 -31t-32.5 -78
t30.5 -75.5t75.5 -29.5t76 31.5t32 75.5t-32 75t-75 32zM399.5 1309q143.5 0 243.5 -106.5t100 -248.5t-100 -249t-244 -107q-160 4 -261 100.5t-101 272.5q6 141 112.5 239.5t250 98.5zM957.5 1296q50.5 27 105.5 10t81.5 -68.5t10.5 -104.5l-328 -1035q-16 -53 -68 -79.5
t-105.5 -10t-80 66.5t-10.5 107l328 1032q16 55 66.5 82z" />
    <glyph glyph-name="ampersand" unicode="&#x26;" horiz-adv-x="1230" 
d="M315 389q0 -51 39.5 -91t95.5 -40t95 39l57 63l-184 164q-45 -12 -74 -48t-29 -87zM451 1053q-43 0 -73 -31t-30 -70t27 -72.5t73 -33.5t76.5 29.5t30.5 72.5t-30.5 74t-73.5 31zM199 694q-107 107 -107 253t104.5 253t237.5 107q134 0 218.5 -63.5t123.5 -158t23 -212
t-73.5 -163.5t-68.5 -57l113 -100l107 119q35 41 87 43t92 -33t42 -87t-33 -93l-102 -117l192 -166q39 -35 42 -88t-32 -93t-89 -42t-91 33l-190 166l-80 -95q-113 -100 -277 -100t-272 123t-102.5 288.5t135.5 282.5z" />
    <glyph glyph-name="quotesingle" unicode="'" horiz-adv-x="409" 
d="M206 1313q58 0 97 -40t39 -97v-256q0 -57 -39 -97.5t-97 -40.5t-99 40t-41 98v256q0 57 41 97t99 40z" />
    <glyph glyph-name="parenleft" unicode="(" horiz-adv-x="792" 
d="M725 -136q0 -58 -40 -98t-99 -40h-27q-205 0 -313.5 109.5t-149.5 200.5t-41 189v584q0 198 150 350t354 152h27q59 0 99 -40t40 -98t-40 -97.5t-95 -39.5q-101 0 -178.5 -98.5t-77.5 -204.5v-479q0 -98 74.5 -176t181.5 -78q55 0 95 -39t40 -97z" />
    <glyph glyph-name="parenright" unicode=")" horiz-adv-x="794" 
d="M205 0q105 0 180.5 77.5t75.5 176.5v479q0 106 -78 204.5t-174 98.5q-59 0 -99 39t-40 97t40 98.5t99 40.5h27q100 0 192 -41t201.5 -152t109.5 -309v-584q0 -98 -41 -189t-109.5 -160t-160.5 -109.5t-192 -40.5h-27q-59 0 -99 40t-40 98t40 97t95 39z" />
    <glyph glyph-name="asterisk" unicode="*" horiz-adv-x="755" 
d="M379 711q-53 0 -89 32.5t-42 83.5q-47 -23 -94.5 -6t-75.5 63t-17 94t52 77q-41 29 -51.5 79t16.5 97q29 45 76 59.5t94 -8.5q6 53 42 87t89 34t90 -34t43 -83q47 18 93 3t73 -60t15.5 -95.5t-52.5 -78.5q41 -29 52.5 -77t-16.5 -93t-73 -61.5t-92 1.5q-6 -49 -43 -81.5
t-90 -32.5z" />
    <glyph glyph-name="plus" unicode="+" horiz-adv-x="847" 
d="M682 754q59 0 100 -40t41 -98t-41 -99.5t-100 -41.5h-119v-119q0 -59 -41 -100t-99 -41t-98 41t-40 100v119h-121q-59 0 -98 41t-39 99t38.5 98.5t98.5 40.5h121v120q0 59 40 99.5t98 40.5t99 -40t41 -100v-120h119z" />
    <glyph glyph-name="comma" unicode="," horiz-adv-x="409" 
d="M204 279q58 0 99 -41t41 -97v-256q0 -57 -41 -97t-99 -40t-98 40t-40 97v256q0 55 40 96.5t98 41.5z" />
    <glyph glyph-name="hyphen" unicode="-" horiz-adv-x="931" 
d="M864 617q0 -58 -40 -99t-97 -41h-522q-59 0 -98 41t-39 99t38.5 98.5t98.5 40.5h522q57 0 97 -40.5t40 -98.5z" />
    <glyph glyph-name="period" unicode="." horiz-adv-x="385" 
d="M332 139.5q0 -57.5 -41 -98.5t-99 -41t-98.5 41t-40.5 98.5t40 98.5t98 41t99.5 -41t41.5 -98.5z" />
    <glyph glyph-name="slash" unicode="/" horiz-adv-x="661" 
d="M431 1294q53 27 106 10q53 -16 79 -68t11 -106l-328 -1034q-15 -53 -67 -80q-52 -26 -106 -10t-81 66t-10 108l327 1032q16 55 69 82z" />
    <glyph glyph-name="zero" unicode="0" horiz-adv-x="1095" 
d="M388 333q69 -69 163 -69t160.5 70t64.5 163t-65.5 158.5t-158.5 67.5t-164 -63.5t-69 -161.5t69 -165zM900.5 147.5q-143.5 -145.5 -351.5 -145.5t-352 142t-144 349t142.5 349.5t353.5 150.5q201 0 348 -145.5t147 -350.5q0 -204 -143.5 -349.5z" />
    <glyph glyph-name="one" unicode="1" horiz-adv-x="583" 
d="M508 135q0 -55 -39 -95t-94 -40h-25q-57 0 -96 40t-39 95v490q-43 -23 -94 -9t-78 64q-29 47 -15.5 101.5t64.5 82.5q215 140 272 140t100.5 -43t43.5 -103v-723z" />
    <glyph glyph-name="two" unicode="2" horiz-adv-x="997" 
d="M197 551q-51 0 -92.5 41t-41.5 97t44.5 123t129.5 117t142 61t133 11q166 0 288 -100t122 -258q0 -127 -113 -209l-217 -158h209q55 0 96 -39t41 -97t-41 -99t-96 -41h-600q-78 4 -110 54t-30 103.5t70 98.5l455 336q35 25 37 59q-4 92 -127 88q-55 0 -98.5 -30.5
t-67.5 -70.5t-53 -63.5t-80 -23.5z" />
    <glyph glyph-name="three" unicode="3" horiz-adv-x="1007" 
d="M907 860.5q0 -57.5 -39 -98.5l-198 -199q169 -74 225.5 -197.5t56.5 -267.5t-133.5 -277.5t-324.5 -133.5q-138 0 -266.5 72.5t-161.5 179.5q-25 68 12 132t103 64q65 0 106 -41q25 -18 40 -40.5t33.5 -43t44 -34t96.5 -13.5t123 52.5t52 128.5t-52.5 129t-129.5 53h-74
q-12 -2 -24 -2q-57 0 -97 43q-43 41 -43 97t41 97l164 166h-217q-59 0 -98.5 41t-39.5 99t39 98.5t99 40.5h501q18 0 35 -5q47 -3 86 -38q41 -45 41 -102.5z" />
    <glyph glyph-name="four" unicode="4" horiz-adv-x="942" 
d="M920 138q0 -54 -38 -94t-91 -44v-203q0 -37 -40.5 -76.5t-98.5 -39.5t-98 39.5t-40 76.5v203h-350q-57 0 -97 40t-40 99v2l227 774q27 53 74 79t101 6t82 -76t-1 -107l-180 -541h184q2 55 42 94.5t96 39.5t96 -39t43 -95q53 -4 91 -44t38 -94z" />
    <glyph glyph-name="five" unicode="5" horiz-adv-x="999" 
d="M814.5 -179.5q-133.5 -133.5 -325.5 -133.5q-117 0 -245.5 73.5t-161.5 178.5q-24 67 13 131.5t102 64.5t106 -41q25 -18 40 -40.5t45.5 -56.5t104.5 -34t126.5 52.5t52.5 133.5t-52.5 133t-130.5 52h-286q-53 0 -96.5 40t-43.5 97v393q0 59 41 99.5t99 40.5h508
q59 0 99 -40t40 -98t-40 -98.5t-99 -40.5h-377v-117h155q187 -4 323 -136t136 -326t-133.5 -327.5z" />
    <glyph glyph-name="six" unicode="6" horiz-adv-x="1083" 
d="M360 361q56 -79 150 -89q94 -11 170 44q77 55 90 150q13 94 -42 172t-153 88q-98 11 -173 -47t-86 -148q-10 -91 44 -170zM843 101q-165 -120 -361 -96q-98 12 -185 62q-88 50 -146 131t-84 173q-56 198 46 374l301 525q29 45 82 55q53 9 99 -17t60 -79t-12 -99l-76 -133
q115 -8 215 -65t160 -137q120 -163 94 -360q-12 -97 -63 -186t-130 -148z" />
    <glyph glyph-name="seven" unicode="7" horiz-adv-x="1026" 
d="M190 727q-55 0 -96 39t-41 97t41 99.5t96 41.5h680q82 -4 110 -55.5t28 -84.5t-23 -84l-561 -1024q-39 -51 -97.5 -60t-105.5 21.5t-58 85t19 101.5l447 823h-439z" />
    <glyph glyph-name="eight" unicode="8" horiz-adv-x="1024" 
d="M513 1317q134 0 229.5 -100.5t95.5 -235.5q0 -84 -37 -156q176 -141 176 -346t-135 -342t-329.5 -137t-329 134.5t-134.5 336.5t162 342q-39 76 -39 184q6 133 106.5 226.5t234.5 93.5zM515 1079q-40 0 -68.5 -26.5t-29.5 -70.5t26.5 -70.5t69.5 -26.5t69.5 28.5
t27.5 68.5t-27.5 68.5t-67.5 28.5zM385 329.5q57 -55.5 130 -55.5t128 56.5t53 132.5t-53 128t-111 54t-91 -12.5t-72 -53t-41 -116.5t57 -133.5z" />
    <glyph glyph-name="nine" unicode="9" horiz-adv-x="1083" 
d="M681 326q76 57 86 149t-46 171t-150 89t-169 -46q-76 -55 -89 -149t43 -173q55 -79 152 -88q97 -10 173 47zM786 939q88 -50 146 -131q122 -169 99 -364q-11 -98 -60 -184l-301 -524q-29 -45 -82 -55q-53 -9 -99 17t-61 79q-14 53 12 98l76 133q-115 8 -215 66
q-191 110 -243 306q-52 197 53 376q100 176 298 230q199 54 377 -47z" />
    <glyph glyph-name="colon" unicode=":" horiz-adv-x="399" 
d="M340 854q0 -57 -41 -98t-99 -41t-98.5 41t-40.5 98t40.5 98t98.5 41t99 -41t41 -98zM340 139.5q0 -57.5 -41 -98.5t-99 -41t-98.5 41t-40.5 98.5t40.5 98.5t98.5 41t99 -41t41 -98.5z" />
    <glyph glyph-name="semicolon" unicode=";" horiz-adv-x="409" 
d="M204 279q58 0 99 -41t41 -97v-256q0 -57 -41 -97t-99 -40t-98 40t-40 97v256q0 55 40 96.5t98 41.5zM344 854q0 -57 -41 -98t-99 -41t-98 41t-40 98t40 98t98 41t99 -41t41 -98z" />
    <glyph glyph-name="less" unicode="&#x3c;" horiz-adv-x="792" 
d="M80 731l446 238q48 27 102 11t81 -66t9 -103t-67 -80l-221 -119l221 -116q49 -27 67 -80t-9 -103q-27 -49 -80 -65t-103 10l-446 236q-63 31 -63 120q1 37 18 70q16 33 45 47z" />
    <glyph glyph-name="equal" unicode="=" horiz-adv-x="913" 
d="M844 899q0 -55 -39 -95t-94 -40h-506q-57 0 -96 40t-39 95t38.5 95t96.5 40h506q55 0 94 -40t39 -95zM844 544.5q0 -55.5 -39 -95t-94 -39.5h-506q-57 0 -96 39.5t-39 95t38.5 95.5t96.5 40h506q55 0 94 -40t39 -95.5z" />
    <glyph glyph-name="greater" unicode="&#x3e;" horiz-adv-x="792" 
d="M713 731q60 -29 62 -117t-62 -120l-447 -236q-49 -26 -102 -10t-80 65q-28 49 -10 103t67 80l221 116l-221 119q-49 27 -66 80t9 102q27 49 80 65t102 -9z" />
    <glyph glyph-name="question" unicode="?" horiz-adv-x="899" 
d="M475 136q0 -56 -40 -96t-96 -40t-95 40t-39 96t39 96t95 40t96 -40t40 -96zM747.5 1190q124.5 -119 124.5 -295q0 -137 -81 -250q-53 -72 -134.5 -118t-177.5 -50v-2q0 -55 -40 -96t-98 -41t-97 41t-39 96v154q0 53 41 88t94 39h135q51 6 86 46t35 96t-41 97t-99 41
t-99.5 -41t-41.5 -99t-41 -98t-96 -40t-94 33.5t-43 87.5q0 172 116.5 301t290.5 129q175 0 299.5 -119z" />
    <glyph glyph-name="at" unicode="@" horiz-adv-x="1499" 
d="M753 713q-46 0 -77 -32t-31 -77t31 -76.5t77 -31.5t77.5 31.5t31.5 76.5t-31.5 77t-77.5 32zM1153 496q27 0 37 30q6 37 6 78q0 123 -59 219q-57 100 -158 162t-209 62t-188 -35t-140.5 -95.5t-95.5 -140.5t-35 -217t130 -267t313 -130q72 0 115 15t83 15t77.5 -37
t37.5 -85q0 -95 -90 -131q-109 -37 -239 -37t-258 55t-223 150.5t-150.5 223.5t-55.5 273.5t55.5 273.5t150.5 223t223 150.5t273.5 55.5t272.5 -55.5t222 -150.5t150.5 -223t55.5 -256t-24 -200t-100.5 -127t-174.5 -59q-106 0 -188 69q-94 -70 -213 -69q-149 0 -259 108.5
t-110 261.5t108.5 260t260.5 107q96 0 176 -44.5t119 -104.5q71 -108 71 -220l-6 -69q0 -39 39 -39z" />
    <glyph glyph-name="A" unicode="A" horiz-adv-x="1165" 
d="M414 354h338l-168 434zM585 1307q40 0 75.5 -25t52.5 -65l399 -1031q20 -53 -2.5 -104.5t-75.5 -73.5t-105 1.5t-73 78.5l-18 45h-510l-17 -45q-20 -55 -72.5 -78.5t-105.5 -1.5t-76.5 73.5t-3.5 104.5l402 1031q16 37 53 63.5t77 26.5z" />
    <glyph glyph-name="B" unicode="B" horiz-adv-x="1142" 
d="M547 663.5q0 55.5 40 95.5t95 40q51 4 84 37.5t33 81t-34 81t-81 33.5h-334v-762h332q53 0 91 38t38 90t-36 89t-92 39t-96 42t-40 95.5zM981 664q100 -113 100 -272t-116.5 -275.5t-282.5 -116.5h-467q-59 0 -99 40t-40 97v1030q0 55 40 96.5t99 41.5h469
q160 0 274.5 -113t114.5 -266t-92 -262z" />
    <glyph glyph-name="C" unicode="C" horiz-adv-x="1284" 
d="M49 655.5q0 135.5 51.5 254t139.5 207.5t208 140.5t264 51.5t275 -66.5t221 -177.5q60 -89 -1 -148t-119 -59t-82 29q-53 68 -131.5 108.5t-164.5 40.5q-166 0 -278.5 -113.5t-112.5 -268.5q0 -156 112 -268t271 -112q92 0 171 41t133 109q31 29 87 29t97 -41t41 -89
t-23 -77q-90 -111 -221 -177.5t-275 -66.5t-264 51t-208 140.5t-139.5 208t-51.5 254z" />
    <glyph glyph-name="D" unicode="D" horiz-adv-x="1261" 
d="M352 1030v-751h209q154 -2 267.5 104t113.5 272q-6 160 -114.5 268.5t-266.5 106.5h-209zM561 1309q260 0 454.5 -187.5t195.5 -457.5t-189.5 -467t-460.5 -197h-346q-55 0 -97 40t-42 99v1030q0 53 40 96.5t99 43.5h346z" />
    <glyph glyph-name="E" unicode="E" horiz-adv-x="1007" 
d="M799 276q57 0 97 -40t40 -98t-40 -98t-97 -40h-586q-53 0 -95 40t-42 99v1030q0 53 39 96.5t98 43.5h586q57 0 97 -41.5t40 -99.5t-40 -97t-97 -39h-451v-233h314q55 0 96 -41t41 -98.5t-41 -97.5t-96 -40h-314v-246h451z" />
    <glyph glyph-name="F" unicode="F" horiz-adv-x="952" 
d="M354 1032v-305h310q59 0 98 -41t39 -98.5t-39 -97t-98 -39.5h-310v-312q0 -59 -40 -99t-99 -40t-99 40t-40 99v1030q0 53 40 96.5t99 43.5h586q57 0 97 -41.5t40 -99.5t-40 -97t-97 -39h-447z" />
    <glyph glyph-name="G" unicode="G" horiz-adv-x="1316" 
d="M49 655.5q0 135.5 51.5 254t139.5 207.5t208 140.5t264 51.5t275 -66.5t221 -177.5q23 -27 23 -76t-42.5 -91t-98.5 -42t-84 31q-53 68 -132.5 108.5t-165.5 40.5t-155.5 -29.5t-121.5 -82t-82 -121t-30 -188t112 -231.5t266 -112t270 105q25 31 22 90q-59 0 -99 40
t-40 97t40 96t99 39h135q59 0 98.5 -38.5t39.5 -94.5v-139q0 -117 -28 -174t-58 -88q-90 -96 -212 -149.5t-260 -53.5t-257 51t-207 140.5t-139.5 208t-51.5 254z" />
    <glyph glyph-name="H" unicode="H" horiz-adv-x="1153" 
d="M938 1307q51 0 95 -39t44 -99v-1032q0 -86 -57 -111.5t-95 -25.5t-79 40t-41 97v336h-447v-336q0 -57 -40 -97t-100 -40t-100 39t-42 98v1032q0 63 44 100.5t101.5 37.5t97 -41t39.5 -97v-417h447v417q0 55 41 96.5t92 41.5z" />
    <glyph glyph-name="I" unicode="I" horiz-adv-x="425" 
d="M211 1307q57 0 97 -41t40 -97v-1032q0 -57 -40 -97t-97 -40t-97 40t-40 97v1032q0 55 40 96.5t97 41.5z" />
    <glyph glyph-name="J" unicode="J" horiz-adv-x="686" 
d="M481 1307q57 0 98.5 -41t41.5 -97v-991q-4 -194 -137.5 -327.5t-329.5 -137.5q-55 0 -95.5 39t-40.5 97t40 99.5t88 41.5q91 0 145.5 56t54.5 132v991q0 55 39 96.5t96 41.5z" />
    <glyph glyph-name="K" unicode="K" horiz-adv-x="1144" 
d="M352 137q0 -57 -40 -97t-98 -40t-99 40t-41 97v1032q0 55 41 96.5t99 41.5t98 -41t40 -97v-321l477 418q43 41 99.5 41t97.5 -41t41 -97.5t-41 -97.5l-330 -289l353 -571q31 -49 17.5 -104t-62.5 -85t-103.5 -17t-85.5 63l-326 528l-137 -137v-322z" />
    <glyph glyph-name="L" unicode="L" horiz-adv-x="993" 
d="M848 279q55 0 95 -40.5t40 -98.5t-40 -98t-95 -40h-631q-59 0 -98 40t-43 99v1030q0 57 41 97.5t97 40.5t98 -40t42 -98v-892h494z" />
    <glyph glyph-name="M" unicode="M" horiz-adv-x="1523" 
d="M762 1202q111 107 277 107t287.5 -124.5t125.5 -291.5v-754q0 -57 -42 -98t-98 -41t-97 41t-41 98v740q0 57 -40 97t-98 40t-97.5 -40t-39.5 -97v-168q0 -57 -40 -98.5t-98 -41.5t-98 41t-40 99v168q0 57 -42 97t-97.5 40t-97.5 -40t-42 -97v-740q0 -57 -39 -98t-97 -41
t-97 41t-39 98v754q12 180 127 298t284 118q153 -4 279 -107z" />
    <glyph glyph-name="N" unicode="N" horiz-adv-x="1128" 
d="M915 1163.5q146 -139.5 146 -340.5v-690q0 -53 -38 -92t-93 -40t-95 35t-40 91v680q0 98 -69 163.5t-161 65.5t-159.5 -63.5t-67.5 -155.5v-684q0 -53 -41 -93t-94 -40t-94 37t-41 90v680q4 210 146 353t349 143q206 0 352 -139.5z" />
    <glyph glyph-name="O" unicode="O" horiz-adv-x="1406" 
d="M51 655.5q0 135.5 51.5 254t139.5 207.5t207.5 140.5t255 51.5t254 -51.5t206.5 -140.5t139.5 -207.5t51.5 -254t-51.5 -254t-139.5 -208t-206.5 -140.5t-254 -51t-255 51t-207.5 140.5t-139.5 208t-51.5 254zM322 655q0 -80 29.5 -149.5t81.5 -121.5t122 -82t149.5 -30
t148.5 30t121 82t81.5 121.5t29.5 149.5t-29.5 148.5t-81.5 121t-121 82t-148.5 29.5t-149.5 -29.5t-122 -82t-81.5 -121t-29.5 -148.5z" />
    <glyph glyph-name="P" unicode="P" horiz-adv-x="1083" 
d="M402.5 652.5q68.5 -68.5 162 -68.5t161 69t65.5 162q-2 94 -66 159.5t-160 67.5t-163.5 -64t-67.5 -162q0 -95 68.5 -163.5zM916 468.5q-143 -146.5 -353 -146.5q-102 0 -192 36l-29 13v-234q0 -57 -40 -97t-97 -40t-97 40t-40 97v678q0 206 142 348t353 150
q203 0 349.5 -146.5t146.5 -349.5q0 -202 -143 -348.5z" />
    <glyph glyph-name="Q" unicode="Q" horiz-adv-x="1456" 
d="M662 272h66q42 0 103 23q-33 23 -67 36t-70 -7q-37 -20 -51 -48q16 -4 19 -4zM1083 644q0 91 -29.5 159.5t-81.5 121t-121 82t-189.5 29.5t-231.5 -112.5t-111 -282.5t140 -285q6 25 14 52q51 125 160 170q138 51 249.5 6t153.5 -113q47 82 47 173zM698 2
q-131 0 -250.5 51t-207.5 140.5t-139.5 208t-51.5 254t51.5 254t139.5 207.5t207.5 140.5t255 51.5t254 -51.5t258 -192.5t139.5 -401t-170 -447q14 -2 46 9t83 -6.5t70 -73.5t-4 -108t-91 -76q-131 -46 -250 15q-51 29 -92 72q-117 -47 -248 -47z" />
    <glyph glyph-name="R" unicode="R" horiz-adv-x="1048" 
d="M399.5 978q-55.5 -54 -55.5 -132q0 -77 56 -135t133 -58q78 0 134 54.5t56 133.5t-54.5 135t-134.5 56q-79 0 -134.5 -54zM777 0q-56 0 -97 39l-336 336v-236q0 -59 -41 -99t-97 -40t-97 40t-41 99v705q4 193 140 329t323 136t325.5 -136.5t138.5 -328.5
q0 -147 -79.5 -263t-213.5 -173l172 -172q39 -39 39 -99.5t-40 -98.5t-96 -38z" />
    <glyph glyph-name="S" unicode="S" horiz-adv-x="1038" 
d="M460 1044q-124 0 -124 -126q-2 -51 34 -85t93 -40l131 -19q100 -14 186 -51t129 -84t60.5 -101.5t16.5 -134.5q-2 -166 -118 -280.5t-278 -118.5l-33 -2q-169 -15 -307 66q-109 61 -172 172q-23 40 -23 85t40.5 86.5t92.5 41.5t80 -23.5t52 -61.5t63 -62.5t75 -35
t134 -0.5q112 18 119 113q-3 85 -115 111l-143 24q-264 35 -345.5 217.5t-17 329.5t226.5 212q84 34 170 34q86 -1 152 -13t137 -53q35 -12 115 -88q28 -33 39 -67q12 -55 -18 -104.5t-82 -60.5t-84.5 6t-63.5 44q-33 35 -65.5 52t-156.5 17z" />
    <glyph glyph-name="T" unicode="T" 
d="M905 1309q59 0 99 -41.5t40 -99.5t-39.5 -97t-99.5 -39h-229v-893q0 -59 -39 -99t-98.5 -40t-98.5 40t-39 99v893h-231q-57 0 -97 39t-40 97t40 99.5t97 41.5h735z" />
    <glyph glyph-name="U" unicode="U" horiz-adv-x="1128" 
d="M68 1182q0 53 41 90t94 37t94 -40t41 -93v-684q0 -92 67.5 -156t159.5 -64t161 66.5t69 163.5v680q0 55 39.5 91t95.5 35t93.5 -40t37.5 -92v-691q0 -200 -146 -339.5t-354 -139.5q-205 0 -347 143t-146 353v680z" />
    <glyph glyph-name="V" unicode="V" horiz-adv-x="1165" 
d="M585 0q-40 0 -77 26.5t-53 63.5l-402 1030q-20 53 3.5 105.5t76.5 73.5t105.5 -2t72.5 -78l273 -701l272 701q20 55 72.5 78.5t105.5 1.5t76 -73.5t2 -105.5l-399 -1030q-16 -41 -52 -65.5t-76 -24.5z" />
    <glyph glyph-name="W" unicode="W" horiz-adv-x="1523" 
d="M72 1169q0 57 39 98.5t97 41.5t97 -41t39 -99v-739q0 -57 42 -97t97.5 -40t97.5 40t42 97v168q0 57 39.5 98t97.5 41t98.5 -41t40.5 -98v-168q0 -57 40 -97t97 -40t97.5 40t40.5 97v739q0 57 41 98.5t97 41.5t98 -41t42 -99v-753q-4 -169 -125.5 -292.5t-287.5 -123.5
q-167 0 -277 106q-123 -102 -286 -104t-277.5 116.5t-126.5 297.5v753z" />
    <glyph glyph-name="X" unicode="X" horiz-adv-x="1468" 
d="M223 1317q57 0 96 -41l418 -422l422 418q41 39 97 39t98 -41q42 -40 40 -98q-1 -58 -40 -97l-422 -418l426 -430q39 -39 39 -96t-41 -97q-42 -40 -98 -39t-95 40l-428 430l-430 -426q-41 -41 -97 -40t-97 41t-40 96t42 97l430 426l-418 424q-41 39 -40 97t41 97
q40 40 97 40z" />
    <glyph glyph-name="Y" unicode="Y" horiz-adv-x="1376" 
d="M831 145q0 -59 -43 -102t-102 -43t-101 43t-42 102v344l-475 586q-37 47 -32 106.5t51 97.5t106.5 32t99.5 -54l395 -487l397 487q39 47 99.5 53.5t106.5 -31.5t51.5 -97.5t-31.5 -106.5l-480 -588v-342z" />
    <glyph glyph-name="Z" unicode="Z" horiz-adv-x="1142" 
d="M934 276q59 0 98 -40t39 -98t-39 -98t-98 -40h-721q-82 4 -108.5 53t-26.5 86t20 74l564 819h-453q-55 0 -96 39t-41 97t41 99.5t96 41.5h721q81 -4 109 -55.5t28 -89.5t-23 -74l-565 -814h455z" />
    <glyph glyph-name="bracketleft" unicode="[" horiz-adv-x="645" 
d="M442 0q57 0 97.5 -39t40.5 -97t-40 -98t-98 -40h-229q-57 0 -93 37.5t-44 89.5v1331q8 51 44 88t93 39h229q57 0 97.5 -40t40.5 -98t-40 -97.5t-98 -39.5h-92v-1036h92z" />
    <glyph glyph-name="backslash" unicode="\" horiz-adv-x="661" 
d="M45 1235q27 52 80 69t105 -10t69 -82l328 -1032q16 -57 -11 -107q-26 -51 -80 -67t-106 10q-51 27 -68 80l-327 1034q-16 53 10 105z" />
    <glyph glyph-name="bracketright" unicode="]" horiz-adv-x="645" 
d="M203 0h92v1036h-92q-57 0 -97 39t-40 97t39.5 98.5t97.5 40.5h229q57 -2 93 -39t44 -88v-1331q-8 -51 -44 -89t-93 -38h-229q-57 0 -97 40t-40 98t40 97t97 39z" />
    <glyph glyph-name="asciicircum" unicode="^" horiz-adv-x="1169" 
d="M446 1231q55 90 132 90t147 -90l389 -600q20 -53 -3.5 -105.5t-76.5 -73.5t-105 2t-89 78l-256 371l-260 -371q-33 -55 -85.5 -78.5t-105.5 -1.5t-75.5 74t-2.5 105z" />
    <glyph glyph-name="underscore" unicode="_" horiz-adv-x="1099" 
d="M1030 142q0 -58 -40 -99t-97 -41h-686q-59 0 -98 41t-39 99t38.5 98.5t98.5 40.5h686q57 0 97 -40.5t40 -98.5z" />
    <glyph glyph-name="grave" unicode="`" horiz-adv-x="618" 
d="M150 1122q-55 14 -83 64t-14 106q15 57 65 85t101 14l248 -66q57 -16 85 -64q28 -49 14 -105t-65 -86q-50 -30 -106 -15z" />
    <glyph glyph-name="a" unicode="a" horiz-adv-x="1110" 
d="M711.5 333q66.5 67 66.5 161t-68.5 162.5t-159 68.5t-159.5 -67.5t-69 -161.5t70 -162t162 -68q91 0 157.5 67zM1047 496v-363q0 -55 -41 -94t-103 -39t-104 66q-10 -4 -58 -35t-196 -31t-291.5 98.5t-172 221t-28.5 198t51 192.5t172 199t275 82h63q63 0 155.5 -49
t185 -154t92.5 -292z" />
    <glyph glyph-name="b" unicode="b" horiz-adv-x="1083" 
d="M403 333.5q69 -67.5 160 -67.5t160.5 67.5t69.5 163t-70 162t-160 66.5t-159.5 -69.5t-69.5 -161.5q0 -93 69 -160.5zM334 1171v-235q139 71 299.5 48t281.5 -136q144 -148 144 -352t-146.5 -350t-346.5 -146t-350 147t-150 349v686q0 48 42.5 88.5t90.5 36.5
q49 4 92 -37t43 -99z" />
    <glyph glyph-name="c" unicode="c" horiz-adv-x="983" 
d="M698 668q-63 57 -153 57t-160 -69t-70 -162t71.5 -162.5t160.5 -67.5q90 2 151 58q37 41 94.5 40.5t94.5 -40.5q38 -34 40 -85.5t-32 -91.5q-145 -145 -348 -145t-350.5 147.5t-147.5 348.5q0 98 40 188t150 198.5t312 108.5q201 0 344 -143q35 -39 32 -92.5t-40 -88
t-94.5 -36.5t-94.5 37z" />
    <glyph glyph-name="d" unicode="d" horiz-adv-x="1085" 
d="M359.5 656.5q-68.5 -68.5 -68.5 -161.5t69 -161t160 -68q92 0 161 69t69 164t-69 160.5t-161 65.5t-160.5 -68.5zM1018 1169v-673q0 -202 -149 -349t-347 -147t-347.5 146t-149.5 349t149.5 349.5t347.5 146.5q123 0 228 -55v235q0 54 40 94t94 40t94 -38t40 -98z" />
    <glyph glyph-name="e" unicode="e" horiz-adv-x="1085" 
d="M733 610q-64 115 -187 115t-186 -115h373zM546 991q196 0 347 -149.5t151 -345.5q0 -53 -39.5 -84t-99.5 -29h-545q68 -117 187 -117q50 0 93.5 20.5t81.5 19.5t69.5 -23.5t57.5 -78.5t-36 -122q-95 -77 -266 -82q-98 -4 -188.5 36t-159 108.5t-108.5 160t-40 189.5
t40 188t107.5 158.5t158 109.5t189.5 41z" />
    <glyph glyph-name="f" unicode="f" horiz-adv-x="776" 
d="M256 950q0 143 101.5 251t244.5 108q59 0 100 -33t46 -98q0 -53 -38 -90t-88 -40t-75 -32t-25 -68v-200q94 -4 130 -42t36 -93.5t-35 -92.5t-131 -41v-411q0 -180 -125 -270t-210 -88t-119.5 45.5t-35.5 92.5t36.5 87t85.5 39t75 31t27 67v407q-96 0 -129 37t-37 96
q0 124 166 136v202z" />
    <glyph glyph-name="g" unicode="g" horiz-adv-x="1095" 
d="M543 725q-45 0 -86 -19.5t-73 -51t-51.5 -72.5t-19.5 -86t17.5 -87t48.5 -74t73 -51.5t91 -19.5t92 18.5t73.5 51.5t48 74t17.5 88t-19.5 89t-51 72.5t-73.5 49t-87 18.5zM186.5 139.5q-139.5 139.5 -139.5 347.5t150 356t350 148t344.5 -143.5t144.5 -351.5
q0 -139 -59 -246q59 -80 59 -260q2 -59 -25.5 -130t-100 -148t-220.5 -85h-147q-51 -4 -91 -43t-96.5 -39t-96.5 39t-43 91.5t32 91.5q61 78 180 112q53 16 115 19h151q31 4 49 26q45 68 31 125v2q-91 -51 -215 -51q-233 0 -372.5 139.5z" />
    <glyph glyph-name="h" unicode="h" horiz-adv-x="1099" 
d="M1069 506v-375q0 -55 -38 -94t-93 -40t-92 35t-45 91v369q0 93 -66 161t-160 68t-158.5 -63.5t-74.5 -155.5v-371q0 -55 -38 -94t-92 -40t-90 35t-46 91v1053q4 51 40 87.5t91 36.5t93 -36.5t42 -96.5v-235q83 55 207 55q229 0 374.5 -141.5t145.5 -339.5z" />
    <glyph glyph-name="i" unicode="i" horiz-adv-x="409" 
d="M336 127q0 -55 -35 -92t-91 -39t-93 30.5t-45 92.5v741q4 53 43 88t92 36t89 -38t40 -94v-725zM207 1298q53 0 91 -39.5t38 -93t-38 -93.5t-94 -39t-94 37t-37 95t41 96t93 37z" />
    <glyph glyph-name="j" unicode="j" horiz-adv-x="575" 
d="M381 1298q53 0 91 -39.5t38 -93t-38 -93.5t-94 -39t-94 37t-37 95t41 96t93 37zM246 72v788q4 53 43 88t92 36t89 -38t40 -94v-784q6 -176 -120.5 -268t-212 -90t-119.5 45.5t-36 92.5t36 87t86 39t75 31t27 67z" />
    <glyph glyph-name="k" unicode="k" horiz-adv-x="935" 
d="M350 137q0 -53 -41 -95t-95 -42t-97 40t-43 97v1034q0 53 41 95.5t98 42.5t97 -40t40 -98v-514l309 310q41 41 96.5 40t98.5 -40q41 -41 41 -97.5t-41 -97.5l-195 -197l220 -366q31 -51 16.5 -105.5t-63.5 -84.5t-104.5 -15.5t-84.5 64.5l-184 307l-109 -111v-127z" />
    <glyph glyph-name="l" unicode="l" horiz-adv-x="587" 
d="M336 358q0 -41 26.5 -69.5t73.5 -28.5t87 -37t41 -89t-32.5 -90t-87.5 -46h-28q-142 0 -246 107.5t-104 252.5v818q6 51 43 88t92 38t93 -38t42 -97v-809z" />
    <glyph glyph-name="m" unicode="m" horiz-adv-x="1327" 
d="M664 911q98 80 237 80t247.5 -102t108.5 -252v-514q0 -49 -40.5 -86t-94 -37t-93.5 40t-40 93v498q0 39 -27.5 65.5t-65.5 26.5t-67.5 -23.5t-29.5 -68.5v-244q0 -55 -40 -94t-93 -39t-94.5 36t-41.5 87v254q-2 41 -30.5 66.5t-65.5 25.5t-64.5 -26.5t-29.5 -67.5v-508
q-4 -49 -42 -85t-79 -36q-70 0 -110.5 40.5t-36.5 92.5v504q0 145 106.5 249.5t247.5 104.5q140 0 238 -80z" />
    <glyph glyph-name="n" unicode="n" horiz-adv-x="1120" 
d="M911.5 858q145.5 -139 145.5 -340v-379q0 -53 -38 -92t-93 -40t-95 35t-40 91v369q0 98 -69 163.5t-161 65.5t-159.5 -63.5t-67.5 -155.5v-373q0 -53 -41 -93t-94.5 -40t-94.5 37t-41 90v369q4 206 145 350.5t349 144.5q209 0 354.5 -139z" />
    <glyph glyph-name="o" unicode="o" horiz-adv-x="1095" 
d="M388 333q69 -69 163 -69t160.5 70t64.5 163t-65.5 158.5t-158.5 67.5t-164 -63.5t-69 -161.5t69 -165zM900.5 147.5q-143.5 -145.5 -351.5 -145.5t-352 142t-144 349t142.5 349.5t353.5 150.5q201 0 348 -145.5t147 -350.5q0 -204 -143.5 -349.5z" />
    <glyph glyph-name="p" unicode="p" horiz-adv-x="1083" 
d="M402 330q68 -66 162 -66t160.5 68.5t66.5 163.5t-67.5 161t-161.5 66q-95 0 -161.5 -66.5t-66.5 -163.5t68 -163zM916 145q-143 -145 -353 -145q-127 0 -229 51v-235q0 -53 -39 -92t-93 -39t-94 35.5t-42 89.5v686q0 202 148 348.5t350 146.5t348.5 -146.5t146.5 -350.5
t-143 -349z" />
    <glyph glyph-name="q" unicode="q" horiz-adv-x="1085" 
d="M682.5 659q-67.5 66 -161.5 66q-95 0 -161.5 -66.5t-66.5 -160.5t65.5 -163t159.5 -69t163 65.5t69 163.5t-67.5 164zM519 993q101 0 192.5 -40t199 -147.5t107.5 -307.5v-686q-2 -53 -42 -89t-94 -36t-93 38.5t-39 92.5v235q-102 -51 -218 -51t-207.5 39t-158 106.5
t-104 157.5t-37.5 192.5t38.5 192.5t106.5 157.5t158 106.5t191 39z" />
    <glyph glyph-name="r" unicode="r" horiz-adv-x="702" 
d="M192 -2q-57 0 -94 36t-41 95v379q4 196 146.5 334.5t347.5 146.5q57 0 95 -39t40 -94t-37 -93t-91 -39q-99 -2 -165.5 -67t-66.5 -163v-373q-4 -53 -40.5 -88t-93.5 -35z" />
    <glyph glyph-name="s" unicode="s" horiz-adv-x="1312" 
d="M985 498v12q-5 89 -67 149q-60 63 -153.5 67.5t-160.5 -60.5l-342 -342q-37 -37 -94 -37t-95 38t-41 93t36 92l338 338q148 144 349 146t348 -143t152 -350t-135 -343l-22 -23q-153 -137 -350 -135t-340 145q-37 46 -32.5 96t40.5 83q37 39 93 38.5t105 -46.5t140 -49
q91 -2 161 64.5t70 166.5z" />
    <glyph glyph-name="t" unicode="t" horiz-adv-x="983" 
d="M206 1309q56 0 95 -40t43 -100v-163h352q59 0 96 -41t37 -95t-40.5 -96.5t-92.5 -42.5h-352v-225q0 -93 65 -163.5t165 -70.5q99 0 157 58q43 37 95.5 38t97.5 -40q64 -57 45 -111.5t-37 -73.5q-147 -143 -353 -143t-357.5 140.5t-155.5 365.5v674q0 55 42 92t98 37z" />
    <glyph glyph-name="u" unicode="u" horiz-adv-x="1122" 
d="M332 856v-360q0 -93 67 -161.5t160 -68.5q92 0 160.5 61t68.5 158v373q0 51 39 92t95 42t95.5 -39t41.5 -89v-368q0 -205 -145.5 -350.5t-352.5 -145.5q-195 -8 -305.5 98.5t-151.5 195.5t-41 187v377q0 53 38.5 93t93.5 41t96 -39t41 -97z" />
    <glyph glyph-name="v" unicode="v" horiz-adv-x="925" 
d="M470 0q-105 0 -134 86l-279 723q-23 53 0 103.5t76 71.5t104.5 -1t73.5 -76l152 -393l151 393q23 53 75.5 76t104.5 1t74.5 -72t-0.5 -103l-276 -723q-10 -23 -44 -54.5t-78 -31.5z" />
    <glyph glyph-name="w" unicode="w" horiz-adv-x="1329" 
d="M72 354v504q-4 52 36 92.5t96 40.5t94 -35.5t42 -85.5v-508q2 -41 29.5 -67.5t64.5 -26.5t65.5 25.5t30.5 66.5v254q0 51 41 87t95 36t93.5 -39t39.5 -94v-244q0 -45 29.5 -68.5t67.5 -23.5t65.5 27t27.5 65v498q0 53 40 93t93.5 40t94 -36.5t40.5 -86.5v-514
q0 -148 -108.5 -251t-247.5 -103t-237 80q-96 -80 -238 -80t-248 105t-106 249z" />
    <glyph glyph-name="x" unicode="x" horiz-adv-x="1128" 
d="M1059 858q0 -55 -37 -94l-266 -268l266 -269q37 -37 39 -93t-37 -95t-95 -39t-98 43l-266 262l-266 -268q-37 -33 -92 -37t-94 35t-42 93t35 95l273 273l-273 272q-39 39 -34 90q4 51 39 92q45 45 96 41t92 -41l266 -266l273 268q39 39 91 38t91 -39t39 -93z" />
    <glyph glyph-name="y" unicode="y" horiz-adv-x="1021" 
d="M39 674v182q0 57 40 97t97 40t97 -40t40 -97v-182q0 -84 56.5 -140.5t140.5 -56.5t141.5 56.5t57.5 140.5v182q0 57 39.5 97t97.5 40t97.5 -40t39.5 -97v-184q0 -159 -95 -283.5t-245 -167.5v-399q0 -57 -40 -97t-97 -40t-97 39.5t-40 97.5v401q-147 47 -238.5 170.5
t-91.5 280.5z" />
    <glyph glyph-name="z" unicode="z" horiz-adv-x="1138" 
d="M936 991q53 0 92 -41t39 -93t-39 -91l-192 -192q-191 -191 -308 -306h408q51 -2 92 -41q39 -43 39 -94t-39 -94q-43 -39 -92 -39h-731q-53 0 -93 40t-38 91q-4 55 37 92l499 502h-405q-55 4 -95 42t-36 93q-2 51 37 91t94 40h731z" />
    <glyph glyph-name="braceleft" unicode="{" horiz-adv-x="903" 
d="M834 -137q0 -57 -41 -97t-99 -40h-26q-100 0 -191.5 40.5t-200 150t-108.5 310.5v152q-59 0 -99 40t-40 98t40 99t99 41v152q0 201 149.5 350.5t350.5 149.5h26q57 0 98.5 -40t41.5 -97.5t-41 -97.5t-95 -40q-100 0 -177 -99t-77 -204v-477q0 -98 74 -176t179 -78
q54 0 95.5 -40t41.5 -97z" />
    <glyph glyph-name="bar" unicode="|" horiz-adv-x="440" 
d="M217 1311q59 0 102 -43t43 -103v-1294q0 -59 -43 -102t-102 -43t-101 43t-42 102v1294q0 59 42 102.5t101 43.5z" />
    <glyph glyph-name="braceright" unicode="}" horiz-adv-x="901" 
d="M206 0q105 0 179 78t74 176v477q0 105 -76.5 204t-173.5 99q-57 0 -98 40t-41 97.5t41 97.5t98 40h27q200 0 349.5 -149.5t149.5 -350.5v-152q59 0 99 -41t40 -99t-39.5 -98t-99.5 -40v-152q0 -201 -148.5 -351t-350.5 -150h-27q-57 0 -98 39t-41 97t41 98t95 40z" />
    <glyph glyph-name="asciitilde" unicode="~" horiz-adv-x="1060" 
d="M547 758l100 -56q18 -18 49 -11t47 32q27 45 75 65t100 -10t70 -84q16 -55 -20 -117q-114 -193 -333 -155q-18 6 -50 12t-71 31l-102 55q-18 16 -50 9t-52 -41q-22 -34 -70 -54t-100 10t-68 84q-16 56 20 118q69 121 197 152q79 18 160 -7q51 -6 98 -33z" />
    <glyph glyph-name="exclamdown" unicode="&#xa1;" horiz-adv-x="358" 
d="M208 -272q-56 0 -97 40t-41 99v690q0 59 41 99t97 40t97 -40t41 -99v-690q0 -59 -41 -99t-97 -40zM346 898q0 -56 -41 -97t-97 -41t-97 41t-41 97t41 97t97 41t97 -41t41 -97z" />
    <glyph glyph-name="cent" unicode="&#xa2;" horiz-adv-x="946" 
d="M367 655q-70 -68 -70 -160q0 -93 70 -163v323zM510 1208q59 0 102 -43t43 -102v-88q125 -31 222 -127q35 -39 31.5 -92.5t-40.5 -88t-94 -36.5t-94 37q-12 10 -25 18v-385q12 10 25 21q37 41 94 40.5t94 -40.5q60 -54 42.5 -106t-33.5 -71q-97 -97 -222 -131v-41
q0 -59 -43 -102t-102 -43t-101 43t-42 102v54q-207 78 -271.5 222.5t-64.5 244.5t60 235.5t247 220.5l29 13v100q0 59 42 102t101 43z" />
    <glyph glyph-name="sterling" unicode="&#xa3;" horiz-adv-x="1095" 
d="M596 581q0 -58 -40 -99.5t-97 -41.5h-2v-166h471q57 0 97 -41t40 -97t-40 -96t-97 -40h-606q-59 0 -99.5 40t-40.5 99v301q-59 0 -98 41t-39 99t39 98.5t98 40.5v221q0 146 105 257.5t252 111.5q61 0 103 -34t44 -95t-37 -99.5t-87 -40.5t-77 -32t-28 -68v-221
q59 0 99 -40t40 -98z" />
    <glyph glyph-name="currency" unicode="&#xa4;" horiz-adv-x="1146" 
d="M414.5 496.5q68.5 -68.5 162.5 -68.5t161 69t65 163q-2 93 -66 159t-159 68t-163.5 -64t-68.5 -162t68.5 -164.5zM414 1126q164 58 321 4l82 119q35 47 91.5 57.5t103.5 -23.5t58 -90t-23 -103l-84 -123q108 -134 108 -305t-113 -316l89 -127q33 -47 22.5 -104t-57.5 -91
t-103.5 -23t-91.5 58l-90 129q-149 -48 -307 0l-90 -129q-33 -47 -89.5 -58t-103.5 24q-47 30 -57.5 87t22.5 107l86 125q-108 133 -108 310t106 313l-84 123q-35 47 -23.5 103t58.5 90t103.5 23.5t89.5 -57.5z" />
    <glyph glyph-name="yen" unicode="&#xa5;" horiz-adv-x="1083" 
d="M795 444q55 0 94 -38.5t39 -94t-39 -94.5t-94 -39h-121v-45q0 -55 -39 -94t-94.5 -39t-94 39t-38.5 94v45h-121q-55 0 -94 39t-39 94.5t38.5 94t94.5 38.5h121v54h-119q-57 0 -96 40t-39 94t36.5 93t90.5 43l-209 315q-31 49 -22 104.5t56 89.5t103.5 23.5t87.5 -59.5
l244 -346l239 346q33 49 89.5 59.5t103.5 -23.5t58 -89t-23 -105l-209 -315q53 -2 91 -42t38 -94t-39 -94t-94 -40h-121v-54h121z" />
    <glyph glyph-name="brokenbar" unicode="&#xa6;" horiz-adv-x="425" 
d="M211 1307q57 0 97 -41t40 -97v-1349q0 -57 -40 -97t-97 -40t-97 39.5t-40 97.5v1349q0 55 40 96.5t97 41.5z" />
    <glyph glyph-name="section" unicode="&#xa7;" horiz-adv-x="1069" 
d="M367 495.5q0 -53.5 46 -91t111.5 -37.5t112.5 37.5t47 91t-47 92.5t-112.5 39t-111.5 -39t-46 -92.5zM500 1137q-53 0 -88 -32t-45 -85q-2 -49 25.5 -91t78.5 -44l137 -2q148 -20 224.5 -111.5t115.5 -205t-45 -263.5q-20 -35 -49 -65l10 -13q49 -57 87.5 -173.5
t-41.5 -255t-230 -179.5q-51 -16 -135 -21t-170 22q-86 26 -169 84t-134 173q-21 37 -16 84t50.5 83t94.5 32q79 -6 118 -94q20 -43 62 -70q57 -43 130 -51t142 39q31 28 36 74t-27.5 88t-77.5 51h-76q-195 0 -309.5 133t-98.5 295q17 124 97 215q-6 6 -13 12
q-104 130 -88 285q8 74 46 142.5t128 142t254 65.5l33 -2q160 0 278 -83q117 -83 166 -196q50 -99 -14.5 -152.5t-114.5 -47.5t-75 31.5t-44 66.5t-61 67q-31 23 -84 43q-4 0 -18 2l-27 5q-10 2 -63 2z" />
    <glyph glyph-name="dieresis" unicode="&#xa8;" horiz-adv-x="804" 
d="M739 1247.5q0 -57.5 -41 -98.5t-99 -41t-98 41t-40 98.5t40 98t98 40.5t99 -40.5t41 -98zM344 1247.5q0 -57.5 -41 -98.5t-99 -41t-98 41t-40 98.5t40 98t98 40.5t99 -40.5t41 -98z" />
    <glyph glyph-name="copyright" unicode="&#xa9;" horiz-adv-x="1517" 
d="M762 1049q-55 0 -111 -17q-111 -29 -196.5 -110.5t-113.5 -185.5q-51 -189 39.5 -348t268.5 -210q180 -46 336.5 45t206.5 269q18 70 14 110t-2 57q-10 90 -55 166q-82 144 -248 203l-22 6q-62 15 -117 15zM766 1309q145 0 272 -55.5t222.5 -150.5t150.5 -223t55 -247
t-22 -209q-39 -139 -125 -248.5t-203 -177.5t-255 -88.5t-278 17.5t-250 125t-177.5 203t-87 254t17.5 278t170 306.5t410 206.5q49 6 100 7v2zM504 344q-109 113 -109 263t109 259q70 68 158 92.5t158 10.5q125 -25 204 -105q12 -10 18 -24q25 -37 21 -81t-38 -79t-91 -39
l-6 -6l-8 6q-34 3 -52 19t-26 22q-35 35 -78 34t-76 -34t-32 -77t32 -77q33 -31 79.5 -31.5t82.5 40.5q37 31 89 29.5t88 -37.5t39 -83t-24 -86l-16 -16q-104 -104 -259 -104t-263 104z" />
    <glyph glyph-name="ordfeminine" unicode="&#xaa;" horiz-adv-x="907" 
d="M450.5 1042q-53.5 0 -93.5 -36.5t-41 -96.5t37.5 -95.5t94.5 -36.5t94 39t38 93.5t-38 93t-91.5 39.5zM456.5 1309q159.5 0 271.5 -119t116 -272v-279q0 -55 -40 -94t-94 -39t-94 39q-74 -35 -159 -35q-178 6 -292 113.5t-114 304.5q6 160 126 270.5t279.5 110.5z" />
    <glyph glyph-name="guillemotleft" unicode="&#xab;" horiz-adv-x="1347" 
d="M1276 138q0 -56 -42 -97t-98 -41t-96 39l-348 348q-41 41 -40 97t40 102l348 368q40 41 98 40t98 -41t41 -97t-40 -98l-252 -273l252 -252q39 -39 39 -95zM666 138q0 -56 -41 -97t-97 -41t-96 39l-348 346q-43 43 -42 98t40 101l348 370q41 39 98 39q58 0 98 -40t41 -98
t-38 -97l-252 -273l250 -252q39 -39 39 -95z" />
    <glyph glyph-name="logicalnot" unicode="&#xac;" horiz-adv-x="1050" 
d="M839 240q-58 0 -99.5 39.5t-41.5 97.5v100h-544q-59 0 -98.5 41t-39.5 99t39 98.5t99 40.5h686q57 0 96 -39t41 -94v-246q0 -57 -40 -97t-98 -40z" />
    <glyph glyph-name="uni00AD" unicode="&#xad;" horiz-adv-x="931" 
d="M864 617q0 -58 -40 -99t-97 -41h-522q-59 0 -98 41t-39 99t38.5 98.5t98.5 40.5h522q57 0 97 -40.5t40 -98.5z" />
    <glyph glyph-name="registered" unicode="&#xae;" horiz-adv-x="1517" 
d="M784 592v-225q0 -55 -38.5 -94.5t-94 -39.5t-94.5 39t-39 95v225q0 159 110.5 268t264.5 109q55 0 95 -40t40 -95.5t-40 -94.5t-91 -39t-82 -31.5t-31 -76.5zM762 1049q-55 0 -111 -17q-111 -29 -196.5 -110.5t-113.5 -185.5q-51 -189 39.5 -348t268.5 -210
q180 -46 336.5 45t206.5 269q18 70 14 131l-2 36q-10 90 -55 166q-82 144 -248 203l-22 6q-62 15 -117 15zM1466 633q0 -119 -22 -209q-39 -139 -125 -248.5t-203 -177.5t-255 -88.5t-278 17.5t-250 125t-177.5 203t-87 254t17.5 278t124 249t227.5 191t306.5 82
q167 0 294 -55.5t222.5 -150.5t150.5 -223t55 -247z" />
    <glyph glyph-name="degree" unicode="&#xb0;" horiz-adv-x="899" 
d="M452.5 1042q-53.5 0 -93.5 -36.5t-41 -96.5t37.5 -95.5t94.5 -36.5t94 39t38 93.5t-38 93t-91.5 39.5zM458.5 1309q159.5 0 273.5 -120t114 -279.5t-114 -279.5t-273 -120q-178 6 -292 113.5t-114 304.5q6 160 126 270.5t279.5 110.5z" />
    <glyph glyph-name="plusminus" unicode="&#xb1;" horiz-adv-x="886" 
d="M842 140q0 -58 -40 -99t-97 -41h-523q-59 0 -98 41t-39 99t39 98.5t98 40.5h523q57 0 97 -40.5t40 -98.5zM700 934q59 0 100.5 -40t41.5 -98t-41 -99.5t-101 -41.5h-118v-118q0 -59 -41 -100.5t-99 -41.5t-98.5 41t-40.5 101v118h-121q-59 0 -98 41.5t-39 99.5t39 98
t98 40h121v121q0 59 40 99t98 40t99.5 -40t41.5 -99v-121h118z" />
    <glyph glyph-name="twosuperior" unicode="&#xb2;" horiz-adv-x="731" 
d="M199 956q-53 0 -93 42t-40 90t28 91q28 44 90 80t100 43t70 7h37q112 0 191.5 -81t79.5 -188q0 -108 -82 -192l-60 -55h12q55 0 97.5 -38.5t42.5 -98.5t-42 -102t-98 -42h-339q-61 0 -97.5 44t-36.5 92t37 89l238 238l22 20q16 0 25.5 9.5t9.5 21.5q0 33 -32.5 33
t-36.5 -29q-23 -33 -46.5 -53.5t-76.5 -20.5z" />
    <glyph glyph-name="threesuperior" unicode="&#xb3;" horiz-adv-x="710" 
d="M381 1037.5q0 21.5 -33 21.5t-37 -27q-23 -33 -46 -52t-76 -19t-93.5 39.5t-40.5 88.5t19 72q45 74 112 109q90 39 158 39h37q111 0 190.5 -76t79.5 -176q0 -51 -17.5 -81t-47.5 -65q31 -35 48 -65.5t17 -105t-79.5 -150.5t-190.5 -76h-37q-60 0 -97.5 14.5t-60.5 24.5
q-68 35 -112 109q-19 24 -19 72t40.5 88t93.5 40t76.5 -19.5t45.5 -51.5q4 -27 37 -27t33 21.5t-9.5 30.5t-25.5 9q-32 11 -48.5 27t-17.5 48q-2 79 66 97q16 0 25.5 9.5t9.5 31z" />
    <glyph glyph-name="acute" unicode="&#xb4;" horiz-adv-x="618" 
d="M399 1391q51 14 101 -14t65 -85t-13 -106t-83 -64l-246 -67q-55 -15 -105 15t-64 86t13 104q28 48 85 65z" />
    <glyph glyph-name="mu" unicode="&#xb5;" horiz-adv-x="1101" 
d="M344 -178q0 -59 -41 -96t-93 -37t-93 36.5t-41 90.5v1052q0 53 41 89t96 36t93 -39t38 -92v-375q0 -92 69 -154.5t164 -62.5q94 0 160 67.5t66 160.5v370q0 55 42 90t96 35t92 -39t38 -92v-350q0 -218 -148 -364t-368 -146q-119 0 -211 55v-235z" />
    <glyph glyph-name="paragraph" unicode="&#xb6;" horiz-adv-x="425" 
d="M211 1307q57 0 97 -41t40 -97v-1032q0 -57 -40 -97t-97 -40t-97 40t-40 97v1032q0 55 40 96.5t97 41.5z" />
    <glyph glyph-name="periodcentered" unicode="&#xb7;" horiz-adv-x="387" 
d="M334 497.5q0 -57.5 -41 -98.5t-99 -41t-98.5 41t-40.5 98.5t40.5 98.5t98.5 41t99 -41t41 -98.5z" />
    <glyph glyph-name="cedilla" unicode="&#xb8;" horiz-adv-x="485" 
d="M98 -364q-57 66 -57 149q2 27 21.5 43t47.5 16t48 -19t20 -49t20.5 -50.5t50.5 -20.5t50 20.5t20 49.5t-17 48t-44 23h-68q-27 2 -47 19.5t-20 44.5v240q0 18 19.5 38.5t49.5 20.5t49 -20.5t19 -38.5v-164q94 -4 156 -84q41 -55 41 -112q0 -56 -16.5 -94t-62 -82
t-134.5 -44t-146 66z" />
    <glyph glyph-name="onesuperior" unicode="&#xb9;" horiz-adv-x="552" 
d="M339 1311q58 0 99 -41t41 -96v-527q0 -57 -41 -97t-99 -40t-98 40t-40 97v209q-77 -23 -142 37q-41 41 -41 97.5t41 96.5l181 183q41 41 99 41z" />
    <glyph glyph-name="ordmasculine" unicode="&#xba;" horiz-adv-x="849" 
d="M788 366q0 -58 -39.5 -99.5t-97.5 -41.5h-452q-59 0 -98.5 41.5t-39.5 99.5t39 98t99 40h452q57 0 97 -40t40 -98zM435 1051q-44 0 -77.5 -31t-33.5 -80t30.5 -77.5t77.5 -30.5t78 31.5t31 77.5t-31 77t-75 33zM433 1309q146 0 250.5 -111t104.5 -256t-104 -256
t-250 -111q-164 6 -268.5 105.5t-104.5 277.5q6 145 116 248t256 103z" />
    <glyph glyph-name="guillemotright" unicode="&#xbb;" horiz-adv-x="1349" 
d="M214 0q-56 0 -99 41q-41 41 -41 97t39 95l252 252l-252 273q-41 41 -40 98t41 97t97 41t98 -40l348 -368q39 -46 40 -102t-40 -97l-348 -348q-39 -39 -95 -39zM821 993q57 0 99 -39l348 -370q39 -44 40 -100t-42 -99l-348 -346q-40 -39 -96 -39t-97 41t-41 97t39 95
l250 252l-252 273q-39 39 -38 97t41 98t97 40z" />
    <glyph glyph-name="onequarter" unicode="&#xbc;" horiz-adv-x="1695" 
d="M861.5 1294q52.5 27 105.5 10t79.5 -68.5t10.5 -105.5l-328 -1034q-16 -53 -67.5 -79.5t-105.5 -10.5t-80.5 66.5t-10.5 107.5l328 1032q16 55 68.5 82zM1663 138q0 -54 -38 -94t-91 -44v-141q0 -37 -41 -77t-98 -40t-97.5 40t-40.5 77v141h-200q-57 0 -97 40t-40 99v2
l145 543q27 53 74 78.5t101 5.5t82 -75.5t-1 -106.5l-98 -310h34q2 55 42.5 94.5t96.5 39.5t96 -39t42 -95q53 -4 91 -44t38 -94zM343 1309q58 0 99 -41t41 -97v-526q0 -57 -41 -97t-99 -40t-98 40t-40 97v209q-77 -23 -142 37q-41 41 -40.5 97t40.5 97l181 183q41 41 99 41
z" />
    <glyph glyph-name="onehalf" unicode="&#xbd;" horiz-adv-x="1640" 
d="M877.5 1294q52.5 27 105.5 10t80 -68.5t10 -105.5l-328 -1034q-16 -53 -67.5 -79.5t-105.5 -10.5t-80.5 66.5t-10.5 107.5l328 1032q16 55 68.5 82zM1124 444q-53 0 -93 42t-40 90q0 103 119 171q85 50 170 50h37q110 0 190 -79.5t80 -189.5t-82 -192l-59 -55h12
q55 0 97 -38.5t42 -98.5t-42 -102t-97 -42h-340q-61 0 -97 44t-36 93t37 88l238 238l22 20q16 0 25.5 9.5t9.5 21.5q0 33 -33 33t-37 -29q-23 -33 -46.5 -53.5t-76.5 -20.5zM359 1311q58 0 99.5 -41t41.5 -96v-527q0 -57 -41 -97t-99 -40t-98.5 40t-40.5 97v209
q-78 -23 -141 37q-41 41 -41 97.5t41 96.5l180 183q41 41 99 41z" />
    <glyph glyph-name="threequarters" unicode="&#xbe;" horiz-adv-x="1681" 
d="M926.5 1294q52.5 27 105.5 10t80 -68.5t10 -105.5l-327 -1034q-16 -53 -67.5 -79.5t-105.5 -10.5t-81 66.5t-11 107.5l328 1032q16 55 68.5 82zM1647 138q0 -54 -38 -94t-91 -44v-141q0 -37 -41 -77t-99 -40t-97.5 40t-39.5 77v141h-201q-57 0 -97 40t-40 99v2l146 543
q27 53 74 78.5t101 5.5t81.5 -75.5t-0.5 -106.5l-99 -310h35q2 55 42 94.5t96 39.5t96.5 -39t42.5 -95q53 -4 91 -44t38 -94zM348 803.5q0 21.5 -35 21.5q-32 11 -48.5 27t-17.5 48q-2 79 66 97q16 0 25.5 9.5t9.5 21.5t-9 21.5t-24 9.5q-33 0 -36 -27q-23 -33 -46.5 -52
t-76.5 -19t-93 39.5t-40 88.5t18 72q45 74 113 109q90 39 157 39h37q111 0 190.5 -76t79.5 -176q0 -51 -17 -81t-48 -65q31 -35 48 -65.5t17 -105t-79.5 -150.5t-190.5 -76h-37q-60 0 -97.5 14.5t-59.5 24.5q-68 35 -113 109q-18 22 -18 71t40 89t93 40t76.5 -19.5
t46.5 -51.5q4 -27 36 -27q14 0 23.5 9t9.5 30.5z" />
    <glyph glyph-name="questiondown" unicode="&#xbf;" horiz-adv-x="913" 
d="M438 857q0 56 40 96t96 40t96 -40q39 -40 39 -96t-39 -96t-95 -40t-97 40q-40 40 -40 96zM41 98q0 136 82 250q53 72 134 118t177 50v2q0 55 40 96t98 41t98 -41q39 -41 39 -96v-153q0 -53 -41 -88t-94 -39h-136q-51 -6 -86 -46q-34 -40 -34 -96t41 -98q41 -41 99 -41
t99 41t41 99q0 59 41 99t96 40t94 -34t43 -87q0 -172 -116 -301t-295 -129q-172 0 -296 120t-124 293z" />
    <glyph glyph-name="Agrave" unicode="&#xc0;" 
d="M414 354h338l-168 434zM585 1307q39 0 75 -25t53 -65l399 -1031q20 -53 -2 -105q-22 -51 -76 -73q-53 -22 -105 2t-73 78l-18 45h-510l-17 -45q-20 -55 -72 -79q-51 -24 -105 -2t-78 74t-3 105l402 1031q16 37 53 63t77 27zM279 1511q-55 13 -83 63t-14 107t64 85t102 14
l248 -66q57 -16 85 -64q27 -48 13 -104t-64 -87q-50 -30 -106 -15z" />
    <glyph glyph-name="Aacute" unicode="&#xc1;" 
d="M414 354h338l-168 434zM585 1307q39 0 75 -25t53 -65l399 -1031q20 -53 -2 -105q-22 -51 -76 -73q-53 -22 -105 2t-73 78l-18 45h-510l-17 -45q-20 -55 -72 -79q-51 -24 -105 -2t-78 74t-3 105l402 1031q16 37 53 63t77 27zM788 1780q52 14 102 -14t64 -85t-14 -106
t-82 -64l-246 -67q-55 -14 -105 16q-51 30 -65 85q-14 57 14 105t85 64z" />
    <glyph glyph-name="Acircumflex" unicode="&#xc2;" 
d="M414 354h338l-168 434zM585 1307q39 0 75 -25t53 -65l399 -1031q20 -53 -2 -105q-22 -51 -76 -73q-53 -22 -105 2t-73 78l-18 45h-510l-17 -45q-20 -55 -72 -79q-51 -24 -105 -2t-78 74t-3 105l402 1031q16 37 53 63t77 27zM314 1393q-56 0 -97 42t-31 98t50 95l245 246
q41 41 97 40t102 -40l266 -246q41 -41 50 -98q10 -57 -30 -97t-98 -41t-98 40l-190 170l-170 -170q-40 -39 -96 -39z" />
    <glyph glyph-name="Atilde" unicode="&#xc3;" 
d="M414 354h338l-168 434zM585 1307q39 0 75 -25t53 -65l399 -1031q20 -53 -2 -105q-22 -51 -76 -73q-53 -22 -105 2t-73 78l-18 45h-510l-17 -45q-20 -55 -72 -79q-51 -24 -105 -2t-78 74t-3 105l402 1031q16 37 53 63t77 27zM600 1780l100 -56q34 -24 52 -18t45 39
q27 45 75 65t100 -10t69 -84q17 -56 -19 -118q-115 -196 -340 -151q-76 15 -115 40l-102 55q-57 36 -101 -32q-22 -34 -70 -54t-100 10t-69 84q-17 56 19 118q69 121 198 152q66 15 138 1t120 -41z" />
    <glyph glyph-name="Adieresis" unicode="&#xc4;" 
d="M414 354h338l-168 434zM585 1307q39 0 75 -25t53 -65l399 -1031q20 -53 -2 -105q-22 -51 -76 -73q-53 -22 -105 2t-73 78l-18 45h-510l-17 -45q-20 -55 -72 -79q-51 -24 -105 -2t-78 74t-3 105l402 1031q16 37 53 63t77 27zM920 1618q0 -57 -41 -98t-99 -41t-99 41
q-40 41 -40 98t40 98t98 41q57 0 99 -41t42 -98zM524 1618q0 -57 -41 -98t-99 -41t-98 41t-40 98t40 98t98 41t99 -41t41 -98z" />
    <glyph glyph-name="Aring" unicode="&#xc5;" 
d="M414 354h338l-168 434zM585 1307q39 0 75 -25t53 -65l399 -1031q20 -53 -2 -105q-22 -51 -76 -73q-53 -22 -105 2t-73 78l-18 45h-510l-17 -45q-20 -55 -72 -79q-51 -24 -105 -2t-78 74t-3 105l402 1031q16 37 53 63t77 27z" />
    <glyph glyph-name="AE" unicode="&#xc6;" horiz-adv-x="1665" 
d="M367 356h338l-168 435zM1522 276q57 0 97 -40t40 -98t-40 -98t-97 -40h-566q-77 -10 -124 49q-23 25 -30 58l-11 28h-510l-17 -45q-20 -55 -72 -79t-106 -2q-53 22 -77 74t-3 105l402 1031q16 37 53 63t77 27q40 0 76 -25t52 -65l133 -344v294q0 53 39 97t98 43h586
q57 0 97 -41q40 -42 40 -100t-40 -97t-97 -39h-451v-233h313q54 0 96 -41q42 -40 42 -98t-41 -98t-97 -40h-313v-246h451z" />
    <glyph glyph-name="Ccedilla" unicode="&#xc7;" horiz-adv-x="1263" 
d="M49 655q0 135 51 254q105 244 347 348q121 51 265 51t275 -66q131 -67 221 -177q60 -89 -20 -166q-42 -41 -100 -41t-82 29q-52 69 -132 109t-165 40q-165 0 -277 -112t-113 -270q0 -156 112 -268t271 -112q92 0 171 41t133 109q31 29 87 29t97 -41t41 -89t-23 -77
q-90 -112 -221 -178t-285 -66v-84q95 -4 156 -84q41 -55 41 -112q0 -148 -127 -203q-85 -37 -162 -2q-78 35 -111 121q-35 89 5 122q20 16 48 16t48 -18q20 -20 20 -50t21 -50q20 -20 50 -20t50 20q21 20 21 49t-18 48t-44 24h-67q-27 2 -47 19t-21 44v174q-193 41 -325 178
q-88 90 -140 208t-51 253z" />
    <glyph glyph-name="Egrave" unicode="&#xc8;" horiz-adv-x="944" 
d="M770 276q57 0 97 -40t40 -98t-40 -98t-97 -40h-586q-53 0 -95 40t-42 99v1030q0 53 39 97t98 43h586q57 0 97 -41q40 -42 40 -100t-40 -97t-97 -39h-451v-233h314q55 0 96 -41q41 -40 41 -98t-41 -98t-96 -40h-314v-246h451zM177 1577q-27 50 -13 107q14 56 64 84t102 14
l248 -66q57 -16 85 -64q27 -48 13 -104t-64 -87q-50 -30 -106 -15l-246 67q-55 14 -83 64z" />
    <glyph glyph-name="Eacute" unicode="&#xc9;" horiz-adv-x="944" 
d="M770 276q57 0 97 -40t40 -98t-40 -98t-97 -40h-586q-53 0 -95 40t-42 99v1030q0 53 39 97t98 43h586q57 0 97 -41q40 -42 40 -100t-40 -97t-97 -39h-451v-233h314q55 0 96 -41q41 -40 41 -98t-41 -98t-96 -40h-314v-246h451zM662 1782q51 14 101 -14t64 -84
q14 -57 -13 -107q-28 -49 -83 -64l-246 -67q-55 -14 -105 16t-64 85q-14 57 13 105q28 48 85 64z" />
    <glyph glyph-name="Ecircumflex" unicode="&#xca;" horiz-adv-x="942" 
d="M799 276q57 0 97 -40t40 -98t-40 -98t-97 -40h-586q-53 0 -95 40t-42 99v1030q0 53 39 97t98 43h586q57 0 97 -41q40 -42 40 -100t-40 -97t-97 -39h-451v-233h314q55 0 96 -41q41 -40 41 -98t-41 -98t-96 -40h-314v-246h451zM224 1393q-56 0 -97 42t-31 98t49 95l246 246
q41 41 97 40t102 -40l266 -246q41 -41 50 -98t-31 -97t-97 -41t-98 40l-191 170l-170 -170q-39 -39 -95 -39z" />
    <glyph glyph-name="Edieresis" unicode="&#xcb;" horiz-adv-x="942" 
d="M799 276q57 0 97 -40t40 -98t-40 -98t-97 -40h-586q-53 0 -95 40t-42 99v1030q0 53 39 97t98 43h586q57 0 97 -41q40 -42 40 -100t-40 -97t-97 -39h-451v-233h314q55 0 96 -41q41 -40 41 -98t-41 -98t-96 -40h-314v-246h451zM846 1616q0 -57 -41 -98t-99 -41t-99 41
q-40 41 -40 98t40 98q41 41 99 41t99 -41t41 -98zM451 1616q0 -57 -41 -98q-42 -41 -100 -41t-98 41t-40 98t40 98t98 41t100 -41t41 -98z" />
    <glyph glyph-name="Igrave" unicode="&#xcc;" horiz-adv-x="542" 
d="M156 1169q0 55 40 97t97 41q57 0 97 -41t40 -97v-1032q0 -57 -40 -97t-97 -40t-97 40t-40 97v1032zM-73 1577q-27 50 -13 107q14 56 64 84t102 14l248 -66q57 -16 85 -64q27 -48 13 -104t-64 -87q-50 -30 -106 -15l-246 67q-55 14 -83 64z" />
    <glyph glyph-name="Iacute" unicode="&#xcd;" horiz-adv-x="542" 
d="M160 1169q0 55 40 97t97 41q57 0 97 -41t40 -97v-1032q0 -57 -40 -97t-97 -40t-97 40t-40 97v1032zM518 1778q52 14 102 -14t64 -85t-14 -106t-82 -64l-246 -67q-55 -14 -105 16q-51 30 -65 85q-14 56 13 105q28 48 85 64z" />
    <glyph glyph-name="Icircumflex" unicode="&#xce;" horiz-adv-x="706" 
d="M240 1169q0 55 40 97t97 41q57 0 97 -41t40 -97v-1032q0 -57 -40 -97t-97 -40t-97 40t-40 97v1032zM199 1427q-39 -39 -95 -39t-98 43q-41 42 -31 98t50 95l245 246q42 41 98 40t101 -40l266 -246q41 -41 50 -98q9 -58 -31 -98t-96 -40q-58 0 -99 39l-190 170z" />
    <glyph glyph-name="Idieresis" unicode="&#xcf;" horiz-adv-x="755" 
d="M264 1169q0 55 40 97t97 41q57 0 97 -41t41 -97v-1032q0 -57 -40 -97q-39 -40 -97 -40t-98 40t-40 97v1032zM739 1618q0 -57 -41 -98t-99 -41t-98 41t-40 98t40 98t98 41t99 -41t41 -98zM344 1618q0 -57 -41 -98t-99 -41t-99 41q-40 41 -39 98q0 57 39 98q41 41 99 41
t99 -41t41 -98z" />
    <glyph glyph-name="Eth" unicode="&#xd0;" horiz-adv-x="1380" 
d="M614 617q0 -58 -39.5 -99t-105.5 -41v-198h209q154 -2 267.5 104t113.5 272q-6 160 -114.5 268.5t-266.5 106.5h-209v-274q66 0 105.5 -40.5t39.5 -98.5zM678 1309q260 0 454.5 -187.5t195.5 -457.5t-189.5 -467t-460.5 -197h-346q-55 0 -97 40t-42 99v338
q-61 0 -100.5 41t-39.5 99t39 98.5t101 40.5v413q0 53 39.5 96.5t99.5 43.5h346z" />
    <glyph glyph-name="Ntilde" unicode="&#xd1;" 
d="M1061 823v-690q0 -53 -38 -92t-93 -40t-95 35t-40 91v680q0 97 -68 163t-162 66t-160 -63q-67 -63 -67 -156v-684q0 -53 -41 -93t-94 -40t-94 37t-41 90v680q4 206 146 351t349 145t352 -140q146 -140 146 -340zM582 1778l100 -56q33 -24 51 -18t45 39q27 45 75 65
t100 -10q51 -30 69 -84q18 -56 -18 -118q-115 -196 -340 -151q-76 15 -115 40l-103 55q-58 36 -102 -32q-22 -34 -69 -54q-48 -20 -100 10t-69 84q-16 56 20 118q70 121 198 152q66 15 138 1t120 -41z" />
    <glyph glyph-name="Ograve" unicode="&#xd2;" horiz-adv-x="1384" 
d="M51 655q0 135 51 254q52 119 140 208t208 140t255 51t253 -50q240 -104 347 -349q51 -119 51 -254t-51 -254q-104 -242 -347 -348q-120 -51 -254 -51t-254 51q-239 102 -348 348q-51 119 -51 254zM974 384q112 112 112 272q-1 158 -113 270t-270 111q-159 -1 -270 -112
t-111 -271t112 -270q112 -112 270 -112t270 112zM442 1511q-54 13 -82 63t-14 107t64 85t102 14l248 -66q57 -16 85 -64q27 -48 13 -104t-64 -87q-50 -30 -106 -15z" />
    <glyph glyph-name="Oacute" unicode="&#xd3;" horiz-adv-x="1384" 
d="M51 655q0 135 51 254q52 119 140 208t208 140t255 51t253 -50q240 -104 347 -349q51 -119 51 -254t-51 -254q-104 -242 -347 -348q-120 -51 -254 -51t-254 51q-239 102 -348 348q-51 119 -51 254zM974 384q112 112 112 272q-1 158 -113 270t-270 111q-159 -1 -270 -112
t-111 -271t112 -270q112 -112 270 -112t270 112zM887 1780q51 14 101 -14t65 -85q14 -57 -14 -106t-83 -64l-245 -67q-55 -14 -106 15q-50 30 -64 86t13 105q28 48 85 64z" />
    <glyph glyph-name="Ocircumflex" unicode="&#xd4;" horiz-adv-x="1384" 
d="M51 655q0 135 51 254q52 119 140 208t208 140t255 51t253 -50q240 -104 347 -349q51 -119 51 -254t-51 -254q-104 -242 -347 -348q-120 -51 -254 -51t-254 51q-239 102 -348 348q-51 119 -51 254zM974 384q112 112 112 272q-1 158 -113 270t-270 111q-159 -1 -270 -112
t-111 -271t112 -270q112 -112 270 -112t270 112zM524 1470q-39 -38 -95 -38t-97 42t-31 98t49 95l246 246q41 41 97 40t102 -40l266 -246q41 -41 50 -98t-31 -97t-97 -42q-57 0 -98 40l-191 170z" />
    <glyph glyph-name="Otilde" unicode="&#xd5;" horiz-adv-x="1384" 
d="M51 655q0 135 51 254q52 119 140 208t208 140t255 51t253 -50q240 -104 347 -349q51 -119 51 -254t-51 -254q-104 -242 -347 -348q-120 -51 -254 -51t-254 51q-239 102 -348 348q-51 119 -51 254zM974 384q112 112 112 272q-1 158 -113 270t-270 111q-159 -1 -270 -112
t-111 -271t112 -270q112 -112 270 -112t270 112zM713 1776l100 -56q33 -24 51 -18t45 39q27 45 75 65t100 -10t70 -84q18 -56 -20 -118q-115 -196 -339 -151q-76 15 -115 40l-102 55q-58 38 -102 -32q-22 -34 -70 -54t-100 10t-68 84q-16 56 20 118q69 121 197 152
q67 15 139 1t119 -41z" />
    <glyph glyph-name="Odieresis" unicode="&#xd6;" horiz-adv-x="1384" 
d="M51 655q0 135 51 254q52 119 140 208t208 140t255 51t253 -50q240 -104 347 -349q51 -119 51 -254t-51 -254q-104 -242 -347 -348q-120 -51 -254 -51t-254 51q-239 102 -348 348q-51 119 -51 254zM974 384q112 112 112 272q-1 158 -113 270t-270 111q-159 -1 -270 -112
t-111 -271t112 -270q112 -112 270 -112t270 112zM1042 1616q0 -57 -41 -98t-99 -41t-98 41t-40 98t40 98t98 41t99 -41t41 -98zM647 1616q0 -57 -41 -98t-99 -41t-98 41t-40 98t40 98t98 41t99 -41t41 -98z" />
    <glyph glyph-name="multiply" unicode="&#xd7;" horiz-adv-x="1046" 
d="M977 817q0 -55 -37 -94l-225 -227l225 -228q37 -37 39 -93t-37 -95t-95 -39t-97 43l-226 221l-225 -227q-37 -33 -92 -37t-94 35t-42 93t35 95l232 232l-232 231q-39 39 -34 90q4 51 39 92q45 45 96 41t92 -41l225 -225l232 227q39 39 91 38t91 -39t39 -93z" />
    <glyph glyph-name="Oslash" unicode="&#xd8;" horiz-adv-x="1388" 
d="M41 655.5q0 135.5 51 254t139 207.5t208 140.5t255 51.5q26 0 52 -2l8 22q16 55 71.5 83t110.5 10t83 -70t11 -107l-8 -25q184 -107 254 -268t70 -296.5t-51.5 -254t-139.5 -208t-207 -140.5t-254 -51q-34 0 -66 3q-19 -58 -72.5 -84.5t-109.5 -10.5t-85.5 68.5
t-7.5 118.5q-176 108 -244 265.5t-68 293zM311 647q0 -164 130 -280l217 668q-137 -11 -242 -117.5t-105 -270.5zM1075 667q0 172 -140 284l-220 -678q144 6 252 114t108 280z" />
    <glyph glyph-name="Ugrave" unicode="&#xd9;" 
d="M561 6q-102 0 -192 39q-184 80 -261 264q-38 90 -40 193v680q0 53 41 90t94 37t94 -40t41 -93v-684q0 -94 67 -156t160 -63t160 64q68 65 70 165v680q0 55 40 91t95 35t93 -40t38 -92v-691q0 -200 -150 -343q-142 -136 -350 -136zM365 1501q-55 13 -83 63t-14 107t64 85
t102 13l248 -65q57 -16 85 -64q27 -48 13 -105q-14 -56 -64 -86t-106 -15z" />
    <glyph glyph-name="Uacute" unicode="&#xda;" 
d="M561 6q-102 0 -192 39q-184 80 -261 264q-38 90 -40 193v680q0 53 41 90t94 37t94 -40t41 -93v-684q0 -94 67 -156t160 -63t160 64q68 65 70 165v680q0 55 40 91t95 35t93 -40t38 -92v-691q0 -200 -150 -343q-142 -136 -350 -136zM796 1754q50 -28 64 -85t-14 -106
t-82 -64l-246 -67q-55 -14 -105 16q-51 30 -65 85q-14 56 13 104q28 48 85 65l248 65q51 14 102 -13z" />
    <glyph glyph-name="Ucircumflex" unicode="&#xdb;" 
d="M561 6q-102 0 -192 39q-184 80 -261 264q-38 90 -40 193v680q0 53 41 90t94 37t94 -40t41 -93v-684q0 -94 67 -156t160 -63t160 64q68 65 70 165v680q0 55 40 91t95 35t93 -40t38 -92v-691q0 -200 -150 -343q-142 -136 -350 -136zM294 1374q-56 0 -97 42t-31 98t49 96
l246 245q41 41 97 40t101 -40l267 -245q41 -40 50 -98t-31 -98t-97 -41t-98 40l-191 170l-170 -170q-39 -39 -95 -39z" />
    <glyph glyph-name="Udieresis" unicode="&#xdc;" horiz-adv-x="1128" 
d="M561 6q-102 0 -192 39q-184 80 -261 264q-38 90 -40 193v680q0 53 41 90t94 37t94 -40t41 -93v-684q0 -94 67 -156t160 -63t160 64q68 65 70 165v680q0 55 40 91t95 35t93 -40t38 -92v-691q0 -200 -150 -343q-142 -136 -350 -136zM899 1610q0 -56 -41 -98t-99 -42t-99 41
q-40 41 -40 99t40 98q40 41 98 41t100 -41q41 -41 41 -98zM504 1610q0 -56 -41 -98t-99 -42t-99 41q-40 41 -40 99t40 98q40 41 98 41q57 0 99 -41t42 -98z" />
    <glyph glyph-name="Yacute" unicode="&#xdd;" horiz-adv-x="1083" 
d="M831 145q0 -59 -43 -102t-102 -43t-101 43t-42 102v344l-475 586q-37 47 -32 107t51 97q47 38 107 32t99 -54l395 -487l397 487q39 47 99 53t107 -31q46 -38 51 -97t-31 -107l-480 -588v-342zM897 1780q51 14 101 -14t65 -85t-13 -106t-83 -64l-246 -67q-55 -14 -106 15
q-50 30 -64 86t13 105q28 48 85 64z" />
    <glyph glyph-name="Thorn" unicode="&#xde;" horiz-adv-x="1081" 
d="M232 1311q46 0 89.5 -43t43.5 -103v-219q129 60 283.5 37.5t277.5 -135.5q143 -147 143 -351t-146.5 -350.5t-349.5 -146.5q-98 0 -188 40l-20 10v-179q0 -59 -43 -102t-102.5 -43t-101.5 43t-42 102v1311q0 25 27 77t129 52zM413 334q71 -68 161 -68t159.5 67.5
t69.5 163t-70 162t-161 66.5t-159 -71q-30 -30 -48 -69v-183q18 -39 48 -68z" />
    <glyph glyph-name="germandbls" unicode="&#xdf;" horiz-adv-x="1001" 
d="M844 653q96 -109 96 -266q0 -158 -115.5 -273.5t-277.5 -115.5h-2q-57 0 -96 40t-39 97t38.5 96t96.5 39h2q51 0 88 36t37 89.5t-37 89t-88 35.5h-4q-57 0 -96 39t-39 94.5t38.5 95t96.5 39.5h4q51 0 88 37t37 86t-31 82q-45 39 -119 39t-128 -57.5t-54 -132.5v-703
q0 -57 -39 -98t-97 -41t-98 41t-40 98v703q8 195 140 331t322 136h11l8 2q164 0 278.5 -116t114.5 -271q0 -156 -96 -271z" />
    <glyph glyph-name="agrave" unicode="&#xe0;" horiz-adv-x="1110" 
d="M551 266q45 0 87 18q85 35 122 120q18 42 18 90q0 97 -68 164t-161 67q-92 -1 -160 -69q-67 -68 -67 -161t70 -161t159 -68zM1047 496v-363q0 -55 -41 -94t-103 -39t-104 66q-11 -4 -19 -10q-87 -56 -235 -56t-269 83q-167 115 -211 310q-34 149 28 292q62 142 183 224
t275 82h30q96 0 189 -49q172 -91 243 -267q34 -85 34 -179zM261 1237q-27 50 -13 107q14 56 64 84t102 14l248 -66q56 -16 84 -64t14 -104t-64 -87q-50 -30 -106 -15l-246 68q-55 14 -83 63z" />
    <glyph glyph-name="aacute" unicode="&#xe1;" horiz-adv-x="1110" 
d="M551 266q45 0 87 18q85 35 122 120q18 42 18 90q0 97 -68 164t-161 67q-92 -1 -160 -69q-67 -68 -67 -161t70 -161t159 -68zM1047 496v-363q0 -55 -41 -94t-103 -39t-104 66q-11 -4 -19 -10q-87 -56 -235 -56t-269 83q-167 115 -211 310q-34 149 28 292q62 142 183 224
t275 82h30q96 0 189 -49q172 -91 243 -267q34 -85 34 -179zM676 1442q52 14 102 -14t64 -84t-14 -106t-83 -64l-245 -68q-55 -14 -106 15q-50 30 -64 86t13 105q28 48 85 64z" />
    <glyph glyph-name="acircumflex" unicode="&#xe2;" horiz-adv-x="1110" 
d="M551 266q45 0 87 18q85 35 122 120q18 42 18 90q0 97 -68 164t-161 67q-92 -1 -160 -69q-67 -68 -67 -161t70 -161t159 -68zM1047 496v-363q0 -55 -41 -94t-103 -39t-104 66q-11 -4 -19 -10q-87 -56 -235 -56t-269 83q-167 115 -211 310q-34 149 28 292q62 142 183 224
t275 82h30q96 0 189 -49q172 -91 243 -267q34 -85 34 -179zM282 1057q-56 0 -98 41q-41 43 -30 99q10 56 49 95l246 246q41 41 97 40t101 -40l266 -246q41 -41 51 -98t-31 -97q-40 -40 -97 -41t-99 40l-190 170l-170 -170q-39 -39 -95 -39z" />
    <glyph glyph-name="atilde" unicode="&#xe3;" horiz-adv-x="1110" 
d="M551 266q45 0 87 18q85 35 122 120q18 42 18 90q0 97 -68 164t-161 67q-92 -1 -160 -69q-67 -68 -67 -161t70 -161t159 -68zM1047 496v-363q0 -55 -41 -94t-103 -39t-104 66q-11 -4 -19 -10q-87 -56 -235 -56t-269 83q-167 115 -211 310q-34 149 28 292q62 142 183 224
t275 82h30q96 0 189 -49q172 -91 243 -267q34 -85 34 -179zM571 1442l101 -56q33 -24 51 -18t45 39q27 45 75 65t100 -9q51 -30 69 -85t-19 -117q-117 -196 -340 -152q-76 15 -114 40l-103 55q-58 36 -102 -32q-22 -34 -69 -54q-48 -20 -100 10t-69 84q-16 56 20 118
q71 123 197 152q67 15 139 1t119 -41z" />
    <glyph glyph-name="adieresis" unicode="&#xe4;" horiz-adv-x="1110" 
d="M551 266q45 0 87 18q85 35 122 120q18 42 18 90q0 97 -68 164t-161 67q-92 -1 -160 -69q-67 -68 -67 -161t70 -161t159 -68zM1047 496v-363q0 -55 -41 -94t-103 -39t-104 66q-11 -4 -19 -10q-87 -56 -235 -56t-269 83q-167 115 -211 310q-34 149 28 292q62 142 183 224
t275 82h30q96 0 189 -49q172 -91 243 -267q34 -85 34 -179zM887 1288q0 -57 -41 -98q-42 -41 -100 -41t-98 41t-40 98t40 98t98 41t100 -41t41 -98zM492 1288q0 -57 -41 -98t-99 -41t-99 41q-40 41 -40 98t40 98t98 41q57 0 99 -41t42 -98z" />
    <glyph glyph-name="ae" unicode="&#xe6;" horiz-adv-x="2195" 
d="M754 496q4 92 -66 160q-70 69 -163 69t-157 -69q-69 -69 -69 -162t71 -161q71 -67 161 -67q91 0 152 61t71 143v26zM1249 991q99 0 189 -41q90 -42 158 -110q150 -150 151 -344q0 -53 -40 -84t-99 -29h-545q68 -117 186 -117q56 0 96 20q83 42 150 -4q67 -47 56 -128
q-5 -39 -35 -72q-95 -77 -267 -82q-126 -5 -244 65q-42 -65 -114 -65t-115 66q-10 -4 -33 -20t-89 -31t-126 -15q-154 0 -274 83q-163 112 -212 310q-11 49 -11 127t43 174q59 133 180 215t274 82h30q97 0 188 -48q90 -48 147 -111q159 159 356 159zM1436 610
q-64 115 -186 115q-123 0 -187 -115h373z" />
    <glyph glyph-name="ccedilla" unicode="&#xe7;" horiz-adv-x="962" 
d="M686 677q-50 48 -142 48q-91 0 -159 -69t-69 -162t70 -162q71 -68 161 -67t151 57q36 40 94 40t95 -40q35 -32 39 -86t-31 -91q-127 -127 -297 -143v-35q94 -4 156 -84q39 -53 40 -110q3 -148 -126 -205q-85 -37 -166 1q-75 33 -108 118q-34 89 6 123q19 16 47 16
q29 0 49 -20t20 -49q0 -30 20 -50t51 -20q30 0 50 20t20 49t-17 48t-44 24h-68q-27 2 -47 19t-20 44v116q-152 28 -264 140q-148 148 -148 348t150 348t352 148q201 0 344 -143q35 -39 32 -92t-40 -88t-94 -37t-107 46z" />
    <glyph glyph-name="egrave" unicode="&#xe8;" 
d="M733 610q-65 115 -187 115q-123 0 -186 -115h373zM894 841q152 -152 150 -345q0 -53 -40 -84t-99 -29h-545q68 -117 187 -117q55 0 95 20q83 43 151 -4q67 -47 56 -128q-5 -39 -36 -72q-95 -77 -266 -82q-99 -4 -189 36t-158 108t-109 161q-40 91 -40 189t40 188t108 159
q148 150 345 150q198 0 350 -150zM287 1186q-55 14 -83 64t-14 106q14 57 64 85t102 13l248 -65q57 -17 85 -65q27 -48 13 -104t-64 -86t-106 -16z" />
    <glyph glyph-name="eacute" unicode="&#xe9;" 
d="M733 610q-65 115 -187 115q-123 0 -186 -115h373zM894 841q152 -152 150 -345q0 -53 -40 -84t-99 -29h-545q68 -117 187 -117q55 0 95 20q83 43 151 -4q67 -47 56 -128q-5 -39 -36 -72q-95 -77 -266 -82q-99 -4 -189 36t-158 108t-109 161q-40 91 -40 189t40 188t108 159
q148 150 345 150q198 0 350 -150zM839 1439q50 -28 64 -85t-13 -107q-28 -49 -83 -63l-246 -68q-55 -14 -105 16t-64 86t12 104q28 48 85 64l248 66q51 14 102 -13z" />
    <glyph glyph-name="ecircumflex" unicode="&#xea;" 
d="M733 610q-65 115 -187 115q-123 0 -186 -115h373zM894 841q152 -152 150 -345q0 -53 -40 -84t-99 -29h-545q68 -117 187 -117q55 0 95 20q83 43 151 -4q67 -47 56 -128q-5 -39 -36 -72q-95 -77 -266 -82q-99 -4 -189 36t-158 108t-109 161q-40 91 -40 189t40 188t108 159
q148 150 345 150q198 0 350 -150zM265 1059q-56 0 -97 42t-31 98t49 95l246 246q41 41 97 40t102 -40l266 -246q41 -41 50 -98t-31 -97t-97 -41t-98 40l-191 170l-170 -170q-39 -39 -95 -39z" />
    <glyph glyph-name="edieresis" unicode="&#xeb;" 
d="M733 610q-65 115 -187 115q-123 0 -186 -115h373zM894 841q152 -152 150 -345q0 -53 -40 -84t-99 -29h-545q68 -117 187 -117q55 0 95 20q83 43 151 -4q67 -47 56 -128q-5 -39 -36 -72q-95 -77 -266 -82q-99 -4 -189 36t-158 108t-109 161q-40 91 -40 189t40 188t108 159
q148 150 345 150q198 0 350 -150zM885 1292q0 -57 -41 -98q-42 -41 -100 -41t-98 41t-40 98q0 56 40 98t98 42t100 -41q41 -42 41 -99zM489 1292q-1 -57 -41 -98t-98 -41t-99 41q-40 41 -40 98q0 56 40 98t98 42t100 -41q40 -42 40 -99z" />
    <glyph glyph-name="igrave" unicode="&#xec;" horiz-adv-x="610" 
d="M52.5 1249.5q-27.5 49.5 -13.5 106.5t64.5 84.5t101.5 13.5l248 -65q57 -16 84.5 -64.5t13.5 -104.5t-64.5 -86t-105.5 -16l-246 68q-55 14 -82.5 63.5zM494 129q0 -55 -35 -92t-91 -39t-93 30.5t-46 92.5v741q4 53 43.5 88t92.5 36t88.5 -38t40.5 -94v-725z" />
    <glyph glyph-name="iacute" unicode="&#xed;" horiz-adv-x="612" 
d="M511 1438.5q50 -27.5 64 -84.5t-13 -106.5t-83 -63.5l-246 -68q-55 -14 -105 16t-64 86t13 104t85 64l248 66q51 14 101 -13.5zM369 129q0 -55 -35 -92t-91 -39t-93 30.5t-46 92.5v741q4 53 43.5 88t92.5 36t89 -38t40 -94v-725z" />
    <glyph glyph-name="icircumflex" unicode="&#xee;" horiz-adv-x="870" 
d="M160.5 1051q-56.5 0 -97.5 42t-30.5 98t49.5 95l246 246q41 41 97 40t101 -40l267 -246q41 -41 50 -98.5t-31 -97.5t-97.5 -40.5t-98.5 40.5l-190 170l-170 -170q-39 -39 -95.5 -39zM559 135q0 -55 -35 -92t-91 -39t-93 31t-45 92v741q4 53 43 88t92 36t89 -38t40 -94
v-725z" />
    <glyph glyph-name="idieresis" unicode="&#xef;" horiz-adv-x="745" 
d="M711 1288.5q0 -57.5 -41.5 -98.5t-99.5 -41t-98 41t-40 98.5t40 98t98 40.5t99.5 -40.5t41.5 -98zM315 1288.5q0 -57.5 -41 -98.5t-99 -41t-98 41t-40 98.5t40 98t98 40.5t99 -40.5t41 -98zM502 129q0 -55 -35 -92t-91 -39t-93 30.5t-45 92.5v741q4 53 43 88t92 36
t89 -38t40 -94v-725z" />
    <glyph glyph-name="eth" unicode="&#xf0;" horiz-adv-x="921" 
d="M448.5 551q-59.5 0 -100.5 -40t-41 -99.5t41 -100.5t100.5 -41t100.5 41t41 100.5t-41 99.5t-100.5 40zM434 823q72 0 156 -24v104q-2 55 -42 95t-99 40h-41q-55 0 -95.5 40t-40.5 96t40 95.5t96 39.5h77q154 -8 258 -131.5t117 -274.5v-491q0 -200 -135.5 -306
t-290.5 -106t-276 120t-121 291t88 259t162.5 120.5t146.5 32.5z" />
    <glyph glyph-name="ntilde" unicode="&#xf1;" 
d="M912 857q145 -140 145 -339v-379q0 -53 -38 -92t-93 -40t-96 35q-40 36 -39 91v369q0 97 -68 163t-161 66t-161 -63q-67 -63 -67 -156v-373q0 -53 -41 -93t-94 -40t-95 37q-41 37 -41 90v369q4 207 145 350q143 145 351 145t353 -140zM578 1452l100 -55q33 -23 51 -18
t45 38q27 45 75 65t100 -8q51 -30 69 -85t-19 -117q-116 -197 -340 -153q-76 15 -114 40l-103 55q-58 38 -102 -31q-22 -35 -69 -55q-48 -20 -100 10t-69 85q-16 55 20 117q71 123 197 152q66 15 139 1t120 -41z" />
    <glyph glyph-name="ograve" unicode="&#xf2;" horiz-adv-x="1073" 
d="M711 333q67 69 65 163t-66 160t-160 67q-96 2 -162 -63t-68 -162q-1 -96 67 -164t163 -69q94 -1 161 68zM550 2q-209 0 -353 142t-144 349t142 349t354 151q201 0 349 -147t146 -350q0 -102 -38 -192q-81 -186 -263 -264q-90 -38 -193 -38zM265 1249q-27 50 -13 107
t64 85t102 13l248 -65q57 -17 85 -65q27 -48 13 -104t-64 -86t-106 -16l-246 68q-55 14 -83 63z" />
    <glyph glyph-name="oacute" unicode="&#xf3;" horiz-adv-x="1073" 
d="M711 333q67 69 65 163t-66 160t-160 67q-96 2 -162 -63t-68 -162q-1 -96 67 -164t163 -69q94 -1 161 68zM550 2q-209 0 -353 142t-144 349t142 349t354 151q201 0 349 -147t146 -350q0 -102 -38 -192q-81 -186 -263 -264q-90 -38 -193 -38zM682 1452q52 14 102 -14
t64 -84q14 -57 -13 -107q-28 -49 -83 -63l-246 -68q-55 -14 -106 16q-50 30 -64 86t13 104q28 48 85 64z" />
    <glyph glyph-name="ocircumflex" unicode="&#xf4;" horiz-adv-x="1073" 
d="M711 333q67 69 65 163t-66 160t-160 67q-96 2 -162 -63t-68 -162q-1 -96 67 -164t163 -69q94 -1 161 68zM550 2q-209 0 -353 142t-144 349t142 349t354 151q201 0 349 -147t146 -350q0 -102 -38 -192q-81 -186 -263 -264q-90 -38 -193 -38zM267 1055q-56 0 -97 42t-31 98
t49 95l246 246q41 41 97 40t102 -40l266 -246q41 -41 50 -98t-31 -97t-96 -41q-58 -1 -99 40l-191 170l-170 -170q-39 -39 -95 -39z" />
    <glyph glyph-name="otilde" unicode="&#xf5;" horiz-adv-x="1073" 
d="M711 333q67 69 65 163t-66 160t-160 67q-96 2 -162 -63t-68 -162q-1 -96 67 -164t163 -69q94 -1 161 68zM550 2q-209 0 -353 142t-144 349t142 349t354 151q201 0 349 -147t146 -350q0 -102 -38 -192q-81 -186 -263 -264q-90 -38 -193 -38zM565 1442l101 -56
q33 -24 51 -18t45 39q27 45 75 65t100 -9q51 -30 69 -85t-19 -117q-117 -197 -340 -152q-76 15 -115 40l-102 55q-58 36 -102 -32q-22 -34 -69 -54q-48 -20 -100 10t-69 84q-16 56 20 118q71 123 197 152q67 15 139 1t119 -41z" />
    <glyph glyph-name="odieresis" unicode="&#xf6;" horiz-adv-x="1073" 
d="M711 333q67 69 65 163t-66 160t-160 67q-96 2 -162 -63t-68 -162q-1 -96 67 -164t163 -69q94 -1 161 68zM550 2q-209 0 -353 142t-144 349t142 349t354 151q201 0 349 -147t146 -350q0 -102 -38 -192q-81 -186 -263 -264q-90 -38 -193 -38zM887 1286q0 -57 -41 -98
q-42 -41 -100 -41t-98 41t-40 98t40 98t98 41t100 -41t41 -98zM492 1286q0 -57 -41 -98t-99 -41t-99 41q-40 41 -40 98t40 98t98 41q57 0 99 -41t42 -98z" />
    <glyph glyph-name="divide" unicode="&#xf7;" horiz-adv-x="839" 
d="M549 975q0 -57 -41 -98t-99 -41t-98.5 41t-40.5 98t40 98t98 41t99.5 -41t41.5 -98zM549 260q0 -57 -41 -98t-99 -41t-98.5 41t-40.5 98t40 98t98 41t99.5 -41t41.5 -98zM819 617q0 -58 -40 -99t-97 -41h-522q-59 0 -98 41t-39 99t38.5 98.5t98.5 40.5h522q57 0 97 -40.5
t40 -98.5z" />
    <glyph glyph-name="oslash" unicode="&#xf8;" horiz-adv-x="1073" 
d="M549 2h-16l-21 -68q-16 -54 -68 -80t-105 -10q-54 16 -81 66t-10 108l21 67q-118 78 -177 214q-39 91 -39 195t38 193q78 182 262 262q91 40 196 44h8l18 58q16 55 69 81t106 10q54 -16 80 -68t10 -105l-19 -59q122 -80 184 -220q39 -90 39 -193t-38 -193
q-80 -187 -263 -263q-90 -39 -194 -39zM467 710q-43 -14 -77 -48q-70 -69 -70 -150q-1 -81 39 -144zM620 276q98 33 140 131q18 42 16 104t-44 119z" />
    <glyph glyph-name="ugrave" unicode="&#xf9;" horiz-adv-x="1077" 
d="M332 856v-360q0 -95 66 -161t160 -68q93 -1 162 61q68 62 68 157v373q0 51 39 92t95 42t95 -39q40 -40 42 -89v-368q1 -204 -145 -350t-353 -146q-194 -8 -347 138q-151 147 -151 343v377q0 53 38 93q39 40 94 41t96 -39t41 -97zM212 1245q-27 50 -13 107t64 85t102 13
l247 -66q57 -16 85 -64t14 -104q-15 -56 -65 -86t-105 -16l-246 68q-55 14 -83 63z" />
    <glyph glyph-name="uacute" unicode="&#xfa;" horiz-adv-x="1077" 
d="M332 856v-360q0 -95 66 -161t160 -68q93 -1 162 61q68 62 68 157v373q0 51 39 92t95 42t95 -39q40 -40 42 -89v-368q1 -204 -145 -350t-353 -146q-194 -8 -347 138q-151 147 -151 343v377q0 53 38 93q39 40 94 41t96 -39t41 -97zM729 1452q51 14 101 -14t65 -84
q14 -57 -13 -107q-28 -49 -83 -63l-246 -68q-55 -14 -106 16q-50 30 -64 86t13 104q28 48 85 64z" />
    <glyph glyph-name="ucircumflex" unicode="&#xfb;" horiz-adv-x="1077" 
d="M332 856v-360q0 -95 66 -161t160 -68q93 -1 162 61q68 62 68 157v373q0 51 39 92t95 42t95 -39q40 -40 42 -89v-368q1 -204 -145 -350t-353 -146q-194 -8 -347 138q-151 147 -151 343v377q0 53 38 93q39 40 94 41t96 -39t41 -97zM288 1055q-56 0 -98 41q-41 43 -30 99
q10 56 49 95l246 246q41 41 97 40t101 -40l267 -246q41 -41 50 -98t-31 -97t-97 -41t-99 40l-190 170l-170 -170q-39 -39 -95 -39z" />
    <glyph glyph-name="udieresis" unicode="&#xfc;" horiz-adv-x="1077" 
d="M332 856v-360q0 -95 66 -161t160 -68q93 -1 162 61q68 62 68 157v373q0 51 39 92t95 42t95 -39q40 -40 42 -89v-368q1 -204 -145 -350t-353 -146q-194 -8 -347 138q-151 147 -151 343v377q0 53 38 93q39 40 94 41t96 -39t41 -97zM897 1288q0 -57 -41 -98t-99 -41t-99 41
q-40 41 -40 98t40 98t98 41t100 -41q41 -41 41 -98zM502 1288q0 -57 -41 -98t-99 -41t-99 41q-40 41 -40 98t40 98t98 41q57 0 99 -41t42 -98z" />
    <glyph glyph-name="yacute" unicode="&#xfd;" horiz-adv-x="1077" 
d="M39 674v182q0 57 40 97t97 40t97 -40t40 -97v-182q1 -84 57 -140t140 -56t141 56t58 140v182q0 57 40 97t97 40t97 -40t40 -97v-184q0 -156 -95 -282t-245 -169v-399q0 -57 -40 -97t-97 -40t-97 40t-40 97v401q-144 46 -237 168q-93 125 -93 283zM841 1439q50 -28 64 -85
t-13 -107q-28 -49 -83 -63l-246 -68q-55 -14 -105 16t-64 86t13 104q28 48 85 64l247 66q51 14 102 -13z" />
    <glyph glyph-name="thorn" unicode="&#xfe;" horiz-adv-x="1081" 
d="M232 1311q46 0 89.5 -43t43.5 -103v-219q129 60 283.5 37.5t277.5 -135.5q143 -147 143 -351t-146.5 -350.5t-349.5 -146.5q-98 0 -188 40l-20 10v-179q0 -59 -43 -102t-102.5 -43t-101.5 43t-42 102v1311q0 25 27 77t129 52zM413 334q71 -68 161 -68t159.5 67.5
t69.5 163t-70 162t-161 66.5t-159 -71q-30 -30 -48 -69v-183q18 -39 48 -68z" />
    <glyph glyph-name="ydieresis" unicode="&#xff;" horiz-adv-x="1077" 
d="M39 674v182q0 57 40 97t97 40t97 -40t40 -97v-182q1 -84 57 -140t140 -56t141 56t58 140v182q0 57 40 97t97 40t97 -40t40 -97v-184q0 -156 -95 -282t-245 -169v-399q0 -57 -40 -97t-97 -40t-97 40t-40 97v401q-144 46 -237 168q-93 125 -93 283zM862 1288q0 -57 -41 -98
t-99 -41t-98 41t-40 98t40 98t98 41t99 -41t41 -98zM467 1288q0 -57 -41 -98t-99 -41t-99 41q-40 41 -40 98t40 98t98 41t100 -41q41 -41 41 -98z" />
    <glyph glyph-name="aogonek" unicode="&#x105;" horiz-adv-x="1110" 
d="M551 266q45 0 87 18q85 35 122 120q18 42 18 90q0 97 -68 164t-161 67q-92 -1 -160 -69q-67 -68 -67 -161t70 -161t159 -68zM1047 496v-363q0 -55 -41 -94t-103 -39t-104 66q-11 -4 -19 -10q-62 -40 -164 -52v-133q0 -27 -20 -44t-47 -20h-68q-27 -4 -44 -23t-17 -48
t20 -49q20 -21 50 -21t50 20t21 51q1 30 21 49t48 19q65 0 67 -72t-56 -137t-146 -65q-89 0 -150 59q-62 59 -62 148q0 120 107 183q40 24 89 26v58q-111 15 -217 88q-153 105 -197 300q-34 149 28 292q62 142 183 224t275 82h30q96 0 189 -49q172 -91 243 -267
q34 -85 34 -179z" />
    <glyph glyph-name="cacute" unicode="&#x107;" horiz-adv-x="983" 
d="M686 677q-50 48 -142 48q-91 0 -159 -69t-69 -162t70 -162q71 -68 161 -67t151 57q36 40 94 40t95 -40q35 -32 39 -86t-31 -91q-145 -145 -348 -145t-351 148t-147 347q0 200 150 348t352 148q201 0 344 -143q35 -39 32 -92t-40 -88t-94 -37t-107 46zM725 1452
q51 14 101 -14t65 -84q14 -57 -13 -107q-28 -49 -83 -63l-246 -68q-55 -14 -106 16q-50 30 -64 86t13 104q28 48 85 64z" />
    <glyph glyph-name="Ccaron" unicode="&#x10c;" horiz-adv-x="1284" 
d="M49 655q0 135 51 254q105 244 347 348q121 51 265 51t275 -66q131 -67 221 -177q60 -89 -20 -166q-42 -41 -100 -41t-82 29q-52 69 -132 109t-165 40q-165 0 -277 -112t-113 -270q0 -156 112 -268t271 -112q92 0 171 41t133 109q31 29 87 29t97 -41t41 -89t-23 -77
q-90 -112 -221 -178t-275 -66q-286 0 -472 192q-88 90 -140 208t-51 253zM898 1829q44 0 76 -33t32 -76t-31 -73l-227 -228q-33 -33 -76 -31t-78 31l-244 228q-33 31 -32 75t32 76q31 31 76 32t76 -32l170 -151l151 151q31 31 75 31z" />
    <glyph glyph-name="ccaron" unicode="&#x10d;" horiz-adv-x="983" 
d="M686 677q-50 48 -142 48q-91 0 -159 -69t-69 -162t70 -162q71 -68 161 -67t151 57q36 40 94 40t95 -40q35 -32 39 -86t-31 -91q-145 -145 -348 -145t-351 148t-147 347q0 200 150 348t352 148q201 0 344 -143q35 -39 32 -92t-40 -88t-94 -37t-107 46zM749 1499
q43 0 75 -33q32 -34 32 -76t-31 -73l-227 -227q-33 -33 -76 -32t-78 32l-243 227q-33 31 -32 76t32 75t75 32q44 1 76 -32l170 -151l152 151q31 31 75 31z" />
    <glyph glyph-name="Dcaron" unicode="&#x10e;" horiz-adv-x="1261" 
d="M352 1030v-751h209q153 -2 267 104t114 272q-6 160 -115 269t-266 106h-209zM561 1309q260 1 455 -187q196 -188 196 -458t-190 -468q-190 -196 -461 -196h-346q-55 0 -97 40t-42 99v1030q0 53 40 97t99 43h346zM765 1829q44 0 76 -33q31 -33 31 -76t-30 -73l-228 -228
q-34 -33 -76 -31t-77 31l-244 228q-33 31 -32 75t32 76q31 31 76 32t76 -32l170 -151l151 151q31 31 75 31z" />
    <glyph glyph-name="Eogonek" unicode="&#x118;" horiz-adv-x="1007" 
d="M799 276q57 0 97 -40t40 -98t-40 -98t-97 -40h-211v-129q0 -27 -20 -44t-48 -20h-67q-27 -4 -44 -23t-17 -48t20 -49q20 -21 50 -21t50 20t20 51q0 30 20 49t49 19q65 0 68 -71t-56 -137t-147 -66q-89 0 -150 59q-62 59 -62 148q0 120 107 183q40 24 90 26v53h-238
q-53 0 -95 40t-42 99v1030q0 53 39 97t98 43h586q57 0 97 -41q40 -42 40 -100t-40 -97t-97 -39h-451v-233h314q55 0 96 -41q41 -40 41 -98t-41 -98t-96 -40h-314v-246h451z" />
    <glyph glyph-name="eogonek" unicode="&#x119;" horiz-adv-x="1085" 
d="M733 610q-65 115 -187 115q-123 0 -186 -115h373zM894 841q152 -152 150 -345q0 -53 -40 -84t-99 -29h-545q68 -117 187 -117q55 0 95 20q83 43 151 -4q67 -47 56 -128q-5 -39 -36 -72q-55 -46 -103 -58t-75 -16v-137q-1 -27 -21 -44t-47 -20h-67q-27 -4 -44 -23
q-18 -19 -18 -48t20 -49q20 -21 51 -21q30 0 50 20q21 20 21 51q0 30 20 49t48 19q65 0 68 -71t-56 -137t-147 -66q-89 0 -150 59q-62 59 -62 148q0 121 108 183q40 24 89 26v54q-167 12 -298 143q-69 69 -109 161q-40 91 -40 189t40 188t108 159q148 150 345 150
q198 0 350 -150z" />
    <glyph glyph-name="Ecaron" unicode="&#x11a;" horiz-adv-x="1007" 
d="M799 276q57 0 97 -40t40 -98t-40 -98t-97 -40h-586q-53 0 -95 40t-42 99v1030q0 53 39 97t98 43h586q57 0 97 -41q40 -42 40 -100t-40 -97t-97 -39h-451v-233h314q55 0 96 -41q41 -40 41 -98t-41 -98t-96 -40h-314v-246h451zM720 1833q44 0 76 -33t32 -76t-31 -73
l-228 -228q-33 -33 -75 -31t-78 31l-244 228q-33 31 -32 75t32 76q31 31 76 32t76 -32l170 -151l151 151q31 31 75 31z" />
    <glyph glyph-name="ecaron" unicode="&#x11b;" horiz-adv-x="1085" 
d="M733 610q-65 115 -187 115q-123 0 -186 -115h373zM894 841q152 -152 150 -345q0 -53 -40 -84t-99 -29h-545q68 -117 187 -117q55 0 95 20q83 43 151 -4q67 -47 56 -128q-5 -39 -36 -72q-95 -77 -266 -82q-99 -4 -189 36t-158 108t-109 161q-40 91 -40 189t40 188t108 159
q148 150 345 150q198 0 350 -150zM759 1495q44 0 76 -33q31 -33 31 -76t-30 -73l-228 -228q-33 -33 -76 -31t-77 31l-244 228q-33 31 -32 76t32 75t76 32q45 1 75 -32l170 -151l152 151q31 31 75 31z" />
    <glyph glyph-name="Ncaron" unicode="&#x147;" horiz-adv-x="1128" 
d="M1061 823v-690q0 -53 -38 -92t-93 -40t-95 35t-40 91v680q0 97 -68 163t-162 66t-160 -63q-67 -63 -67 -156v-684q0 -53 -41 -93t-94 -40t-94 37t-41 90v680q4 206 146 351t349 145t352 -140q146 -140 146 -340zM800 1829q44 0 76 -33t31 -76q0 -43 -30 -73l-228 -228
q-33 -33 -76 -31t-77 31l-244 228q-33 31 -32 75t32 76q31 31 76 32t75 -32l170 -151l152 151q31 31 75 31z" />
    <glyph glyph-name="ncaron" unicode="&#x148;" horiz-adv-x="1120" 
d="M912 857q145 -140 145 -339v-379q0 -53 -38 -92t-93 -40t-96 35q-40 36 -39 91v369q0 97 -68 163t-161 66t-161 -63q-67 -63 -67 -156v-373q0 -53 -41 -93t-94 -40t-95 37q-41 37 -41 90v369q4 207 145 350q143 145 351 145t353 -140zM775 1501q44 0 76 -33
q32 -34 32 -76t-31 -73l-227 -227q-33 -33 -76 -32t-78 32l-244 227q-33 31 -31 76t32 75t75 32q45 1 76 -32l170 -151l151 151q31 31 75 31z" />
    <glyph glyph-name="OE" unicode="&#x152;" horiz-adv-x="2414" 
d="M453 655q0 135 51 254t139 208t208 140t255 52q206 0 378 -121q6 42 42 82t94 39h586q57 0 97 -41q40 -42 40 -100t-40 -97t-97 -39h-451v-233h313q54 0 96 -41q42 -40 42 -98t-41 -98t-97 -40h-313v-246h451q57 0 97 -40t40 -98t-40 -98t-97 -40h-586q-53 0 -92 37
t-44 86q-168 -121 -378 -121q-135 0 -255 51q-241 102 -347 348q-51 119 -51 254zM723 655q0 -79 30 -149q61 -142 203 -204q70 -30 150 -30t148 30q142 62 203 204q19 44 26 91v116q-18 122 -108 212q-113 113 -272 112t-270 -113q-110 -112 -110 -269z" />
    <glyph glyph-name="oe" unicode="&#x153;" horiz-adv-x="1800" 
d="M549 285q47 0 89 18q84 36 122 124q16 37 16 62q0 24 1 40q-8 86 -69 149t-157 65t-163 -63t-68 -161q0 -97 68 -165t161 -69zM923 840q151 151 347 151t349 -150q152 -152 150 -345q1 -53 -39 -84t-100 -29h-545q68 -117 187 -117q55 0 95 20q83 43 151 -4
q67 -47 56 -128q-5 -39 -36 -72q-95 -77 -266 -82q-207 -8 -371 169q-148 -148 -355 -147t-350 143t-143 349q0 208 143 350t353 150q225 0 374 -174zM1458 610q-64 115 -186 115q-123 0 -187 -115h373z" />
    <glyph glyph-name="Rcaron" unicode="&#x158;" horiz-adv-x="1048" 
d="M667 708q56 54 56 135t-55 135t-134 54t-134 -53q-56 -53 -56 -133q0 -79 55 -135t133 -57q79 0 135 54zM913 136q0 -60 -40 -98t-96 -38t-97 39l-336 336v-236q0 -59 -41 -99t-97 -40t-97 40t-41 99v705q4 194 141 330q136 135 326 135q90 0 174 -37q84 -38 147 -100
q139 -138 139 -328q0 -147 -80 -263t-213 -173l172 -172q39 -40 39 -100zM761 1829q44 0 76 -33q31 -33 31 -76t-30 -73l-228 -228q-34 -33 -76 -31t-77 31l-244 228q-33 31 -32 75t32 76q31 31 76 32t76 -32l170 -151l151 151q31 31 75 31z" />
    <glyph glyph-name="rcaron" unicode="&#x159;" horiz-adv-x="702" 
d="M192 -2q-57 0 -94 36t-41 95v379q4 196 147 335q143 138 347 146q57 0 95 -39t40 -94t-37 -93t-91 -39q-102 -2 -167 -68t-65 -162v-373q-4 -53 -40 -88t-94 -35zM591 1493q44 0 76 -33q31 -33 31 -76t-30 -73l-228 -228q-34 -33 -76 -31t-77 31l-244 228q-33 31 -32 75
t32 76q31 31 76 32t76 -32l170 -151l151 151q31 31 75 31z" />
    <glyph glyph-name="sacute" unicode="&#x15b;" horiz-adv-x="1312" 
d="M985 498v12q-5 89 -67 149q-60 63 -154 68q-95 5 -160 -61l-342 -342q-37 -37 -94 -37t-95 38t-41 93t36 92l338 338q148 144 349 146t348 -143t152 -350q4 -204 -135 -343l-22 -23q-153 -137 -350 -135t-340 145q-53 66 -21 139q10 24 29 40q37 38 93 38t105 -46
t139 -49q90 -2 161 64t71 167zM930 1448q52 14 102 -14t64 -84t-14 -106t-83 -64l-245 -68q-55 -14 -106 15q-50 30 -64 86t13 105q28 48 85 64z" />
    <glyph glyph-name="Scaron" unicode="&#x160;" horiz-adv-x="1032" 
d="M458 1044q-124 0 -124 -126q-2 -51 33.5 -85t93.5 -36l131 -2q252 5 339.5 -191.5t39 -311t-134.5 -199.5t-248 -89l-33 -2q-170 -15 -307 66q-109 61 -172 172q-23 40 -23 85t40.5 86.5t92.5 41.5t80 -23.5t52 -61.5q41 -67 157 -98q4 0 17.5 -1l27 -2t66.5 5t86 42
t37 89q-2 49 -35 83t-84 32h-139q-156 8 -275 124t-117 280t87 242.5t169 112.5t170 34q85 -1 151 -13t138 -53q35 -12 115 -88q28 -33 39 -67q12 -55 -18 -104.5t-82 -60.5t-84.5 6t-63.5 44q-33 35 -65.5 52t-156.5 17zM736.5 1872q43.5 0 75.5 -33t32 -76t-31 -73
l-227 -228q-33 -33 -76 -31.5t-78 31.5l-244 228q-33 31 -31.5 75.5t32 75.5t75.5 32t76 -32l170 -151l152 151q31 31 74.5 31z" />
    <glyph glyph-name="scaron" unicode="&#x161;" horiz-adv-x="1302" 
d="M979 498v12q-5 89 -68 149q-60 63 -153 67.5t-160 -60.5l-342 -342q-37 -37 -94.5 -37t-93.5 39q-39 37 -42 92t35 92l338 338q148 144 349.5 146t348.5 -143t152 -350t-135 -343l-22 -23q-153 -137 -350 -135q-196 2 -341 145q-52 64 -31 113t40 66q37 39 93 38.5
t105 -46.5t140 -49q91 -2 161 64.5t70 166.5zM976 1544q44 0 76 -33t31.5 -75.5t-30.5 -73.5l-228 -227q-33 -33 -75.5 -32t-77.5 32l-244 227q-33 31 -32 76t32 75.5t76 31.5t76 -32l170 -151l151 151q31 31 75 31z" />
    <glyph glyph-name="Tcaron" unicode="&#x164;" 
d="M905 1309q59 0 99 -41q40 -42 40 -100t-40 -97t-99 -39h-229v-893q0 -59 -39 -99t-98 -40t-99 40q-39 40 -39 99v893h-231q-57 0 -97 39t-40 97t40 100t97 41h735zM656 1833q44 0 76 -33t32 -76t-31 -73l-227 -228q-33 -33 -76 -31t-78 31l-243 228q-33 31 -32 75t32 76
q31 31 75 32t76 -32l170 -151l152 151q30 31 74 31z" />
    <glyph glyph-name="Ydieresis" unicode="&#x178;" horiz-adv-x="1083" 
d="M831 145q0 -59 -43 -102t-102 -43t-101 43t-42 102v344l-475 586q-37 47 -32 107t51 97q47 38 107 32t99 -54l395 -487l397 487q39 47 99 53t107 -31q46 -38 51 -97t-31 -107l-480 -588v-342zM1026 1620q0 -57 -41 -98t-99 -41t-99 41q-40 41 -39 98q0 57 39 98
q41 41 99 41t99 -41t41 -98zM631 1620q0 -57 -41 -98q-42 -41 -100 -41t-98 41t-40 98t40 98t98 41t100 -41t41 -98z" />
    <glyph glyph-name="Zcaron" unicode="&#x17d;" horiz-adv-x="1142" 
d="M934 276q59 0 98 -40t39 -98t-39 -98t-98 -40h-721q-84 4 -119 72q-16 32 -16 68t20 73l564 819h-453q-55 0 -96 39t-41 97t41 100t96 41h721q80 -4 120 -75q17 -32 17 -70t-23 -74l-565 -814h455zM691 1829q44 0 76 -33t32 -76t-31 -73l-227 -228q-33 -33 -76 -31
t-78 31l-244 228q-33 31 -31 75t31 76q31 31 76 32t76 -32l170 -151l151 151q31 31 75 31z" />
    <glyph glyph-name="zcaron" unicode="&#x17e;" horiz-adv-x="1140" 
d="M936 991q53 0 92 -41t39 -93t-39 -91l-20 -20t-73 -74q-63 -62 -177 -176t-230 -228h408q51 -2 92 -41q39 -43 39 -94t-39 -94q-43 -39 -92 -39h-731q-53 0 -93 40t-38 91q-4 55 37 92l499 502h-405q-55 4 -95 42t-36 93q-2 51 37 91t94 40h731zM710 1497q44 0 76 -33
q32 -34 31 -76q0 -42 -31 -73l-227 -228q-33 -33 -76 -31t-77 31l-244 228q-33 31 -32 76t32 75t76 32q45 1 75 -32l170 -151l152 151q31 31 75 31z" />
    <glyph glyph-name="florin" unicode="&#x192;" horiz-adv-x="772" 
d="M594 1309q66 0 106.5 -33t42.5 -92t-35.5 -96t-87.5 -40t-75 -32t-25 -68v-149q53 -4 89 -42t36 -93.5t-35 -92t-90 -41.5v-462q0 -180 -125 -270t-210 -88t-119.5 45.5t-35.5 92.5t36.5 87t85.5 39t75 31t27 67v458q-55 0 -88 37t-35 93t33 94.5t90 44.5v151
q0 143 102 251t238 108z" />
    <glyph glyph-name="circumflex" unicode="&#x2c6;" horiz-adv-x="909" 
d="M179 1120q-56 0 -97 42t-31 98t49 96l246 246q41 42 97 40t102 -40l266 -246q41 -40 50 -98t-31 -98t-97 -41t-98 40l-191 170l-170 -170q-39 -39 -95 -39z" />
    <glyph glyph-name="caron" unicode="&#x2c7;" horiz-adv-x="768" 
d="M620 1872q44 0 76 -33t31 -76q0 -43 -31 -73l-227 -228q-33 -34 -76 -32t-78 32l-243 228q-33 32 -32 76t32 75q32 31 76 32t75 -32l170 -151l152 151q31 31 75 31z" />
    <glyph glyph-name="ogonek" unicode="&#x2db;" horiz-adv-x="487" 
d="M93.5 -371q-62.5 59 -62.5 148q0 120 73.5 163.5t122.5 45.5v164q0 18 19.5 38.5t49.5 20.5t49.5 -20.5t19.5 -38.5v-240q0 -27 -20.5 -44.5t-47.5 -19.5h-68q-27 -4 -44 -24t-17 -48t20.5 -48.5t50.5 -20.5t50 20.5t20 50.5t20.5 49t48.5 19t47 -16t20 -50t-14 -73
t-57.5 -87t-130.5 -48q-87 0 -149.5 59z" />
    <glyph glyph-name="tilde" unicode="&#x2dc;" horiz-adv-x="1060" 
d="M547 1452l100 -55q33 -23 51 -18t45 38q27 45 75 65t100 -8q52 -30 70 -85q16 -55 -20 -117q-115 -197 -339 -153q-76 15 -115 40l-102 55q-58 38 -102 -31q-22 -35 -70 -55t-100 10t-68 85t20 117t83 100q105 82 252 53q73 -14 120 -41z" />
    <glyph glyph-name="endash" unicode="&#x2013;" horiz-adv-x="931" 
d="M864 617q0 -58 -40 -99t-97 -41h-522q-59 0 -98 41t-39 99t38.5 98.5t98.5 40.5h522q57 0 97 -40.5t40 -98.5z" />
    <glyph glyph-name="emdash" unicode="&#x2014;" horiz-adv-x="1099" 
d="M1030 617q0 -58 -40 -99t-97 -41h-686q-59 0 -98 41t-39 99t38.5 98.5t98.5 40.5h686q57 0 97 -40.5t40 -98.5z" />
    <glyph glyph-name="quoteleft" unicode="&#x2018;" horiz-adv-x="489" 
d="M190 1239q26 47 82 63t106 -15q50 -30 65 -85t-13 -104l-127 -221q-29 -49 -85 -63t-106 14q-50 30 -65 84q-14 54 14 106z" />
    <glyph glyph-name="quoteright" unicode="&#x2019;" horiz-adv-x="489" 
d="M190 1239q26 47 82 63t106 -15q50 -30 65 -85t-13 -104l-127 -221q-29 -49 -85 -63t-106 14q-50 30 -65 84q-14 54 14 106z" />
    <glyph glyph-name="quotesinglbase" unicode="&#x201a;" horiz-adv-x="489" 
d="M190 145q26 47 82 63t106 -14t65 -85t-13 -105l-127 -221q-29 -49 -85 -63t-106 15q-50 30 -65 84q-14 54 14 105z" />
    <glyph glyph-name="quotedblleft" unicode="&#x201c;" horiz-adv-x="917" 
d="M600 1239q27 47 82 63t105 -15q49 -30 65 -85t-12 -104l-127 -221q-29 -49 -85 -63t-106 14q-50 30 -65 84q-14 54 14 106zM209 1239q27 47 82 63t105 -15q50 -30 66 -85t-13 -104l-127 -221q-29 -49 -85 -63q-57 -14 -107 14q-50 30 -64 84t14 106z" />
    <glyph glyph-name="quotedblright" unicode="&#x201d;" horiz-adv-x="917" 
d="M600 1239q27 47 82 63t105 -15q49 -30 65 -85t-12 -104l-127 -221q-29 -49 -85 -63t-106 14q-50 30 -65 84q-14 54 14 106zM209 1239q27 47 82 63t105 -15q50 -30 66 -85t-13 -104l-127 -221q-29 -49 -85 -63q-57 -14 -107 14q-50 30 -64 84t14 106z" />
    <glyph glyph-name="quotedblbase" unicode="&#x201e;" horiz-adv-x="917" 
d="M600 115q27 47 82 63t105 -15q49 -30 65 -85t-12 -105l-127 -221q-29 -49 -85 -63q-56 -15 -106 15t-65 84q-14 54 14 106zM209 115q27 47 82 63t105 -15q50 -30 66 -85t-13 -105l-127 -221q-29 -49 -85 -63q-57 -15 -107 15t-64 84t14 106z" />
    <glyph glyph-name="dagger" unicode="&#x2020;" horiz-adv-x="833" 
d="M815 761q0 -58 -40 -99t-97 -41h-117v-750q0 -59 -43 -102t-102.5 -43t-101.5 43t-42 102v750h-116q-59 0 -98.5 40.5t-39.5 98.5t39 98.5t99 40.5h116v266q0 59 42 102.5t101.5 43.5t102.5 -43t43 -103v-266h117q57 0 97 -40t40 -98z" />
    <glyph glyph-name="daggerdbl" unicode="&#x2021;" horiz-adv-x="827" 
d="M801 899q0 -55 -39 -95t-94 -40h-111v-166h111q55 0 94 -40t39 -95t-39 -95t-94 -40h-111v-457q0 -59 -43 -102t-102.5 -43t-101.5 43t-42 102v457h-106q-57 0 -96 40t-39 95t38.5 95t96.5 40h106v166h-106q-57 0 -96 40t-39 95t38.5 95t96.5 40h106v131q0 59 42 102.5
t101.5 43.5t102.5 -43t43 -103v-131h111q55 0 94 -40t39 -95z" />
    <glyph glyph-name="bullet" unicode="&#x2022;" horiz-adv-x="530" 
d="M53 494q0 86 63 150.5t153 64.5q89 0 149.5 -67t60.5 -149t-61.5 -145t-152.5 -63t-151.5 61.5t-60.5 147.5z" />
    <glyph glyph-name="ellipsis" unicode="&#x2026;" horiz-adv-x="1083" 
d="M1016 139.5q0 -57.5 -41 -98.5t-99 -41t-98.5 41t-40.5 98.5t40 98.5t98 41t99.5 -41t41.5 -98.5zM682 139.5q0 -57.5 -41 -98.5t-99 -41t-98.5 41t-40.5 98.5t40.5 98.5t98.5 41t99 -41t41 -98.5zM348 139.5q0 -57.5 -41 -98.5t-99 -41t-98 41t-40 98.5t40 98.5t98 41
t99 -41t41 -98.5z" />
    <glyph glyph-name="perthousand" unicode="&#x2030;" horiz-adv-x="2484" 
d="M2107 467q-43 0 -74.5 -30.5t-32.5 -77.5t30.5 -76t75.5 -30t76 31.5t32 75.5t-32 75t-75 32zM2113.5 717q143.5 0 244 -106.5t100.5 -248.5t-100.5 -249t-243.5 -107q-160 4 -261.5 100.5t-101.5 272.5q6 141 112.5 239.5t250 98.5zM1350 467q-43 0 -75 -30.5t-33 -77.5
t31 -76t76 -30t75.5 31.5t31.5 75.5t-31.5 75t-74.5 32zM1355.5 717q143.5 0 244 -106.5t100.5 -248.5t-100.5 -249t-243.5 -107q-160 4 -261.5 100.5t-101.5 272.5q6 141 112.5 239.5t250 98.5zM404 1059q-43 0 -75 -31t-33 -78t30.5 -75.5t75.5 -29.5t76 31.5t32 75.5
t-31.5 75t-74.5 32zM409.5 1309q143.5 0 244 -106.5t100.5 -248.5t-100.5 -249t-243.5 -107q-160 4 -261.5 100.5t-101.5 272.5q6 141 112.5 239.5t250 98.5zM967.5 1296q50.5 27 105.5 10t82 -68.5t10 -104.5l-327 -1035q-16 -53 -68.5 -79.5t-106 -10t-80 66.5t-10.5 107
l328 1032q16 55 66.5 82z" />
    <glyph glyph-name="guilsinglleft" unicode="&#x2039;" horiz-adv-x="708" 
d="M641 138q0 -56 -42 -97t-98 -41t-95 39l-349 348q-41 41 -40 97t40 102l349 368q41 41 98 40t97 -41t41 -97t-40 -98l-252 -273l252 -252q39 -39 39 -95z" />
    <glyph glyph-name="guilsinglright" unicode="&#x203a;" horiz-adv-x="710" 
d="M210 0q-56 0 -99 41q-41 41 -41 97t39 95l251 252l-251 273q-41 41 -40 98t41 97t97 41t98 -40l348 -368q39 -46 40 -102t-40 -97l-348 -348q-39 -39 -95 -39z" />
    <glyph glyph-name="Euro" unicode="&#x20ac;" horiz-adv-x="1112" 
d="M494 338q46 -62 144 -62q97 0 157 91q23 35 47 57t79.5 22t96.5 -39.5t41 -99.5q0 -26 -25 -78q-59 -104 -167.5 -166.5t-216.5 -62.5t-236 55t-207 226q-12 29 -21 57h-10q-57 0 -96 37t-39 92t38 94t91 41v78q-53 2 -91 41t-38 94t39 92t96 37q14 38 40 98t127 162.5
t290 102.5q123 0 231.5 -62.5t171.5 -173.5q23 -40 23 -86q0 -45 -41 -86t-92 -41t-79.5 23.5t-52.5 61.5t-66 62.5t-88 24.5q-109 0 -165 -86h23q55 0 94 -37t39 -92t-39 -95t-94 -40h-54v-78h54q55 0 94 -40t39 -95t-39 -92t-94 -37h-4z" />
    <glyph glyph-name="trademark" unicode="&#x2122;" horiz-adv-x="1714" 
d="M1333 1296q23 0 86.5 -12t144.5 -81t81 -240v-222q0 -59 -40.5 -99t-98.5 -40t-98 40t-40 99v185q0 78 -36 78t-36 -78v-185q0 -59 -39.5 -99t-97 -40t-97.5 40t-40 99v185q0 78 -36 78t-36 -78v-185q0 -59 -40 -99t-98 -40t-98 40t-40 99v222q0 175 94 254t217 79
q79 0 174 -45q98 45 174 45zM520 1309q59 0 99 -41.5t40 -99.5t-39.5 -97t-99.5 -39h-24v-278q0 -59 -39 -99.5t-98.5 -40.5t-98.5 40t-39 100v278h-26q-57 0 -97.5 39t-40.5 97t40 99.5t98 41.5h325z" />
    <glyph glyph-name="zcaron.004" horiz-adv-x="1103" 
d="M918 991q53 0 92 -41t39 -93t-39 -91l-192 -192q-191 -191 -308 -306h408q51 -2 92 -41q39 -43 39 -94t-39 -94q-43 -39 -92 -39h-732q-53 0 -93 40t-38 91q-4 55 37 92l500 502h-406q-55 4 -95 42t-36 93q-2 51 37 91t94 40h732zM808 1544q44 0 76 -33t31.5 -75.5
t-30.5 -73.5l-228 -227q-33 -33 -75.5 -32t-77.5 32l-244 227q-33 31 -32 76t32 75.5t76 31.5t76 -32l170 -151l151 151q31 31 75 31z" />
    <glyph glyph-name="Zcaron.003" horiz-adv-x="1097" 
d="M911 276q59 0 98.5 -40t39.5 -98t-39 -98t-99 -40h-721q-82 4 -108.5 53t-26.5 86t21 74l563 819h-453q-55 0 -96 39t-41 97t41 99.5t96 41.5h721q82 -4 109.5 -55.5t27.5 -89.5t-22 -74l-565 -814h454zM806 1870q44 0 76 -33t31.5 -76t-30.5 -73l-228 -228
q-33 -33 -75.5 -31.5t-77.5 31.5l-244 228q-33 31 -32 75.5t32 75.5t76 32t76 -32l170 -151l151 151q31 31 75 31z" />
    <glyph glyph-name="glyph215" horiz-adv-x="1073" 
d="M711 333q67 69 65 163t-66 160t-160 67q-96 2 -162 -63t-68 -162q-1 -96 67 -164t163 -69q94 -1 161 68zM550 2q-209 0 -353 142t-144 349t142 349t354 151q201 0 349 -147t146 -350q0 -102 -38 -192q-81 -186 -263 -264q-90 -38 -193 -38zM263 1237q-27 50 -13 107
q14 56 64 84t102 14l248 -66q57 -16 85 -64q27 -48 13 -104t-64 -87q-50 -30 -106 -15l-246 68q-55 14 -83 63z" />
    </font>
</defs>
</svg>
