<?xml version="1.0" standalone="no"?>
<!DOCTYPE svg PUBLIC "-//W3C//DTD SVG 1.1//EN" "http://www.w3.org/Graphics/SVG/1.1/DTD/svg11.dtd" >
<svg xmlns="http://www.w3.org/2000/svg">
<metadata></metadata>
<defs>
<font id="arista_2.0regular" horiz-adv-x="1154" >
<font-face units-per-em="2048" ascent="1638" descent="-410" />
<missing-glyph horiz-adv-x="492" />
<glyph horiz-adv-x="2048" />
<glyph horiz-adv-x="2048" />
<glyph unicode="&#xd;" horiz-adv-x="2048" />
<glyph unicode=" "  horiz-adv-x="492" />
<glyph unicode="&#x09;" horiz-adv-x="492" />
<glyph unicode="&#xa0;" horiz-adv-x="492" />
<glyph unicode="!" horiz-adv-x="437" d="M71 147q0 61 43 104.5t107 43.5q57 0 101 -43.5t44 -104.5q0 -59 -44 -103t-101 -44q-63 0 -106.5 44t-43.5 103zM71 513v738q0 63 43.5 106.5t106.5 43.5q57 0 101 -43t44 -107v-738q0 -64 -44 -106.5t-101 -42.5q-63 0 -106.5 42.5t-43.5 106.5z" />
<glyph unicode="&#x22;" horiz-adv-x="803" d="M73 979v274q0 61 43.5 104.5t104.5 43.5q64 0 105.5 -43t41.5 -105v-274q0 -61 -41.5 -104t-105.5 -43q-61 0 -104.5 43t-43.5 104zM437 979v274q0 61 43.5 104.5t104.5 43.5q63 0 105 -43t42 -105v-274q0 -61 -42 -104t-105 -43q-61 0 -104.5 43t-43.5 104z" />
<glyph unicode="#" horiz-adv-x="1298" d="M40 515q0 61 42.5 105t105.5 44h94l27 83q-63 0 -106 42.5t-43 107.5q0 59 42.5 101.5t106.5 42.5h92l82 258q17 59 72.5 86.5t115.5 10.5q57 -17 84 -72t12 -112l-57 -171h90l78 258q22 59 76 88t111 9q61 -15 89.5 -70t11.5 -114l-55 -171q61 0 105 -42.5t44 -101.5 q0 -63 -43.5 -106.5t-105.5 -43.5h-95l-23 -83q61 0 104 -43.5t43 -105.5q0 -61 -43 -105t-104 -44h-94l-84 -261q-17 -59 -72 -87.5t-114 -8.5q-59 17 -87.5 71t-8.5 113l54 173h-87l-84 -261q-17 -59 -71 -87.5t-113 -8.5q-59 17 -87 71t-9 113l54 173h-2q-63 0 -105.5 44 t-42.5 105zM596 664h86l26 83h-90z" />
<glyph unicode="$" horiz-adv-x="1167" d="M44 975q0 81 32.5 157.5t91 136t135.5 94.5q70 35 134 38q2 58 43 102q46 46 110 46q63 0 109 -46q44 -44 46 -102h200q59 0 100.5 -43t45.5 -107q0 -63 -41.5 -105t-104.5 -42h-200v-258q59 -6 114 -31q77 -33 136 -90.5t94.5 -136t35.5 -165.5q0 -86 -33.5 -162.5 t-90 -133t-133.5 -92.5q-66 -29 -123 -35q-5 -57 -46 -101q-46 -46 -109 -46q-64 0 -110 46q-41 44 -43 101h-211q-66 0 -107.5 43t-41.5 106q0 59 43 102.5t106 43.5h211v257q-68 7 -130 35q-77 34 -135.5 89.5t-93 132t-34.5 166.5zM339 970q2 -50 38 -87q26 -25 60 -32 v249q-34 -9 -60 -35q-36 -38 -38 -95zM745 303q26 8 48 30q39 37 39 90q0 54 -39 90q-22 21 -48 31v-241z" />
<glyph unicode="%" horiz-adv-x="1842" d="M37 1039q7 151 121 256.5t267 105.5t260.5 -114t107.5 -271q0 -148 -107 -262t-261 -114q-171 4 -279.5 107.5t-108.5 291.5zM303 1023q0 -57 33.5 -87.5t84.5 -32.5q43 0 77.5 35t34.5 78q0 49 -34.5 83t-77.5 34q-49 0 -82.5 -33t-35.5 -77zM600 195l351 1104 q17 59 71 88t113 9q59 -17 87.5 -72t11.5 -112l-351 -1107q-17 -57 -73 -85.5t-113 -10.5q-57 17 -85.5 71t-11.5 115zM1050 406q6 150 120 255.5t267 105.5t261 -114t108 -270q0 -149 -107.5 -263t-261.5 -114q-171 5 -279 108t-108 292zM1315 391q0 -57 33.5 -88t84.5 -33 q44 0 78 34.5t34 78.5q0 48 -34 82.5t-78 34.5q-48 0 -82 -33t-36 -76z" />
<glyph unicode="&#x26;" horiz-adv-x="1309" d="M63 435q2 82 37.5 162t108.5 146q-53 52 -84 121t-31 150q0 80 30.5 150t82.5 122.5t122 82t148 29.5q125 0 216 -67.5t133 -169t26.5 -214t-103.5 -204.5l-26 -22t-24 -22l121 -107l113 127q37 44 93.5 46t98.5 -35q43 -38 45.5 -93.5t-35.5 -99.5l-110 -125l207 -178 q41 -37 44.5 -94t-34.5 -98q-37 -44 -95 -46t-97 35l-204 178l-85 -102q-57 -50 -128.5 -78.5t-155.5 -28.5q-96 0 -174.5 37.5t-132 98.5t-81.5 139t-26 160zM333 421q0 -59 41.5 -102t102.5 -43q59 0 102 42l61 67l-197 176q-48 -13 -79 -51.5t-31 -88.5zM368 1014 q0 -37 29.5 -73t79.5 -36q46 0 79.5 31.5t33.5 77.5t-33.5 79.5t-79.5 33.5t-77.5 -33.5t-31.5 -79.5z" />
<glyph unicode="'" horiz-adv-x="429" d="M65 984v274q0 61 44.5 104t105.5 43q63 0 105 -43t42 -104v-274q0 -61 -42 -104t-105 -43q-61 0 -105.5 42.5t-44.5 104.5z" />
<glyph unicode="(" horiz-adv-x="838" d="M55 241v625q0 107 43.5 203.5t117 171t171.5 118.5t207 44h29q63 0 105.5 -43t42.5 -104q0 -63 -42.5 -105t-105.5 -42q-55 0 -103.5 -30.5t-85.5 -78t-59 -105.5t-22 -111v-512q0 -53 22 -102t59 -87.5t85.5 -60.5t103.5 -22q63 0 105.5 -41.5t42.5 -105.5 q0 -61 -42.5 -103.5t-105.5 -42.5h-29q-109 0 -207 43t-171.5 117t-117 171.5t-43.5 202.5z" />
<glyph unicode=")" horiz-adv-x="841" d="M71 -147q0 64 42.5 105.5t105.5 41.5q55 0 103 22t85.5 60.5t59.5 87.5t22 102v512q0 53 -22 111t-59.5 105.5t-85.5 78t-103 30.5q-63 0 -105.5 41.5t-42.5 105.5q0 61 42 104t106 43h28q107 0 206 -44t172.5 -118.5t117 -171t43.5 -203.5v-625q0 -105 -43.5 -202.5 t-117 -171.5t-172 -117t-206.5 -43h-28q-63 0 -105.5 42t-42.5 104z" />
<glyph unicode="*" horiz-adv-x="799" d="M61.5 1046.5q11.5 51.5 55.5 82.5q-44 31 -55.5 84.5t17.5 103.5q31 48 81.5 63.5t100.5 -8.5q7 56 45.5 92.5t94.5 36.5q57 0 96.5 -36.5t46.5 -88.5q50 19 99 3t78 -62q29 -50 16.5 -104t-55.5 -84q43 -31 55 -82.5t-16 -99.5q-31 -48 -79 -66t-98 2 q-7 -53 -46.5 -87.5t-96.5 -34.5q-56 0 -94.5 34.5t-45.5 89.5q-50 -25 -101 -6.5t-81 68.5q-29 48 -17.5 99.5z" />
<glyph unicode="+" horiz-adv-x="904" d="M27 657q0 63 41 106.5t105 43.5h130v128q0 63 42 106.5t107 43.5q61 0 104.5 -43t43.5 -107v-128h128q63 0 106.5 -43t43.5 -107q0 -61 -43.5 -105t-106.5 -44h-128v-127q0 -63 -43.5 -107t-104.5 -44q-64 0 -106.5 44t-42.5 107v127h-130q-63 0 -104.5 44t-41.5 105z " />
<glyph unicode="," horiz-adv-x="431" d="M65 -123v274q0 59 43.5 103.5t104.5 44.5q63 0 107 -44t44 -104v-274q0 -61 -44 -104t-107 -43q-61 0 -104.5 43t-43.5 104z" />
<glyph unicode="-" horiz-adv-x="987" d="M67 659q0 63 42 106.5t106 43.5h559q61 0 103.5 -43.5t42.5 -106.5q0 -61 -42.5 -105t-103.5 -44h-559q-63 0 -105.5 44t-42.5 105z" />
<glyph unicode="." horiz-adv-x="404" d="M55 149q0 61 42.5 105.5t103.5 44.5q63 0 107.5 -44.5t44.5 -105.5t-44 -105t-108 -44q-61 0 -103.5 44t-42.5 105z" />
<glyph unicode="/" horiz-adv-x="707" d="M37 193l350 1104q17 59 74 87.5t114 9.5q56 -17 84.5 -72t11.5 -113l-351 -1106q-17 -57 -72 -85.5t-112 -11.5q-59 18 -88 72t-11 115z" />
<glyph unicode="0" horiz-adv-x="1165" d="M52 531q0 109 41 204t112 166.5t169 114t209 47.5q107 0 203.5 -42t169 -114t115 -168.5t42.5 -207.5q0 -109 -41.5 -205t-113 -168t-168 -114t-207.5 -42q-109 0 -206 39.5t-169 111t-114 167.5t-42 211zM337 531q0 -51 20 -95.5t54 -79t78 -54.5t94 -20t95 20t78 54.5 t52.5 79t19.5 95.5q-4 100 -72 170t-173 75q-50 0 -94 -19t-78 -51.5t-54 -77.5t-20 -97z" />
<glyph unicode="1" horiz-adv-x="619" d="M29.5 836.5q14.5 58.5 68.5 87.5q230 149 289 150q63 0 110 -46t47 -110v-774q0 -58 -42 -101t-101 -43h-27q-60 0 -102 43t-42 101v525q-46 -25 -98 -10q-57 15 -86 69q-31 50 -16.5 108.5z" />
<glyph unicode="2" horiz-adv-x="1058" d="M61 168.5q2 57.5 75 105.5l487 359q37 27 38 64q-2 48 -35.5 72t-99.5 22q-58 0 -105 -33t-74 -81q-25 -37 -55.5 -62t-78.5 -25q-61 0 -105.5 43.5t-44.5 104.5q0 59 47 131t138 125.5t152.5 65t107.5 11.5q117 0 194.5 -24t140 -75.5t101 -121.5t38.5 -162 q0 -136 -121 -224l-232 -169h224q59 0 102.5 -41t43.5 -105q0 -61 -43.5 -105t-102.5 -44h-642q-42 2 -76 24t-55 54.5t-19 90z" />
<glyph unicode="3" horiz-adv-x="1073" d="M59 7q4 37 21.5 67.5t50 50t72.5 19.5q57 0 102 -43q27 -20 43 -44t35.5 -46t47 -36.5t95.5 -14.5q84 0 139.5 56.5t55.5 138.5q0 81 -56 137.5t-139 56.5h-79q-13 -2 -26 -2q-11 0 -20 2h2h-2q-48 6 -83 44q-46 44 -46 103.5t44 103.5l175 178h-232q-63 0 -105.5 44 t-42.5 105q0 63 42 106t106 43h536q19 0 37 -5q51 -3 92 -41q44 -48 44 -109.5t-41 -105.5l-212 -213q85 -37 153 -100q67 -65 107.5 -154t40.5 -193q0 -103 -37.5 -191.5t-104.5 -155.5t-157 -105t-191 -38q-81 0 -149 20t-129.5 54.5t-110.5 84t-70 111.5q-12 35 -8 72z " />
<glyph unicode="4" horiz-adv-x="1002" d="M27 149v2l243 828q29 57 79 84.5t107 5.5q59 -21 89 -80.5t-1 -114.5l-193 -579h197q2 59 45 101.5t99 42.5q63 0 106 -42t45 -102q57 -4 98 -47t41 -99q0 -59 -40.5 -102t-98.5 -47v-217q0 -40 -43.5 -82t-107.5 -42q-59 0 -101.5 42t-42.5 82v217h-375q-61 0 -103.5 43 t-42.5 106z" />
<glyph unicode="5" horiz-adv-x="1060" d="M63 504v420q0 64 44 107t106 43h543q64 0 106.5 -42.5t42.5 -107.5q0 -61 -42.5 -103.5t-106.5 -42.5h-403v-125h166q96 -2 185 -39t157 -103t108.5 -154.5t40.5 -191.5q0 -111 -38.5 -200.5t-105 -156.5t-156 -105t-191.5 -38q-71 0 -133 20t-123.5 54.5t-110.5 84 t-69 111.5q-12 35 -8 72t21 67.5t49.5 50t73.5 19.5q57 0 101 -43q27 -20 43 -44t35.5 -46t47 -36.5t73.5 -14.5q83 0 139.5 56.5t56.5 148.5q0 81 -56.5 136.5t-139.5 55.5h-306q-57 0 -103.5 43t-46.5 104z" />
<glyph unicode="6" d="M53.5 600q11.5 105 65.5 197l322 562q31 48 87.5 58.5t102.5 -14.5q53 -31 68.5 -88t-13.5 -106l-81 -142q123 -9 238 -76q99 -55 162.5 -140.5t89 -183.5t12.5 -201.5t-68 -197.5q-55 -97 -139.5 -159.5t-183 -88.5t-202.5 -14t-198 67q-95 52 -157.5 139t-89.5 185 t-15.5 203zM336 564q-5 -47 7 -92t40.5 -85t74.5 -67q44 -25 91 -30t92 7t84.5 40.5t65.5 72.5q24 44 30.5 92t-5 94t-39.5 85.5t-74 65.5q-42 24 -90 29.5t-94 -5t-85 -40.5t-66 -76q-27 -44 -32 -91z" />
<glyph unicode="7" horiz-adv-x="1095" d="M55 924q0 61 43.5 105.5t102.5 44.5h728q41 -2 75.5 -24t53 -56t18.5 -69.5t-24 -89.5l-600 -1096q-42 -55 -104.5 -64.5t-113.5 22.5q-50 33 -62 91.5t21 108.5l478 881h-470q-59 0 -102.5 41.5t-43.5 104.5z" />
<glyph unicode="8" horiz-adv-x="1090" d="M50 495q0 101 38.5 191t104.5 155q15 15 31 29q-42 81 -42 197q6 142 113.5 242t250.5 100q144 0 246.5 -107.5t102.5 -251.5q0 -90 -40 -167q21 -17 42 -37q67 -65 106.5 -156.5t39.5 -194.5q0 -102 -39.5 -192t-105.5 -157t-156.5 -106.5t-193.5 -39.5t-194 37.5 t-158 104.5t-106.5 156t-39.5 197zM349 495q0 -43 16 -78.5t44 -63t61.5 -44t77.5 -16.5q42 0 76.5 16.5t61.5 44t43 63t16 78.5q-5 82 -59.5 137.5t-137.5 59.5q-44 0 -77.5 -15.5t-61.5 -41.5t-44 -62t-16 -78zM443 1056q0 -52 29.5 -80.5t77.5 -28.5q42 0 71.5 30.5 t29.5 72.5q0 44 -29.5 74.5t-71.5 30.5q-44 0 -74.5 -28.5t-32.5 -70.5z" />
<glyph unicode="9" horiz-adv-x="1152" d="M48 610.5q13 104.5 69 198.5q54 96 138 158.5t183 89t203 14t198 -66.5q94 -53 156.5 -139.5t90 -185t15.5 -204t-64 -197.5l-322 -560q-31 -49 -88.5 -60t-103.5 16q-52 31 -67 87.5t13 104.5l81 143q-123 8 -239 77q-98 54 -161.5 139.5t-89 183t-12.5 202z M332.5 574.5q-6.5 -48.5 6 -94.5t40 -85.5t73.5 -66.5q41 -24 89.5 -29.5t94.5 6t85 40.5t65 76q27 43 32.5 90.5t-6.5 92t-40.5 85.5t-74.5 67q-44 25 -91 30t-92 -7t-84 -40.5t-66 -71.5q-25 -44 -31.5 -92.5z" />
<glyph unicode=":" horiz-adv-x="418" d="M61 149q0 61 43 105.5t105 44.5q63 0 107 -44.5t44 -105.5t-44 -105t-107 -44q-61 0 -104.5 44t-43.5 105zM61 914q0 61 43 105t105 44q63 0 107 -44t44 -105t-44 -105t-107 -44q-61 0 -104.5 44t-43.5 105z" />
<glyph unicode=";" horiz-adv-x="429" d="M65 -123q0 -61 43 -104t105 -43q63 0 107 43t44 104v274q0 59 -44 103.5t-107 44.5q-61 0 -104.5 -44t-43.5 -104v-274zM65 914q0 61 43 105t105 44q63 0 107 -44t44 -105t-44 -105t-107 -44q-61 0 -104.5 44t-43.5 105z" />
<glyph unicode="&#x3c;" horiz-adv-x="841" d="M16 657.5q1 39.5 18.5 74.5t48.5 50l478 255q52 29 109.5 11t85.5 -71q29 -53 10 -109.5t-72 -85.5l-236 -127l236 -124q53 -29 71.5 -86.5t-9.5 -109.5q-28 -53 -85.5 -70.5t-109.5 11.5l-478 253q-35 17 -51.5 53t-15.5 75.5z" />
<glyph unicode="=" horiz-adv-x="968" d="M71 583q0 59 41 102t103 43h541q59 0 101 -43t42 -102t-42 -101.5t-101 -42.5h-541q-61 0 -102.5 42t-41.5 102zM71 962q0 59 41 101.5t103 42.5h541q59 0 101 -42.5t42 -101.5t-42 -102t-101 -43h-541q-61 0 -102.5 43t-41.5 102z" />
<glyph unicode="&#x3e;" horiz-adv-x="845" d="M77.5 444.5q18.5 57.5 71.5 86.5l236 124l-236 127q-53 29 -71.5 85.5t10.5 109.5q29 52 85.5 70t108.5 -10l479 -255q31 -15 48 -50t18 -74.5t-15.5 -75.5t-50.5 -53l-479 -253q-52 -29 -108.5 -11.5t-85.5 70.5q-29 52 -10.5 109.5z" />
<glyph unicode="?" horiz-adv-x="956" d="M42 941q0 87 31.5 170t89.5 148t140.5 103.5t183.5 38.5q92 0 171.5 -35.5t141 -94.5t96.5 -140t35 -173q0 -77 -23 -144t-65 -124q-57 -77 -143.5 -126t-189.5 -54v-2q0 -59 -42.5 -102.5t-105.5 -43.5q-61 0 -103 43.5t-42 102.5v149v16q0 57 44 94.5t101 41.5h144 q55 6 92.5 49t37.5 100q0 63 -44 107t-105 44q-63 0 -107.5 -44t-44.5 -107q0 -61 -44 -104t-105 -43q-57 0 -98.5 36t-45.5 94zM217 147q0 58 42 101t101 43q61 0 103.5 -43t42.5 -101q0 -61 -42.5 -104t-103.5 -43q-59 0 -101 43t-42 104z" />
<glyph unicode="@" horiz-adv-x="1599" d="M52 646q0 155 59.5 292.5t161 239.5t239 161t293.5 59q155 0 291 -59t237.5 -161t161 -239t59.5 -293q0 -44 -3.5 -90t-18.5 -89q-31 -93 -112 -151.5t-186 -62.5q-114 0 -201 73q-101 -75 -228 -73q-80 0 -151 30.5t-125 84t-86.5 124.5t-32.5 154q0 82 30.5 154 t84.5 125.5t126 84.5t154 31q102 0 188 -48t138 -127q31 -49 48 -103.5t17 -116.5q0 -19 -3 -37.5t-3 -36.5q0 -41 42 -41q12 0 23.5 9.5t15.5 22.5q7 39 7 83q0 132 -64 235q-61 107 -170 173t-239 66q-99 0 -184.5 -37.5t-150 -102t-102 -150t-37.5 -184.5 q0 -98 37.5 -183.5t102 -150.5t149.5 -102t185 -37q77 0 140 22q29 10 57 12q56 0 97 -41t41 -99q0 -43 -26.5 -79t-70.5 -53q-116 -40 -238 -40q-156 0 -293.5 59t-239 161t-161 239t-59.5 292zM688 646q0 -48 33 -81.5t84 -33.5q48 0 81.5 33.5t33.5 81.5t-33.5 82.5 t-81.5 34.5q-51 0 -84 -34.5t-33 -82.5z" />
<glyph unicode="A" horiz-adv-x="1198" d="M67 142v728q3 109 43.5 206t111.5 169t168 114t210 42q105 0 202 -38.5t169 -107.5t116 -163.5t44 -204.5v-738q0 -57 -40.5 -98.5t-99.5 -44.5q-59 0 -102 38.5t-43 97.5v257h-489v-250q0 -57 -43.5 -100t-100.5 -43t-101.5 40t-44.5 96zM357 684h489v186q0 50 -18.5 95 t-53 78t-79 52.5t-97.5 19.5q-48 0 -92 -18t-76.5 -49.5t-52.5 -75t-20 -91.5v-197z" />
<glyph unicode="B" horiz-adv-x="1209" d="M77 147v1111q0 33 17 61q11 22 29 40q37 39 90 44h23h489q88 0 164.5 -33.5t134 -83.5t90 -125.5t32.5 -163.5q0 -83 -27.5 -153t-75.5 -127q48 -55 75.5 -126.5t27.5 -149.5q0 -88 -32.5 -173.5t-90 -143t-134 -91t-164.5 -33.5h-489h-10q-68 4 -107 42q-42 44 -42 105z M366 291h359q55 0 94.5 38.5t39.5 117.5t-39.5 117t-94.5 38h-359v-311zM366 855h359q55 0 94.5 39t39.5 97q0 54 -39.5 92.5t-94.5 38.5h-359v-267z" />
<glyph unicode="C" horiz-adv-x="1134" d="M59 513v357q0 109 40.5 206t111.5 169t167.5 114t215.5 42q63 0 114 -12q90 -15 166 -59q117 -65 184 -184q9 -15 17 -37t8 -42q0 -61 -44 -105t-106 -44q-48 0 -78.5 25t-54.5 63q-26 44 -72 70q-38 22 -97 37q-17 2 -39 2q-53 0 -96.5 -18t-77 -49.5t-52.5 -75 t-19 -91.5v-350v-10q0 -45 16 -85q18 -44 52 -78t79 -53.5t102 -19.5h27q65 12 105 37q43 27 72 71q25 37 50.5 60.5t84.5 23.5t103.5 -42t44.5 -107q0 -21 -8 -40.5t-19 -42.5q-63 -111 -179 -178t-264 -67h-19q-109 0 -206 38.5t-169 107.5t-116 163t-44 204z" />
<glyph unicode="D" horiz-adv-x="1187" d="M77 149v1102q0 57 43 103.5t106 46.5h401q96 0 187 -38.5t160 -106.5t111 -158t42 -195v-405q0 -99 -41 -189t-108.5 -159t-158.5 -109.5t-192 -40.5h-401q-59 0 -104 43t-45 106zM372 299h255q42 0 79 14.5t64 42t42.5 64t15.5 78.5v405q0 42 -15.5 77.5t-42.5 63 t-64 43t-79 15.5h-255v-803z" />
<glyph unicode="E" horiz-adv-x="1068" d="M77 149v1102q0 57 41.5 103.5t105.5 46.5h627q61 0 103.5 -44t42.5 -106q0 -63 -42.5 -105t-103.5 -42h-483v-249h335q59 0 103.5 -44t44.5 -106q0 -61 -44 -103.5t-104 -42.5h-335v-264h483q61 0 103.5 -43t42.5 -103q0 -63 -42.5 -106t-103.5 -43h-627q-57 0 -102 43 t-45 106z" />
<glyph unicode="F" horiz-adv-x="1014" d="M77 149v1102q0 57 43 103.5t106 46.5h627q61 0 103.5 -44t42.5 -106q0 -63 -42.5 -105t-103.5 -42h-479v-326h331q63 0 105.5 -44t42.5 -105t-42 -103.5t-106 -42.5h-331v-334q0 -63 -42.5 -106t-105.5 -43t-106 43t-43 106z" />
<glyph unicode="G" horiz-adv-x="1178" d="M59 515v357q0 109 40.5 206t111.5 169t167.5 114t215.5 42q63 0 114 -12q90 -15 166 -59q117 -65 184 -184q9 -15 17 -37t8 -42q0 -61 -44 -105t-106 -44q-48 0 -78.5 25t-54.5 63q-26 44 -72 71q-38 21 -97 36q-17 2 -39 2q-53 0 -96.5 -18t-77 -49t-52.5 -75t-19 -92 v-350v-12q0 -53 16 -89q18 -39 52 -72.5t79 -53t102 -21.5q57 0 95.5 17.5t70 49t51 75.5t19.5 90h-50q-59 0 -101.5 42.5t-42.5 104.5q0 64 42.5 106.5t101.5 42.5h193q63 0 105 -42.5t47 -106.5v-133q-7 -109 -47.5 -206t-111.5 -169.5t-168 -114t-210 -41.5 q-107 2 -203 40q-96 39 -168 108t-116 163.5t-44 203.5z" />
<glyph unicode="H" horiz-adv-x="1224" d="M77 147v1104q0 67 47 107t108 40t104 -43.5t43 -103.5v-446h478v446q0 59 44 103t96 44q57 0 104 -41.5t47 -105.5v-1104q0 -29 -11.5 -55.5t-33.5 -46.5t-50 -32.5t-56 -12.5q-52 0 -96 43t-44 104v359h-478v-359q0 -61 -43 -104t-104 -43q-67 0 -110 41.5t-45 105.5z " />
<glyph unicode="I" horiz-adv-x="446" d="M75 147v1104q0 59 42.5 103t106.5 44q58 0 101 -43.5t43 -103.5v-1104q0 -61 -43 -104t-101 -43q-64 0 -106.5 43t-42.5 104z" />
<glyph unicode="J" horiz-adv-x="724" d="M17 147q0 61 43 104.5t103 43.5q41 0 79 15.5t65.5 43t44 65t16.5 79.5v753q0 59 42 103t100 44q64 0 107.5 -43.5t43.5 -103.5v-753q-2 -105 -40 -194t-105 -156t-157.5 -106.5t-195.5 -41.5q-59 0 -102.5 41.5t-43.5 105.5z" />
<glyph unicode="K" horiz-adv-x="1211" d="M77 147v1104q0 59 44 103t105 44q63 0 105.5 -43.5t42.5 -103.5v-344l511 448q46 43 106.5 43t104.5 -43q44 -44 44 -104.5t-44 -104.5l-513 -447l513 -450q44 -44 44 -103.5t-44 -105.5q-44 -42 -104.5 -42t-106.5 42l-511 451v-344q0 -61 -42.5 -104t-105.5 -43 q-61 0 -105 43t-44 104z" />
<glyph unicode="L" horiz-adv-x="1058" d="M77 151v1102q0 61 44 104.5t107 43.5q57 0 101.5 -43t44.5 -105v-954h529q59 0 102 -43t43 -105q0 -63 -43 -106t-102 -43h-675q-63 0 -105 43t-46 106z" />
<glyph unicode="M" horiz-adv-x="1621" d="M73 149v807q0 85 33.5 166t94 142.5t141.5 99t173 37.5q83 0 156.5 -31t139.5 -84q63 50 136.5 82.5t158.5 32.5q90 0 169.5 -35.5t138 -97t95 -141t40.5 -171.5v-807q0 -63 -43.5 -106t-102.5 -43q-63 0 -106.5 43t-43.5 106v789q0 64 -42.5 106.5t-104.5 42.5 q-61 0 -104.5 -42.5t-43.5 -106.5v-789q0 -63 -43 -106t-104 -43t-104 43t-43 106v789q0 64 -42.5 106.5t-106.5 42.5q-61 0 -104 -42.5t-43 -106.5v-789q0 -63 -43 -106t-106 -43q-61 0 -103.5 43t-42.5 106z" />
<glyph unicode="N" horiz-adv-x="1198" d="M67 136v727q3 110 43.5 206.5t111.5 169t168 114t210 41.5q105 0 202 -38.5t169 -107.5t116 -163t44 -204v-739q0 -56 -40.5 -98t-99.5 -44q-59 0 -102 38.5t-43 97.5v727q0 51 -18.5 96t-53 77.5t-79 52.5t-97.5 20q-48 0 -92 -19t-76.5 -49.5t-52.5 -74.5t-20 -92v-732 q0 -56 -43.5 -99t-100.5 -43t-101.5 39.5t-44.5 96.5z" />
<glyph unicode="O" horiz-adv-x="1182" d="M59 513v357q0 109 40.5 206t111.5 169t167.5 114t215.5 42q105 0 201.5 -38.5t169 -107.5t116.5 -163.5t44 -204.5v-356q0 -109 -41 -206t-112 -169.5t-168 -114t-210 -41.5q-109 0 -206 38.5t-169 107.5t-116 163t-44 204zM347 531v-10q0 -45 16 -85q18 -44 52 -78 t79 -53.5t102 -19.5q48 0 92 18.5t76.5 49t52.5 74.5t20 92l2 351q0 50 -18.5 95t-52.5 78t-79 52.5t-97 19.5q-53 0 -96.5 -18t-77 -49.5t-52.5 -75t-19 -91.5v-350z" />
<glyph unicode="P" horiz-adv-x="1163" d="M77 147v1111q0 61 43 104t104 43h383q109 0 207 -42t170 -114t114 -170t42 -207t-42 -207t-114 -170t-169.5 -114t-207.5 -42h-237v-192q0 -61 -42.5 -104t-103.5 -43t-104 43t-43 104zM370 633h237q48 0 92 19t77 51.5t51.5 75.5t18.5 93q0 48 -18.5 92t-51.5 77 t-77 51.5t-92 18.5h-237v-478z" />
<glyph unicode="Q" horiz-adv-x="1318" d="M57 513v357q0 109 40.5 206t111.5 169t167.5 114t215.5 42q105 0 201 -38.5t169 -107.5t116.5 -163.5t43.5 -204.5v-356q0 -109 -41 -207q-22 -54 -56 -103q21 -6 44 3q26 8 52 8q29 0 57 -10q54 -19 73 -78q10 -28 10 -55q0 -32 -13 -62q-25 -56 -98 -82 q-65 -21 -123 -21h-14q-64 3 -130 39q-53 28 -94 72q-92 -35 -197 -35q-109 0 -206 38.5t-169.5 107.5t-116 163t-43.5 204zM345 535q41 46 104 67q70 25 132 25q11 0 21 -1q71 -5 134 -32q53 -19 99 -59l2 335q0 50 -18.5 95t-52.5 78t-79 52.5t-97 19.5q-53 0 -97 -18 t-77 -49.5t-52 -75t-19 -91.5v-346zM498 301q43 -16 83 -19q48 3 80 11q-13 33 -46 48q-15 6 -31 6q-25 0 -55 -14q-22 -17 -31 -32z" />
<glyph unicode="R" horiz-adv-x="1194" d="M75 147v1111q0 61 42.5 104t103.5 43h384q109 0 207 -42t170 -114t113.5 -169.5t41.5 -207.5q0 -144 -69 -263.5t-183 -190.5l167 -161q42 -44 42 -105.5t-44 -105.5q-40 -44 -101.5 -44t-105.5 44l-297 293h-178v-192q0 -61 -43 -104t-104 -43t-103.5 43t-42.5 104z M368 633h237q48 0 91.5 19t77 51.5t51.5 75.5t18 93q0 48 -18 92t-51.5 77t-77 51.5t-91.5 18.5h-237v-478z" />
<glyph unicode="S" horiz-adv-x="1110" d="M59 975q0 81 33 157.5t91 136t135 96t165 36.5h389q59 0 100.5 -43t46.5 -107q0 -63 -42 -105t-105 -42h-389q-53 0 -89.5 -38t-38.5 -96q2 -50 38 -85.5t90 -35.5h148q82 0 157 -33.5t134.5 -91t94.5 -136t35 -165.5q0 -86 -32.5 -162.5t-90 -133t-134 -91t-164.5 -36.5 h-390q-66 0 -107.5 43t-41.5 106q0 59 43 102.5t106 43.5h390q51 0 90.5 37.5t39.5 90.5q0 54 -38.5 90.5t-89.5 38.5h-150q-84 2 -161 35.5t-135 89t-93 132t-35 166.5z" />
<glyph unicode="T" horiz-adv-x="1148" d="M33 1251q0 61 43 105.5t104 44.5h786q63 0 106 -44t43 -106q0 -63 -42.5 -105t-106.5 -42h-245v-955q0 -63 -41.5 -106t-104.5 -43q-64 0 -106 43t-42 106v955h-247q-61 0 -104 42t-43 105z" />
<glyph unicode="U" horiz-adv-x="1198" d="M67 537v728q0 56 44 96t102 40q57 0 100.5 -43t43.5 -100v-732q0 -48 20 -91.5t52.5 -75t76.5 -50t92 -18.5q53 0 97.5 20t79 53t53 78t18.5 95v728q0 59 42.5 97.5t102.5 38.5q59 -3 99.5 -44.5t40.5 -98.5v-739q0 -109 -44 -203.5t-116 -163.5t-169 -107.5t-202 -38.5 q-113 0 -210 42t-168 114t-111 168.5t-44 206.5z" />
<glyph unicode="V" horiz-adv-x="1294" d="M55 1198q-10 27 -10 53q0 30 13 60q25 56 82 80q26 10 52 10q30 1 61 -13q56 -24 78 -84l320 -750l315 750q22 59 78 84q30 13 60 13q26 0 53 -10q56 -25 81 -80q13 -29 13 -58q0 -27 -11 -55l-451 -1102q-18 -44 -56.5 -70t-81.5 -26q-42 0 -81 28.5t-57 67.5z" />
<glyph unicode="W" horiz-adv-x="1621" d="M73 445v806q0 61 41 105.5t103 44.5q63 0 105 -44t42 -106v-791q0 -61 45 -103.5t104 -42.5q58 0 103 42.5t45 103.5v793q0 61 43 105.5t107 44.5q61 0 104 -44t43 -106v-793q0 -61 42.5 -103.5t101.5 -42.5q63 0 106 42.5t43 103.5v791q0 61 44 105.5t106 44.5 q58 0 103 -44t45 -106v-806q-2 -90 -37 -170t-95 -141t-141.5 -97.5t-173.5 -36.5q-79 0 -155.5 28.5t-135.5 84.5q-63 -52 -137 -81.5t-161 -31.5q-92 0 -170 33.5t-136 94t-93 142t-41 175.5z" />
<glyph unicode="X" horiz-adv-x="1211" d="M76 1276q12 60 62 98q38 27 82 27q14 0 28 -3q60 -11 97 -62l262 -374l259 374q37 51 97 62q14 3 28 3q44 0 83 -27q50 -38 62 -98q3 -14 3 -27q0 -44 -28 -83l-322 -467l322 -465q27 -38 27 -84q0 -14 -2 -28q-10 -62 -62 -95q-38 -29 -82 -29q-14 0 -28 3 q-60 12 -98 62l-259 376l-262 -376q-37 -50 -97 -62q-15 -3 -28 -3q-44 0 -82 29q-27 17 -42 42t-20 53q-2 13 -2 27q0 16 3 31q6 29 24 54l322 465l-322 467q-29 38 -29 82q1 13 4 28z" />
<glyph unicode="Y" horiz-adv-x="1088" d="M40 1058v195q0 61 42.5 104.5t101.5 43.5q63 0 106 -43t43 -105v-195q0 -90 60.5 -149.5t150.5 -59.5q89 0 150.5 59.5t61.5 149.5v195q0 61 42.5 104.5t102.5 43.5q63 0 106 -43t43 -105v-195v-2q0 -86 -27.5 -163.5t-75.5 -141t-115 -109.5t-146 -67v-428 q0 -61 -43 -104t-102 -43q-63 0 -105.5 43t-42.5 104v430q-77 24 -142 69.5t-112 109.5t-73 140.5t-26 161.5z" />
<glyph unicode="Z" horiz-adv-x="1213" d="M73 1251q0 61 43.5 105.5t102.5 44.5h772q42 -3 75.5 -24.5t52 -56t18.5 -75t-24 -79.5l-605 -871h487q63 0 105 -43t42 -103q0 -63 -42 -106t-105 -43h-771q-44 2 -77.5 23t-50.5 53.5t-17 72t22 79.5l2 2l600 874h-484q-59 0 -102.5 42t-43.5 105z" />
<glyph unicode="[" horiz-adv-x="680" d="M77 -157v1424q9 54 47.5 94t99.5 42h245q61 0 103.5 -43t42.5 -104q0 -63 -42 -105t-104 -42h-99v-1109h99q61 0 103.5 -41.5t42.5 -105.5q0 -61 -42 -103.5t-104 -42.5h-245q-61 0 -99.5 40t-47.5 96z" />
<glyph unicode="\" horiz-adv-x="707" d="M37 1209q-17 57 11.5 112.5t85.5 72.5q56 19 112.5 -9t73.5 -88l351 -1104q17 -61 -11.5 -114.5t-87.5 -72.5q-56 -17 -111 11.5t-74 85.5z" />
<glyph unicode="]" horiz-adv-x="682" d="M67 -147q0 64 43.5 105.5t104.5 41.5h99v1109h-99q-61 0 -104.5 41.5t-43.5 105.5q0 61 43 104t105 43h245q61 -2 99.5 -42t47.5 -94v-1424q-9 -55 -47.5 -95.5t-99.5 -40.5h-245q-61 0 -104.5 42t-43.5 104z" />
<glyph unicode="^" horiz-adv-x="1246" d="M57 675l418 642q27 44 65.5 70t82.5 26q41 0 80.5 -28t70.5 -68l416 -642q21 -57 -4 -113t-82 -79q-56 -22 -112.5 2.5t-94.5 83.5l-274 397l-278 -397q-36 -59 -92 -84t-113 -2q-57 24 -81 79.5t-2 112.5z" />
<glyph unicode="_" horiz-adv-x="1167" d="M71 151q0 63 41 106.5t105 43.5h734q61 0 104 -43.5t43 -106.5q0 -61 -43 -105t-104 -44h-734q-63 0 -104.5 44t-41.5 105z" />
<glyph unicode="`" horiz-adv-x="656" d="M55 1385q15 58 69 88t108 15l266 -70q61 -17 90.5 -69t13.5 -111q-15 -61 -68.5 -93t-112.5 -16l-264 72q-59 15 -88 67.5t-14 116.5z" />
<glyph unicode="a" horiz-adv-x="1178" d="M52 531q0 56 12.5 108.5t33.5 103.5q64 142 193.5 229.5t293.5 87.5h31.5t29.5 -2q99 -10 185.5 -56t149 -117.5t98.5 -162.5t36 -191v-389q0 -59 -43.5 -100.5t-98.5 -41.5q-77 0 -122 71q-11 -5 -20 -10.5t-18 -10.5q-52 -24 -108 -37q-57 -13 -120 -13q-164 0 -293 89 t-194 229q-21 50 -33.5 102.5t-12.5 110.5zM339 531q0 -51 21 -95.5t55 -78t78 -53t90 -19.5q50 0 95 18.5t78 51t52.5 77.5t19.5 99q0 48 -19.5 93t-53.5 78.5t-79 53.5t-93 20t-92 -20t-78 -53.5t-54 -78.5t-20 -93z" />
<glyph unicode="b" d="M67 531v734q0 26 13.5 51t33.5 43.5t45 30.5q20 9 41 9q6 0 11 -1q6 1 11 1q24 -1 44 -11q26 -12 46.5 -32t31.5 -47t11 -56v-251q77 39 159 51q41 6 82 6q42 0 82 -6q82 -12 158 -48.5t141 -97.5q77 -79 115.5 -170t38.5 -206q0 -109 -43 -206t-115 -169.5t-168.5 -114 t-204.5 -41.5q-105 0 -201 43t-170 115t-118 168.5t-44 204.5zM355 531q0 -51 20 -95.5t53.5 -78t77.5 -53t94 -19.5q48 0 93 19.5t79.5 53t54 78t19.5 95.5q0 50 -19.5 95t-54 77.5t-79.5 52.5t-93 20q-50 0 -94 -21t-77.5 -54.5t-53.5 -78.5t-20 -91z" />
<glyph unicode="c" horiz-adv-x="1046" d="M50 531q0 105 43 201t116 168.5t170 116t204 43.5q219 0 373 -153q34 -38 34 -90v-9q-3 -58 -43 -93q-39 -38 -101 -40h-6q-58 0 -95 40q-68 61 -162 61q-50 0 -95 -21t-79.5 -54.5t-54 -77.5t-19.5 -92q0 -51 19.5 -95.5t55 -79t79.5 -54.5q38 -17 81 -17h13 q96 0 162 60q39 43 99 43h2q62 0 101 -43q19 -18 30.5 -42.5t12.5 -50.5v-5q0 -23 -8 -47q-9 -26 -26 -45q-78 -77 -170 -116t-203 -39q-109 0 -206 43t-169 115t-115 168.5t-43 204.5z" />
<glyph unicode="d" d="M25 531q0 107 42 203t116 168.5t170 115t203 42.5q132 0 244 -58v251q0 29 12 55t31.5 46t46 31t55.5 11q57 0 99.5 -40.5t42.5 -104.5v-720q0 -107 -42.5 -204t-116 -169t-170.5 -115t-202 -43q-104 0 -200.5 41.5t-170.5 114t-117 169t-43 206.5zM309 531 q0 -51 20 -95.5t53.5 -78t78.5 -53t95 -19.5q49 0 92.5 19.5t78 54t54 78t19.5 94.5q0 52 -19.5 97t-54 77.5t-78 51.5t-92.5 19q-50 0 -95 -20t-78.5 -53.5t-53.5 -78.5t-20 -93z" />
<glyph unicode="e" horiz-adv-x="1156" d="M52 531q0 102 43 198.5t115 170t169 117t204 43.5q105 0 201.5 -43.5t170 -117t117 -168.5t43.5 -200q-1 -57 -43 -90q-40 -31 -99 -31h-7h-583q73 -125 200 -125q35 0 59.5 7t42.5 15.5t36.5 14.5t43.5 6q46 -2 79.5 -26t50.5 -60q13 -27 13 -57q0 -10 -2 -20 q-6 -42 -38 -77q-59 -48 -131.5 -67t-153.5 -21h-18q-95 0 -183 38q-96 42 -170 116t-117 172.5t-43 204.5zM383 653h399q-37 67 -87.5 95t-111.5 28q-63 0 -112.5 -27.5t-87.5 -95.5z" />
<glyph unicode="f" horiz-adv-x="826" d="M31 -167q0 57 40 97.5t98 42.5q44 0 73.5 32t29.5 72v436q-103 0 -138.5 39.5t-39.5 102.5q0 57 37.5 97.5t140.5 47.5v216q0 75 28 144t78.5 122.5t118.5 86t145 32.5q63 0 107 -35.5t48 -105.5q0 -56 -40 -95.5t-102 -44.5q-46 -2 -72.5 -33t-26.5 -73v-214 q101 -4 139.5 -44.5t38.5 -100.5q0 -59 -37.5 -98.5t-140.5 -43.5v-440q0 -63 -20.5 -122.5t-57.5 -106.5t-89 -84.5t-117 -58.5q-37 -11 -75 -11h-7q-41 1 -75 17.5t-58 47t-26 78.5z" />
<glyph unicode="g" horiz-adv-x="1165" d="M48 531q0 107 44 203t117 168.5t168.5 115t201.5 42.5q109 0 205.5 -41.5t168.5 -114t112.5 -168.5t40.5 -205q0 -149 -63 -263q63 -86 63 -279v-12q0 -58 -26 -127q-30 -76 -79.5 -128.5t-117.5 -84.5t-147 -36h-75h-13h-69q-55 -4 -96 -46q-44 -42 -104.5 -42 t-104.5 44q-42 40 -45 96v8q0 51 34 90q65 83 193 120q57 17 123 20h161q34 4 53 28q37 55 37 103q0 15 -4 30v3q-44 -25 -99.5 -40t-147.5 -15q-117 0 -214 39.5t-167.5 109.5t-110 167.5t-39.5 214.5zM333 531q0 -48 18.5 -93t52 -79.5t78 -55.5t97.5 -21q52 0 98 20 t79 55.5t51.5 79t18.5 94.5q0 50 -21 95t-54.5 77.5t-78.5 52.5t-93 20t-92 -21t-78.5 -54.5t-55 -77.5t-20.5 -92z" />
<glyph unicode="h" horiz-adv-x="1171" d="M77 132v1126q4 55 42.5 94t99.5 39q57 0 97.5 -39t45.5 -103v-252q50 33 118 46t129 13q107 0 204 -39.5t169 -109.5t115 -164.5t43 -201.5v-401q0 -59 -41 -100.5t-102 -43.5q-56 0 -96 38.5t-48 97.5v394q0 49 -19 93.5t-52 78.5t-77 53.5t-96 19.5q-99 0 -168 -67.5 t-79 -166.5v-397q0 -59 -41 -100.5t-102 -43.5q-54 0 -92.5 38.5t-49.5 97.5z" />
<glyph unicode="i" horiz-adv-x="429" d="M73 127v793q4 57 45.5 94.5t98.5 39.5q57 0 95.5 -42t42.5 -100v-776q0 -59 -37.5 -98.5t-100.5 -43.5q-57 0 -96.5 34.5t-47.5 98.5zM73 1253q2 57 44.5 96.5t99.5 39.5t97.5 -42.5t40.5 -99.5t-40.5 -100t-97.5 -43q-63 2 -103.5 40.5t-40.5 108.5z" />
<glyph unicode="j" horiz-adv-x="613" d="M19 -167q0 57 41 97.5t97 42.5q44 0 74 32t30 72v843q4 57 46 94.5t99 39.5q56 0 94.5 -42t43.5 -100v-839v-11q0 -57 -19 -112q-21 -59 -58.5 -106t-89 -84.5t-116.5 -58.5q-37 -11 -75 -11h-6q-42 1 -75.5 17.5t-58.5 47t-27 78.5zM261 1253q2 57 45 96.5t100 39.5 q56 0 97 -42.5t41 -99.5t-41 -100t-97 -43q-64 2 -104.5 40.5t-40.5 108.5z" />
<glyph unicode="k" horiz-adv-x="981" d="M77 147v1106q0 57 44 102.5t105 45.5t103.5 -43t42.5 -105v-550l331 332q43 43 100 43h3q60 -2 106 -43q44 -44 44 -104.5t-44 -104.5l-289 -289l289 -288q44 -44 44 -103.5t-44 -103.5q-44 -40 -104 -43h-7q-55 0 -98 43l-331 328v-223q0 -57 -43.5 -102t-102.5 -45 q-57 0 -103 43t-46 104z" />
<glyph unicode="l" horiz-adv-x="623" d="M67 383v875q7 55 47 94.5t99 41.5q59 0 99.5 -41.5t44.5 -103.5v-866q0 -44 28.5 -74.5t72.5 -30.5q57 0 99.5 -39.5t44.5 -98.5q0 -52 -35.5 -93t-93.5 -49h-30q-77 0 -145 31.5t-119.5 84.5t-81.5 123t-30 146z" />
<glyph unicode="m" horiz-adv-x="1412" d="M73 142v540q0 77 30.5 146t83 120t123.5 81.5t152 30.5q66 0 128.5 -20.5t114.5 -64.5q105 85 246 85q77 0 148.5 -29t125 -79.5t85 -120.5t31.5 -149v-550q0 -53 -44 -92.5t-101 -39.5q-56 0 -99 43t-43 99v533q0 42 -29.5 70.5t-73.5 28.5q-37 0 -68.5 -25.5 t-31.5 -73.5v-533q0 -59 -43 -100.5t-103 -41.5q-54 0 -98 38.5t-44 93.5v543q-2 44 -32.5 71.5t-68.5 27.5q-41 0 -70.5 -28.5t-31.5 -72.5v-544q-5 -52 -45.5 -90.5t-97.5 -38.5q-31 0 -57 10.5t-46 30.5t-32 46q-10 22 -9 46v9z" />
<glyph unicode="n" horiz-adv-x="1191" d="M63 142v395q2 109 43 205.5t112 169t168 114t210 41.5q105 0 202 -38t169 -107t116 -163.5t44 -204.5v-405q0 -57 -41 -98.5t-99 -44.5q-59 0 -102.5 38.5t-43.5 97.5v395q0 50 -18 95t-52.5 78t-79.5 52.5t-97 19.5q-48 0 -92 -18.5t-76.5 -49t-52.5 -74.5t-20 -92v-399 q0 -57 -44 -100t-100 -43q-57 0 -101.5 40t-44.5 96z" />
<glyph unicode="o" horiz-adv-x="1165" d="M52 531q0 109 41 204t112 166.5t169 114t209 47.5q107 0 203.5 -42t169 -114t115 -168.5t42.5 -207.5q0 -109 -41.5 -205t-113 -168t-168 -114t-207.5 -42q-109 0 -206 39.5t-169 111t-114 167.5t-42 211zM337 531q0 -51 20 -95.5t54 -79t78 -54.5t94 -20t95 20t78 54.5 t52.5 79t19.5 95.5q-4 100 -72 170t-173 75q-50 0 -94 -19t-78 -51.5t-54 -77.5t-20 -97z" />
<glyph unicode="p" d="M67 -203v734q0 107 43 203t116 168.5t169 115t205 42.5q107 0 204 -41.5t169 -114t115 -168.5t43 -205t-40.5 -206t-112 -169.5t-168.5 -114t-210 -41.5q-136 0 -245 55v-252q0 -57 -41.5 -98.5t-102.5 -41.5q-55 0 -97.5 38t-46.5 96zM355 531q0 -55 20 -100.5t53.5 -78 t78.5 -51.5t93 -19q53 0 96.5 20t77 54.5t51.5 79t18 95.5q0 50 -19 95t-52.5 77.5t-77 51.5t-94.5 19q-52 0 -97 -20t-77.5 -52.5t-51.5 -76.5t-19 -94z" />
<glyph unicode="q" d="M25 533q0 109 41 205.5t114 168.5t169 114t205 42q107 0 205 -43t170.5 -115.5t115 -168.5t42.5 -203v-734q-2 -57 -45 -95.5t-97 -38.5q-61 0 -103 41t-42 99v252q-109 -55 -246 -55q-111 0 -209 42t-169 114t-111 168.5t-40 206.5zM311 533q0 -50 19 -95t51.5 -79.5 t76.5 -54t96 -19.5q48 0 93 18.5t79.5 51t54 78t19.5 100.5q0 50 -18.5 94t-51.5 76.5t-78 52.5t-98 20q-50 0 -94 -19t-76.5 -51.5t-52.5 -77.5t-20 -95z" />
<glyph unicode="r" horiz-adv-x="746" d="M57 138v406q2 104 44.5 197.5t114 162.5t166.5 109.5t203 44.5q61 0 102 -41.5t45 -100.5q0 -59 -42 -99.5t-103 -42.5q-50 0 -94 -19t-77 -51.5t-52 -77.5t-19 -97v-400q-5 -56 -44 -93.5t-102 -37.5q-59 0 -98.5 38.5t-43.5 101.5z" />
<glyph unicode="s" horiz-adv-x="1029" d="M63 728q0 65 25 126.5t69 107.5t103.5 73.5t130.5 29.5h389q59 0 98.5 -45t39.5 -96q0 -56 -43 -99t-95 -43h-377q-26 0 -45 -15.5t-19 -43.5q0 -31 19 -47.5t45 -16.5h248q67 0 125.5 -28.5t101 -75.5t66.5 -99.5t24 -118.5v-10q0 -67 -25 -126q-27 -63 -73 -107 t-107.5 -69t-137.5 -25h-404q-56 0 -98 39.5t-42 98.5q0 55 39.5 99.5t96.5 47.5h404q58 0 58 52q0 59 -58 60h-242q-65 0 -123.5 27.5t-101.5 75.5t-67 104.5t-24 123.5z" />
<glyph unicode="t" horiz-adv-x="1044" d="M65 541v722q0 58 45.5 98t104.5 40q61 0 103 -43t46 -107v-175h376q64 0 103.5 -43.5t39.5 -103.5q0 -57 -44 -102t-99 -45h-376v-241q0 -50 18.5 -95t51.5 -80t77.5 -55t97.5 -20q57 0 97.5 15.5t71.5 46.5q46 40 102 41h2q54 0 102 -43q22 -19 33 -45t12 -53v-5 q0 -24 -8 -48q-9 -26 -28 -47q-77 -75 -169 -114t-197 -39q-113 0 -214.5 38.5t-178.5 109.5t-122 170.5t-47 222.5z" />
<glyph unicode="u" horiz-adv-x="1191" d="M63 515v403q0 57 41.5 99.5t102.5 45.5q56 0 100 -43t44 -104v-385q0 -51 20 -95.5t52.5 -78t77.5 -53t95 -19.5q48 0 92 17.5t78 48t53.5 74.5t19.5 94v399q0 55 41.5 98.5t101.5 46.5q59 0 102 -43t45 -96v-393q0 -109 -42 -206t-114 -169.5t-168.5 -114t-208.5 -41.5 h-19q-95 0 -182 36q-96 40 -170 111.5t-118 167t-44 200.5z" />
<glyph unicode="v" horiz-adv-x="1031" d="M58 976q24 54 82 78q27 10 53 10q30 0 59 -12q55 -24 79 -82l186 -420l184 420q25 57 81 81q30 13 59 13q26 0 51 -10q57 -24 81 -78q12 -27 12 -54.5t-12 -55.5l-318 -774q-11 -25 -47 -58.5t-87 -33.5q-44 0 -83 21t-57 71l-322 774q-13 28 -13 56q0 27 12 54z" />
<glyph unicode="w" horiz-adv-x="1412" d="M73 379v539v9q-1 24 9 46q12 26 32 46t46 30.5t57 10.5q57 0 97.5 -38t45.5 -91v-544q2 -44 31.5 -72t70.5 -28q38 0 68.5 27t32.5 71v548q0 55 44 93.5t98 38.5q59 0 102.5 -41.5t43.5 -101.5v-537q0 -48 31.5 -73t68.5 -25q44 0 73.5 29t29.5 69v533q0 57 43 99.5 t99 42.5q57 0 101 -39t44 -92v-550q0 -79 -31.5 -149t-85 -120.5t-125 -80t-148.5 -29.5q-140 0 -246 86q-52 -44 -114.5 -65t-128.5 -21q-81 0 -152 30.5t-123.5 82.5t-83 121t-30.5 145z" />
<glyph unicode="x" horiz-adv-x="1200" d="M70 137v9q0 53 39 93l292 292l-292 291q-38 37 -38 84q0 6 1 12q5 55 41 98q45 45 95 45q5 -1 9 -1q55 -4 99 -44l284 -284l292 287q41 40 95 40h3q56 -1 99 -43q40 -39 40 -98t-40 -101l-284 -286l284 -288q40 -40 42 -100v-5q0 -57 -42 -98q-39 -40 -99.5 -40 t-104.5 46l-285 280l-284 -286q-40 -36 -100 -40h-9q-53 0 -94 40q-39 39 -43 97z" />
<glyph unicode="y" horiz-adv-x="1171" d="M31 548v374q0 57 40.5 99t101.5 42q55 0 100 -37t45 -97v-396q0 -50 18.5 -94t51.5 -77.5t77.5 -53t97.5 -19.5q46 0 91 17.5t79 48t55 73.5t21 93v401q0 57 40 99t102 42q57 0 101 -38t44 -96v-1126q0 -57 -44 -96.5t-101 -39.5q-54 0 -98 39t-44 104v251 q-50 -31 -115 -45t-131 -14q-107 0 -203.5 42t-169.5 114t-116 171.5t-43 218.5z" />
<glyph unicode="z" horiz-adv-x="1209" d="M75 140v10q0 52 38 89l535 537h-427h-6q-59 4 -98 44q-42 38 -42 91v9q-2 55 42 99q39 41 98 41h782q57 0 99 -41q41 -46 41 -99q0 -59 -41 -100q-11 -11 -22 -22.5t-22 -21.5l-244.5 -244.5t-246.5 -244.5h436q55 -2 99 -44q41 -46 41 -103q0 -52 -41 -98 q-46 -42 -99 -42h-6h-715h-55h-6q-57 0 -98 42q-44 44 -42 98z" />
<glyph unicode="{" horiz-adv-x="959" d="M29 552q0 63 42 107t107 44v163q0 107 42.5 203.5t116 170t171 117.5t205.5 44h27q61 0 105 -43t44 -105q0 -61 -43.5 -104t-105.5 -43q-54 0 -102 -30.5t-84.5 -77.5t-58.5 -104t-22 -112v-510q0 -53 22 -102t58.5 -87.5t84.5 -60.5t102 -22q61 0 105 -43t44 -101 q0 -64 -43.5 -106.5t-105.5 -42.5h-27q-107 0 -205 43t-171.5 117t-116 171.5t-42.5 204.5v163q-64 0 -106.5 42.5t-42.5 103.5z" />
<glyph unicode="|" horiz-adv-x="462" d="M75 -138v1385q0 63 45 109.5t108 46.5t109 -46t46 -110v-1385q0 -63 -46 -109t-109 -46t-108 46t-45 109z" />
<glyph unicode="}" horiz-adv-x="959" d="M71 -144q0 58 43.5 101t104.5 43q55 0 103 22t84.5 60.5t58.5 87.5t22 102v510q0 55 -22 112t-58.5 104t-84.5 77.5t-103 30.5q-61 0 -104.5 43t-43.5 104t43 104.5t105 43.5h28q107 0 205 -44t171.5 -117.5t116 -170t42.5 -203.5v-163q63 0 106 -44t43 -107 q0 -61 -42.5 -103.5t-106.5 -42.5v-163q0 -107 -42.5 -204.5t-116 -171.5t-171 -117t-205.5 -43h-28q-61 0 -104.5 42t-43.5 107z" />
<glyph unicode="~" horiz-adv-x="1129" d="M74.5 565.5q-17.5 59.5 19.5 124.5q40 68 91 107.5t121.5 56t145.5 1.5q12 -4 25 -9q56 -6 106 -35l107 -60q19 -19 53 -11q33 7 50 34q29 48 80 70t109 -12q55 -31 73.5 -89.5t-20.5 -124.5q-40 -67 -91.5 -108t-122 -56t-144.5 -2q-19 6 -39 10q-48 9 -90 36l-109 58 q-20 18 -54 11q-33 -8 -48 -34q-31 -46 -82.5 -68t-107.5 10q-55 31 -72.5 90.5z" />
<glyph unicode="&#xa2;" horiz-adv-x="1005" d="M31 531q0 105 43 201t116 168.5t170 115.5l31 14v107q0 64 44.5 110t108.5 46q63 0 109 -46t46 -110v-94q133 -33 236 -136q38 -41 34.5 -98.5t-42.5 -93.5q-40 -38 -101 -40t-101 40q-12 10 -26 19v-412q13 11 26 23q40 43 101 42.5t101 -42.5q19 -18 30 -42.5t12 -50.5 t-7.5 -51.5t-26.5 -45.5q-77 -77 -168 -115q-33 -15 -68 -25v-113q0 -64 -46 -110.5t-109 -46.5q-64 0 -108.5 46t-44.5 111v127q-18 6 -34 13q-96 44 -168 116t-115 168.5t-43 204.5zM316 531q0 -51 19.5 -95.5t55.5 -80.5v346q-37 -34 -56 -78t-19 -92z" />
<glyph unicode="&#xa3;" horiz-adv-x="1163" d="M46 561q0 56 38.5 98t101.5 51v296q0 77 29.5 148t81.5 125.5t122 88t148 33.5q65 0 110.5 -36.5t50.5 -108.5q0 -59 -42 -100t-105 -45q-40 0 -73 -32q-29 -31 -28 -73v-296q57 -4 96 -46.5t42 -102.5q0 -61 -38.5 -100.5t-99.5 -44.5v-123h504q61 0 104 -43t43 -103 q0 -61 -43 -104t-104 -43h-649q-63 0 -106 43t-43 106v267q-61 0 -98.5 39.5t-41.5 105.5z" />
<glyph unicode="&#xa5;" d="M51.5 1270.5q9.5 59.5 59.5 96.5q51 36 111 24.5t94 -63.5l261 -370l255 370q36 52 96.5 63.5t108.5 -24.5q52 -37 64 -96t-25 -112l-223 -337q57 -2 97.5 -45t40.5 -100q0 -59 -42 -101.5t-100 -42.5h-130v-58h130q58 0 100 -41t42 -101q0 -59 -42 -101t-100 -42h-130 v-48q0 -59 -41.5 -100.5t-100.5 -41.5t-101 41.5t-42 100.5v48h-129q-59 0 -100.5 42t-41.5 101t41 100.5t101 41.5h129v58h-127q-61 0 -102.5 42.5t-41.5 101.5q0 57 39 98.5t97 46.5l-224 337q-33 52 -23.5 111.5z" />
<glyph unicode="&#xa8;" horiz-adv-x="853" d="M67 1334q0 61 43 105t105 44q63 0 107 -44t44 -105t-44 -104.5t-107 -43.5q-61 0 -104.5 43.5t-43.5 104.5zM491 1334q0 61 43 105t104 44q63 0 107 -44t44 -105t-44 -104.5t-107 -43.5q-61 0 -104 43.5t-43 104.5z" />
<glyph unicode="&#xa9;" horiz-adv-x="1618" d="M71 544.5q-21 147.5 19 298.5q39 149 132.5 265.5t217 189t270.5 93.5q53 6 107 7v3q156 0 291.5 -59.5t238 -161t161 -238.5t58.5 -294q0 -98 -23 -194q-42 -149 -134 -266t-217 -190t-273 -95t-298 20q-149 40 -267 133t-190 217t-93 271.5zM347.5 583 q14.5 -92 59.5 -171t118 -137t167 -85q97 -24 189 -10.5t171 59.5t137 119t84 168q20 75 15 141q-4 19 -2 38q-11 96 -59 178q-61 107 -171 173q-46 27 -94 44l-24 6q-43 11 -73 13.5t-48 2.5q-63 0 -123 -18q-118 -31 -209.5 -118t-124.5 -215q-27 -96 -12.5 -188z M421 647.5q0 75.5 29.5 149t86.5 130.5q75 72 169 98.5t186 9.5q57 -13 107.5 -40t94.5 -71q12 -10 19 -25q27 -40 22.5 -87t-39.5 -84q-38 -38 -99 -42l-6 -7l-9 7q-37 2 -68 31q-7 6 -15 13q-38 37 -84 36t-81 -36q-35 -36 -34 -83t34 -82q35 -33 82 -33.5t83 33.5l8 10 q40 33 95.5 31.5t95.5 -41.5q37 -37 40.5 -87.5t-25.5 -92.5l-17 -17q-55 -54 -127 -82.5t-149 -28.5t-150.5 27t-132.5 84q-57 59 -86.5 131.5t-29.5 148z" />
<glyph unicode="&#xab;" horiz-adv-x="1437" d="M43 517.5q1 59.5 43 107.5l372 396q44 42 105.5 42t107.5 -47q39 -39 40.5 -101t-40.5 -104l-270 -292l268 -270q41 -41 41 -101t-43 -104q-44 -44 -104.5 -44t-102.5 42l-372 370q-46 46 -45 105.5zM695.5 518.5q1.5 60.5 42.5 108.5l373 394q44 44 105.5 43t104.5 -45 q42 -42 43 -103t-43 -105l-269 -292l269 -270q42 -41 42 -101t-44 -104q-46 -44 -106.5 -44t-101.5 42l-373 372q-44 44 -42.5 104.5z" />
<glyph unicode="&#xad;" horiz-adv-x="987" d="M67 659q0 63 42 106.5t106 43.5h559q61 0 103.5 -43.5t42.5 -106.5q0 -61 -42.5 -105t-103.5 -44h-559q-63 0 -105.5 44t-42.5 105z" />
<glyph unicode="&#xae;" horiz-adv-x="1618" d="M71 544.5q-21 147.5 19 298.5q39 149 132.5 265.5t217 189t223.5 88t154 15.5q156 0 291.5 -59.5t238 -161t161 -238.5t58.5 -294q0 -98 -23 -194q-42 -149 -134 -266t-217 -190t-273 -95t-298 20q-149 40 -267 133t-190 217t-93 271.5zM347.5 583q14.5 -92 59.5 -171 t118 -137t167 -85q97 -24 189 -10.5t171 59.5t137 119t84 168q20 75 15 141l-2 38q-11 96 -59 178q-61 107 -171 173q-46 27 -94 44l-24 6q-43 11 -73 13.5t-48 2.5q-63 0 -123 -18q-118 -31 -209.5 -118t-124.5 -215q-27 -96 -12.5 -188zM552 393q0 -59 42 -101.5 t100 -42.5q59 0 101 42t42 102v240q0 49 33 82.5t83 33.5q59 0 102 41.5t43 101.5q0 59 -43 102t-102 43q-83 0 -156.5 -32t-128.5 -87t-85.5 -128t-30.5 -157v-240z" />
<glyph unicode="&#xb4;" horiz-adv-x="654" d="M55 1238q-15 59 14 111t91 69l265 70q54 15 108 -15t69 -88q15 -64 -14 -116t-88 -68l-264 -72q-58 -15 -111.5 16.5t-69.5 92.5z" />
<glyph unicode="&#xb8;" horiz-adv-x="514" d="M42 -230q2 29 23 46t48 17q31 0 53 -21t22 -51q0 -33 22 -55t55 -22q31 0 52.5 22t21.5 55q0 29 -18 49.5t-47 24.5h-73q-29 2 -50.5 21t-21.5 48v6v250q0 20 21 42t51 22q33 0 54 -22t21 -42v-175q52 -2 95 -27t72 -63q21 -29 32.5 -62.5t11.5 -71.5q0 -46 -17.5 -86.5 t-48 -70t-70.5 -47t-86 -17.5q-50 0 -91.5 18.5t-70 51.5t-45 74.5t-16.5 85.5z" />
<glyph unicode="&#xbb;" horiz-adv-x="1437" d="M74 916q1 61 43 103q43 44 104 45t105 -43l373 -394q41 -48 42.5 -108.5t-42.5 -104.5l-373 -372q-41 -42 -101 -42t-106 44q-44 44 -44 104.5t42 100.5l268 270l-268 292q-44 44 -43 105zM726.5 915q1.5 62 40.5 101q46 47 107 47t105 -42l373 -396q42 -48 43 -107.5 t-45 -105.5l-373 -370q-42 -42 -102 -42t-104 44q-43 44 -43 104.5t41 100.5l268 270l-270 292q-42 42 -40.5 104z" />
<glyph unicode="&#xc1;" horiz-adv-x="1150" d="M67 142v728q3 109 43.5 206t111.5 169t168 114t210 42q105 0 202 -38.5t169 -107.5t116 -163.5t44 -204.5v-738q0 -57 -40.5 -98.5t-99.5 -44.5q-59 0 -102 38.5t-43 97.5v257h-489v-250q0 -57 -43.5 -100t-100.5 -43t-101.5 40t-44.5 96zM357 684h489v186q0 50 -18.5 95 t-53 78t-79 52.5t-97.5 19.5q-48 0 -92 -18t-76.5 -49.5t-52.5 -75t-20 -91.5v-197zM442 1644q-15 59 14 111t91 69l265 70q54 15 108 -15t69 -88q15 -64 -14 -116t-88 -68l-264 -72q-58 -15 -111.5 16.5t-69.5 92.5z" />
<glyph unicode="&#xc9;" horiz-adv-x="1007" d="M77 149v1102q0 57 41.5 103.5t105.5 46.5h627q61 0 103.5 -44t42.5 -106q0 -63 -42.5 -105t-103.5 -42h-483v-249h335q59 0 103.5 -44t44.5 -106q0 -61 -44 -103.5t-104 -42.5h-335v-264h483q61 0 103.5 -43t42.5 -103q0 -63 -42.5 -106t-103.5 -43h-627q-57 0 -102 43 t-45 106zM412 1641q-15 59 14 111t91 69l265 70q54 15 108 -15t69 -88q15 -64 -14 -116t-88 -68l-264 -72q-58 -15 -111.5 16.5t-69.5 92.5z" />
<glyph unicode="&#xcd;" horiz-adv-x="579" d="M122 1639q-15 59 14 111t91 69l265 70q54 15 108 -15t69 -88q15 -64 -14 -116t-88 -68l-264 -72q-58 -15 -111.5 16.5t-69.5 92.5zM167 147v1104q0 59 42.5 103t106.5 44q58 0 101 -43.5t43 -103.5v-1104q0 -61 -43 -104t-101 -43q-64 0 -106.5 43t-42.5 104z" />
<glyph unicode="&#xd3;" horiz-adv-x="1182" d="M59 513v357q0 109 40.5 206t111.5 169t167.5 114t215.5 42q105 0 201.5 -38.5t169 -107.5t116.5 -163.5t44 -204.5v-356q0 -109 -41 -206t-112 -169.5t-168 -114t-210 -41.5q-109 0 -206 38.5t-169 107.5t-116 163t-44 204zM347 531q-2 -51 16 -95.5t52 -78t79 -53 t102 -19.5q48 0 92 18.5t76.5 49t52.5 74.5t20 92l2 351q0 50 -18.5 95t-52.5 78t-79 52.5t-97 19.5q-53 0 -96.5 -18t-77 -49.5t-52.5 -75t-19 -91.5v-350zM373 1637q-15 59 14 111t91 69l265 70q54 15 108 -15t69 -88q15 -64 -14 -116t-88 -68l-264 -72 q-58 -15 -111.5 16.5t-69.5 92.5z" />
<glyph unicode="&#xd6;" horiz-adv-x="1182" d="M59 513v357q0 109 40.5 206t111.5 169t167.5 114t215.5 42q105 0 201.5 -38.5t169 -107.5t116.5 -163.5t44 -204.5v-356q0 -109 -41 -206t-112 -169.5t-168 -114t-210 -41.5q-109 0 -206 38.5t-169 107.5t-116 163t-44 204zM230 1725q0 61 43 105t105 44q63 0 107 -44 t44 -105t-44 -104.5t-107 -43.5q-61 0 -104.5 43.5t-43.5 104.5zM347 531q-2 -51 16 -95.5t52 -78t79 -53t102 -19.5q48 0 92 18.5t76.5 49t52.5 74.5t20 92l2 351q0 50 -18.5 95t-52.5 78t-79 52.5t-97 19.5q-53 0 -96.5 -18t-77 -49.5t-52.5 -75t-19 -91.5v-350zM654 1725 q0 61 43 105t104 44q63 0 107 -44t44 -105t-44 -104.5t-107 -43.5q-61 0 -104 43.5t-43 104.5z" />
<glyph unicode="&#xda;" horiz-adv-x="1150" d="M67 537v728q0 56 44 96t102 40q57 0 100.5 -43t43.5 -100v-732q0 -48 20 -91.5t52.5 -75t76.5 -50t92 -18.5q53 0 97.5 20t79 53t53 78t18.5 95v728q0 59 42.5 97.5t102.5 38.5q59 -3 99.5 -44.5t40.5 -98.5v-739q0 -109 -44 -203.5t-116 -163.5t-169 -107.5t-202 -38.5 q-113 0 -210 42t-168 114t-111 168.5t-44 206.5zM371 1641q-15 59 14 111t91 69l265 70q54 15 108 -15t69 -88q15 -64 -14 -116t-88 -68l-264 -72q-58 -15 -111.5 16.5t-69.5 92.5z" />
<glyph unicode="&#xdc;" horiz-adv-x="1150" d="M67 537v728q0 56 44 96t102 40q57 0 100.5 -43t43.5 -100v-732q0 -48 20 -91.5t52.5 -75t76.5 -50t92 -18.5q53 0 97.5 20t79 53t53 78t18.5 95v728q0 59 42.5 97.5t102.5 38.5q59 -3 99.5 -44.5t40.5 -98.5v-739q0 -109 -44 -203.5t-116 -163.5t-169 -107.5t-202 -38.5 q-113 0 -210 42t-168 114t-111 168.5t-44 206.5zM238 1721q0 61 43 105t105 44q63 0 107 -44t44 -105t-44 -104.5t-107 -43.5q-61 0 -104.5 43.5t-43.5 104.5zM662 1721q0 61 43 105t104 44q63 0 107 -44t44 -105t-44 -104.5t-107 -43.5q-61 0 -104 43.5t-43 104.5z" />
<glyph unicode="&#xe1;" horiz-adv-x="1150" d="M52 531q0 56 12.5 108.5t33.5 103.5q64 142 193.5 229.5t293.5 87.5h31.5t29.5 -2q99 -10 185.5 -56t149 -117.5t98.5 -162.5t36 -191v-389q0 -59 -43.5 -100.5t-98.5 -41.5q-77 0 -122 71q-11 -5 -20 -10.5t-18 -10.5q-52 -24 -108 -37q-57 -13 -120 -13q-164 0 -293 89 t-194 229q-21 50 -33.5 102.5t-12.5 110.5zM339 531q0 -51 21 -95.5t55 -78t78 -53t90 -19.5q50 0 95 18.5t78 51t52.5 77.5t19.5 99q0 48 -19.5 93t-53.5 78.5t-79 53.5t-93 20t-92 -20t-78 -53.5t-54 -78.5t-20 -93zM350 1293q-15 59 14 111t91 69l265 70q54 15 108 -15 t69 -88q15 -64 -14 -116t-88 -68l-264 -72q-58 -15 -111.5 16.5t-69.5 92.5z" />
<glyph unicode="&#xe9;" horiz-adv-x="1150" d="M52 531q0 102 43 198.5t115 170t169 117t204 43.5q105 0 201.5 -43.5t170 -117t117 -168.5t43.5 -200q0 -57 -42.5 -90t-106.5 -31h-583q73 -125 200 -125q35 0 59.5 7t42.5 15.5t36.5 14.5t43.5 6q46 -2 79.5 -26t50.5 -59.5t11.5 -77.5t-38.5 -77q-59 -48 -131.5 -67 t-153.5 -21q-105 -4 -201.5 38.5t-170 116t-116.5 172t-43 204.5zM383 653h399q-37 67 -87.5 95t-111.5 28q-63 0 -112.5 -27.5t-87.5 -95.5zM404 1293q-15 59 14 111t91 69l265 70q54 15 108 -15t69 -88q15 -64 -14 -116t-88 -68l-264 -72q-58 -15 -111.5 16.5t-69.5 92.5z " />
<glyph unicode="&#xed;" horiz-adv-x="661" d="M65 147v765q0 58 43.5 102t106.5 44q59 0 102 -44t43 -102v-765q0 -61 -43 -104t-102 -43q-63 0 -106.5 43t-43.5 104zM81 1293q-15 58 14.5 110t90.5 69l266 71q54 15 108 -14.5t69 -88.5q15 -63 -14.5 -116t-88.5 -68l-263 -73q-59 -15 -113 17t-69 93z" />
<glyph unicode="&#xf3;" horiz-adv-x="1148" d="M52 531q0 109 41 204t112 166.5t169 114t209 47.5q107 0 203.5 -42t169 -114t115 -168.5t42.5 -207.5q0 -109 -41.5 -205t-113 -168t-168 -114t-207.5 -42q-109 0 -206 39.5t-169 111t-114 167.5t-42 211zM337 531q0 -51 20 -95.5t54 -79t78 -54.5t94 -20t95 20t78 54.5 t52.5 79t19.5 95.5q-4 100 -72 170t-173 75q-50 0 -94 -19t-78 -51.5t-54 -77.5t-20 -97zM358 1299q-15 59 14 111t91 69l265 70q54 15 108 -15t69 -88q15 -64 -14 -116t-88 -68l-264 -72q-58 -15 -111.5 16.5t-69.5 92.5z" />
<glyph unicode="&#xf6;" horiz-adv-x="1148" d="M52 531q0 109 41 204t112 166.5t169 114t209 47.5q107 0 203.5 -42t169 -114t115 -168.5t42.5 -207.5q0 -109 -41.5 -205t-113 -168t-168 -114t-207.5 -42q-109 0 -206 39.5t-169 111t-114 167.5t-42 211zM224 1376q0 61 43 105t105 44q63 0 107 -44t44 -105t-44 -104.5 t-107 -43.5q-61 0 -104.5 43.5t-43.5 104.5zM337 531q0 -51 20 -95.5t54 -79t78 -54.5t94 -20t95 20t78 54.5t52.5 79t19.5 95.5q-4 100 -72 170t-173 75q-50 0 -94 -19t-78 -51.5t-54 -77.5t-20 -97zM648 1376q0 61 43 105t104 44q63 0 107 -44t44 -105t-44 -104.5 t-107 -43.5q-61 0 -104 43.5t-43 104.5z" />
<glyph unicode="&#xfa;" horiz-adv-x="1152" d="M63 515v403q0 57 41.5 99.5t102.5 45.5q56 0 100 -43t44 -104v-385q0 -51 20 -95.5t52.5 -78t77.5 -53t95 -19.5q48 0 92 17.5t78 48t53.5 74.5t19.5 94v399q0 55 41.5 98.5t101.5 46.5q59 0 102 -43t45 -96v-393q0 -109 -42 -206t-114 -169.5t-168.5 -114t-208.5 -41.5 q-105 -4 -201 36.5t-170 111.5t-118 166.5t-44 200.5zM366 1293q-15 59 14 111t91 69l265 70q54 15 108 -15t69 -88q15 -64 -14 -116t-88 -68l-264 -72q-58 -15 -111.5 16.5t-69.5 92.5z" />
<glyph unicode="&#xfc;" horiz-adv-x="1152" d="M63 515v403q0 57 41.5 99.5t102.5 45.5q56 0 100 -43t44 -104v-385q0 -51 20 -95.5t52.5 -78t77.5 -53t95 -19.5q48 0 92 17.5t78 48t53.5 74.5t19.5 94v399q0 55 41.5 98.5t101.5 46.5q59 0 102 -43t45 -96v-393q0 -109 -42 -206t-114 -169.5t-168.5 -114t-208.5 -41.5 q-105 -4 -201 36.5t-170 111.5t-118 166.5t-44 200.5zM238 1374q0 61 43 105t105 44q63 0 107 -44t44 -105t-44 -104.5t-107 -43.5q-61 0 -104.5 43.5t-43.5 104.5zM662 1374q0 61 43 105t104 44q63 0 107 -44t44 -105t-44 -104.5t-107 -43.5q-61 0 -104 43.5t-43 104.5z " />
<glyph unicode="&#x2c6;" horiz-adv-x="968" d="M52.5 1348.5q10.5 60.5 52.5 102.5l263 263q44 44 104.5 42.5t108.5 -42.5l285 -263q44 -44 53.5 -105.5t-34.5 -105.5q-42 -42 -103 -43t-105 43l-204 182l-182 -182q-42 -42 -102 -42t-103 44q-44 46 -33.5 106.5z" />
<glyph unicode="&#x2dc;" horiz-adv-x="1125" d="M72.5 1308.5q-17.5 58.5 19.5 124.5q40 67 91 107t121 56t148.5 1.5t128.5 -43.5l107 -59q35 -25 55 -19.5t48 40.5q29 48 80 70t108 -10q55 -31 73.5 -90.5t-19.5 -124.5q-40 -67 -92 -108t-122 -56.5t-151 1t-122 42.5l-109 59q-34 21 -60 12t-42 -36 q-31 -46 -82.5 -67.5t-108.5 11.5q-54 31 -71.5 89.5z" />
<glyph unicode="&#x2000;" horiz-adv-x="949" />
<glyph unicode="&#x2001;" horiz-adv-x="1899" />
<glyph unicode="&#x2002;" horiz-adv-x="949" />
<glyph unicode="&#x2003;" horiz-adv-x="1899" />
<glyph unicode="&#x2004;" horiz-adv-x="633" />
<glyph unicode="&#x2005;" horiz-adv-x="474" />
<glyph unicode="&#x2006;" horiz-adv-x="316" />
<glyph unicode="&#x2007;" horiz-adv-x="316" />
<glyph unicode="&#x2008;" horiz-adv-x="237" />
<glyph unicode="&#x2009;" horiz-adv-x="379" />
<glyph unicode="&#x200a;" horiz-adv-x="105" />
<glyph unicode="&#x2010;" horiz-adv-x="987" d="M67 659q0 63 42 106.5t106 43.5h559q61 0 103.5 -43.5t42.5 -106.5q0 -61 -42.5 -105t-103.5 -44h-559q-63 0 -105.5 44t-42.5 105z" />
<glyph unicode="&#x2011;" horiz-adv-x="987" d="M67 659q0 63 42 106.5t106 43.5h559q61 0 103.5 -43.5t42.5 -106.5q0 -61 -42.5 -105t-103.5 -44h-559q-63 0 -105.5 44t-42.5 105z" />
<glyph unicode="&#x2012;" horiz-adv-x="987" d="M67 659q0 63 42 106.5t106 43.5h559q61 0 103.5 -43.5t42.5 -106.5q0 -61 -42.5 -105t-103.5 -44h-559q-63 0 -105.5 44t-42.5 105z" />
<glyph unicode="&#x2013;" horiz-adv-x="987" d="M67 659q0 63 42 106.5t106 43.5h559q61 0 103.5 -43.5t42.5 -106.5q0 -61 -42.5 -105t-103.5 -44h-559q-63 0 -105.5 44t-42.5 105z" />
<glyph unicode="&#x2014;" horiz-adv-x="1167" d="M71 659q0 63 41 106.5t105 43.5h734q61 0 104 -43.5t43 -106.5q0 -61 -43 -105t-104 -44h-734q-63 0 -104.5 44t-41.5 105z" />
<glyph unicode="&#x2018;" horiz-adv-x="518" d="M48.5 976.5q-15.5 58.5 14.5 112.5l138 237q29 50 88.5 66.5t111.5 -14.5q55 -33 71.5 -92t-14.5 -111l-136 -237q-31 -52 -91 -67.5t-114 16.5q-53 31 -68.5 89.5z" />
<glyph unicode="&#x2019;" horiz-adv-x="518" d="M48.5 981q-15.5 58 14.5 113l138 236q29 50 88.5 66.5t111.5 -14.5q55 -33 71.5 -91.5t-14.5 -111.5l-136 -236q-31 -53 -91 -68.5t-114 17.5q-53 31 -68.5 89z" />
<glyph unicode="&#x201a;" horiz-adv-x="521" d="M48 -194.5q-15 56.5 15 111.5l138 234q33 52 92.5 68.5t109.5 -16.5q57 -33 71.5 -93t-14.5 -110l-138 -236q-33 -53 -92 -67.5t-117 18.5q-50 34 -65 90.5z" />
<glyph unicode="&#x201c;" horiz-adv-x="974" d="M65.5 976.5q-15.5 58.5 15.5 112.5l138 237q29 50 88 66.5t111 -14.5q55 -33 71.5 -92t-14.5 -111l-136 -237q-31 -52 -91 -67.5t-114 16.5q-53 31 -68.5 89.5zM484.5 976.5q-15.5 58.5 15.5 112.5l138 237q29 50 87.5 66.5t111.5 -14.5q54 -33 70.5 -92t-12.5 -111 l-136 -237q-31 -52 -91.5 -67.5t-115.5 16.5q-52 31 -67.5 89.5z" />
<glyph unicode="&#x201d;" horiz-adv-x="974" d="M65.5 976.5q-15.5 58.5 15.5 112.5l138 237q29 50 88 66.5t111 -14.5q55 -33 71.5 -92t-14.5 -111l-136 -237q-31 -52 -91 -67.5t-114 16.5q-53 31 -68.5 89.5zM484.5 976.5q-15.5 58.5 15.5 112.5l138 237q29 50 87.5 66.5t111.5 -14.5q54 -33 70.5 -92t-12.5 -111 l-136 -237q-31 -52 -91.5 -67.5t-115.5 16.5q-52 31 -67.5 89.5z" />
<glyph unicode="&#x201e;" horiz-adv-x="974" d="M65.5 -198q-15.5 58 15.5 112l138 237q29 50 88 66.5t111 -14.5q55 -33 71.5 -92t-14.5 -111l-136 -236q-31 -53 -91 -68.5t-114 17.5q-53 31 -68.5 89zM484.5 -198q-15.5 58 15.5 112l138 237q29 50 87.5 66.5t111.5 -14.5q54 -33 70.5 -92t-12.5 -111l-136 -236 q-31 -53 -91.5 -68.5t-115.5 17.5q-52 31 -67.5 89z" />
<glyph unicode="&#x2026;" horiz-adv-x="1152" d="M71 149q0 61 42 105.5t104 44.5q63 0 107 -44.5t44 -105.5t-44 -105t-107 -44q-61 0 -103.5 44t-42.5 105zM427 149q0 61 43 105.5t105 44.5q63 0 106.5 -44.5t43.5 -105.5t-43.5 -105t-106.5 -44q-61 0 -104.5 44t-43.5 105zM784 149q0 61 43 105.5t104 44.5 q63 0 107.5 -44.5t44.5 -105.5t-44 -105t-108 -44q-61 0 -104 44t-43 105z" />
<glyph unicode="&#x202f;" horiz-adv-x="379" />
<glyph unicode="&#x2039;" horiz-adv-x="753" d="M16 518.5q1 60.5 43 108.5l372 394q44 44 105.5 43t105.5 -45q42 -42 43 -103t-43 -105l-270 -292l270 -270q42 -41 42 -101t-44 -104q-46 -44 -106.5 -44t-102.5 42l-372 372q-44 44 -43 104.5z" />
<glyph unicode="&#x203a;" horiz-adv-x="755" d="M69 916q2 61 42 103q44 44 105.5 45t105.5 -43l372 -394q42 -48 43 -108.5t-43 -104.5l-372 -372q-42 -42 -102 -42t-107 44q-43 44 -42.5 104.5t40.5 100.5l270 270l-270 292q-44 44 -42 105z" />
<glyph unicode="&#x205f;" horiz-adv-x="474" />
<glyph unicode="&#x20ac;" horiz-adv-x="1184" d="M42 500q0 59 41 100q40 42 97 44v84q-57 2 -97 41q-41 44 -41 103t41.5 98.5t102.5 39.5q15 40 31 79q40 90 108 159t157.5 109.5t192.5 40.5q132 0 248 -66.5t183 -185.5q9 -15 17 -37t8 -42q0 -61 -44 -105t-105 -44q-48 0 -79 25t-54 63q-27 44 -72 70t-102 26 q-42 0 -78 -15.5t-64 -43.5q-15 -15 -27 -33h25q59 0 100.5 -39.5t41.5 -98.5t-41.5 -101.5t-100.5 -42.5h-58v-84h58q59 0 100.5 -42.5t41.5 -101.5t-41.5 -98.5t-100.5 -39.5h-5l7 -9q29 -27 64.5 -42.5t77.5 -15.5q57 0 101 27t73 71q24 37 50.5 60.5t84.5 23.5 q59 0 103 -42t44 -107q0 -21 -8 -40.5t-19 -42.5q-63 -111 -179 -178t-250 -67q-96 0 -186 38.5t-159 105.5t-111 157q-12 31 -22 61h-11q-61 0 -102.5 39.5t-41.5 98.5z" />
<glyph unicode="&#x2122;" horiz-adv-x="1827" d="M59 1251q0 61 42.5 105.5t105.5 44.5h347q63 0 106 -44t43 -106q0 -63 -42.5 -105t-106.5 -42h-25v-297q0 -63 -42 -106.5t-106 -43.5q-63 0 -105 43t-42 107v297h-27q-61 0 -104.5 42t-43.5 105zM719 793v237q0 86 23 156t83 120.5t119.5 65.5t107.5 15q39 0 80 -8.5 t106 -39.5q63 28 103.5 38t82.5 10q25 0 93 -13t126.5 -63.5t86 -118t27.5 -162.5v-237q0 -63 -43.5 -106t-103.5 -43q-63 0 -105.5 43t-42.5 106v198q0 42 -10 62.5t-28 20.5q-17 0 -28 -20.5t-11 -62.5v-198q0 -63 -43 -106t-104 -43t-104 43t-43 106v198q0 42 -10 62.5 t-29 20.5q-17 0 -27.5 -20.5t-10.5 -62.5v-198q0 -63 -42.5 -106t-105.5 -43q-61 0 -104 43t-43 106z" />
<glyph unicode="&#xe000;" horiz-adv-x="1062" d="M0 0v1063h1063v-1063h-1063z" />
</font>
</defs>
</svg>
